<?xml version="1.0" encoding="utf-8"?>

<!-- Uploaded to: SVG Repo, www.svgrepo.com, Generator: SVG Repo Mixer Tools -->
<svg version="1.1" id="Icons" xmlns="http://www.w3.org/2000/svg" xmlns:xlink="http://www.w3.org/1999/xlink" 
	 viewBox="0 0 32 32" xml:space="preserve">
<style type="text/css">
	.st0{fill:none;stroke:#065A60;stroke-width:2;stroke-linecap:round;stroke-linejoin:round;stroke-miterlimit:10;}
	.st1{fill:none;stroke:#065A60;stroke-width:2;stroke-linecap:round;stroke-linejoin:round;}
	.st2{fill:none;stroke:#065A60;stroke-width:2;stroke-linecap:round;stroke-linejoin:round;stroke-dasharray:5.2066,0;}
</style>
<line class="st0" x1="16" y1="2" x2="16" y2="8"/>
<line class="st0" x1="2" y1="16" x2="8" y2="16"/>
<line class="st0" x1="16" y1="30" x2="16" y2="24"/>
<line class="st0" x1="30" y1="16" x2="24" y2="16"/>
<circle class="st0" cx="16" cy="16" r="11"/>
<path class="st0" d="M17.3,16.6c0,1,0.6,1.8,1.6,2.1c1.1,0.3,1.9,1.2,2.2,2.3l-10,0c0.2-1.1,1.1-2,2.1-2.3c0.9-0.3,1.6-1.1,1.6-2.1
	v0"/>
<path class="st0" d="M16,17L16,17c-1.1,0-2-0.9-2-2v-2c0-1.1,0.9-2,2-2h0c1.1,0,2,0.9,2,2v2C18,16.1,17.1,17,16,17z"/>
</svg>