<?xml version="1.0" encoding="utf-8"?>

<!-- Uploaded to: SVG Repo, www.svgrepo.com, Generator: SVG Repo Mixer Tools -->
<svg version="1.1" id="Icons" xmlns="http://www.w3.org/2000/svg" xmlns:xlink="http://www.w3.org/1999/xlink" 
	 viewBox="0 0 32 32" xml:space="preserve">
<style type="text/css">
	.st0{fill:none;stroke:#065A60;stroke-width:2;stroke-linecap:round;stroke-linejoin:round;stroke-miterlimit:10;}
	.st1{fill:none;stroke:#065A60;stroke-width:2;stroke-linejoin:round;stroke-miterlimit:10;}
</style>
<path class="st0" d="M30.6,12.5c-1.8,0.2-3.6-0.6-4.6-2.3c-1-1.7-0.8-3.7,0.3-5.1c-1.7-1.6-3.8-2.8-6.1-3.5
	c-0.7,1.7-2.3,2.8-4.3,2.8s-3.6-1.2-4.3-2.8C9.4,2.3,7.4,3.5,5.7,5.1C6.8,6.6,7,8.6,6,10.2c-1,1.7-2.8,2.5-4.6,2.3
	C1.2,13.6,1,14.8,1,16c0,1.2,0.2,2.4,0.4,3.5C3.2,19.3,5,20.1,6,21.8c1,1.7,0.8,3.7-0.3,5.1c1.7,1.6,3.8,2.8,6.1,3.5
	c0.7-1.7,2.3-2.8,4.3-2.8s3.6,1.2,4.3,2.8c2.3-0.7,4.4-1.9,6.1-3.5c-1.1-1.4-1.3-3.4-0.3-5.1c1-1.7,2.8-2.5,4.6-2.3
	c0.3-1.1,0.4-2.3,0.4-3.5C31,14.8,30.8,13.6,30.6,12.5z"/>
<path class="st0" d="M20.9,12c-1.8,0-3.5-0.7-4.9-2c-1.3,1.2-3,2-4.9,2c-0.7,0-1.5-0.1-2.1-0.4c0,7.5,3,10.6,7,12.4
	c4-1.8,7-4.8,7-12.4C22.3,11.8,21.6,12,20.9,12z"/>
</svg>