<?xml version="1.0" standalone="no"?>
<!DOCTYPE svg PUBLIC "-//W3C//DTD SVG 20010904//EN"
 "http://www.w3.org/TR/2001/REC-SVG-20010904/DTD/svg10.dtd">
<svg version="1.0" xmlns="http://www.w3.org/2000/svg"
 width="750.000000pt" height="423.000000pt" viewBox="0 0 750.000000 423.000000"
 preserveAspectRatio="xMidYMid meet">

<g transform="translate(0.000000,423.000000) scale(0.100000,-0.100000)"
fill="#000000" stroke="none">
<path d="M0 2115 l0 -2115 3750 0 3750 0 0 2115 0 2115 -3750 0 -3750 0 0
-2115z m4455 766 c77 -18 80 -21 65 -75 -10 -35 -17 -45 -29 -42 -110 34 -268
40 -318 13 -40 -21 -53 -44 -53 -92 0 -52 43 -89 134 -116 137 -40 163 -50
202 -75 68 -44 89 -85 89 -175 0 -70 -3 -81 -30 -120 -59 -84 -176 -118 -343
-99 -52 6 -115 15 -139 22 l-45 11 6 45 c3 25 8 47 9 49 2 1 38 -4 81 -12 102
-20 238 -20 276 0 42 22 70 63 70 103 0 55 -47 92 -161 126 -115 35 -174 64
-216 108 -41 42 -53 76 -53 144 0 99 51 160 160 191 51 15 216 11 295 -6z
m699 -2 c56 -19 129 -89 155 -149 32 -75 46 -205 32 -314 -20 -156 -78 -240
-189 -272 -29 -9 -50 -19 -47 -24 10 -17 79 -30 153 -30 l72 0 0 -51 0 -52
-97 5 c-108 5 -171 26 -228 76 -22 20 -48 31 -82 36 -97 12 -186 94 -219 200
-9 28 -18 101 -21 161 -11 240 59 378 214 421 56 16 198 12 257 -7z m-1753
-13 c68 -25 114 -69 151 -144 33 -66 33 -67 33 -217 0 -186 -14 -234 -91 -312
-73 -73 -112 -83 -336 -83 l-178 0 0 383 c0 211 3 387 8 391 4 5 88 6 187 3
132 -3 192 -9 226 -21z m449 -366 l0 -390 -55 0 -55 0 0 390 0 390 55 0 55 0
0 -390z m1760 90 c4 -257 7 -299 23 -327 23 -43 67 -65 142 -70 79 -6 141 24
170 82 18 37 20 64 23 328 l3 287 55 0 55 0 -3 -307 -3 -308 -30 -54 c-38 -69
-93 -105 -183 -121 -166 -29 -315 37 -353 156 -13 41 -26 591 -15 620 4 11 19
14 58 12 l53 -3 5 -295z m1140 245 l0 -55 -190 0 -190 0 0 -110 0 -110 165 0
165 0 0 -50 0 -50 -165 0 -165 0 0 -125 0 -125 195 0 195 0 0 -50 0 -50 -255
0 -255 0 0 383 c0 211 3 387 7 390 3 4 116 7 250 7 l243 0 0 -55z m-4981 -141
c39 -33 50 -83 27 -130 -9 -19 -23 -37 -31 -40 -33 -13 -10 -21 95 -33 132
-14 149 -20 183 -61 52 -61 29 -163 -43 -198 l-36 -17 45 -15 c113 -37 124
-193 18 -243 -19 -9 -43 -17 -54 -17 -14 -1 -12 -4 9 -16 73 -39 77 -167 6
-201 -44 -21 -57 -22 -190 -7 -161 18 -161 18 -193 55 -39 47 -35 111 9 155
29 29 42 34 82 35 l49 2 -43 6 c-48 8 -91 36 -109 72 -32 62 -1 160 57 182
l30 11 -42 16 c-62 23 -91 70 -86 138 3 37 11 60 29 78 l24 26 -100 -6 c-55
-4 -117 -9 -137 -12 l-38 -6 0 -469 c0 -258 -3 -469 -7 -469 -5 0 -50 11 -101
25 -119 32 -225 76 -302 126 -33 21 -72 39 -85 39 -23 0 -25 -4 -25 -45 l0
-45 -50 0 -50 0 0 420 0 420 50 0 50 0 0 -40 c0 -37 2 -40 28 -40 45 1 108 35
159 88 71 72 147 129 238 175 77 39 86 42 220 53 242 19 279 18 314 -12z
m3044 -624 c-20 -27 -45 -50 -54 -50 -16 0 -15 5 4 50 19 46 24 50 54 50 l33
0 -37 -50z m1711 -104 c-3 -13 1 -37 10 -54 15 -28 14 -35 -19 -133 -18 -57
-37 -112 -40 -121 -6 -16 1 -18 79 -18 47 0 86 1 86 3 0 2 -16 50 -35 107 -19
57 -35 109 -35 116 0 6 15 11 38 10 l37 -1 72 -210 c39 -115 72 -216 72 -222
1 -9 -14 -13 -42 -13 l-43 0 -23 70 -22 70 -103 0 -103 0 -25 -67 -25 -68 -41
-3 c-23 -2 -42 0 -42 3 0 7 118 352 160 468 18 48 36 87 41 87 5 0 7 -11 3
-24z m-3512 -11 c18 -23 26 -25 101 -25 81 1 117 13 117 39 0 14 27 8 80 -18
25 -13 44 -34 65 -76 28 -55 30 -66 30 -169 0 -96 -3 -117 -24 -159 -45 -93
-103 -117 -282 -117 l-129 0 0 198 c0 192 8 352 18 352 2 0 13 -11 24 -25z
m598 17 c0 -5 9 -18 20 -30 l21 -22 -26 0 c-25 0 -25 -1 -25 -80 l0 -80 120 0
120 0 0 -40 0 -40 -120 0 -120 0 0 -90 0 -90 140 0 140 0 0 -35 0 -35 -180 0
-180 0 0 266 c0 175 3 263 10 259 6 -3 13 1 16 9 6 16 64 23 64 8z m418 -4 c7
-7 24 -12 40 -13 24 0 41 -21 152 -189 l125 -188 3 180 c2 173 3 180 24 185
14 4 19 11 15 21 -5 11 0 16 13 16 19 0 20 -8 20 -275 l0 -275 -39 0 -38 0
-134 202 -134 201 -3 -201 -2 -202 -35 0 -35 0 0 275 c0 151 4 275 8 275 4 0
13 -5 20 -12z m569 0 c-2 -7 3 -21 12 -32 13 -15 17 -52 21 -202 5 -183 5
-184 32 -210 35 -35 118 -45 167 -19 50 26 61 64 61 220 l0 136 35 -3 c46 -3
48 -12 43 -180 -4 -151 -15 -183 -76 -222 -45 -30 -106 -40 -177 -31 -69 8
-114 38 -142 95 -22 42 -23 56 -23 252 l0 208 26 0 c16 0 24 -5 21 -12z m1143
-27 c0 -5 7 -16 15 -25 13 -13 13 -19 -7 -52 -17 -29 -23 -58 -26 -126 -10
-202 54 -266 237 -235 47 8 88 13 89 11 2 -1 5 -18 5 -36 2 -32 1 -33 -53 -45
-71 -14 -165 -16 -213 -2 -50 14 -106 64 -129 117 -45 100 -30 293 28 369 23
31 54 44 54 24z m-220 -271 l0 -240 -40 0 -40 0 -131 197 -131 197 36 14 c28
11 39 12 51 2 7 -6 49 -65 92 -131 l78 -120 6 143 c4 79 7 149 8 157 1 8 8 11
20 8 10 -2 25 -1 32 4 8 5 15 9 17 9 1 0 2 -108 2 -240z m708 -3 l2 -237 -40
0 -40 0 0 234 0 235 23 4 c54 11 52 20 55 -236z m-1077 153 c18 0 19 -9 19
-195 l0 -195 -35 0 -35 0 0 201 c0 179 2 200 16 195 9 -3 24 -6 35 -6z m-4549
-87 c22 -20 24 -66 2 -87 -23 -24 -70 -20 -88 6 -21 30 -20 54 4 78 24 24 57
26 82 3z m1164 -27 c126 -16 147 -24 170 -68 22 -42 11 -90 -28 -123 -31 -26
-35 -27 -117 -20 -159 13 -193 22 -223 55 -41 44 -38 92 6 136 39 39 40 39
192 20z"/>
<path d="M4910 2778 c-56 -29 -76 -57 -96 -138 -20 -81 -15 -251 11 -322 45
-126 220 -170 324 -82 84 71 106 341 38 473 -44 87 -176 120 -277 69z"/>
<path d="M3100 2495 l0 -285 108 0 c82 0 116 5 148 19 86 39 118 122 112 295
-3 94 -7 119 -28 161 -39 79 -77 95 -222 95 l-118 0 0 -285z"/>
<path d="M1798 1953 c12 -2 30 -2 40 0 9 3 -1 5 -23 4 -22 0 -30 -2 -17 -4z"/>
<path d="M1893 1943 c9 -2 25 -2 35 0 9 3 1 5 -18 5 -19 0 -27 -2 -17 -5z"/>
<path d="M3050 1709 l0 -211 89 4 c103 4 133 19 166 84 28 57 28 203 -1 259
-29 57 -70 75 -171 75 l-83 0 0 -211z"/>
</g>
</svg>
