<?xml version="1.0" standalone="no"?>
<!DOCTYPE svg PUBLIC "-//W3C//DTD SVG 20010904//EN"
 "http://www.w3.org/TR/2001/REC-SVG-20010904/DTD/svg10.dtd">
<svg version="1.0" xmlns="http://www.w3.org/2000/svg"
 width="1024.000000pt" height="623.000000pt" viewBox="0 0 1024.000000 623.000000"
 preserveAspectRatio="xMidYMid meet">

<g transform="translate(0.000000,623.000000) scale(0.100000,-0.100000)"
fill="#000000" stroke="none">
<path d="M0 3115 l0 -3115 5120 0 5120 0 0 3115 0 3115 -5120 0 -5120 0 0
-3115z m834 2015 c56 -5 151 -12 211 -16 61 -3 117 -10 126 -15 27 -14 31
-102 14 -270 -22 -215 -26 -219 -216 -221 -169 -1 -300 39 -315 97 -10 39 22
413 37 431 7 8 19 12 28 9 8 -3 60 -10 115 -15z m19 13 c-13 -2 -35 -2 -50 0
-16 2 -5 4 22 4 28 0 40 -2 28 -4z m744 -56 c6 -7 -148 -16 -227 -14 l-65 2
-17 -200 c-19 -227 -17 -236 49 -255 78 -21 180 -32 275 -28 139 5 133 -4 148
235 7 106 10 199 7 207 -4 10 -37 16 -122 21 -64 4 -115 9 -113 10 2 1 48 5
103 8 67 3 85 2 55 -3 -41 -8 -40 -8 22 -6 37 1 65 0 63 -3 -3 -2 4 -10 15
-18 25 -18 25 -44 4 -228 -24 -199 -28 -211 -72 -234 -31 -16 -57 -18 -172
-17 -149 2 -218 18 -263 60 -23 21 -27 33 -27 78 1 98 29 369 40 383 8 10 44
12 151 10 78 -2 143 -6 146 -8z m512 -43 c2 -2 -22 -5 -55 -6 l-59 -1 65 -7
65 -7 -65 1 c-38 1 -64 5 -62 11 2 6 -7 13 -20 16 -13 4 11 4 52 1 41 -2 77
-6 79 -8z m-159 -14 c-41 -6 -40 -4 -61 -238 -7 -84 -17 -156 -22 -159 -5 -3
-7 7 -3 23 3 16 10 99 16 184 6 85 15 166 21 180 9 23 14 25 47 21 l37 -5 -35
-6z m-571 -27 c-2 -43 -14 -89 -20 -78 -9 15 2 105 12 105 5 0 8 -12 8 -27z
m964 20 c-7 -2 -19 -2 -25 0 -7 3 -2 5 12 5 14 0 19 -2 13 -5z m-110 -10 c-18
-2 -48 -2 -65 0 -18 2 -4 4 32 4 36 0 50 -2 33 -4z m156 -13 c29 -15 33 -66
16 -225 -21 -194 -30 -225 -75 -247 -46 -23 -218 -25 -279 -3 -23 8 -45 14
-49 13 -19 -5 -114 36 -123 54 -10 19 -10 19 18 -1 41 -31 152 -51 280 -51
124 0 159 9 172 43 12 30 35 396 27 405 -4 4 -31 9 -59 13 l-52 6 53 2 c29 0
61 -3 71 -9z m186 1 c-34 -6 -27 -8 50 -15 125 -10 131 -17 9 -10 -70 4 -104
2 -109 -6 -8 -12 -34 -299 -35 -372 0 -39 4 -50 24 -63 60 -40 339 -61 410
-31 27 11 34 21 39 52 12 75 29 375 23 382 -4 4 -31 9 -59 13 l-52 6 51 2 c38
1 58 -4 75 -19 13 -10 20 -19 15 -20 -5 0 -3 -6 3 -14 8 -10 8 -31 0 -82 -6
-38 -14 -118 -18 -179 -4 -60 -13 -121 -20 -133 -20 -37 -70 -52 -176 -52
-161 0 -315 42 -330 91 -7 21 9 248 26 369 10 74 25 91 78 89 l36 -2 -40 -6z
m-900 -11 c-11 -5 -14 -9 -7 -9 6 -1 12 -6 12 -13 0 -6 -3 -8 -7 -5 -3 4 -12
-1 -19 -11 -12 -16 -13 -16 -14 0 0 30 12 48 34 47 20 0 20 -1 1 -9z m45 -20
c0 -16 -4 -30 -8 -30 -6 0 -9 47 -3 58 5 10 11 -3 11 -28z m983 23 c-13 -2
-33 -2 -45 0 -13 2 -3 4 22 4 25 0 35 -2 23 -4z m240 -20 c-13 -2 -33 -2 -45
0 -13 2 -3 4 22 4 25 0 35 -2 23 -4z m-933 -23 c0 -25 -20 -27 -21 -2 -1 16
-2 16 -6 0 -6 -24 -23 -23 -23 2 0 15 7 20 25 20 18 0 25 -5 25 -20z m813 13
c-13 -2 -33 -2 -45 0 -13 2 -3 4 22 4 25 0 35 -2 23 -4z m-555 -34 c14 0 14
-2 2 -6 -8 -3 -18 -11 -22 -17 -4 -6 -7 5 -7 24 1 19 3 27 6 18 2 -10 12 -18
21 -19z m1022 21 l65 -7 -64 -1 c-97 -3 -70 -9 59 -14 66 -3 94 -2 65 2 -30 4
-7 6 60 3 135 -5 140 -7 155 -43 10 -23 9 -63 -5 -197 -22 -228 -22 -227 -49
-252 -71 -66 -430 -32 -481 46 -17 25 -17 37 -2 226 19 233 24 248 90 246 23
-1 71 -5 107 -9z m-970 -20 c0 -11 -6 -20 -12 -20 -9 0 -8 -4 2 -10 12 -8 11
-10 -7 -10 -26 0 -31 18 -8 26 8 4 15 10 15 16 0 5 -4 6 -10 3 -5 -3 -18 -1
-27 4 -15 9 -13 10 15 11 25 0 32 -4 32 -20z m308 -52 c2 -47 -7 -68 -27 -68
-27 0 -38 20 -36 63 3 67 61 71 63 5z m1277 22 l60 -7 -60 -3 c-54 -3 -48 -4
55 -15 145 -15 94 -18 -75 -5 -71 6 -132 7 -136 3 -4 -4 -15 -99 -25 -211 -14
-174 -15 -206 -3 -217 28 -28 132 -48 276 -52 142 -5 142 -5 167 20 17 17 26
37 26 59 0 18 7 105 15 193 8 94 10 164 5 169 -5 5 -37 12 -72 16 -61 7 -62 7
-13 8 94 0 99 -4 107 -88 5 -44 3 -98 -3 -134 -6 -34 -14 -95 -18 -136 -12
-130 -29 -142 -196 -142 -177 0 -306 39 -321 97 -11 44 23 404 41 431 17 26
50 29 170 14z m-967 -32 c3 -23 -1 -28 -17 -28 -12 0 -21 4 -21 10 0 5 6 7 14
4 11 -4 13 0 9 15 -4 15 -13 21 -32 21 -18 0 -22 -3 -13 -9 11 -7 11 -9 -2
-14 -11 -5 -16 0 -16 14 0 17 5 20 38 17 32 -3 37 -7 40 -30z m1120 15 c-15
-2 -42 -2 -60 0 -18 2 -6 4 27 4 33 0 48 -2 33 -4z m125 -10 c-13 -2 -33 -2
-45 0 -13 2 -3 4 22 4 25 0 35 -2 23 -4z m227 -23 l-55 -6 50 -5 50 -5 -50 -2
-51 -2 -16 -198 c-10 -109 -15 -208 -12 -220 12 -43 165 -76 331 -71 144 5
137 -5 158 242 9 110 14 202 10 205 -3 4 -30 9 -58 13 l-52 6 43 2 c58 1 82
-13 82 -49 0 -17 4 -30 10 -30 12 0 1 -92 -12 -101 -6 -3 -9 -24 -8 -45 2 -22
-1 -47 -5 -57 -4 -10 -2 -24 6 -34 9 -10 10 -18 4 -20 -6 -2 -9 -19 -7 -38 4
-38 -26 -98 -58 -115 -24 -13 -220 -13 -296 0 -85 15 -147 46 -162 80 -22 49
10 412 40 447 6 8 30 12 62 11 l51 -1 -55 -7z m133 -7 c-13 -2 -33 -2 -45 0
-13 2 -3 4 22 4 25 0 35 -2 23 -4z m-673 -28 c0 -6 -5 -16 -11 -22 -8 -8 -8
-13 0 -17 6 -4 11 -15 11 -25 0 -15 -8 -18 -40 -17 -28 0 -39 4 -35 13 3 7 8
20 11 28 3 8 1 15 -5 15 -6 0 -11 9 -11 19 0 17 6 20 40 18 22 -1 40 -6 40
-12z m668 8 c-16 -2 -40 -2 -55 0 -16 2 -3 4 27 4 30 0 43 -2 28 -4z m250 0
c-10 -2 -28 -2 -40 0 -13 2 -5 4 17 4 22 1 32 -1 23 -4z m47 -11 c-3 -3 -11 0
-18 7 -9 10 -8 11 6 5 10 -3 15 -9 12 -12z m-172 1 c-13 -2 -33 -2 -45 0 -13
2 -3 4 22 4 25 0 35 -2 23 -4z m-556 -17 c-3 -8 -1 -17 6 -20 7 -2 5 -5 -5 -5
-9 -1 -19 -7 -21 -13 -3 -7 -6 2 -6 20 -1 23 3 32 15 32 10 0 14 -6 11 -14z
m960 -1 c-5 -11 6 -15 46 -18 29 -2 8 -2 -45 0 l-97 5 -5 -34 c-9 -54 -26
-284 -26 -343 0 -46 4 -57 23 -69 81 -52 389 -69 434 -23 10 10 19 66 29 188
18 222 18 236 -1 242 -11 4 -10 4 2 3 14 -1 19 -12 21 -46 3 -33 6 -40 13 -30
8 11 9 2 4 -30 -3 -24 -10 -49 -14 -55 -5 -5 -12 -59 -16 -120 -12 -204 -19
-210 -229 -202 -143 5 -220 21 -258 55 -22 18 -41 82 -29 96 4 6 9 64 10 128
1 65 6 139 12 165 5 27 11 57 13 68 2 16 10 19 57 18 l54 -1 -45 8 -45 7 49 1
c38 2 47 -1 43 -13z m-3695 -47 c-6 -69 -22 -87 -22 -25 0 38 -3 47 -17 47
-16 1 -16 2 1 15 35 27 43 19 38 -37z m2783 43 c-3 -5 -1 -12 4 -16 14 -8 2
-35 -15 -35 -20 0 -17 20 4 21 16 1 16 2 0 6 -22 6 -24 33 -2 33 8 0 13 -4 9
-9z m993 2 c-10 -2 -28 -2 -40 0 -13 2 -5 4 17 4 22 1 32 -1 23 -4z m1135 0
c-7 -2 -21 -2 -30 0 -10 3 -4 5 12 5 17 0 24 -2 18 -5z m-1825 -41 c2 -12 8
-22 14 -22 5 0 8 -6 5 -14 -3 -7 0 -19 6 -25 12 -12 7 -14 -43 -11 -40 2 -52
15 -40 44 5 12 11 29 14 39 8 25 40 17 44 -11z m925 21 c-7 -2 -21 -2 -30 0
-10 3 -4 5 12 5 17 0 24 -2 18 -5z m-120 -10 c-13 -2 -33 -2 -45 0 -13 2 -3 4
22 4 25 0 35 -2 23 -4z m-3272 -13 c28 -16 23 -45 -13 -74 -30 -23 -31 -26
-11 -26 12 0 25 -4 28 -10 4 -6 -10 -10 -34 -10 -52 0 -53 15 -4 57 32 26 36
34 25 45 -11 11 -16 10 -26 -4 -16 -22 -26 -23 -26 -3 0 7 8 19 18 24 21 13
20 13 43 1z m2732 3 c-18 -7 -16 -23 2 -23 8 0 15 5 15 10 0 16 27 11 34 -6
10 -26 7 -34 -14 -34 -11 0 -20 5 -20 10 0 14 -37 12 -43 -2 -4 -8 -6 -7 -6 4
-2 28 10 48 28 47 10 0 11 -2 4 -6z m660 0 c-13 -2 -35 -2 -50 0 -16 2 -5 4
22 4 28 0 40 -2 28 -4z m342 -3 c49 -7 40 -8 -45 -5 -121 4 -115 -1 15 -15
l90 -9 -97 4 c-53 3 -100 0 -103 -5 -3 -5 -13 -95 -22 -199 -20 -227 -18 -232
59 -257 71 -22 332 -31 367 -12 33 17 37 37 52 248 11 157 11 183 -2 192 -11
8 -11 9 4 4 9 -3 17 -1 17 4 0 6 -21 8 -52 5 -29 -3 -89 -1 -133 4 l-80 10
115 -4 c109 -3 111 -3 40 5 -114 14 -124 19 -30 14 115 -7 138 -12 151 -36 8
-15 8 -19 0 -14 -7 4 -11 -1 -11 -13 0 -10 5 -21 11 -23 8 -3 9 -28 4 -82 -4
-43 -11 -73 -15 -66 -10 16 -22 -132 -14 -165 11 -43 -22 -102 -64 -116 -56
-18 -273 -6 -355 20 -98 32 -97 29 -87 261 8 192 13 230 31 230 5 0 8 3 8 8
-1 4 -1 10 0 15 1 9 66 8 146 -3z m1152 -6 c-3 -3 -12 -4 -19 -1 -8 3 -5 6 6
6 11 1 17 -2 13 -5z m90 -10 c-3 -3 -12 -4 -19 -1 -8 3 -5 6 6 6 11 1 17 -2
13 -5z m-1918 -49 c-25 -36 -39 -44 -39 -23 0 14 51 70 58 63 3 -2 -6 -20 -19
-40z m1351 7 c3 -2 -44 -2 -105 1 -168 9 -114 0 129 -23 257 -23 257 -23 236
-10 -10 7 -11 10 -2 10 23 0 33 -51 26 -137 -4 -52 -10 -79 -15 -71 -6 8 -9
-6 -10 -37 -2 -33 -4 -40 -6 -19 -2 16 0 73 6 125 5 52 6 97 2 101 -3 4 -87
14 -186 23 -99 8 -199 17 -222 19 -24 2 -46 -1 -51 -8 -5 -6 -12 -45 -16 -86
-25 -291 -26 -311 -16 -330 21 -39 213 -75 346 -64 108 9 117 17 123 107 4 67
5 69 12 32 11 -58 11 -97 -1 -90 -6 3 -10 -4 -10 -17 0 -16 -11 -30 -32 -43
-62 -36 -298 -21 -419 26 -46 18 -52 44 -45 196 10 217 17 284 29 276 6 -4 8
0 4 10 -3 9 -1 18 6 21 14 6 210 -4 217 -12z m-4102 -16 c3 -12 -5 -27 -19
-37 -20 -15 -21 -19 -6 -19 9 0 17 -4 17 -10 0 -5 -13 -10 -30 -10 -37 0 -40
23 -5 46 14 9 25 23 25 30 0 19 -19 18 -26 -1 -4 -8 -10 -13 -15 -10 -4 3 -5
12 -2 21 8 22 57 14 61 -10z m319 16 c12 -8 16 -69 6 -104 -6 -25 -59 -24 -73
1 -7 13 -7 22 0 26 6 3 13 -1 16 -9 3 -9 12 -16 19 -16 22 0 29 22 12 35 -21
15 -22 25 -2 25 8 0 15 4 15 9 0 17 -21 23 -36 10 -19 -16 -30 -4 -14 16 14
16 38 19 57 7z m2773 1 c0 -5 -10 -19 -21 -33 -17 -21 -19 -22 -10 -3 16 31
14 33 -21 33 -25 0 -29 -3 -18 -10 9 -6 10 -10 3 -10 -6 0 -14 -8 -16 -17 -3
-10 -5 -3 -6 15 -1 32 0 32 44 32 25 0 45 -3 45 -7z m1113 -10 c-7 -2 -19 -2
-25 0 -7 3 -2 5 12 5 14 0 19 -2 13 -5z m-827 -58 c-1 -62 -19 -70 -24 -11 -3
29 10 66 22 66 1 0 2 -25 2 -55z m932 48 c-16 -2 -40 -2 -55 0 -16 2 -3 4 27
4 30 0 43 -2 28 -4z m-3690 -76 c-3 -38 -6 -42 -31 -45 -27 -3 -48 21 -32 36
4 4 10 1 12 -5 5 -15 33 -17 33 -3 0 6 -4 10 -10 10 -5 0 -10 7 -10 15 0 8 5
15 11 15 5 0 7 5 4 10 -5 8 -11 7 -21 -1 -21 -17 -28 -4 -9 15 13 12 21 14 36
5 16 -8 19 -19 17 -52z m4107 43 l50 -8 -60 -2 -60 -3 60 -7 c42 -5 21 -7 -75
-6 l-135 1 -7 -80 c-3 -44 -11 -134 -17 -200 -13 -150 -11 -155 90 -178 41 -9
100 -19 132 -23 73 -8 200 4 223 21 16 11 21 44 35 217 10 111 14 206 11 210
-4 4 -47 11 -97 17 l-90 10 88 -4 c54 -3 85 0 82 5 -4 6 0 10 9 10 32 0 38
-61 22 -212 -8 -79 -17 -165 -20 -193 -3 -39 -10 -55 -34 -76 -50 -45 -188
-50 -351 -13 -127 29 -147 60 -131 209 5 50 10 119 10 155 0 68 14 135 33 158
11 14 107 10 232 -8z m-1025 -20 c0 -23 -4 -30 -20 -30 -15 0 -20 7 -20 25 0
17 -5 25 -17 25 -15 0 -16 -2 -3 -10 13 -8 13 -10 -2 -10 -9 0 -19 -6 -21 -12
-3 -7 -6 -4 -6 8 -1 29 7 34 51 34 36 0 38 -2 38 -30z m300 -45 c0 -22 -25
-64 -33 -55 -3 3 -2 29 1 59 4 49 6 52 18 36 8 -10 14 -28 14 -40z m888 48
c-15 -2 -42 -2 -60 0 -18 2 -6 4 27 4 33 0 48 -2 33 -4z m-3340 -23 c7 0 10
-4 7 -10 -3 -5 -15 -10 -25 -10 -17 0 -16 -3 6 -25 31 -31 28 -54 -9 -75 -27
-14 -29 -14 -48 9 -13 16 -16 28 -10 34 5 5 7 15 5 21 -3 7 0 25 6 40 8 23 15
27 33 22 12 -3 28 -6 35 -6z m3737 -7 c77 -7 78 -8 35 -14 -44 -7 -44 -7 12
-6 31 1 54 -2 51 -6 -2 -4 -63 -5 -134 -1 -105 6 -129 4 -133 -7 -9 -26 -37
-399 -31 -409 24 -39 205 -75 337 -67 131 8 129 6 147 152 l10 80 -4 -90 c-4
-109 -8 -119 -50 -145 -66 -41 -360 -18 -439 34 -14 9 -28 27 -32 40 -3 14 0
105 8 204 18 229 21 235 116 228 l67 -5 -55 9 c-71 13 -87 21 -30 15 25 -2 81
-8 125 -12z m-980 -23 c0 -16 -6 -26 -17 -28 -14 -3 -18 3 -18 22 0 18 -5 26
-17 25 -11 0 -13 -3 -5 -6 16 -6 15 -20 -3 -27 -11 -4 -15 1 -15 19 0 23 3 25
38 22 32 -2 37 -6 37 -27z m330 0 c4 -6 -10 -10 -34 -10 -23 0 -41 5 -41 10 0
6 15 10 34 10 19 0 38 -4 41 -10z m833 3 c-10 -2 -28 -2 -40 0 -13 2 -5 4 17
4 22 1 32 -1 23 -4z m85 -10 c-7 -2 -21 -2 -30 0 -10 3 -4 5 12 5 17 0 24 -2
18 -5z m-3396 -15 c12 -20 13 -92 1 -105 -13 -16 -50 -17 -66 -1 -17 17 -15
84 4 102 19 19 50 21 61 4z m3321 5 c-16 -2 -40 -2 -55 0 -16 2 -3 4 27 4 30
0 43 -2 28 -4z m97 -3 c-3 -5 -18 -9 -33 -9 l-27 1 30 8 c17 4 31 8 33 9 2 0
0 -3 -3 -9z m295 -6 c105 -8 105 -8 45 -15 -33 -4 -88 -7 -122 -8 -34 -1 -64
-5 -67 -10 -3 -4 -13 -97 -22 -205 -18 -223 -18 -223 54 -244 118 -35 354 -39
386 -6 17 16 23 61 36 249 14 206 17 191 -27 189 l-38 -3 35 8 c19 4 38 5 42
2 4 -4 8 -29 9 -56 4 -72 -21 -367 -33 -388 -19 -37 -75 -51 -198 -50 -94 1
-130 6 -197 28 -117 37 -116 35 -102 267 13 210 31 267 79 253 8 -2 62 -7 120
-11z m943 9 c-7 -2 -21 -2 -30 0 -10 3 -4 5 12 5 17 0 24 -2 18 -5z m-8220
-10 c-13 -2 -33 -2 -45 0 -13 2 -3 4 22 4 25 0 35 -2 23 -4z m6232 -3 c-11 -5
-14 -9 -7 -9 10 -1 10 -4 -2 -16 -20 -21 -24 -19 -18 10 3 18 11 25 26 24 20
0 20 -1 1 -9z m44 -22 c0 -31 -1 -31 -10 -10 -5 13 -7 28 -3 33 10 16 14 9 13
-23z m-6279 8 c91 -8 211 -18 267 -22 57 -3 110 -12 119 -18 18 -14 25 -85 12
-131 -4 -16 -13 -88 -18 -160 -13 -176 -15 -177 -178 -183 -65 -2 -157 1 -205
7 -96 13 -237 47 -250 60 -5 5 16 2 45 -5 164 -43 499 -57 533 -23 15 15 28
115 41 316 l7 112 -24 5 c-13 3 -145 15 -294 26 -148 11 -277 22 -285 24 -38
9 80 5 230 -8z m103 7 c-7 -2 -19 -2 -25 0 -7 3 -2 5 12 5 14 0 19 -2 13 -5z
m5937 -3 c0 -5 -15 -10 -34 -10 -19 0 -38 5 -41 10 -4 6 10 10 34 10 23 0 41
-4 41 -10z m293 -4 c7 -19 -17 -51 -31 -42 -13 8 -16 39 -5 49 11 12 31 8 36
-7z m-5988 -6 l50 -7 -55 -1 c-30 0 -82 4 -115 8 l-60 7 65 1 c36 0 88 -3 115
-8z m6282 -6 c3 -9 1 -24 -6 -33 -6 -9 -14 -24 -17 -33 -4 -10 -11 -18 -16
-18 -10 0 -1 39 13 55 16 16 10 27 -11 20 -11 -3 -20 -2 -20 3 0 26 47 31 57
6z m813 6 c-30 -5 -77 -8 -105 -7 l-50 0 55 7 c30 4 78 7 105 7 l50 0 -55 -7z
m-6705 -30 c37 -6 42 -8 20 -10 l-30 -2 30 -8 c17 -4 54 -8 84 -9 30 0 51 -4
48 -8 -4 -3 -88 0 -187 7 -99 7 -182 11 -184 9 -5 -5 -36 -320 -37 -379 -1
-25 -4 -35 -6 -22 -7 37 15 366 27 397 6 16 17 33 23 37 12 8 116 2 212 -12z
m6758 13 c-13 -2 -33 -2 -45 0 -13 2 -3 4 22 4 25 0 35 -2 23 -4z m-3313 -13
c0 -5 -11 -26 -25 -46 -14 -20 -25 -43 -25 -50 0 -8 -4 -14 -10 -14 -16 0 -11
33 10 68 19 31 19 32 0 32 -10 0 -22 5 -25 10 -4 6 10 10 34 10 23 0 41 -4 41
-10z m2677 3 c-9 -2 -15 -8 -12 -13 3 -5 1 -11 -5 -15 -5 -3 -10 3 -10 14 0
15 6 21 23 20 17 -1 18 -2 4 -6z m991 0 c-10 -2 -28 -2 -40 0 -13 2 -5 4 17 4
22 1 32 -1 23 -4z m-948 -28 c0 -14 -2 -25 -4 -25 -2 0 -6 11 -8 25 -3 14 -1
25 3 25 5 0 9 -11 9 -25z m37 -12 c-3 -10 -5 -4 -5 12 0 17 2 24 5 18 2 -7 2
-21 0 -30z m1026 30 c-13 -2 -35 -2 -50 0 -16 2 -5 4 22 4 28 0 40 -2 28 -4z
m-7013 -13 c31 -6 13 -7 -55 -3 -55 3 -102 7 -104 9 -8 7 114 3 159 -6z m6053
-47 c-8 -78 -13 -80 -13 -5 0 34 4 62 9 62 6 0 7 -25 4 -57z m785 50 c-57 -5
-52 7 -68 -188 -6 -77 -13 -159 -16 -182 -9 -63 19 -86 132 -107 114 -23 399
-33 445 -17 23 8 30 8 23 1 -28 -28 -294 -38 -399 -15 -116 24 -192 48 -206
65 -30 35 -10 393 24 438 6 7 30 11 61 10 l51 -2 -47 -3z m305 0 c-13 -2 -35
-2 -50 0 -16 2 -5 4 22 4 28 0 40 -2 28 -4z m-165 -10 c-16 -2 -40 -2 -55 0
-16 2 -3 4 27 4 30 0 43 -2 28 -4z m347 0 l40 -8 -45 -6 c-39 -6 -37 -7 20 -6
53 2 65 -1 68 -15 3 -14 -2 -15 -30 -8 -18 4 -100 13 -183 20 -192 15 -212 20
-60 16 74 -3 103 -1 75 4 l-45 7 60 1 c33 1 78 -1 100 -5z m-6915 -23 c69 -6
152 -15 185 -20 l60 -9 -75 4 c-247 15 -250 15 -180 6 36 -5 104 -12 151 -16
47 -3 92 -10 100 -15 16 -11 18 -97 4 -283 -9 -130 -27 -175 -75 -188 -80 -22
-331 0 -400 36 -55 29 -58 41 -46 230 16 259 24 280 106 271 25 -3 101 -10
170 -16z m3428 7 c11 -13 14 -68 5 -99 -5 -22 -55 -24 -72 -4 -13 16 -6 82 12
104 12 16 42 16 55 -1z m2662 3 c-13 -9 -13 -11 0 -20 13 -8 13 -10 -2 -10 -9
0 -18 -3 -21 -7 -2 -5 -2 -2 0 5 1 8 3 20 3 28 0 8 8 14 18 14 14 0 15 -2 2
-10z m-6460 -15 c13 -16 11 -107 -9 -315 -11 -111 -14 -121 -44 -139 -68 -43
-402 -10 -447 44 -8 10 2 8 37 -5 118 -45 365 -53 404 -13 17 16 22 49 35 217
8 109 13 201 10 204 -3 3 -23 8 -43 12 l-38 8 41 1 c26 1 46 -5 54 -14z m3475
-35 c0 -33 -4 -50 -12 -50 -14 0 -17 39 -7 78 10 37 19 25 19 -28z m2785 14
c0 -8 -3 -14 -8 -14 -11 0 -32 37 -25 44 9 8 33 -14 33 -30z m250 4 c0 -36
-12 -31 -16 7 -1 14 2 25 7 25 5 0 9 -14 9 -32z m50 6 c0 -8 -6 -14 -12 -14
-9 0 -8 -4 2 -10 12 -8 11 -10 -7 -10 -26 0 -31 18 -9 26 9 3 12 12 9 21 -4
11 -2 14 5 9 7 -4 12 -14 12 -22z m988 9 c-10 -2 -26 -2 -35 0 -10 3 -2 5 17
5 19 0 27 -2 18 -5z m-8594 -27 c16 4 25 0 29 -10 4 -11 19 -16 46 -16 22 0
43 -5 46 -11 5 -7 -9 -9 -42 -7 -33 2 -52 -1 -59 -12 -10 -12 -15 -12 -27 -2
-13 11 -17 10 -26 -5 -8 -14 -10 -9 -11 28 0 45 12 75 18 45 3 -11 10 -14 26
-10z m715 -11 c13 -13 15 -31 10 -102 -2 -30 -4 -31 -33 -27 -67 11 -74 15
-86 43 -31 76 51 140 109 86z m8075 8 c12 -3 16 -1 12 6 -5 7 7 11 36 10 36
-1 39 -2 18 -9 -21 -7 -18 -8 20 -11 25 -1 56 -3 70 -3 17 -1 26 -8 28 -21 2
-13 0 -16 -5 -8 -12 16 -403 50 -412 35 -10 -17 -43 -395 -36 -414 15 -39 160
-72 289 -66 71 4 93 2 80 -5 -55 -31 -265 -16 -345 24 -67 33 -72 53 -57 254
8 112 16 160 30 189 l20 38 116 -7 c64 -3 125 -9 136 -12z m-6824 -8 c80 -8
168 -15 195 -15 61 0 128 -18 119 -31 -3 -5 -1 -16 5 -23 14 -17 -14 -366 -34
-413 -20 -46 -52 -56 -185 -56 -169 0 -298 35 -322 88 -10 23 1 254 19 384 5
40 31 81 51 81 4 0 72 -7 152 -15z m3180 5 c0 -5 -4 -10 -9 -10 -17 0 -18 -59
-2 -75 15 -15 14 -16 -9 -13 -22 3 -25 7 -23 43 2 22 5 46 8 53 5 14 35 16 35
2z m301 0 c27 -15 27 -90 -1 -115 -16 -15 -25 -16 -44 -7 -19 8 -23 18 -24 54
0 41 19 78 40 78 5 0 18 -5 29 -10z m2964 -165 c-8 -86 -17 -160 -21 -164 -3
-3 -4 17 -1 44 4 28 9 100 13 160 6 103 10 132 20 122 2 -2 -3 -75 -11 -162z
m-3188 123 c-3 -7 -5 -2 -5 12 0 14 2 19 5 13 2 -7 2 -19 0 -25z m3127 26 c37
-14 10 -84 -32 -84 -44 0 -56 13 -48 54 6 31 11 36 36 36 15 0 35 -3 44 -6z
m-5744 -39 c295 -27 283 -24 293 -65 5 -23 1 -106 -12 -230 -19 -184 -21 -196
-45 -217 -69 -59 -399 -32 -469 39 l-30 29 7 122 c13 223 25 309 44 323 22 17
7 17 212 -1z m3445 9 c25 -10 35 -47 24 -87 -11 -43 -34 -53 -67 -31 -21 14
-24 21 -19 57 3 23 14 47 23 54 21 15 18 15 39 7z m-297 -56 c-3 -46 -6 -53
-25 -56 -26 -4 -31 13 -8 22 17 6 21 66 5 66 -5 0 -10 5 -10 10 0 6 9 10 21
10 18 0 20 -5 17 -52z m3133 22 c28 0 29 -2 29 -44 l0 -44 -46 12 c-25 6 -45
15 -45 19 1 4 1 21 1 38 0 24 3 30 16 25 9 -3 29 -6 45 -6z m84 -100 c-4 -55
-10 -99 -12 -96 -3 3 -2 50 2 106 4 56 9 99 12 96 3 -2 1 -50 -2 -106z m-5740
70 c239 -20 260 -24 261 -40 0 -8 4 -41 8 -73 11 -77 -11 -342 -30 -372 -27
-42 -59 -50 -188 -50 -142 1 -251 24 -298 63 l-30 26 6 135 c15 293 28 338 96
328 19 -3 98 -11 175 -17z m3131 -15 c7 -29 -7 -77 -25 -83 -10 -3 -11 2 -5
19 5 13 8 39 7 57 -2 38 14 43 23 7z m292 13 c7 -7 12 -33 12 -59 0 -50 -11
-62 -49 -52 -17 4 -21 13 -21 45 0 65 28 96 58 66z m1535 -7 c4 -4 4 -32 -1
-62 l-8 -54 -64 3 c-66 4 -91 16 -112 55 -8 15 -4 25 18 48 27 28 30 29 93 23
37 -4 69 -10 74 -13z m-4358 -40 c61 -6 144 -13 185 -16 42 -4 83 -10 90 -15
18 -11 18 -144 1 -236 -6 -32 -11 -88 -11 -124 0 -86 -26 -130 -85 -143 -53
-12 -257 -1 -320 16 -83 23 -113 43 -120 80 -4 17 0 119 8 225 17 226 21 237
97 228 25 -3 95 -10 155 -15z m5232 -18 c-3 -10 -5 -4 -5 12 0 17 2 24 5 18 2
-7 2 -21 0 -30z m-8957 -23 c0 -27 -4 -50 -10 -50 -5 0 -10 5 -10 10 0 6 -11
10 -24 10 -13 0 -26 7 -30 15 -3 10 -19 15 -45 15 -22 0 -43 5 -46 10 -4 6 13
10 44 10 31 0 51 4 51 11 0 7 10 9 25 5 14 -4 25 -2 25 4 0 5 5 10 10 10 6 0
10 -22 10 -50z m6833 13 c8 -16 18 -39 22 -53 6 -22 6 -23 -8 -10 -20 20 -49
90 -37 90 5 0 16 -12 23 -27z m1769 -17 c13 4 24 1 29 -7 9 -15 12 -16 64 -18
19 0 35 -6 35 -12 0 -6 -18 -9 -46 -8 -31 2 -48 -1 -54 -11 -7 -12 -12 -12
-22 -2 -16 16 -28 15 -28 -3 0 -8 -4 -15 -10 -15 -11 0 -13 43 -3 80 6 20 8
21 11 7 3 -13 9 -16 24 -11z m-1436 -14 c-8 -9 -19 -13 -22 -9 -10 9 16 38 28
31 6 -4 4 -13 -6 -22z m-2702 -2 c71 -6 135 -15 141 -20 6 -5 10 -24 7 -41 -4
-24 -2 -30 8 -24 10 6 12 -3 7 -46 -4 -30 -10 -92 -14 -139 -6 -71 -9 -79 -14
-50 -5 20 -6 -2 -3 -50 3 -61 1 -79 -6 -65 -9 17 -10 16 -6 -9 9 -66 -71 -94
-238 -83 -123 8 -222 34 -252 65 -24 26 -25 30 -19 132 11 191 24 310 36 332
11 20 16 21 118 15 58 -4 164 -11 235 -17z m605 -50 c116 -9 147 -14 157 -28
16 -20 18 -36 4 -27 -5 3 -10 -1 -10 -10 0 -10 5 -13 12 -9 12 7 11 1 -12
-273 -9 -114 -23 -154 -58 -168 -73 -28 -288 -18 -402 20 -76 25 -83 46 -70
222 17 241 27 290 63 295 12 2 56 0 97 -4 41 -4 140 -12 219 -18z m-4235 7
c11 -8 17 -23 14 -38 -2 -20 -9 -24 -35 -24 -17 0 -29 -3 -26 -7 2 -5 11 -8
19 -8 8 0 14 -4 14 -10 0 -15 -22 -12 -48 6 -26 18 -28 50 -5 76 19 21 42 23
67 5z m4799 -55 c149 -13 200 -21 207 -32 13 -20 12 -33 0 -25 -6 4 -10 -7 -9
-27 1 -32 1 -32 10 -8 9 27 8 -4 -11 -225 -13 -160 -16 -168 -52 -190 -41 -24
-194 -32 -292 -16 -119 21 -161 38 -181 74 -16 31 -16 44 -1 231 18 225 22
235 91 235 22 0 129 -8 238 -17z m3214 -49 c-3 -10 -5 -4 -5 12 0 17 2 24 5
18 2 -7 2 -21 0 -30z m-2722 6 c21 -2 15 -4 -20 -10 -37 -6 -27 -6 40 -4 50 3
131 1 180 -3 88 -7 89 -7 35 -12 l-55 -6 62 -4 c33 -3 59 -2 56 3 -2 4 0 7 6
7 5 0 13 -4 16 -10 3 -5 2 -10 -3 -10 -6 0 -6 -17 -1 -42 11 -58 11 -140 0
-134 -5 3 -7 -24 -5 -62 3 -60 2 -63 -6 -27 -5 22 -7 88 -4 148 3 59 5 107 3
108 -83 11 -439 34 -450 28 -12 -6 -19 -48 -32 -203 -9 -108 -14 -202 -11
-209 14 -37 145 -67 295 -67 121 0 166 11 171 43 3 18 4 19 10 5 4 -11 -2 -25
-18 -41 -39 -40 -158 -48 -308 -22 -121 21 -153 36 -172 80 -8 20 -13 39 -10
43 2 4 7 68 11 142 11 237 15 249 90 252 l50 1 -45 7 c-37 6 -33 7 20 4 36 -2
79 -5 95 -5z m513 -46 c-16 -2 -40 -2 -55 0 -16 2 -3 4 27 4 30 0 43 -2 28 -4z
m82 -12 c-29 -6 -22 -8 44 -14 101 -9 162 -7 96 3 l-45 7 42 1 c25 1 47 -4 57
-13 8 -8 22 -15 32 -15 10 0 15 -2 13 -4 -3 -3 -90 2 -194 10 -104 8 -194 13
-200 10 -7 -2 -18 -83 -29 -205 -18 -194 -18 -202 -1 -221 33 -37 118 -55 258
-55 118 0 126 -1 95 -14 -45 -18 -246 -10 -309 13 -64 23 -84 48 -83 100 3
104 26 349 34 371 9 25 35 29 185 32 l40 0 -35 -6z m-647 -16 c22 -4 27 -11
27 -35 0 -33 -25 -52 -57 -44 -16 5 -21 0 -26 -25 -4 -17 -12 -31 -18 -31 -8
0 -9 19 -4 68 4 37 9 70 11 74 4 6 9 5 67 -7z m384 -27 c-3 -8 -6 -5 -6 6 -1
11 2 17 5 13 3 -3 4 -12 1 -19z m526 -3 c-7 -21 -12 -19 -10 4 0 11 5 18 9 15
4 -3 5 -11 1 -19z m266 9 c8 -7 -104 -2 -129 6 -14 4 8 5 50 2 41 -2 77 -6 79
-8z m-7180 -9 c68 -2 127 -7 130 -12 3 -5 57 -15 120 -21 63 -6 117 -16 120
-21 4 -5 6 -88 5 -183 -2 -160 -4 -176 -26 -218 -20 -39 -28 -46 -63 -51 -38
-5 -39 -5 -10 -10 17 -3 -18 -8 -77 -13 -66 -5 -113 -4 -124 2 -9 5 -44 8 -78
7 -56 -2 -57 -2 -11 3 l50 6 -65 6 c-36 3 22 5 128 5 192 0 194 0 213 24 11
14 19 39 19 62 0 21 7 107 16 190 10 98 12 155 6 161 -12 12 -92 21 -372 44
-362 30 -391 33 -240 28 74 -3 191 -7 259 -9z m7361 -3 c42 -2 51 -5 40 -13
-11 -8 -7 -9 17 -4 29 6 34 4 44 -22 11 -29 5 -131 -12 -208 -6 -29 -7 -6 -5
78 3 100 1 119 -13 126 -18 10 -388 38 -396 30 -7 -7 -35 -299 -35 -366 0 -59
13 -77 68 -93 65 -19 185 -31 247 -25 l60 5 -40 -16 c-82 -32 -293 1 -342 54
-21 23 -24 33 -18 69 3 24 6 91 7 151 0 114 11 207 27 226 9 10 174 14 351 8z
m-810 -32 c-16 -30 -12 -90 6 -97 21 -8 34 13 34 55 0 17 5 32 10 32 14 0 12
-84 -2 -98 -7 -7 -21 -12 -33 -12 -12 0 -26 5 -33 12 -13 13 -17 90 -4 102 4
4 8 12 8 17 3 19 4 20 14 14 7 -4 7 -12 0 -25z m60 10 c0 -5 -7 -10 -15 -10
-8 0 -15 5 -15 10 0 6 7 10 15 10 8 0 15 -4 15 -10z m309 -95 c0 -38 -2 -46
-10 -35 -8 11 -9 -3 -5 -50 4 -49 3 -59 -5 -41 -6 15 -7 63 -3 125 8 103 21
104 23 1z m714 88 c-7 -2 -19 -2 -25 0 -7 3 -2 5 12 5 14 0 19 -2 13 -5z m125
-10 c-16 -2 -40 -2 -55 0 -16 2 -3 4 27 4 30 0 43 -2 28 -4z m-7085 -10 c-7
-2 -19 -2 -25 0 -7 3 -2 5 12 5 14 0 19 -2 13 -5z m6937 -2 c-32 -6 -36 -9
-42 -51 -18 -109 -36 -353 -28 -375 6 -16 24 -28 58 -39 62 -21 77 -46 68
-118 -3 -29 -13 -134 -21 -233 -9 -98 -18 -181 -21 -184 -8 -9 -24 23 -19 39
2 8 11 81 20 162 16 159 19 276 7 295 -4 6 -28 21 -54 32 -56 24 -71 48 -63
104 3 23 10 106 15 184 13 183 17 193 72 192 l43 -2 -35 -6z m268 2 c-15 -2
-42 -2 -60 0 -18 2 -6 4 27 4 33 0 48 -2 33 -4z m-8208 -11 c0 -13 -12 -22
-22 -16 -10 6 -1 24 13 24 5 0 9 -4 9 -8z m1120 -17 c142 -13 177 -19 188 -33
9 -12 12 -41 10 -95 l-3 -79 29 6 c16 3 34 6 41 6 8 0 15 25 20 75 4 46 13 83
24 96 15 19 22 20 116 12 93 -7 96 -8 45 -13 -46 -4 -31 -7 90 -18 80 -7 163
-15 185 -18 40 -5 40 -5 15 11 -15 10 -17 14 -7 11 10 -3 22 -6 27 -6 20 0 32
-62 26 -132 -18 -213 -25 -253 -41 -236 -3 3 -1 76 5 163 8 120 8 160 -1 166
-22 13 -439 43 -450 32 -9 -11 -19 -133 -11 -134 4 -1 18 -2 32 -4 14 -1 41
-5 60 -8 35 -7 35 -7 -7 13 -29 13 -43 25 -43 39 0 22 25 51 43 51 20 0 57
-30 57 -46 0 -19 -16 -18 -24 1 -6 16 -46 21 -46 6 0 -5 16 -18 35 -30 20 -11
35 -28 35 -39 0 -10 17 -28 40 -42 62 -39 90 -103 90 -208 l0 -85 60 6 c33 4
60 3 60 -2 0 -14 -28 -21 -86 -21 -41 0 -54 -4 -54 -15 0 -8 -20 -77 -44 -152
-24 -76 -47 -165 -51 -198 -4 -33 -14 -76 -23 -95 -14 -34 -15 -34 -21 -10 -7
24 -7 24 -20 -8 -22 -53 -23 -30 -1 34 11 32 20 73 20 89 0 17 5 46 10 66 5
19 12 51 14 70 2 19 4 38 5 42 0 5 5 6 9 3 5 -3 15 7 23 21 11 20 11 27 2 30
-10 4 -9 8 2 19 9 10 12 25 8 45 -4 23 -1 35 16 50 12 11 19 24 16 30 -4 5 -2
9 3 9 15 0 26 110 13 123 -6 6 -11 23 -11 38 0 51 -143 155 -189 137 -15 -5
-20 -4 -16 3 12 19 -123 4 -147 -17 l-20 -19 3 115 4 115 -115 12 c-63 6 -168
14 -232 18 l-118 8 -1 -24 c0 -13 -6 -85 -13 -159 -11 -113 -13 -123 -14 -65
-2 76 13 239 23 254 6 11 32 9 305 -14z m6343 -13 c-10 -25 -24 -32 -44 -19
-17 11 -15 36 5 49 17 11 46 -10 39 -30z m615 31 c-15 -2 -42 -2 -60 0 -18 2
-6 4 27 4 33 0 48 -2 33 -4z m265 0 c-13 -2 -33 -2 -45 0 -13 2 -3 4 22 4 25
0 35 -2 23 -4z m-145 -10 c-15 -2 -42 -2 -60 0 -18 2 -6 4 27 4 33 0 48 -2 33
-4z m265 0 c-13 -2 -35 -2 -50 0 -16 2 -5 4 22 4 28 0 40 -2 28 -4z m-155 -10
c-16 -2 -40 -2 -55 0 -16 2 -3 4 27 4 30 0 43 -2 28 -4z m220 -18 c3 -3 -2
-99 -11 -213 -23 -276 -41 -432 -45 -404 -2 13 1 76 7 140 34 367 42 464 39
468 -3 2 -42 8 -89 13 l-84 10 89 -4 c49 -2 91 -7 94 -10z m180 8 c-10 -2 -28
-2 -40 0 -13 2 -5 4 17 4 22 1 32 -1 23 -4z m92 -14 c-11 -7 15 -8 85 -5 63 3
91 2 75 -3 -24 -9 -23 -9 10 -12 19 -2 51 -3 70 -3 34 -1 35 -2 39 -46 6 -86
-20 -373 -37 -402 -19 -33 -30 -38 -112 -48 -79 -11 -187 2 -262 30 -68 25
-93 65 -83 133 3 23 10 103 14 178 5 75 14 146 20 157 9 18 23 22 79 25 37 2
78 4 92 5 20 1 22 0 10 -9z m-7851 -81 c13 -37 17 -66 12 -71 -5 -5 -12 -1
-15 11 -9 29 -37 32 -63 9 -14 -12 -23 -16 -23 -8 0 20 54 121 65 121 2 0 13
-28 24 -62z m1326 37 c245 -23 261 -25 244 -36 -11 -7 -11 -9 3 -9 11 0 20
-11 24 -27 6 -23 -4 -126 -21 -213 -3 -14 -7 -61 -10 -104 -5 -77 -8 -87 -54
-146 -11 -14 -23 -37 -26 -51 -6 -26 -5 -26 52 -33 32 -3 114 -10 182 -16 165
-12 166 -13 157 -140 -19 -261 -39 -345 -87 -357 -10 -3 -19 -9 -19 -13 0 -15
-119 -21 -204 -10 -100 12 -208 44 -226 65 -17 21 -25 108 -11 131 8 15 10 6
11 -46 0 -56 3 -67 22 -79 43 -27 123 -42 248 -48 100 -4 132 -2 162 10 34 14
37 19 42 69 10 100 15 358 6 363 -4 3 -85 13 -180 22 -168 17 -172 17 -186 -2
-21 -28 -17 -35 20 -35 37 0 60 -19 54 -47 -3 -16 -5 -16 -23 5 -25 28 -41 28
-60 -2 -12 -18 -13 -30 -6 -50 13 -32 43 -34 64 -3 14 21 15 21 23 3 8 -21
-26 -56 -55 -56 -23 0 -61 28 -61 46 0 8 -7 17 -15 20 -21 8 -19 20 14 86 18
36 24 59 17 61 -7 2 -4 10 7 21 9 10 15 22 12 27 -4 5 -1 9 5 9 7 0 9 8 5 20
-4 11 -2 20 4 20 6 0 11 9 11 20 0 11 7 23 15 26 9 4 14 11 13 18 -1 6 8 31
20 55 22 45 29 68 13 42 -6 -9 -9 4 -9 40 -1 29 -5 55 -10 57 -6 2 -8 11 -5
21 2 9 -3 23 -11 30 -9 8 -16 20 -16 27 0 16 -16 19 -25 4 -5 -8 -11 -7 -21 1
-11 9 -14 7 -14 -9 0 -14 -5 -20 -13 -16 -10 3 -12 20 -9 58 6 73 -18 96 -97
95 -54 0 -96 -10 -90 -19 7 -11 -37 -50 -56 -50 -13 0 -26 -13 -38 -38 -10
-20 -31 -45 -47 -54 -21 -12 -28 -23 -25 -37 5 -25 -10 -28 -19 -4 -4 10 3 26
20 45 15 15 25 30 22 33 -2 3 -13 -4 -23 -15 -30 -33 -37 -23 -12 18 17 26 26
60 31 112 4 41 12 81 18 88 13 16 38 15 243 -3z m-2105 -42 c29 -36 29 -38 10
-41 -23 -4 -28 -32 -5 -32 9 0 15 -9 15 -25 0 -26 -1 -26 -67 -23 -62 3 -68 5
-71 26 -3 17 2 25 17 29 27 7 27 23 -1 31 -20 5 -19 7 18 38 21 19 42 34 46
34 3 0 21 -17 38 -37z m2720 -8 c278 -26 266 -17 256 -172 -4 -60 -9 -148 -11
-197 -8 -139 -29 -161 -165 -170 -52 -3 -62 -2 -35 3 29 6 7 8 -75 8 -133 0
-210 21 -243 65 -19 25 -19 33 -8 175 19 250 22 273 38 288 18 19 38 19 243 0z
m3798 -110 c0 -39 -2 -45 -8 -25 -4 14 -8 50 -8 80 0 45 2 50 8 25 4 -16 8
-52 8 -80z m-6793 0 c-4 -47 -10 -84 -12 -81 -3 2 -2 43 2 91 4 47 10 84 12
81 3 -2 2 -43 -2 -91z m3547 60 c79 -8 178 -17 221 -20 42 -4 75 -11 71 -16
-3 -5 1 -9 9 -9 29 0 28 -89 -2 -235 -6 -27 -13 -85 -17 -127 -4 -50 -12 -85
-22 -98 -18 -22 -95 -40 -168 -40 l-43 0 22 -33 22 -34 145 -11 c80 -7 187
-15 238 -18 118 -9 128 -16 125 -91 -4 -126 -39 -352 -58 -371 -2 -3 -2 17 1
44 8 78 22 358 18 365 -4 7 -63 14 -284 34 -85 7 -156 12 -158 10 -2 -2 -1
-23 3 -47 7 -39 9 -41 16 -19 8 21 13 22 47 16 53 -10 60 -20 58 -73 -3 -62
-10 -72 -50 -72 -56 0 -95 18 -91 42 3 12 2 25 -1 30 -4 5 -7 30 -9 54 -2 25
-10 53 -19 63 -9 10 -16 23 -16 30 0 7 -6 11 -12 8 -7 -2 -12 -11 -10 -21 4
-24 -10 -19 -31 10 -11 14 -17 34 -14 44 3 13 0 17 -9 13 -8 -3 -14 0 -14 6 0
16 -61 41 -98 41 -31 0 -82 -20 -82 -33 0 -4 -17 -26 -37 -49 -21 -22 -37 -46
-35 -53 4 -19 -19 -30 -28 -15 -5 8 -2 23 7 36 8 13 11 28 7 35 -4 7 -14 -4
-26 -30 -10 -23 -25 -44 -33 -47 -7 -3 -12 -16 -10 -29 1 -14 -6 -32 -16 -41
-11 -10 -19 -21 -19 -25 0 -5 -23 -32 -51 -60 -51 -52 -93 -125 -82 -143 3 -5
1 -6 -5 -2 -8 5 -12 0 -12 -13 0 -24 -19 -76 -25 -69 -2 2 0 20 5 39 5 19 14
119 20 223 13 241 12 241 118 233 l76 -6 58 55 c33 30 63 54 67 54 4 0 6 25 3
55 -3 35 -1 55 6 55 6 0 12 -21 14 -47 l3 -48 68 -7 c65 -6 103 -18 61 -18
-16 0 -17 -2 -4 -10 12 -8 12 -10 1 -10 -8 0 5 -14 28 -31 23 -16 47 -29 53
-27 15 5 -31 48 -51 48 -14 0 -14 2 -2 9 10 6 25 4 42 -5 19 -9 58 -14 116
-13 109 1 135 8 150 39 15 32 36 391 24 403 -18 18 -429 51 -447 36 -6 -5 -17
-75 -24 -156 -10 -110 -16 -141 -23 -125 -16 35 8 289 29 313 20 23 10 22 186
4z m4718 -9 c0 -18 7 -25 31 -30 59 -12 76 -8 83 19 9 36 28 31 24 -7 l-3 -33
-66 -3 c-57 -2 -68 -6 -72 -22 -7 -28 -20 -25 -46 11 l-23 31 28 29 c36 35 44
36 44 5z m1007 -23 c-3 -10 -5 -4 -5 12 0 17 2 24 5 18 2 -7 2 -21 0 -30z
m-5169 -19 c34 -4 59 -10 57 -14 -7 -11 145 -21 212 -14 43 4 54 3 43 -5 -12
-9 -7 -11 20 -9 33 3 35 2 32 -27 -2 -23 0 -27 8 -15 7 11 8 -7 4 -60 -4 -41
-11 -78 -17 -81 -5 -4 -10 -54 -11 -112 -1 -59 -5 -100 -9 -94 -5 7 -6 0 -3
-16 10 -45 -35 -83 -109 -92 -84 -11 -219 0 -297 25 -81 25 -108 54 -108 114
0 30 3 37 10 26 5 -8 10 -27 10 -41 0 -14 6 -33 13 -42 19 -27 111 -48 238
-54 141 -7 205 1 219 27 12 23 37 406 27 416 -16 16 -434 43 -456 30 -6 -4
-11 -22 -11 -39 0 -18 -5 -90 -12 -160 -16 -178 -31 -130 -18 60 13 193 12
192 158 177z m3232 -61 c0 -44 -5 -41 -14 10 -5 27 -4 37 3 32 6 -3 11 -22 11
-42z m-3832 21 c12 -8 22 -22 22 -30 0 -19 -16 -18 -24 1 -7 19 -40 19 -55 1
-31 -37 9 -105 44 -76 15 13 15 15 -4 22 -24 8 -28 28 -7 28 33 0 46 -13 46
-46 0 -33 -1 -34 -42 -34 -54 0 -78 22 -78 72 0 65 49 96 98 62z m-1825 -32
c29 -28 37 -55 12 -46 -8 4 -15 1 -15 -7 0 -7 -3 -9 -7 -6 -3 4 -14 0 -24 -9
-17 -16 -39 -12 -39 7 0 5 9 17 20 26 11 10 16 21 11 27 -4 6 -11 19 -14 28
-8 23 19 13 56 -20z m5857 24 c0 -8 6 -16 13 -19 8 -3 6 -10 -8 -21 -25 -20
-35 -20 -35 -1 0 8 -5 15 -12 15 -6 0 -3 9 8 19 23 24 34 26 34 7z m-2636 -11
c101 -10 156 -20 174 -31 24 -16 24 -19 18 -88 -3 -39 -11 -132 -16 -206 -12
-157 -22 -178 -91 -197 -57 -15 -163 -17 -154 -3 5 7 -15 8 -61 4 -46 -5 -65
-4 -61 4 5 6 0 8 -12 5 -27 -7 -113 23 -141 49 -25 23 -25 9 0 296 12 141 20
169 52 175 47 9 147 6 292 -8z m2852 -16 c3 -6 17 -9 30 -6 27 5 31 -5 9 -23
-12 -10 -20 -9 -39 4 -15 10 -27 12 -31 6 -9 -15 -25 -12 -25 4 0 23 43 35 56
15z m-3706 -24 c0 -18 7 -26 24 -31 31 -7 46 1 46 27 0 10 5 19 10 19 12 0 13
-28 4 -94 -8 -54 -24 -62 -24 -11 0 32 -2 35 -29 35 -25 0 -31 -5 -36 -30 -4
-16 -11 -30 -16 -30 -10 0 -12 48 -3 103 7 42 24 50 24 12z m1345 -2 c78 -6
84 -8 45 -13 -36 -4 -17 -8 89 -19 74 -7 141 -15 148 -18 7 -3 13 -21 13 -42
0 -26 3 -32 10 -21 6 9 7 -6 3 -45 -3 -33 -9 -65 -14 -70 -10 -13 -10 -23 -10
-140 0 -65 -3 -84 -10 -70 -8 16 -9 14 -5 -11 11 -73 -103 -107 -285 -86 -116
14 -185 38 -211 73 -19 25 -19 34 -8 205 17 258 25 279 105 270 22 -3 81 -9
130 -13z m-4498 -60 c-2 -16 -4 -5 -4 22 0 28 2 40 4 28 2 -13 2 -35 0 -50z
m8367 -16 c-4 -43 -11 -77 -17 -77 -10 0 -4 111 9 143 12 32 14 12 8 -66z
m-3677 56 c-20 -2 -52 -2 -70 0 -17 2 0 4 38 4 39 0 53 -2 32 -4z m517 -38
c183 -16 232 -27 90 -20 l-89 4 75 -8 c42 -5 86 -11 98 -15 15 -5 22 -3 22 6
0 10 3 9 10 -2 12 -18 2 -172 -12 -181 -5 -3 -5 -15 -1 -26 9 -24 64 -93 73
-93 4 0 10 46 13 103 8 125 14 156 36 185 16 22 20 22 96 14 79 -9 80 -9 25
-12 l-55 -3 69 -8 c38 -4 106 -10 151 -14 129 -9 184 -20 208 -42 20 -19 60
-43 70 -43 3 0 7 13 10 28 9 43 40 54 127 43 72 -8 73 -9 25 -11 -50 -3 -49
-3 20 -11 39 -5 112 -6 164 -2 63 4 92 2 87 -5 -3 -5 1 -13 10 -16 9 -4 13 -2
8 5 -4 7 -1 10 7 7 19 -7 18 -213 -1 -231 -10 -10 -11 8 -6 90 4 56 3 104 -1
106 -9 6 -235 25 -338 29 l-70 3 -3 -35 c-2 -28 3 -41 23 -60 25 -24 27 -24
40 -7 7 10 11 27 8 37 -4 16 0 20 21 20 16 0 26 -5 26 -15 0 -8 -4 -15 -9 -15
-5 0 -3 -21 5 -47 8 -25 14 -55 14 -65 0 -15 -3 -16 -19 -6 -11 7 -18 15 -15
19 4 8 -26 23 -39 20 -5 -1 -6 2 -3 7 3 5 -10 18 -30 28 -28 15 -36 16 -43 5
-6 -10 -18 -3 -48 29 -48 51 -106 67 -164 43 -30 -12 -38 -21 -44 -49 -5 -29
-9 -34 -26 -29 -11 4 -19 2 -19 -4 0 -6 -4 -11 -10 -11 -5 0 -10 9 -10 20 0
11 -3 20 -7 20 -16 -1 -43 -28 -43 -44 0 -9 -5 -16 -12 -16 -6 0 -9 -2 -6 -6
3 -3 0 -25 -8 -50 -7 -25 -9 -42 -4 -39 6 4 10 -1 10 -9 0 -16 45 -112 94
-200 22 -40 71 -109 143 -201 5 -5 13 -21 19 -35 6 -14 32 -48 58 -76 25 -29
46 -55 46 -58 0 -3 11 -29 24 -56 14 -29 20 -52 15 -56 -15 -9 -33 10 -59 63
-13 26 -30 55 -39 63 -8 8 -39 47 -68 87 -29 40 -59 70 -66 68 -6 -3 -19 0
-27 5 -13 9 -13 11 -1 19 12 8 12 13 -3 35 -19 29 -34 33 -42 11 -4 -8 -10
-12 -15 -9 -12 7 -11 51 1 59 6 3 -1 23 -17 45 -22 35 -31 40 -62 40 -21 0
-46 7 -57 15 -17 14 -15 15 30 9 56 -8 56 -13 10 96 -19 45 -27 83 -27 122 0
56 -1 57 -27 51 -37 -7 -66 10 -74 43 -8 32 11 84 30 84 8 0 14 9 14 21 0 15
5 20 23 17 13 -2 22 -10 22 -20 0 -10 6 -23 13 -30 6 -6 12 -20 12 -29 0 -32
15 -28 53 11 44 44 93 70 151 78 l41 6 -50 7 c-27 4 -114 10 -192 15 l-142 7
-5 -24 c-3 -13 -10 -81 -17 -151 -11 -117 -11 -128 6 -154 l17 -27 -38 6 c-22
4 -44 13 -50 22 -6 8 -16 15 -21 15 -6 0 -16 7 -23 15 -7 9 -19 14 -27 11 -8
-3 -13 2 -13 14 0 11 -5 20 -11 20 -6 0 -30 20 -53 44 -41 42 -65 58 -133 90
-17 9 -34 20 -38 26 -8 12 -65 13 -84 1 -8 -5 -15 -18 -16 -29 -2 -31 -23 -51
-62 -58 -47 -9 -75 -53 -60 -94 6 -16 15 -27 19 -24 4 3 8 1 8 -5 0 -5 -4 -12
-9 -16 -5 -3 -8 -20 -6 -38 3 -37 60 -163 87 -191 10 -11 18 -29 18 -40 0 -22
36 -102 56 -126 13 -15 36 -70 30 -70 -2 0 -16 12 -32 27 l-29 26 -6 -24 c-5
-18 -7 -14 -8 19 -1 33 -12 59 -48 115 -26 39 -48 73 -49 75 -2 5 -344 25
-349 21 -2 -3 -9 -46 -15 -97 -10 -89 -10 -92 16 -139 15 -26 41 -68 58 -93
42 -62 57 -90 45 -90 -5 0 -17 15 -26 34 -9 19 -25 37 -35 40 -11 2 -17 9 -14
14 15 25 -5 39 -48 35 -50 -6 -60 3 -58 56 1 26 -1 32 -8 21 -7 -11 -10 -5
-10 23 0 20 -4 37 -10 37 -5 0 -10 7 -10 16 0 8 -4 13 -9 10 -5 -4 -12 0 -14
6 -3 7 -6 3 -6 -9 -1 -12 4 -25 9 -28 6 -3 10 -16 9 -28 -1 -20 -2 -20 -9 3
-4 14 -9 18 -9 10 -1 -9 -31 16 -70 58 l-69 72 -61 0 c-51 0 -61 -3 -61 -17
-1 -16 -2 -16 -17 2 -15 20 -15 20 -10 -2 3 -13 1 -23 -4 -23 -5 0 -9 6 -9 12
0 20 -108 -98 -113 -124 -4 -21 -4 -21 -6 4 0 15 3 38 9 52 10 27 4 56 -11 56
-5 0 -9 -9 -9 -20 0 -11 -4 -20 -10 -20 -11 0 -14 98 -4 124 12 31 34 16 45
-29 6 -25 15 -45 20 -45 5 0 16 18 25 41 14 33 21 40 38 35 11 -3 45 3 74 13
67 23 54 27 -114 37 l-120 7 -19 -203 c-13 -141 -16 -207 -8 -218 5 -10 29
-23 51 -30 50 -16 57 -37 10 -27 -88 19 -91 31 -78 268 12 196 19 233 45 243
9 4 118 -1 243 -10 209 -14 228 -17 245 -37 9 -12 17 -38 17 -59 0 -35 30 -90
49 -90 5 0 11 26 15 58 11 92 25 102 129 89 40 -5 81 -9 92 -10 11 0 22 -4 25
-7 3 -4 31 -10 63 -14 69 -8 69 -7 27 97 -31 78 -38 144 -20 191 5 15 12 70
15 124 8 135 13 160 37 184 17 17 28 19 72 14 28 -3 127 -13 220 -21z m-5927
-11 c-3 -3 -12 -4 -19 -1 -8 3 -5 6 6 6 11 1 17 -2 13 -5z m48 -13 c-25 -6
-19 -9 38 -15 37 -5 65 -11 63 -14 -3 -3 -45 1 -93 8 -72 11 -83 15 -58 21 17
4 41 7 55 7 22 0 21 -1 -5 -7z m93 -8 c-10 -2 -26 -2 -35 0 -10 3 -2 5 17 5
19 0 27 -2 18 -5z m708 -53 c49 -11 114 -20 144 -20 45 -1 52 -3 36 -12 -50
-28 -306 33 -306 74 0 6 8 4 18 -6 10 -9 59 -25 108 -36z m6267 -17 c-7 -2
-21 -2 -30 0 -10 3 -4 5 12 5 17 0 24 -2 18 -5z m-7143 -22 c188 -16 311 -20
265 -11 -30 7 -17 8 50 5 78 -3 92 -6 107 -25 22 -28 23 -77 2 -195 -9 -49
-15 -109 -15 -132 2 -44 -19 -105 -45 -134 -10 -12 -14 -32 -12 -65 3 -45 5
-49 31 -52 16 -2 38 -13 49 -24 20 -20 20 -22 4 -152 -25 -208 -40 -285 -62
-306 -21 -20 -114 -39 -114 -22 0 5 19 12 41 15 75 10 80 25 95 310 l7 137
-27 0 c-21 0 -26 -5 -26 -24 0 -36 -30 -200 -38 -208 -4 -4 -8 0 -9 10 0 9 -3
83 -6 164 -6 149 -34 288 -58 288 -6 0 -9 6 -6 13 6 16 -48 65 -98 88 l-40 19
38 0 c21 0 55 -9 76 -19 49 -25 107 -90 116 -130 9 -41 33 -40 40 2 8 46 24
380 19 388 -5 9 -59 16 -313 39 -117 10 -216 22 -219 25 -7 7 14 6 148 -4z
m7513 -8 c-7 -2 -21 -2 -30 0 -10 3 -4 5 12 5 17 0 24 -2 18 -5z m87 -22 c51
-5 77 -4 83 3 5 8 9 8 15 -1 6 -9 123 -31 142 -26 12 3 9 -147 -5 -237 l-14
-95 5 156 c4 128 3 157 -9 162 -24 9 -386 31 -394 24 -8 -8 -42 -306 -42 -375
-1 -37 3 -45 30 -61 16 -10 58 -24 92 -31 57 -12 99 -30 69 -30 -7 0 -13 -8
-13 -17 -1 -16 -2 -16 -6 -1 -2 9 -18 20 -36 23 -73 15 -129 38 -143 60 -13
20 -14 49 -10 182 7 170 13 228 28 256 10 19 74 22 208 8z m-7045 -11 c-3 -5
36 -8 102 -6 59 1 95 0 78 -4 -21 -4 -2 -9 65 -14 152 -13 144 -5 136 -144 -6
-108 -5 -115 9 -87 12 25 14 26 9 5 -4 -14 -17 -52 -30 -85 l-24 -60 5 85 c3
47 8 124 12 172 l6 87 -34 5 c-70 11 -349 27 -359 21 -14 -9 -13 8 2 23 14 14
32 16 23 2z m108 3 c-13 -2 -35 -2 -50 0 -16 2 -5 4 22 4 28 0 40 -2 28 -4z
m377 -30 c-11 -17 -11 -17 -6 0 3 10 6 24 7 30 0 9 2 9 5 0 3 -7 0 -20 -6 -30z
m-519 -88 c-8 -58 -9 -59 -10 -15 0 25 2 56 6 70 11 41 13 9 4 -55z m7009 45
c0 -11 -4 -20 -10 -20 -5 0 -10 9 -10 20 0 11 5 20 10 20 6 0 10 -9 10 -20z
m1122 6 c10 -9 64 -17 168 -25 84 -7 157 -14 162 -17 10 -7 9 -116 -2 -174 -7
-34 -8 -19 -5 57 l5 101 -28 6 c-56 11 -375 27 -382 19 -10 -10 -40 -282 -40
-362 0 -57 1 -59 33 -74 18 -9 53 -21 77 -26 57 -13 225 -14 268 -2 44 13 31
-4 -16 -20 -83 -29 -295 -8 -364 35 -31 19 -41 61 -33 134 4 37 9 115 11 173
4 112 14 154 42 175 23 18 87 18 104 0z m-8032 -31 c17 -9 30 -19 30 -24 0 -8
-52 -31 -71 -31 -21 0 -7 18 19 25 l27 7 -27 14 c-16 8 -28 17 -28 19 0 9 21
5 50 -10z m1110 -4 c0 -14 -8 -21 -27 -23 -25 -3 -28 -8 -31 -43 -3 -57 -11
-85 -22 -85 -23 0 -3 146 22 161 25 16 58 10 58 -10z m6697 -108 c-2 -16 -4
-5 -4 22 0 28 2 40 4 28 2 -13 2 -35 0 -50z m-8355 30 c31 -30 35 -43 13 -43
-8 0 -15 -9 -15 -19 0 -26 -13 -33 -45 -25 -18 4 -25 13 -25 30 0 16 -6 24
-17 24 -14 1 -10 8 15 30 18 17 35 30 39 30 4 0 20 -12 35 -27z m8684 12 c4
-8 10 -12 16 -9 17 11 37 -4 31 -25 -7 -27 -31 -27 -41 -1 -7 18 -10 18 -35 5
-29 -15 -30 -13 -21 23 7 25 41 30 50 7z m92 -30 c0 -18 -6 -25 -20 -25 -14 0
-18 5 -14 16 3 9 6 20 6 25 0 5 6 9 14 9 8 0 14 -10 14 -25z m49 -22 c-3 -10
-5 -2 -5 17 0 19 2 27 5 18 2 -10 2 -26 0 -35z m-8347 -255 c55 -26 164 -41
244 -33 58 5 69 4 58 -6 -19 -20 -139 -23 -233 -5 -72 13 -88 20 -113 47 -27
31 -28 35 -22 98 15 144 21 152 26 31 l5 -115 35 -17z m3713 172 c21 1 36 -3
33 -8 -5 -9 36 -15 201 -28 46 -4 87 -12 93 -19 5 -7 13 -34 16 -61 4 -38 3
-46 -6 -34 -9 12 -10 4 -6 -37 3 -32 1 -53 -5 -53 -5 0 -10 -17 -10 -37 0 -88
-6 -174 -12 -180 -4 -3 -7 -14 -7 -23 0 -36 -25 -42 -179 -44 -87 0 -141 2
-128 7 12 5 77 7 144 5 66 -2 119 0 117 4 -2 4 4 9 15 13 11 3 21 18 24 38 10
56 30 387 25 393 -11 10 -311 35 -388 32 l-75 -3 -8 -75 c-4 -41 -14 -133 -21
-205 l-13 -130 2 201 c1 175 4 205 19 229 17 26 21 27 74 21 32 -3 74 -6 95
-6z m4612 -20 c5 -17 -13 -50 -28 -50 -11 0 -15 45 -5 57 15 18 26 16 33 -7z
m-1352 -23 c-3 -38 -19 -56 -43 -50 -22 6 -25 20 -10 58 7 20 16 26 33 23 17
-2 22 -9 20 -31z m-6678 -51 c-4 -25 -12 -46 -17 -46 -6 0 -8 13 -4 31 3 17 6
43 6 57 0 19 3 23 11 15 7 -7 8 -28 4 -57z m1445 60 c0 -3 -4 -8 -10 -11 -5
-3 -10 -1 -10 4 0 6 5 11 10 11 6 0 10 -2 10 -4z m-1656 -15 c3 -5 -1 -14 -9
-21 -11 -9 -12 -16 -2 -30 6 -11 9 -22 5 -25 -9 -10 -78 23 -84 40 -8 20 -2
26 38 35 46 11 46 11 52 1z m7776 -75 c-8 -88 -23 -109 -89 -120 -98 -16 -315
4 -341 31 -14 14 -11 15 25 9 22 -4 69 -12 105 -18 36 -6 107 -8 159 -5 115 5
131 18 131 102 0 46 8 92 15 83 1 -2 -1 -38 -5 -82z m557 -18 c-2 -18 -4 -6
-4 27 0 33 2 48 4 33 2 -15 2 -42 0 -60z m-4756 15 l24 -46 8 41 c10 53 32 57
23 5 -3 -21 -6 -50 -6 -65 0 -40 -21 -34 -51 13 l-27 42 -7 -42 c-10 -59 -25
-51 -25 13 0 99 23 114 61 39z m3449 42 c0 -10 -81 -88 -86 -83 -10 11 20 60
45 73 27 15 41 18 41 10z m-2230 -119 c0 -44 -9 -66 -26 -66 -15 0 -17 20 -8
69 9 43 34 41 34 -3z m3527 -13 c-3 -10 -5 -4 -5 12 0 17 2 24 5 18 2 -7 2
-21 0 -30z m-9119 -38 c3 -3 -4 -5 -14 -5 -11 0 -25 -5 -32 -12 -9 -9 -12 -9
-12 3 0 9 3 18 6 22 6 6 43 1 52 -8z m1637 5 c3 -5 -1 -10 -10 -10 -9 0 -13 5
-10 10 3 6 8 10 10 10 2 0 7 -4 10 -10z m6070 -20 c-3 -5 0 -10 7 -11 10 0 10
-2 0 -6 -6 -2 -10 -8 -7 -12 2 -4 -17 -4 -43 0 -26 4 -68 8 -94 8 -87 2 -86
16 2 22 47 3 98 6 113 7 17 1 26 -2 22 -8z m-7770 -125 c-4 -53 -9 -94 -12
-92 -2 3 -1 48 3 101 4 53 9 94 12 92 2 -3 1 -48 -3 -101z m1014 80 c8 -8 13
-17 10 -20 -3 -2 -58 -1 -123 3 -77 5 -120 4 -126 -3 -4 -5 -15 -93 -24 -194
-9 -102 -19 -187 -22 -190 -3 -3 -3 32 1 79 3 47 10 139 14 204 10 152 8 150
151 142 72 -4 109 -11 119 -21z m7457 -20 c142 -11 96 -19 -61 -10 -90 5 -135
11 -138 19 -4 9 8 11 48 5 29 -4 97 -10 151 -14z m404 -25 c8 -4 34 -6 58 -4
28 2 41 0 36 -7 -4 -7 12 -10 47 -8 30 1 63 0 74 -3 11 -4 32 -9 48 -12 26 -6
27 -9 26 -69 0 -34 -4 -80 -9 -102 -7 -32 -8 -21 -7 54 l2 95 -35 7 c-52 11
-360 30 -371 24 -5 -4 -9 -26 -9 -49 0 -24 -4 -66 -9 -93 -20 -104 -31 -254
-21 -274 18 -33 140 -63 259 -63 81 0 97 -2 70 -9 -49 -13 -226 -2 -280 18
-82 29 -84 35 -82 214 3 205 9 253 35 280 18 20 26 22 87 15 36 -3 73 -10 81
-14z m-2760 -50 c0 -5 -2 -10 -4 -10 -3 0 -8 5 -11 10 -3 6 -1 10 4 10 6 0 11
-4 11 -10z m-3695 -24 c22 -23 24 -30 19 -93 -3 -37 -10 -93 -15 -123 -5 -30
-15 -93 -23 -139 -17 -104 -41 -134 -102 -129 l-39 4 43 8 c27 6 48 17 57 30
8 14 17 87 24 211 l11 190 -22 17 c-19 14 -20 18 -9 32 18 22 28 20 56 -8z
m610 -33 c-10 -27 -21 -50 -25 -53 -4 -3 -15 -26 -25 -52 -10 -27 -21 -48 -25
-48 -4 0 -12 -12 -18 -26 -15 -33 -121 -194 -127 -194 -6 0 51 94 77 129 19
25 98 185 98 199 0 13 -429 37 -442 24 -5 -5 -15 -84 -22 -173 -9 -121 -13
-153 -18 -121 -10 66 9 293 25 309 22 23 262 21 373 -2 80 -16 93 -17 106 -4
8 8 15 19 16 24 5 27 14 46 19 41 3 -3 -2 -27 -12 -53z m2988 -18 c4 -44 3
-61 -2 -45 -9 24 -15 127 -7 119 2 -2 6 -35 9 -74z m2337 25 c18 -27 45 -82
60 -122 52 -135 83 -213 87 -217 2 -3 12 4 23 15 14 15 22 49 34 149 l15 130
-3 -128 c-3 -104 -7 -132 -22 -153 -11 -15 -24 -35 -30 -45 -10 -18 -11 -18
-23 5 -7 13 -27 29 -44 37 -22 10 -31 20 -30 34 1 11 -4 23 -10 27 -8 5 -6 9
6 14 24 9 21 17 -13 37 -16 10 -30 25 -30 33 0 8 -4 22 -9 32 -9 16 -35 125
-36 149 0 6 -4 15 -8 19 -7 8 -10 34 -3 34 2 0 18 -22 36 -50z m227 -2 c-2
-13 -4 -5 -4 17 -1 22 1 32 4 23 2 -10 2 -28 0 -40z m-4781 22 c56 -12 129
-20 199 -20 61 -1 119 -5 130 -10 13 -6 -3 -7 -45 -5 -56 3 -59 3 -25 -5 28
-6 0 -8 -90 -5 -131 4 -205 17 -205 37 0 5 -6 8 -13 5 -7 -3 -21 1 -32 9 -24
18 -26 18 81 -6z m2338 -75 c-9 -83 2 -100 71 -116 65 -14 75 -35 13 -25 -99
16 -123 49 -112 156 5 58 9 68 20 59 11 -9 13 -27 8 -74z m-1984 65 c-8 -5
-19 -10 -25 -10 -5 0 -3 5 5 10 8 5 20 10 25 10 6 0 3 -5 -5 -10z m4760 -2
c-24 -10 -24 -10 -5 -18 17 -7 17 -9 3 -9 -10 -1 -18 -5 -18 -10 0 -5 8 -12
18 -14 13 -4 11 -5 -5 -6 -19 -1 -23 4 -23 27 0 34 7 42 34 41 19 0 18 -1 -4
-11z m-1117 -25 c-3 -7 1 -13 9 -13 8 0 21 -18 28 -40 7 -22 19 -45 27 -52 7
-6 19 -25 27 -42 17 -39 38 -137 31 -144 -8 -8 -55 39 -55 55 0 7 -4 13 -9 13
-5 0 -19 30 -31 68 -23 70 -40 99 -40 69 0 -9 -5 -17 -11 -17 -8 0 -10 14 -6
40 5 42 -5 59 -27 41 -20 -17 -28 0 -9 21 19 21 74 22 66 1z m1240 -15 c-7
-37 -43 -39 -43 -4 0 18 6 26 23 28 12 2 23 4 24 3 1 0 -1 -12 -4 -27z m-80 2
c-3 -11 -7 -20 -9 -20 -2 0 -4 9 -4 20 0 11 4 20 9 20 5 0 7 -9 4 -20z m24
-17 c-3 -10 -5 -4 -5 12 0 17 2 24 5 18 2 -7 2 -21 0 -30z m-4562 13 c28 -8
42 -15 33 -15 -9 -1 -25 -4 -35 -7 -15 -5 -16 -4 -3 6 12 9 10 11 -12 7 -17
-2 -25 0 -21 6 4 6 -2 8 -15 5 -12 -4 -20 -2 -16 3 7 12 9 11 69 -5z m-3477
-23 c-20 -5 -25 -33 -6 -33 7 0 5 -5 -4 -12 -9 -7 -18 -22 -21 -33 -3 -11 -5
4 -6 33 -1 51 0 52 27 51 16 -1 20 -3 10 -6z m3700 -20 c-21 -2 -57 -2 -80 0
-24 2 -7 4 37 4 44 0 63 -2 43 -4z m1345 -63 c-22 -23 -31 -25 -139 -29 -93
-3 -114 -6 -110 -17 8 -20 -8 -17 -29 6 -24 26 -16 28 131 32 132 3 153 11
155 57 l1 26 8 -25 c5 -19 2 -31 -17 -50z m-2235 43 c-15 -2 -42 -2 -60 0 -18
2 -6 4 27 4 33 0 48 -2 33 -4z m207 -13 l60 -7 -50 0 c-27 0 -81 3 -120 7
l-70 7 60 0 c33 1 87 -3 120 -7z m1733 -2 c15 -15 16 -38 2 -38 -5 0 -10 7
-10 15 0 8 -4 15 -10 15 -5 0 -10 5 -10 10 0 14 13 13 28 -2z m-1605 -15 c-13
-2 -33 -2 -45 0 -13 2 -3 4 22 4 25 0 35 -2 23 -4z m4953 -71 c-12 -12 -16
-11 -26 9 -10 17 -10 24 -1 27 6 2 11 11 11 20 0 10 6 5 15 -12 14 -26 14 -31
1 -44z m-4375 39 c30 -5 95 -12 144 -15 154 -9 235 -19 242 -29 4 -7 -21 -8
-73 -4 -204 16 -464 39 -514 47 -50 7 -46 8 46 9 55 0 125 -3 155 -8z m-1965
-54 c8 3 14 -1 14 -10 0 -8 -6 -14 -12 -13 -20 3 -38 16 -38 29 0 8 3 8 11 0
6 -6 18 -9 25 -6z m47 -10 c16 10 47 11 47 3 0 -4 -7 -13 -15 -20 -18 -15 -55
-3 -54 18 0 11 2 12 6 4 2 -6 10 -9 16 -5z m3009 2 c2 -7 57 -15 138 -21 176
-13 175 -12 165 -143 -4 -59 -10 -92 -15 -84 -6 8 -10 0 -13 -26 -2 -22 -2 10
1 71 2 61 1 114 -4 117 -13 7 -225 29 -231 23 -3 -3 8 -25 23 -49 64 -99 109
-164 140 -205 18 -24 35 -49 38 -55 3 -9 7 -8 14 2 7 10 11 5 14 -17 4 -27 2
-30 -14 -21 -10 5 -18 14 -18 18 0 5 -31 50 -70 100 -38 49 -70 93 -70 97 0 4
-10 15 -22 25 -11 11 -18 19 -15 19 4 0 -9 25 -28 55 -19 30 -35 58 -35 64 0
5 -7 17 -16 25 -13 14 -13 16 -1 16 9 0 17 -5 19 -11z m-3016 -39 c19 0 34 -4
34 -8 0 -6 -62 -8 -99 -3 -2 1 3 8 10 17 8 10 15 12 17 5 2 -6 19 -11 38 -11z
m6395 -40 c-5 -25 -9 -35 -10 -24 -1 28 11 92 16 79 1 -6 -1 -30 -6 -55z
m-2808 9 c9 -10 17 -21 17 -25 0 -4 -33 -4 -74 -2 -41 3 -79 2 -84 -1 -8 -6
-21 -98 -41 -311 -6 -64 -5 -90 4 -106 24 -38 180 -69 316 -62 56 3 86 1 80
-5 -15 -15 -257 -1 -338 19 -55 13 -73 22 -77 38 -10 35 1 409 13 439 6 15 20
31 32 35 36 14 132 2 152 -19z m-5488 -40 c18 -7 18 -8 -5 -8 -14 0 -36 6 -50
14 l-25 15 30 -6 c17 -4 39 -11 50 -15z m5489 -163 c16 4 25 0 29 -10 4 -10
19 -16 42 -16 19 0 35 -4 35 -10 0 -5 -18 -10 -39 -10 -22 0 -41 -5 -44 -12
-3 -10 -9 -10 -26 0 -18 10 -21 10 -21 -3 0 -8 -4 -15 -10 -15 -12 0 -14 83
-2 94 4 4 8 1 10 -8 3 -11 10 -14 26 -10z m2595 7 c63 -3 107 -9 96 -13 -13
-5 -2 -9 35 -13 29 -4 57 -12 62 -19 5 -7 6 -38 3 -68 -26 -254 -36 -334 -41
-339 -4 -3 -4 14 -1 39 15 112 29 352 21 359 -5 5 -99 14 -208 20 -150 10
-201 10 -206 1 -4 -6 -10 -52 -13 -102 -3 -50 -10 -95 -15 -100 -16 -16 -31
92 -21 157 11 82 33 100 114 91 33 -3 111 -9 174 -13z m-2544 -173 c21 17 28
8 29 -40 1 -45 -1 -47 -43 -22 -25 14 -31 23 -31 52 1 33 2 34 15 16 12 -16
17 -17 30 -6z m2535 -82 c0 -9 -54 -38 -70 -38 -11 0 -14 72 -4 83 7 7 74 -34
74 -45z m-2815 22 c3 -6 -1 -7 -9 -4 -18 7 -21 14 -7 14 6 0 13 -4 16 -10z
m2761 -176 c-4 -18 -8 -34 -10 -34 -2 0 -17 7 -34 16 -38 19 -44 54 -9 54 12
0 29 5 37 10 19 12 24 -1 16 -46z m70 11 c14 -13 14 -15 0 -15 -9 0 -16 -5
-16 -11 0 -6 -7 -3 -17 6 -14 14 -14 18 -2 26 18 11 18 11 35 -6z m104 -105
c-8 -5 -24 -9 -35 -9 -16 1 -16 2 5 9 35 11 48 11 30 0z m-63 -16 c-3 -3 -12
-4 -19 -1 -8 3 -5 6 6 6 11 1 17 -2 13 -5z"/>
<path d="M697 5123 c-3 -5 -13 -100 -23 -211 -17 -199 -17 -203 2 -222 28 -29
153 -53 279 -54 129 -1 157 5 173 36 17 35 37 408 22 418 -6 4 -96 13 -198 19
-103 6 -201 14 -219 17 -17 2 -34 1 -36 -3z m384 -82 c-7 -5 -22 -6 -34 -3
-17 4 -19 1 -15 -21 3 -15 1 -27 -3 -27 -5 0 -9 14 -9 30 0 28 2 30 38 30 24
0 32 -3 23 -9z m19 -36 c0 -14 -4 -25 -9 -25 -4 0 -6 11 -3 25 2 14 6 25 8 25
2 0 4 -11 4 -25z m-211 -61 c2 -2 -5 -4 -17 -4 -11 0 -24 -4 -27 -10 -3 -5 3
-10 14 -10 12 0 21 -4 21 -10 0 -5 -9 -10 -20 -10 -11 0 -20 -4 -20 -10 0 -9
15 -12 48 -10 4 1 6 10 4 21 -4 22 24 37 40 21 6 -6 24 -8 39 -5 22 4 29 2 29
-10 0 -10 -6 -14 -15 -11 -9 4 -15 0 -15 -10 0 -10 5 -13 16 -9 12 4 15 2 12
-8 -4 -11 -22 -13 -84 -10 -43 2 -82 5 -86 8 -10 5 -11 77 -2 86 6 6 53 -1 63
-9z"/>
<path d="M1438 5083 c12 -2 30 -2 40 0 9 3 -1 5 -23 4 -22 0 -30 -2 -17 -4z"/>
<path d="M3168 4943 c12 -2 30 -2 40 0 9 3 -1 5 -23 4 -22 0 -30 -2 -17 -4z"/>
<path d="M3145 4920 c-3 -5 -11 -7 -17 -4 -7 5 -8 2 -3 -6 4 -6 2 -91 -6 -187
-7 -98 -16 -167 -20 -157 -5 13 -8 3 -8 -26 0 -34 3 -40 9 -25 7 17 9 17 9 3
2 -47 144 -81 316 -76 154 4 150 0 164 188 6 80 14 169 17 197 7 67 7 67 -196
82 -85 6 -178 14 -207 17 -31 3 -54 1 -58 -6z m93 -52 c15 -20 9 -70 -10 -82
-22 -13 -30 -5 -34 35 -6 46 21 75 44 47z m257 -29 c-15 -7 -10 -8 18 -4 34 6
37 4 37 -20 0 -28 -12 -32 -34 -10 -8 8 -19 15 -25 15 -6 0 -11 -7 -11 -15 0
-8 -4 -15 -10 -15 -5 0 -10 6 -10 14 0 29 13 46 34 45 20 0 21 -1 1 -10z
m-263 -236 c3 -32 -1 -53 -10 -62 -12 -13 -15 -12 -24 2 -5 9 -18 17 -28 17
-11 0 -20 5 -20 11 0 15 53 79 66 79 7 0 14 -21 16 -47z"/>
<path d="M3508 4913 c12 -2 30 -2 40 0 9 3 -1 5 -23 4 -22 0 -30 -2 -17 -4z"/>
<path d="M3773 4893 c9 -2 23 -2 30 0 6 3 -1 5 -18 5 -16 0 -22 -2 -12 -5z"/>
<path d="M6796 4642 c-3 -5 8 -6 25 -4 16 2 29 6 29 8 0 8 -49 4 -54 -4z"/>
<path d="M6918 4633 c6 -2 18 -2 25 0 6 3 1 5 -13 5 -14 0 -19 -2 -12 -5z"/>
<path d="M3787 4533 c-3 -5 -2 -15 3 -22 10 -17 43 -6 38 12 -6 15 -34 22 -41
10z"/>
<path d="M4415 4530 c-3 -5 1 -10 9 -10 9 0 16 5 16 10 0 6 -4 10 -9 10 -6 0
-13 -4 -16 -10z"/>
<path d="M4410 4485 c-14 -16 -5 -35 16 -35 15 0 20 35 5 44 -5 3 -14 -1 -21
-9z"/>
<path d="M8088 4533 c7 -3 16 -2 19 1 4 3 -2 6 -13 5 -11 0 -14 -3 -6 -6z"/>
<path d="M7201 4514 c0 -11 3 -14 6 -6 3 7 2 16 -1 19 -3 4 -6 -2 -5 -13z"/>
<path d="M1448 4483 c7 -3 16 -2 19 1 4 3 -2 6 -13 5 -11 0 -14 -3 -6 -6z"/>
<path d="M2034 4438 c-3 -4 15 -8 40 -8 25 0 46 2 46 4 0 8 -82 11 -86 4z"/>
<path d="M2010 4408 c0 -7 -7 -80 -15 -163 -18 -185 -19 -250 -2 -263 32 -26
155 -46 284 -47 179 0 167 -15 188 239 16 208 16 215 -25 216 -8 0 -91 7 -185
15 -212 18 -245 19 -245 3z m70 -65 c0 -53 16 -58 34 -11 17 40 19 42 32 23 8
-10 14 -29 14 -42 0 -34 17 -28 30 12 10 30 30 49 30 28 -1 -29 -40 -128 -51
-128 -7 0 -18 20 -25 45 -7 28 -14 39 -17 30 -4 -8 -11 -28 -17 -43 -13 -37
-33 -30 -41 14 -19 97 -19 99 -4 99 10 0 15 -10 15 -27z"/>
<path d="M5635 4431 c-7 -12 12 -24 25 -16 11 7 4 25 -10 25 -5 0 -11 -4 -15
-9z"/>
<path d="M5625 4380 c-4 -7 -3 -16 3 -22 14 -14 45 -2 40 15 -6 16 -34 21 -43
7z"/>
<path d="M1470 4371 c-15 -29 -12 -57 7 -72 13 -11 17 -11 20 -1 3 6 13 12 24
12 20 0 26 31 13 64 -9 22 -51 20 -64 -3z"/>
<path d="M2653 4383 c9 -2 25 -2 35 0 9 3 1 5 -18 5 -19 0 -27 -2 -17 -5z"/>
<path d="M2625 4358 c-2 -7 -11 -98 -20 -202 -18 -218 -16 -226 58 -244 76
-20 220 -32 290 -25 107 10 105 5 122 233 13 181 13 196 -2 208 -9 6 -28 12
-42 12 -14 0 -102 7 -196 15 -208 18 -205 18 -210 3z m307 -78 c37 -17 58 -67
58 -135 0 -78 -18 -131 -54 -162 -28 -23 -36 -25 -112 -21 -45 1 -85 6 -88 9
-5 5 7 183 20 283 l6 48 72 -4 c39 -3 83 -11 98 -18z"/>
<path d="M2830 4193 c0 -16 -3 -58 -7 -95 -6 -67 -6 -68 19 -68 38 0 57 30 64
96 7 68 -7 94 -52 94 -20 0 -24 -5 -24 -27z"/>
<path d="M6240 4360 c0 -23 25 -27 33 -6 7 16 -1 26 -20 26 -7 0 -13 -9 -13
-20z"/>
<path d="M6235 4310 c3 -5 13 -10 21 -10 8 0 12 5 9 10 -3 6 -13 10 -21 10 -8
0 -12 -4 -9 -10z"/>
<path d="M9145 4370 c3 -5 8 -10 11 -10 2 0 4 5 4 10 0 6 -5 10 -11 10 -5 0
-7 -4 -4 -10z"/>
<path d="M3243 4314 c-8 -3 -13 -24 -13 -47 0 -23 -7 -111 -15 -196 -17 -180
-14 -191 57 -209 143 -36 338 -39 382 -6 18 13 21 36 33 212 11 168 10 199 -2
208 -7 5 -87 16 -177 23 -90 6 -183 14 -208 16 -25 2 -51 2 -57 -1z m294 -87
c34 -31 46 -81 39 -159 -11 -117 -46 -162 -126 -162 -55 0 -95 22 -118 65 -17
31 -10 175 11 215 18 35 45 60 72 67 36 8 99 -5 122 -26z"/>
<path d="M3420 4160 c-17 -31 -24 -134 -11 -158 14 -27 56 -29 70 -4 17 31 24
137 12 161 -15 27 -57 28 -71 1z"/>
<path d="M6846 4306 c-7 -30 2 -56 20 -56 16 0 29 43 20 65 -9 23 -33 18 -40
-9z"/>
<path d="M9670 4296 c0 -8 5 -18 10 -21 6 -3 10 1 10 9 0 8 -4 18 -10 21 -5 3
-10 -1 -10 -9z"/>
<path d="M9700 4302 c0 -10 22 -32 32 -32 4 0 8 9 8 20 0 13 -7 20 -20 20 -11
0 -20 -4 -20 -8z"/>
<path d="M3853 4258 c-6 -7 -13 -53 -17 -103 -3 -49 -11 -135 -16 -189 -14
-143 -8 -149 170 -177 42 -6 114 -9 164 -6 121 8 127 14 137 149 22 304 22
296 2 301 -10 3 -92 11 -183 17 -91 6 -183 13 -206 16 -27 3 -44 0 -51 -8z
m210 -98 c13 -53 22 -55 42 -10 16 36 21 40 56 40 21 0 41 -4 44 -10 3 -5 -10
-38 -29 -73 -41 -72 -43 -87 -20 -148 9 -24 20 -59 24 -77 l8 -33 -41 3 c-41
3 -42 5 -56 51 -8 26 -17 47 -21 47 -3 0 -16 -20 -28 -44 -21 -44 -22 -45 -59
-39 -21 3 -39 7 -41 9 -2 1 13 36 32 77 42 86 43 94 16 170 -27 77 -27 79 22
75 39 -3 43 -6 51 -38z"/>
<path d="M4143 4263 c9 -2 25 -2 35 0 9 3 1 5 -18 5 -19 0 -27 -2 -17 -5z"/>
<path d="M4253 4253 c9 -2 25 -2 35 0 9 3 1 5 -18 5 -19 0 -27 -2 -17 -5z"/>
<path d="M7457 4273 c-4 -3 -7 -21 -7 -40 0 -23 5 -33 15 -33 8 0 15 7 15 15
0 8 -5 15 -11 15 -7 0 -9 10 -5 25 6 25 5 30 -7 18z"/>
<path d="M8871 4256 c-9 -11 -10 -20 -1 -36 10 -18 14 -19 28 -8 9 7 18 13 20
14 5 3 -22 44 -29 44 -4 0 -12 -6 -18 -14z"/>
<path d="M8938 4258 c9 -9 15 -9 24 0 9 9 7 12 -12 12 -19 0 -21 -3 -12 -12z"/>
<path d="M8982 4245 c-11 -13 -10 -19 3 -37 15 -22 15 -22 15 15 0 42 0 42
-18 22z"/>
<path d="M8925 4200 c-3 -5 3 -10 15 -10 12 0 18 5 15 10 -3 6 -10 10 -15 10
-5 0 -12 -4 -15 -10z"/>
<path d="M4463 4207 c-13 -21 -41 -390 -31 -410 18 -35 159 -67 296 -67 109 0
158 13 165 43 9 36 30 397 24 404 -4 3 -77 11 -164 19 -87 7 -186 15 -220 18
-43 4 -65 1 -70 -7z m189 -64 c4 -2 10 -19 14 -38 9 -50 20 -51 40 -5 17 38
20 40 61 40 26 0 43 -5 43 -12 0 -6 -16 -39 -35 -74 -41 -73 -41 -77 -15 -151
29 -82 27 -103 -9 -103 -39 0 -58 20 -66 70 -4 22 -10 40 -14 40 -4 0 -15 -20
-25 -45 -18 -44 -20 -45 -63 -45 -41 0 -44 2 -37 23 4 12 22 51 40 87 l34 65
-25 68 c-34 93 -34 99 13 91 20 -4 40 -8 44 -11z"/>
<path d="M5074 4158 c-4 -6 -15 -97 -25 -202 -15 -165 -15 -194 -3 -213 25
-39 168 -67 319 -61 146 5 139 -5 158 238 8 107 10 199 6 204 -5 5 -102 18
-216 27 -253 22 -230 21 -239 7z m253 -66 c11 -7 6 -115 -12 -279 -6 -53 -6
-53 -42 -53 l-36 0 7 125 c3 68 9 145 12 170 6 40 9 45 33 45 14 0 31 -4 38
-8z"/>
<path d="M5343 4163 c15 -2 37 -2 50 0 12 2 0 4 -28 4 -27 0 -38 -2 -22 -4z"/>
<path d="M5445 4155 c25 -9 107 -12 94 -4 -8 5 -34 8 -59 8 -25 0 -40 -2 -35
-4z"/>
<path d="M5928 4113 c6 -2 18 -2 25 0 6 3 1 5 -13 5 -14 0 -19 -2 -12 -5z"/>
<path d="M5677 4048 c-26 -273 -30 -347 -18 -362 27 -33 120 -50 273 -50 197
-1 183 -17 202 234 8 107 12 198 8 202 -8 8 -335 38 -411 38 l-48 0 -6 -62z
m235 -86 c18 -47 34 -79 35 -71 1 8 5 44 8 82 l7 67 35 0 36 0 -7 -122 c-10
-194 -15 -218 -40 -218 -52 0 -63 11 -91 83 -35 90 -45 102 -45 52 0 -22 -3
-57 -6 -77 -6 -35 -9 -38 -40 -38 -33 0 -34 1 -34 41 0 77 22 284 31 290 5 3
24 3 43 1 33 -4 36 -7 68 -90z"/>
<path d="M6083 4103 c9 -2 25 -2 35 0 9 3 1 5 -18 5 -19 0 -27 -2 -17 -5z"/>
<path d="M6145 4090 c3 -5 8 -10 11 -10 2 0 4 5 4 10 0 6 -5 10 -11 10 -5 0
-7 -4 -4 -10z"/>
<path d="M6308 4083 c7 -3 16 -2 19 1 4 3 -2 6 -13 5 -11 0 -14 -3 -6 -6z"/>
<path d="M6568 4063 c7 -3 16 -2 19 1 4 3 -2 6 -13 5 -11 0 -14 -3 -6 -6z"/>
<path d="M6296 4049 c-2 -8 -11 -99 -21 -204 l-16 -190 25 -21 c48 -42 304
-70 398 -44 20 6 39 18 42 28 11 34 36 396 28 404 -9 9 -153 25 -324 34 -105
6 -128 4 -132 -7z m320 -83 c17 -18 24 -40 24 -67 0 -39 0 -39 -40 -39 -35 0
-40 3 -40 23 0 48 -49 63 -75 24 -16 -24 -23 -145 -10 -166 3 -6 22 -11 41
-11 27 0 34 4 34 19 0 11 -9 21 -21 24 -18 5 -20 10 -14 39 4 18 8 34 10 36 1
1 26 0 56 -4 l54 -6 -5 -75 c-6 -83 -16 -98 -77 -109 -117 -22 -183 52 -168
190 14 124 47 159 144 154 55 -4 67 -8 87 -32z"/>
<path d="M6698 4053 c7 -3 16 -2 19 1 4 3 -2 6 -13 5 -11 0 -14 -3 -6 -6z"/>
<path d="M6742 3645 c0 -16 2 -22 5 -12 2 9 2 23 0 30 -3 6 -5 -1 -5 -18z"/>
<path d="M7143 4013 c15 -2 37 -2 50 0 12 2 0 4 -28 4 -27 0 -38 -2 -22 -4z"/>
<path d="M6960 3931 c0 -17 6 -21 31 -21 24 0 30 4 27 18 -2 10 -14 18 -31 20
-22 3 -27 -1 -27 -17z"/>
<path d="M8233 3923 c15 -2 39 -2 55 0 15 2 2 4 -28 4 -30 0 -43 -2 -27 -4z"/>
<path d="M2143 3833 c9 -2 25 -2 35 0 9 3 1 5 -18 5 -19 0 -27 -2 -17 -5z"/>
<path d="M9343 3808 c-12 -15 -47 -347 -41 -393 4 -36 29 -50 130 -71 93 -20
240 -14 267 10 18 17 29 90 47 337 8 103 22 93 -161 109 -71 5 -153 13 -181
16 -35 3 -54 1 -61 -8z m86 -52 c15 -18 3 -46 -20 -46 -22 0 -34 22 -25 45 7
19 30 19 45 1z m211 -32 c0 -14 4 -23 10 -19 5 3 7 11 4 18 -2 7 3 13 14 13
13 0 19 -8 19 -26 0 -23 -4 -25 -51 -28 -64 -3 -81 7 -72 42 5 22 12 26 41 26
31 0 35 -3 35 -26z m-222 -276 c24 -24 6 -30 -67 -19 -2 1 2 8 9 16 15 18 42
19 58 3z"/>
<path d="M9400 3740 c0 -5 5 -10 10 -10 6 0 10 5 10 10 0 6 -4 10 -10 10 -5 0
-10 -4 -10 -10z"/>
<path d="M9593 3721 c-10 -16 -9 -20 3 -25 21 -8 34 1 34 25 0 24 -22 25 -37
0z"/>
<path d="M9578 3813 c7 -3 16 -2 19 1 4 3 -2 6 -13 5 -11 0 -14 -3 -6 -6z"/>
<path d="M1590 3756 c0 -9 5 -16 10 -16 6 0 10 4 10 9 0 6 -4 13 -10 16 -5 3
-10 -1 -10 -9z"/>
<path d="M3018 3763 c7 -3 16 -2 19 1 4 3 -2 6 -13 5 -11 0 -14 -3 -6 -6z"/>
<path d="M2732 3748 c-13 -13 -17 -68 -4 -68 4 1 24 16 45 34 36 32 37 34 15
40 -33 8 -43 7 -56 -6z"/>
<path d="M3078 3753 c7 -3 16 -2 19 1 4 3 -2 6 -13 5 -11 0 -14 -3 -6 -6z"/>
<path d="M3128 3688 c23 -23 42 -48 42 -56 0 -7 5 -10 10 -7 6 3 10 26 10 49
0 47 -11 56 -74 56 l-29 0 41 -42z"/>
<path d="M790 3695 c0 -19 -1 -38 -2 -42 -2 -5 13 -9 32 -10 19 -1 27 1 18 3
-13 4 -18 16 -18 45 0 28 -4 39 -15 39 -10 0 -15 -11 -15 -35z"/>
<path d="M3327 3658 c-4 -29 -11 -122 -17 -207 -11 -144 -10 -155 7 -172 55
-55 377 -80 439 -34 15 10 20 38 30 151 17 189 17 274 2 279 -11 4 -407 35
-443 35 -7 0 -15 -21 -18 -52z m112 6 c38 -8 35 -29 -4 -29 -37 0 -45 -23 -9
-27 40 -5 42 -26 2 -30 -28 -2 -34 -7 -36 -30 -6 -55 -22 -26 -22 40 0 87 2
89 69 76z"/>
<path d="M4163 3663 c9 -2 23 -2 30 0 6 3 -1 5 -18 5 -16 0 -22 -2 -12 -5z"/>
<path d="M4168 3153 c7 -3 16 -2 19 1 4 3 -2 6 -13 5 -11 0 -14 -3 -6 -6z"/>
<path d="M4248 3153 c6 -2 18 -2 25 0 6 3 1 5 -13 5 -14 0 -19 -2 -12 -5z"/>
<path d="M3616 3078 c-6 -22 -26 -212 -26 -243 1 -26 4 -22 20 24 11 29 27 65
35 78 12 18 15 36 10 64 -5 31 -4 39 8 39 9 0 18 -6 20 -12 4 -9 15 -3 33 17
l27 30 -24 6 c-42 12 -99 10 -103 -3z"/>
<path d="M4290 2945 c0 -9 9 -15 25 -15 16 0 25 6 25 15 0 9 -9 15 -25 15 -16
0 -25 -6 -25 -15z"/>
<path d="M4280 2886 c0 -16 34 -31 50 -21 22 14 10 35 -20 35 -19 0 -30 -5
-30 -14z"/>
<path d="M5168 3554 c-8 -13 -31 -363 -27 -399 3 -21 12 -34 31 -43 104 -50
379 -56 423 -10 19 19 52 408 36 418 -7 4 -83 12 -169 19 -86 6 -187 14 -223
18 -36 3 -69 2 -71 -3z m126 -101 c-8 -67 -17 -83 -51 -83 -23 0 -47 34 -36
53 7 13 23 8 23 -8 0 -8 6 -15 14 -15 16 0 26 30 26 78 0 22 5 32 16 32 13 0
14 -9 8 -57z"/>
<path d="M5652 3500 c0 -14 2 -19 5 -12 2 6 2 18 0 25 -3 6 -5 1 -5 -13z"/>
<path d="M5786 3488 c-4 -12 -19 -164 -32 -314 -9 -96 -1 -107 88 -130 90 -23
335 -27 360 -6 18 14 23 53 38 266 7 95 8 152 1 159 -10 10 -279 36 -384 37
-46 0 -69 -4 -71 -12z m54 -48 c0 -24 22 -26 40 -5 7 8 22 15 33 15 19 0 19
-2 -7 -29 l-27 -28 22 -37 c28 -48 15 -60 -19 -18 -32 39 -38 40 -46 7 -11
-44 -26 -27 -26 29 0 58 7 86 21 86 5 0 9 -9 9 -20z"/>
<path d="M6598 3463 c12 -2 32 -2 45 0 12 2 2 4 -23 4 -25 0 -35 -2 -22 -4z"/>
<path d="M6398 3444 c-5 -4 -8 -36 -8 -72 0 -56 2 -63 15 -52 9 7 15 29 15 51
0 28 4 39 15 39 9 0 15 -9 15 -25 0 -27 10 -31 42 -14 38 20 136 12 185 -16
25 -14 51 -25 57 -25 6 0 34 -18 61 -40 l50 -40 8 77 c4 42 4 80 -1 85 -16 16
-441 46 -454 32z"/>
<path d="M7018 3433 c7 -3 16 -2 19 1 4 3 -2 6 -13 5 -11 0 -14 -3 -6 -6z"/>
<path d="M6872 3405 c0 -16 2 -22 5 -12 2 9 2 23 0 30 -3 6 -5 -1 -5 -18z"/>
<path d="M7608 3383 c7 -3 16 -2 19 1 4 3 -2 6 -13 5 -11 0 -14 -3 -6 -6z"/>
<path d="M7070 3280 c-14 -27 -4 -60 19 -60 27 0 44 26 37 55 -8 31 -41 34
-56 5z"/>
<path d="M7262 3284 c-7 -8 -8 -14 -3 -14 10 0 25 19 20 25 -2 1 -10 -3 -17
-11z"/>
<path d="M5859 2879 c38 -23 62 -21 37 4 -10 9 -29 17 -44 17 l-27 0 34 -21z"/>
<path d="M9298 3243 c12 -2 32 -2 45 0 12 2 2 4 -23 4 -25 0 -35 -2 -22 -4z"/>
<path d="M744 3130 c-14 -14 -5 -70 11 -70 7 0 15 14 17 30 5 33 -12 56 -28
40z"/>
<path d="M9440 3140 c0 -5 5 -10 10 -10 6 0 10 5 10 10 0 6 -4 10 -10 10 -5 0
-10 -4 -10 -10z"/>
<path d="M9490 3115 c0 -8 4 -15 9 -15 5 0 11 7 15 15 3 9 0 15 -9 15 -8 0
-15 -7 -15 -15z"/>
<path d="M4338 2543 c7 -3 16 -2 19 1 4 3 -2 6 -13 5 -11 0 -14 -3 -6 -6z"/>
<path d="M4418 2533 c12 -2 32 -2 45 0 12 2 2 4 -23 4 -25 0 -35 -2 -22 -4z"/>
<path d="M9500 2515 c0 -8 5 -15 10 -15 6 0 10 7 10 15 0 8 -4 15 -10 15 -5 0
-10 -7 -10 -15z"/>
<path d="M6875 1871 c-3 -5 -1 -12 5 -16 5 -3 10 1 10 9 0 18 -6 21 -15 7z"/>
<path d="M9322 1677 c-7 -8 -7 -18 -2 -27 10 -17 23 -8 27 20 3 23 -9 26 -25
7z"/>
</g>
</svg>
