<?xml version="1.0" standalone="no"?>
<!DOCTYPE svg PUBLIC "-//W3C//DTD SVG 20010904//EN"
 "http://www.w3.org/TR/2001/REC-SVG-20010904/DTD/svg10.dtd">
<svg version="1.0" xmlns="http://www.w3.org/2000/svg"
 width="259.000000pt" height="194.000000pt" viewBox="0 0 259.000000 194.000000"
 preserveAspectRatio="xMidYMid meet">

<g transform="translate(0.000000,194.000000) scale(0.100000,-0.100000)"
fill="#000000" stroke="none">
<path d="M0 970 l0 -970 1295 0 1295 0 0 970 0 970 -1295 0 -1295 0 0 -970z
m1537 824 c-3 -3 -12 -4 -19 -1 -8 3 -5 6 6 6 11 1 17 -2 13 -5z m-97 -34
c-19 -16 -36 -33 -36 -39 -1 -6 -2 -16 -3 -21 0 -6 -11 -14 -22 -18 -24 -9
-53 -68 -38 -77 5 -4 9 4 9 16 0 16 3 19 13 11 10 -8 16 -6 26 10 18 30 37 8
20 -23 -19 -35 -48 -121 -49 -143 0 -11 -7 -27 -15 -36 -19 -21 -49 -94 -36
-85 6 3 11 11 11 16 0 5 10 20 21 32 l21 22 -7 -22 c-4 -14 -2 -23 4 -23 8 0
7 -7 -1 -20 -9 -14 -24 -20 -50 -20 -21 0 -38 -4 -38 -10 0 -9 14 -14 33 -11
12 2 8 -13 -15 -65 -12 -27 -23 -44 -25 -37 -2 6 3 25 11 41 13 25 13 31 2 35
-11 5 -14 26 -11 101 2 52 9 104 15 116 6 12 9 24 6 27 -3 3 1 21 9 39 8 19
15 38 16 42 10 47 56 106 114 149 44 33 56 27 15 -7z m-193 -27 c-3 -10 -5 -4
-5 12 0 17 2 24 5 18 2 -7 2 -21 0 -30z m40 15 c-3 -8 -6 -5 -6 6 -1 11 2 17
5 13 3 -3 4 -12 1 -19z m435 -85 c20 -41 22 -50 9 -46 -13 4 -13 2 2 -10 9 -8
17 -17 17 -21 0 -11 -18 -6 -35 10 -9 9 -19 14 -22 10 -3 -3 6 -16 20 -29 16
-13 27 -33 27 -47 1 -14 1 -38 1 -55 1 -16 -1 -50 -4 -75 -3 -28 -1 -48 7 -53
8 -6 8 -10 -1 -14 -7 -2 -13 -11 -13 -19 0 -8 -8 -14 -17 -13 -11 0 -13 3 -5
6 6 2 12 12 12 21 0 13 -2 14 -8 4 -7 -10 -15 -10 -43 2 -19 9 -28 15 -22 16
9 0 12 13 10 40 -3 41 1 48 20 29 7 -7 12 -6 16 5 4 9 2 16 -4 16 -7 0 -8 14
-4 40 4 21 3 45 -1 51 -4 7 -8 25 -9 41 -3 30 -68 118 -88 118 -7 0 -6 4 3 10
9 6 18 6 24 0 16 -16 25 -11 21 10 -2 11 0 20 5 20 5 0 6 8 3 17 -16 40 54
-34 79 -84z m-221 57 c5 0 9 -7 9 -15 0 -8 -4 -15 -9 -15 -11 0 -21 26 -20 48
1 15 2 15 6 0 2 -10 9 -18 14 -18z m-1197 4 c3 -8 2 -12 -4 -9 -6 3 -10 10
-10 16 0 14 7 11 14 -7z m42 -50 c-9 -13 -22 -24 -29 -24 -6 0 -3 7 7 15 11 8
20 25 22 37 4 39 7 44 11 20 3 -13 -3 -34 -11 -48z m1101 44 c-4 -12 -1 -28 5
-35 8 -10 5 -13 -16 -13 -14 0 -26 5 -26 10 0 6 4 10 9 10 5 0 12 11 15 25 4
14 9 25 12 25 4 0 4 -10 1 -22z m-654 -45 c3 -31 1 -51 -8 -60 -18 -17 -25
-17 -25 2 0 8 -7 15 -15 15 -8 0 -15 7 -15 16 0 18 37 74 49 74 5 0 11 -21 14
-47z m762 36 c11 -17 0 -20 -21 -4 -17 13 -17 14 -2 15 9 0 20 -5 23 -11z
m-927 -67 c-2 -11 -13 -17 -28 -17 -20 0 -25 5 -27 25 -1 22 -1 22 4 3 2 -13
11 -23 18 -23 25 0 28 21 6 44 -12 12 -21 26 -21 32 0 5 12 -4 26 -19 14 -15
24 -35 22 -45z m242 48 c6 -11 8 -36 4 -55 -14 -74 -64 -67 -64 9 0 61 37 89
60 46z m876 6 c3 -8 1 -23 -6 -33 -10 -16 -10 -14 -6 9 4 16 1 28 -7 31 -9 4
-9 6 1 6 7 1 15 -5 18 -13z m-1333 -24 c-3 -12 -9 -22 -14 -22 -5 0 -3 11 3
25 13 30 20 28 11 -3z m531 19 c7 -10 -35 -111 -46 -111 -14 0 -9 29 9 57 16
24 16 26 0 38 -9 7 -17 15 -17 19 0 9 48 7 54 -3z m849 -5 c8 -21 -7 -69 -24
-74 -12 -5 -12 -3 0 11 9 11 10 17 2 17 -6 0 -11 10 -10 23 0 12 3 16 6 10 2
-7 9 -13 14 -13 6 0 5 8 -1 20 -6 11 -7 20 -1 20 5 0 11 -6 14 -14z m-783 -3
c0 -5 5 -15 10 -23 8 -13 11 -12 24 5 22 30 46 4 41 -43 -2 -20 -4 -43 -4 -49
-1 -21 -41 -15 -49 8 -7 19 -9 19 -21 5 -14 -17 -51 -22 -51 -7 0 5 10 12 23
15 l22 7 -22 9 c-23 9 -29 33 -17 64 6 16 44 23 44 9z m540 -18 c0 -12 -19
-12 -23 0 -4 9 -1 12 9 8 7 -3 14 -7 14 -8z m-1016 -27 c7 -5 4 -8 -6 -8 -12
0 -18 7 -17 23 0 15 2 17 6 7 3 -8 11 -18 17 -22z m604 -34 c-2 -19 0 -34 4
-34 4 0 8 -4 8 -10 0 -13 -47 -13 -55 0 -3 6 1 13 9 16 18 7 23 64 6 64 -17 0
-11 18 8 22 20 4 25 -11 20 -58z m476 38 c2 -4 -4 -8 -14 -8 -11 0 -17 2 -15
5 3 2 -1 11 -8 19 -10 13 -9 14 10 4 12 -7 24 -16 27 -20z m296 24 c0 -3 -4
-8 -10 -11 -5 -3 -10 -1 -10 4 0 6 5 11 10 11 6 0 10 -2 10 -4z m-699 -27 c16
-31 -5 -102 -29 -97 -33 6 -25 118 9 118 5 0 13 -10 20 -21z m617 -6 c-2 -14
-10 -28 -18 -30 -12 -4 -13 -3 -1 5 8 6 12 19 8 31 -3 12 -1 21 5 21 5 0 8
-12 6 -27z m-372 -2 c-10 -11 -17 -38 -19 -67 -2 -45 -4 -49 -28 -49 -20 -1
-25 3 -21 17 5 21 18 24 25 6 2 -7 8 -9 13 -5 5 5 1 15 -10 23 -18 12 -15 19
7 15 4 0 7 9 7 21 0 19 25 58 38 58 3 0 -2 -8 -12 -19z m-766 -15 c0 -23 -16
-27 -17 -5 -1 10 2 19 8 19 5 0 9 -6 9 -14z m1166 5 c-4 -5 0 -12 6 -14 8 -3
6 -6 -4 -6 -18 -1 -24 10 -11 22 9 10 15 8 9 -2z m31 -13 c-3 -8 -6 -5 -6 6
-1 11 2 17 5 13 3 -3 4 -12 1 -19z m-227 -33 c0 -5 -5 -3 -10 5 -5 8 -10 20
-10 25 0 6 5 3 10 -5 5 -8 10 -19 10 -25z m-170 21 c0 -2 -7 -6 -15 -10 -8 -3
-15 -1 -15 4 0 6 7 10 15 10 8 0 15 -2 15 -4z m53 -34 c-3 -9 -11 -23 -16 -30
-8 -10 -7 -16 4 -23 11 -7 9 -9 -8 -9 -28 0 -28 7 -3 45 15 23 17 32 7 45 -10
13 -10 13 5 2 10 -8 14 -21 11 -30z m57 -15 c0 -10 4 -16 9 -13 5 4 12 0 15
-6 4 -7 4 -3 2 8 -2 12 0 28 5 35 6 9 9 1 9 -23 0 -39 -15 -49 -38 -26 -9 9
-12 8 -12 -4 0 -21 -16 -32 -26 -17 -4 7 -3 9 3 6 14 -9 26 38 18 66 -5 17 -4
19 4 7 6 -8 11 -23 11 -33z m-1354 18 c4 -8 1 -22 -6 -31 -10 -11 -10 -18 -2
-26 18 -18 14 -46 -8 -53 -33 -10 -77 23 -51 39 5 3 11 -3 14 -14 3 -11 12
-20 20 -20 30 0 28 21 -3 56 -17 20 -29 39 -26 42 4 3 12 -3 20 -13 7 -10 18
-15 24 -11 19 11 14 26 -10 36 l-23 9 23 0 c12 1 25 -6 28 -14z m1249 -25 c-9
-40 -39 -38 -41 3 -1 25 -1 25 3 2 6 -34 22 -31 30 5 3 17 8 29 10 26 3 -2 2
-19 -2 -36z m72 8 c-3 -7 -5 -2 -5 12 0 14 2 19 5 13 2 -7 2 -19 0 -25z
m-1247 11 c0 -5 -4 -7 -10 -4 -5 3 -10 -2 -10 -12 0 -10 9 -24 21 -31 24 -15
22 -50 -3 -66 -13 -8 -21 -7 -29 1 -9 9 -7 11 8 7 30 -8 40 26 14 48 -25 19
-29 68 -6 68 8 0 15 -5 15 -11z m1450 -49 l-10 -35 5 38 c2 20 0 37 -6 37 -5
0 -9 5 -9 12 0 9 4 8 14 -2 11 -11 13 -23 6 -50z m-1343 38 c19 -24 22 -61 7
-90 -17 -33 -39 -36 -54 -9 -30 57 12 144 47 99z m820 -20 c-3 -7 -5 -2 -5 12
0 14 2 19 5 13 2 -7 2 -19 0 -25z m-734 15 c-29 -6 -29 -30 -2 -52 18 -15 20
-21 10 -39 -7 -13 -20 -21 -34 -21 l-22 2 23 4 c26 5 33 53 7 53 -10 0 -15 10
-15 30 0 26 3 30 28 29 23 -2 24 -2 5 -6z m86 -54 c-2 -35 1 -53 12 -60 11 -7
8 -9 -10 -9 -23 0 -24 2 -18 50 5 43 4 50 -11 51 -14 0 -13 2 3 9 11 5 21 9
23 9 2 1 2 -22 1 -50z m1261 47 c0 -2 -7 -7 -16 -10 -8 -3 -12 -2 -9 4 6 10
25 14 25 6z m-1175 -13 c-11 -3 -23 -10 -27 -17 -5 -7 -8 -5 -8 7 0 12 7 17
28 16 21 -1 22 -2 7 -6z m93 -37 c6 -49 -6 -78 -31 -74 -18 2 -23 11 -25 42
-2 21 0 42 5 47 4 4 8 -11 8 -34 0 -31 4 -42 15 -42 20 0 27 74 8 87 -10 8
-10 9 2 5 8 -2 16 -16 18 -31z m148 -32 c1 -33 -3 -47 -16 -54 -25 -14 -45 11
-31 39 6 11 8 26 5 34 -3 8 -1 18 4 21 5 3 9 0 8 -7 0 -6 4 -12 9 -12 6 0 10
8 9 17 0 10 2 15 5 12 3 -3 7 -26 7 -50z m74 36 c0 -5 -6 -7 -14 -4 -9 4 -16
-3 -19 -18 -4 -21 -4 -20 -6 5 -1 21 4 27 19 27 11 0 20 -4 20 -10z m680 1 c0
-6 -4 -13 -10 -16 -5 -3 -10 1 -10 9 0 9 5 16 10 16 6 0 10 -4 10 -9z m-990
-21 c19 -35 -24 -83 -45 -50 -3 6 3 10 13 10 29 0 35 27 9 45 -17 12 -18 15
-5 15 10 0 22 -9 28 -20z m378 -20 c2 -20 -4 -43 -13 -55 -15 -20 -15 -20 -30
-1 -8 11 -15 24 -15 30 0 5 7 1 15 -10 13 -16 16 -17 25 -4 13 20 13 70 -1 70
-6 0 -13 -9 -16 -20 -3 -11 -10 -20 -15 -20 -5 0 -7 3 -5 8 2 4 7 15 10 25 12
32 42 16 45 -23z m309 8 c-3 -7 -5 -2 -5 12 0 14 2 19 5 13 2 -7 2 -19 0 -25z
m-250 16 c-3 -3 -12 -4 -19 -1 -8 3 -5 6 6 6 11 1 17 -2 13 -5z m54 -40 c-1
-19 3 -42 9 -50 10 -11 10 -14 -1 -14 -19 0 -49 20 -31 20 9 0 13 12 12 38 -3
49 -1 57 7 48 4 -4 6 -23 4 -42z m624 36 c3 -5 1 -10 -4 -10 -6 0 -11 5 -11
10 0 6 2 10 4 10 3 0 8 -4 11 -10z m-562 -7 c-16 -6 -17 -33 -2 -33 6 0 9 -12
7 -27 -2 -19 -10 -29 -23 -31 -18 -2 -18 -2 -2 8 18 12 24 40 7 40 -5 0 -10
11 -10 25 0 17 5 25 18 24 10 0 12 -3 5 -6z m-118 -62 c-3 -11 -14 -21 -23
-21 -16 1 -15 2 1 11 21 12 22 38 2 45 -8 4 -15 11 -15 17 0 6 9 2 21 -10 15
-14 19 -27 14 -42z m-134 10 c-7 -12 -19 -21 -29 -21 -13 0 -12 3 5 15 14 10
20 22 16 33 -5 13 -3 14 6 6 10 -9 10 -17 2 -33z m435 1 c-2 -46 -12 -63 -32
-55 -12 4 -14 14 -9 42 8 44 12 51 30 51 9 0 12 -12 11 -38z m54 29 c0 -5 -6
-11 -12 -14 -10 -3 -10 -7 -1 -18 16 -20 5 -59 -16 -59 -12 0 -13 2 -3 8 9 6
11 21 6 50 -5 35 -4 42 10 42 9 0 16 -4 16 -9z m48 -43 c-2 -31 -8 -44 -20
-46 -14 -3 -18 3 -18 26 0 41 9 62 27 62 11 0 13 -11 11 -42z m42 22 c-9 -6
-9 -12 0 -30 10 -18 9 -25 -3 -37 -10 -10 -17 -11 -21 -4 -4 6 0 11 8 11 19 0
20 4 4 29 -13 21 -4 56 13 45 8 -5 8 -9 -1 -14z m55 -27 c-1 -21 -3 -41 -4
-45 -1 -5 -8 -8 -17 -8 -13 0 -15 7 -10 31 3 17 6 38 6 45 0 8 6 14 14 14 11
0 14 -10 11 -37z m-795 7 c0 -11 -2 -20 -4 -20 -2 0 -6 9 -9 20 -3 11 -1 20 4
20 5 0 9 -9 9 -20z m977 -23 c-3 -38 -15 -60 -28 -51 -11 6 -7 63 5 83 12 20
25 2 23 -32z m43 23 c0 -5 -4 -10 -8 -10 -5 0 -7 -13 -4 -29 4 -27 -12 -50
-26 -36 -3 3 0 10 8 15 11 7 12 12 4 20 -15 15 -6 50 12 50 8 0 14 -4 14 -10z
m33 -7 c3 -5 8 -24 11 -43 5 -26 4 -31 -3 -20 -7 10 -11 11 -11 3 0 -7 -7 -13
-15 -13 -16 0 -20 35 -9 64 6 17 20 21 27 9z m40 1 c-7 -3 -10 -19 -7 -42 4
-36 4 -36 -6 -7 -11 34 -7 55 12 54 9 0 10 -2 1 -5z m37 -19 c0 -8 -2 -15 -4
-15 -2 0 -6 7 -10 15 -3 8 -1 15 4 15 6 0 10 -7 10 -15z m-1747 -60 c-5 -46
-3 -55 11 -55 9 0 16 -4 16 -8 0 -4 -17 -6 -37 -3 -21 3 -30 6 -20 9 14 3 17
14 17 58 0 30 4 54 9 54 5 0 7 -25 4 -55z m117 36 c14 -28 12 -63 -6 -89 -15
-22 -54 -31 -54 -12 0 5 7 7 16 3 9 -3 20 0 25 8 13 22 11 27 -13 31 -26 3
-36 41 -18 64 17 20 37 18 50 -5z m1660 -1 c6 -11 8 -20 6 -20 -3 0 -10 9 -16
20 -6 11 -8 20 -6 20 3 0 10 -9 16 -20z m-1852 -31 c-3 -20 -5 -19 -9 9 -3 20
-2 29 4 23 5 -5 7 -19 5 -32z m244 11 c-3 -23 0 -30 12 -30 23 0 31 27 15 47
-12 14 -12 16 1 11 19 -6 26 -84 9 -104 -6 -8 -23 -13 -38 -13 -21 1 -22 2 -6
6 25 6 45 22 45 35 0 6 -6 8 -14 5 -8 -3 -22 0 -32 8 -16 11 -16 17 -6 39 15
34 20 33 14 -4z m126 18 c27 -27 6 -118 -28 -118 -31 0 -37 103 -8 122 17 10
22 10 36 -4z m164 -48 c-3 -32 0 -50 7 -50 6 0 11 -4 11 -10 0 -5 -16 -10 -35
-10 -19 0 -35 5 -35 10 0 6 7 10 15 10 11 0 15 11 15 41 0 24 -4 38 -10 34 -5
-3 -10 -2 -10 3 0 13 12 22 29 22 13 0 15 -10 13 -50z m95 -8 c1 -42 -2 -54
-18 -62 -20 -11 -39 -6 -39 11 0 6 4 8 8 5 4 -2 14 0 22 5 13 8 12 12 -5 25
-19 14 -19 16 -2 25 21 12 22 29 2 29 -8 0 -15 5 -15 11 0 6 10 9 23 7 19 -3
22 -9 24 -56z m1175 36 c-7 -7 -12 -8 -12 -2 0 6 3 14 7 17 3 4 9 5 12 2 2 -3
-1 -11 -7 -17z m-1875 -10 c-3 -8 -6 -5 -6 6 -1 11 2 17 5 13 3 -3 4 -12 1
-19z m783 12 c0 -5 -9 -10 -20 -10 -23 0 -27 -15 -5 -24 18 -7 20 -47 3 -64
-17 -17 -38 -15 -38 4 0 8 4 13 9 9 17 -10 24 18 8 30 -17 12 -23 46 -10 58
10 11 53 8 53 -3z m68 -7 c9 -16 11 -16 27 0 20 21 29 21 45 2 9 -11 16 -13
24 -5 13 13 46 13 46 0 0 -7 6 -7 19 0 30 15 31 14 31 -40 0 -29 5 -50 11 -50
5 0 7 -4 4 -10 -8 -13 -65 -13 -65 0 0 6 7 13 15 16 16 6 21 64 6 64 -5 0 -12
-16 -15 -35 -8 -43 -38 -62 -60 -39 -9 8 -16 11 -16 5 0 -17 -50 -13 -56 4 -5
13 -8 13 -21 0 -22 -22 -42 -18 -54 11 -21 57 32 126 59 77z m442 -18 c0 -8
-7 -15 -15 -15 -19 0 -19 -14 -1 -29 20 -17 8 -51 -18 -50 -17 1 -17 2 -3 6
18 5 24 43 7 43 -18 0 -11 48 8 53 9 3 18 5 20 6 1 0 2 -6 2 -14z m330 5 c0
-5 15 -16 33 -24 17 -8 26 -15 20 -15 -7 -1 -16 -19 -19 -40 -5 -30 -10 -38
-23 -34 -13 4 -13 2 2 -7 13 -8 15 -15 7 -30 -10 -19 3 -39 14 -21 8 12 43 3
49 -12 6 -18 -13 -78 -22 -72 -12 7 -19 -25 -27 -115 -5 -54 -4 -71 4 -66 7 4
12 3 12 -2 0 -11 -25 -34 -31 -28 -2 3 -4 -14 -4 -37 0 -23 -4 -55 -8 -71 -7
-24 -5 -27 7 -23 12 5 16 0 16 -18 0 -19 -4 -23 -17 -18 -10 3 -15 3 -11 -1 4
-5 3 -19 -2 -32 -7 -19 -6 -24 5 -24 8 0 15 -8 15 -17 0 -15 -2 -16 -10 -3 -8
13 -10 13 -10 -2 0 -9 5 -18 11 -20 16 -5 1 -34 -25 -46 -12 -5 -47 -15 -77
-21 -29 -6 -67 -13 -84 -17 -62 -12 -151 -26 -167 -26 -10 1 -18 -3 -18 -8 0
-5 -8 -9 -17 -9 -10 0 -35 -4 -55 -9 -28 -7 -38 -7 -38 2 0 6 -4 5 -9 -3 -5
-8 -24 -14 -42 -15 -19 0 -37 -5 -41 -11 -5 -7 -10 -7 -15 0 -5 6 -17 10 -28
10 -11 0 -20 6 -19 13 1 6 2 26 3 43 1 22 7 32 21 36 23 6 34 35 31 84 -1 20
3 47 8 61 13 35 3 68 -20 68 -15 0 -19 7 -19 38 0 57 33 83 49 40 7 -18 8 -13
8 22 0 25 3 54 7 65 4 11 4 15 -1 9 -12 -16 -42 -24 -48 -14 -4 6 1 10 9 10
21 0 31 21 15 31 -7 4 -10 11 -6 15 3 4 13 1 22 -6 10 -8 15 -9 15 -1 0 6 -4
11 -10 11 -5 0 -10 7 -10 15 0 9 -6 12 -17 8 -11 -4 -14 -3 -9 5 10 16 36 15
37 0 0 -7 5 1 10 17 11 38 5 55 -21 55 -19 0 -21 5 -18 48 l3 47 40 -1 c22 0
43 4 47 10 6 8 8 8 8 0 0 -6 7 -11 15 -11 8 0 15 4 15 9 0 4 5 8 11 8 5 0 8
-3 6 -7 -3 -5 8 -8 25 -9 19 -1 25 2 17 7 -12 7 55 5 139 -6 17 -2 32 0 32 3
0 4 9 8 20 8 11 0 20 -4 20 -8 0 -4 5 -8 11 -8 5 0 7 5 4 10 -3 6 -1 10 4 10
6 0 11 -4 11 -8 0 -4 12 -7 28 -6 15 1 38 2 52 3 20 1 26 7 28 26 1 20 -3 25
-21 25 -16 0 -18 3 -9 9 8 4 13 21 12 37 -3 44 1 52 10 19 7 -28 8 -27 9 13 1
30 5 42 16 42 8 0 15 -4 15 -10z m-457 -10 c-13 -5 -23 -14 -23 -20 0 -6 4 -9
9 -5 18 10 32 -30 17 -50 -19 -26 -36 -10 -36 34 0 43 5 51 34 50 20 0 20 -1
-1 -9z m180 -21 c8 -28 -9 -69 -28 -69 -11 0 -15 11 -15 38 0 21 3 42 7 45 13
14 31 7 36 -14z m52 4 c-4 -10 -12 -30 -17 -45 -5 -16 -14 -28 -19 -28 -5 0
-2 14 6 31 13 24 14 34 4 45 -9 11 -7 14 11 14 17 0 21 -4 15 -17z m49 1 c3
-8 -1 -26 -10 -40 -10 -15 -12 -24 -5 -24 6 0 11 -4 11 -10 0 -5 -9 -10 -20
-10 -24 0 -25 9 -5 36 16 22 20 58 5 49 -5 -3 -10 -1 -10 4 0 17 27 13 34 -5z
m40 -36 c-13 -25 -14 -32 -2 -39 9 -6 7 -9 -9 -9 -28 0 -28 3 -5 42 13 23 14
32 4 35 -6 3 -9 9 -6 14 4 6 11 6 20 -2 11 -9 11 -16 -2 -41z m225 0 c-1 -31
-1 -31 -8 -8 -5 14 -6 28 -4 33 9 15 13 6 12 -25z m-1199 -7 c0 -29 -15 -33
-18 -5 -1 13 3 24 8 24 6 0 10 -9 10 -19z m1244 -34 c-3 -9 -11 -17 -16 -17
-6 0 -5 6 2 15 10 12 10 18 -1 33 -12 16 -12 16 4 1 11 -9 15 -22 11 -32z m23
11 c-3 -7 -5 -2 -5 12 0 14 2 19 5 13 2 -7 2 -19 0 -25z m-690 -10 c-3 -7 -5
-2 -5 12 0 14 2 19 5 13 2 -7 2 -19 0 -25z m710 10 c-3 -8 -6 -5 -6 6 -1 11 2
17 5 13 3 -3 4 -12 1 -19z m-267 -5 c0 -5 -5 -15 -10 -23 -8 -12 -10 -11 -10
8 0 12 5 22 10 22 6 0 10 -3 10 -7z m185 -13 c3 -5 2 -10 -4 -10 -5 0 -13 5
-16 10 -3 6 -2 10 4 10 5 0 13 -4 16 -10z m-1567 -52 c7 -7 11 -26 11 -42 -2
-31 -2 -31 -8 4 -7 42 -37 53 -50 18 -6 -14 -10 -17 -10 -7 -1 17 18 39 34 39
6 0 16 -5 23 -12z m100 -13 c2 -12 -8 -31 -23 -45 -32 -30 -32 -40 3 -41 24
-2 25 -2 4 -6 -13 -3 -30 -2 -39 1 -12 5 -9 13 17 42 34 39 35 59 1 58 -11 0
-21 3 -21 8 0 5 12 8 28 6 18 -2 28 -10 30 -23z m95 3 c7 -11 8 -29 1 -55 -7
-30 -14 -38 -34 -40 -23 -3 -24 -2 -4 6 26 11 43 47 18 37 -34 -13 -59 35 -32
62 16 16 38 12 51 -10z m94 6 c3 -8 1 -20 -5 -26 -8 -8 -8 -17 -1 -30 7 -14 7
-23 -2 -34 -27 -32 -70 -4 -50 34 4 9 6 23 4 30 -13 35 40 61 54 26z m64 -41
c-2 -30 2 -49 11 -54 8 -6 1 -8 -22 -8 -19 1 -27 3 -17 6 13 3 17 15 17 49 0
28 -4 44 -12 44 -9 0 -8 3 2 10 21 13 24 5 21 -47z m99 47 c0 -5 -7 -10 -15
-10 -8 0 -15 -6 -15 -14 0 -8 7 -16 15 -20 8 -3 15 -16 14 -28 l0 -23 -9 23
c-5 12 -14 22 -20 22 -11 0 -14 43 -3 53 10 11 33 8 33 -3z m153 -42 c5 -34 3
-38 -16 -38 -16 0 -18 3 -9 12 7 7 12 21 12 33 -1 17 -3 16 -16 -7 -18 -33
-30 -38 -13 -5 14 26 31 49 34 45 1 -2 5 -20 8 -40z m77 -2 c0 -24 -6 -48 -13
-54 -21 -18 -40 3 -39 43 2 45 8 55 33 55 16 0 19 -7 19 -44z m66 6 c0 -34 -2
-36 -16 -22 -13 12 -14 17 -3 23 18 11 16 25 -4 30 -14 4 -14 5 3 6 18 1 21
-4 20 -37z m57 -3 c-4 -29 -2 -44 8 -50 10 -6 5 -9 -16 -8 -16 0 -24 3 -17 6
6 2 12 20 12 39 0 20 -5 34 -12 34 -9 0 -8 4 2 10 25 16 28 12 23 -31z m67 -3
c0 -26 5 -46 13 -49 6 -3 -4 -6 -23 -6 -28 0 -32 2 -17 10 19 11 24 69 6 69
-5 0 -7 5 -4 10 14 23 25 7 25 -34z m1217 -8 c-3 -7 -5 -2 -5 12 0 14 2 19 5
13 2 -7 2 -19 0 -25z m43 12 c6 -11 8 -20 6 -20 -3 0 -10 9 -16 20 -6 11 -8
20 -6 20 3 0 10 -9 16 -20z m-544 -36 c-3 -8 -11 -14 -18 -14 -10 0 -9 3 1 9
8 5 11 16 8 24 -3 8 -3 18 1 22 9 9 15 -22 8 -41z m34 17 c-7 -14 -6 -21 3
-24 7 -3 5 -6 -5 -6 -10 -1 -18 2 -18 5 0 9 20 44 26 44 2 0 0 -9 -6 -19z
m207 -3 c-3 -8 -6 -5 -6 6 -1 11 2 17 5 13 3 -3 4 -12 1 -19z m-165 -12 c7 4
8 2 4 -5 -10 -15 -26 -4 -25 17 1 15 2 15 6 -1 2 -9 9 -14 15 -11z m412 8 c3
-8 2 -12 -4 -9 -6 3 -10 10 -10 16 0 14 7 11 14 -7z m-2124 -19 c0 -8 -2 -15
-4 -15 -2 0 -6 7 -10 15 -3 8 -1 15 4 15 6 0 10 -7 10 -15z m41 -18 c-10 -9
-11 -8 -5 6 3 10 9 15 12 12 3 -3 0 -11 -7 -18z m519 3 c0 -5 -2 -10 -4 -10
-3 0 -8 5 -11 10 -3 6 -1 10 4 10 6 0 11 -4 11 -10z m-83 -6 c-3 -3 -12 -4
-19 -1 -8 3 -5 6 6 6 11 1 17 -2 13 -5z m1153 -41 c0 -15 1 -15 14 2 13 18 13
18 24 -1 10 -16 13 -17 21 -4 12 18 17 13 27 -24 5 -21 4 -27 -5 -22 -6 4 -11
0 -12 -11 0 -16 -1 -16 -8 2 -7 17 -9 17 -17 4 -5 -9 -23 -19 -41 -22 -38 -8
-49 11 -32 60 11 35 29 45 29 16z m218 -13 c-1 -35 -8 -33 -12 4 -2 14 0 26 5
26 4 0 7 -14 7 -30z m-74 -40 c-5 -5 -10 7 -11 28 -2 37 -2 37 9 9 6 -16 6
-33 2 -37z m41 29 c-5 -40 -11 -46 -20 -19 -4 12 -1 27 5 35 18 21 20 19 15
-16z m-76 -11 c-1 -31 -1 -31 -8 -8 -5 14 -6 28 -4 33 9 15 13 6 12 -25z
m-959 -34 c0 -42 -1 -45 -22 -38 -13 3 -24 8 -26 9 -4 3 39 75 44 75 2 0 4
-21 4 -46z m76 20 c9 -34 -11 -76 -34 -72 -34 6 -22 98 13 98 8 0 18 -12 21
-26z m58 -20 c-3 -44 -14 -76 -14 -41 0 10 -7 17 -15 17 -19 0 -19 4 0 40 22
43 32 37 29 -16z m-424 24 c0 -7 -5 -20 -11 -28 -8 -12 -9 -10 -4 8 6 21 4 23
-14 17 -12 -4 -21 -2 -21 4 0 6 11 11 25 11 14 0 25 -6 25 -12z m80 -2 c0 -8
-4 -18 -10 -21 -5 -3 -7 0 -4 9 4 9 -2 16 -18 19 -21 4 -20 4 5 6 17 1 27 -4
27 -13z m63 7 c-28 -5 -39 -33 -14 -33 10 0 21 -7 25 -15 9 -25 -5 -46 -28
-43 -44 6 -27 99 17 97 l22 -2 -22 -4z m-403 -18 c9 -11 9 -57 0 -91 -1 -7
-33 -12 -45 -8 -16 7 -22 89 -7 98 5 3 8 -16 8 -42 -1 -60 24 -66 39 -8 8 33
6 40 -10 52 -10 8 -14 14 -8 14 6 0 16 -7 23 -15z m84 -12 c-9 -35 -14 -42
-14 -17 0 15 -4 13 -20 -11 -11 -16 -20 -27 -20 -22 0 12 44 77 53 77 4 0 4
-12 1 -27z m76 -22 c0 -30 5 -51 13 -54 6 -3 -4 -5 -23 -5 -19 0 -27 2 -17 5
13 3 17 15 17 48 0 25 -5 45 -12 48 -8 3 -6 6 5 6 14 1 17 -8 17 -48z m-247
-33 c9 -6 9 -8 0 -8 -7 0 -13 -8 -14 -17 0 -14 -2 -15 -6 -3 -3 8 -11 18 -17
22 -8 5 -7 8 2 8 6 0 12 12 12 26 0 17 -4 23 -12 18 -8 -5 -7 0 2 11 14 17 15
16 18 -16 2 -18 9 -37 15 -41z m388 -5 c-12 -20 -14 -14 -5 12 4 9 9 14 11 11
3 -2 0 -13 -6 -23z m-219 -5 c-4 -16 -7 -18 -10 -8 -3 8 -10 18 -16 22 -6 5
-2 8 11 8 17 0 20 -4 15 -22z m388 12 c0 -5 -5 -10 -11 -10 -5 0 -7 5 -4 10 3
6 8 10 11 10 2 0 4 -4 4 -10z m910 -30 c0 -20 -5 -30 -15 -30 -8 0 -15 5 -15
11 0 5 5 7 11 4 6 -4 10 -1 8 6 -2 21 0 39 6 39 3 0 5 -13 5 -30z m76 -15 c-6
-18 -26 -11 -26 8 0 7 4 6 10 -3 8 -13 10 -12 10 4 0 11 3 17 6 13 4 -3 4 -13
0 -22z m-126 -32 c-11 -17 -11 -17 -6 0 3 10 6 24 7 30 0 9 2 9 5 0 3 -7 0
-20 -6 -30z m-664 -68 c-9 -17 -11 -18 -14 -3 -2 10 -9 15 -18 11 -19 -7 -18
8 2 33 13 16 15 16 10 2 -3 -10 -1 -18 5 -18 7 0 9 10 5 24 -3 12 -2 26 2 30
12 13 19 -57 8 -79z m-185 53 l12 -22 19 24 c23 28 28 24 30 -28 1 -41 -10
-69 -19 -44 -6 17 -42 15 -49 -3 -7 -18 -50 -20 -58 -2 -3 8 -8 7 -16 -5 -6
-10 -23 -18 -37 -18 -24 0 -25 13 -2 16 5 1 12 2 15 3 3 0 -4 9 -17 20 -21 16
-22 22 -11 45 13 29 49 36 59 11 5 -13 8 -13 20 5 18 26 39 26 54 -2z m-151 2
c0 -5 -7 -10 -15 -10 -8 0 -15 -4 -15 -10 0 -5 6 -10 14 -10 33 0 27 -65 -6
-76 -11 -3 -25 -1 -31 5 -16 16 -12 69 8 91 19 21 45 27 45 10z m-80 -45 c2
-36 -9 -75 -21 -75 -5 0 -9 7 -9 15 0 22 -43 19 -58 -5 -25 -41 -62 -20 -62
36 0 64 53 88 73 35 l11 -30 24 36 c26 38 39 35 42 -12z m-168 -12 c3 -21 1
-39 -4 -41 -4 -2 -8 -10 -8 -18 0 -8 -4 -14 -10 -14 -5 0 -10 5 -10 10 0 6 -9
10 -20 10 -25 0 -25 2 3 50 28 50 44 51 49 3z m1533 27 c3 -5 1 -10 -4 -10 -6
0 -11 5 -11 10 0 6 2 10 4 10 3 0 8 -4 11 -10z m169 2 c3 -5 -1 -9 -9 -9 -8 0
-12 4 -9 9 3 4 7 8 9 8 2 0 6 -4 9 -8z m-1879 -11 c3 -5 1 -12 -5 -16 -5 -3
-10 1 -10 9 0 18 6 21 15 7z m1505 -25 c0 -13 -6 -23 -15 -23 -8 0 -15 4 -15
9 0 4 5 8 11 8 6 0 9 9 6 20 -3 11 -1 18 4 14 5 -3 9 -15 9 -28z m27 -3 c-3
-10 -5 -4 -5 12 0 17 2 24 5 18 2 -7 2 -21 0 -30z m-76 18 c-7 -5 -10 -14 -7
-20 4 -6 2 -11 -3 -11 -12 0 -15 23 -4 33 3 4 11 7 17 7 6 0 5 -4 -3 -9z
m-779 -43 c-6 -6 -8 -1 -7 14 3 32 7 36 12 14 3 -10 1 -22 -5 -28z m1318 -3
c0 -16 -6 -25 -15 -25 -8 0 -15 5 -15 10 0 6 5 10 10 10 6 0 10 7 10 15 0 8 2
15 5 15 3 0 5 -11 5 -25z m-35 -3 c-3 -7 -5 -21 -5 -30 -1 -12 -5 -10 -15 8
-19 34 -18 39 5 37 13 -1 19 -6 15 -15z m83 -7 c-3 -3 -9 2 -12 12 -6 14 -5
15 5 6 7 -7 10 -15 7 -18z m-2080 -16 c-6 -16 -12 -28 -14 -26 -5 5 13 57 20
57 3 0 0 -14 -6 -31z m1483 8 c-10 -9 -11 -8 -5 6 3 10 9 15 12 12 3 -3 0 -11
-7 -18z m478 -4 c12 -24 6 -29 -17 -15 -7 5 -10 16 -6 26 7 19 7 19 23 -11z
m-2032 -15 c-3 -7 -5 -2 -5 12 0 14 2 19 5 13 2 -7 2 -19 0 -25z m173 -2 c0
-23 -16 -27 -17 -5 -1 10 2 19 8 19 5 0 9 -6 9 -14z m1760 10 c0 -3 -4 -8 -10
-11 -5 -3 -10 -1 -10 4 0 6 5 11 10 11 6 0 10 -2 10 -4z m-1083 -57 c-12 -28
-23 -46 -25 -40 -2 5 4 23 12 40 20 37 20 42 1 35 -8 -4 -15 -1 -15 5 0 6 11
11 24 11 l24 0 -21 -51z m-52 0 c-2 -23 -8 -46 -14 -52 -15 -15 -42 -1 -34 19
3 8 7 25 8 37 1 12 3 25 4 30 0 4 10 7 21 7 17 0 19 -6 15 -41z m902 9 c-3 -7
-5 -2 -5 12 0 14 2 19 5 13 2 -7 2 -19 0 -25z m-967 8 c0 -8 -4 -18 -10 -21
-6 -3 -7 1 -4 9 3 9 1 16 -5 16 -17 0 -13 -28 7 -39 13 -8 15 -14 6 -28 -6
-10 -19 -19 -28 -21 -13 -3 -15 4 -12 40 3 24 5 46 5 51 2 14 41 7 41 -7z
m-150 -10 c0 -2 -7 -6 -15 -10 -8 -3 -15 -1 -15 4 0 6 7 10 15 10 8 0 15 -2
15 -4z m-70 -10 c0 -2 3 -13 6 -23 5 -17 5 -17 -6 0 -14 22 -40 22 -40 0 0 -9
-3 -14 -6 -10 -12 12 5 37 26 37 11 0 20 -2 20 -4z m1080 -18 c0 -18 -2 -20
-9 -8 -6 8 -7 18 -5 22 9 14 14 9 14 -14z m38 -3 c-3 -3 -9 2 -12 12 -6 14 -5
15 5 6 7 -7 10 -15 7 -18z m-1201 -12 c1 -23 0 -25 -6 -8 -7 18 -9 17 -24 -10
-9 -17 -16 -26 -17 -22 0 12 33 67 40 67 3 0 6 -12 7 -27z m214 -5 c-4 -17
-12 -33 -19 -34 -7 -1 -8 0 -2 3 5 2 10 15 10 27 0 19 7 36 15 36 2 0 0 -14
-4 -32z m886 -5 c-3 -10 -5 -4 -5 12 0 17 2 24 5 18 2 -7 2 -21 0 -30z m20 0
c-3 -10 -5 -4 -5 12 0 17 2 24 5 18 2 -7 2 -21 0 -30z m-1276 -7 c3 -59 -16
-94 -45 -83 -21 8 -21 80 -1 101 20 19 45 10 46 -18z m309 14 c0 -5 -9 -6 -20
-3 -11 3 -20 9 -20 13 0 5 9 6 20 3 11 -3 20 -9 20 -13z m330 13 c0 -5 -5 -15
-10 -23 -8 -12 -10 -11 -10 8 0 12 5 22 10 22 6 0 10 -3 10 -7z m697 -15 c-3
-8 -6 -5 -6 6 -1 11 2 17 5 13 3 -3 4 -12 1 -19z m309 -8 c0 -12 -4 -16 -9
-11 -5 5 -6 14 -3 20 10 15 12 14 12 -9z m-1739 4 c-3 -3 -12 -4 -19 -1 -8 3
-5 6 6 6 11 1 17 -2 13 -5z m-77 -8 c0 -3 -4 -8 -10 -11 -5 -3 -10 -1 -10 4 0
6 5 11 10 11 6 0 10 -2 10 -4z m370 -15 c0 -11 8 -22 18 -24 13 -4 13 -5 -4
-6 -16 -1 -23 6 -26 24 -3 14 -1 25 3 25 5 0 9 -9 9 -19z m-333 -13 c-3 -8 -6
-5 -6 6 -1 11 2 17 5 13 3 -3 4 -12 1 -19z m438 3 c-3 -6 -14 -10 -23 -10 -15
1 -15 2 1 6 9 2 17 9 17 15 0 6 3 9 6 5 3 -3 3 -10 -1 -16z m1315 9 c0 -5 -2
-10 -4 -10 -3 0 -8 5 -11 10 -3 6 -1 10 4 10 6 0 11 -4 11 -10z m-1462 -7
c-11 -3 -15 -11 -12 -21 5 -15 4 -15 -5 -2 -16 23 -13 30 12 29 16 -1 17 -3 5
-6z m1285 -13 c-3 -12 -8 -19 -11 -16 -5 6 5 36 12 36 2 0 2 -9 -1 -20z m-59
2 c3 -5 -1 -9 -9 -9 -8 0 -12 4 -9 9 3 4 7 8 9 8 2 0 6 -4 9 -8z m-1474 -27
c0 -8 -3 -16 -7 -18 -5 -3 -8 5 -8 18 0 13 3 21 8 18 4 -2 7 -10 7 -18z m147
-7 c-3 -8 -6 -5 -6 6 -1 11 2 17 5 13 3 -3 4 -12 1 -19z m509 -28 c-1 -43 -4
-50 -21 -49 -11 0 -14 3 -7 6 6 2 12 20 12 39 0 25 -4 33 -12 29 -7 -4 -4 1 6
9 11 9 21 16 21 16 1 0 2 -22 1 -50z m744 33 c0 -15 -2 -16 -10 -3 -8 12 -10
12 -10 1 0 -8 -3 -12 -6 -8 -8 7 4 27 17 27 5 0 9 -8 9 -17z m-48 -9 c-5 -9
-7 -25 -4 -36 3 -14 0 -17 -13 -12 -13 5 -14 9 -3 15 7 5 9 9 5 9 -8 0 10 40
19 40 3 0 1 -7 -4 -16z m113 -17 c4 5 5 3 1 -4 -7 -13 -36 -6 -36 9 0 5 -4 7
-8 4 -5 -3 -9 2 -9 10 0 11 5 10 22 -6 12 -11 25 -17 30 -13z m0 23 c3 -5 1
-10 -4 -10 -6 0 -11 5 -11 10 0 6 2 10 4 10 3 0 8 -4 11 -10z m-865 -19 c0
-10 -8 -25 -17 -32 -15 -11 -16 -11 -5 1 17 20 15 38 -5 43 -14 4 -12 5 5 6
15 1 22 -5 22 -18z m-70 5 c0 -2 -7 -7 -16 -10 -8 -3 -12 -2 -9 4 6 10 25 14
25 6z m629 0 c-2 -3 -33 -11 -67 -19 -35 -8 -60 -11 -55 -7 12 12 134 37 122
26z m118 -22 c2 -13 1 -15 -4 -4 -3 8 -11 19 -17 23 -7 6 -6 7 4 4 8 -2 16
-12 17 -23z m543 14 c0 -4 -7 -8 -15 -8 -8 0 -15 4 -15 8 0 5 7 9 15 9 8 0 15
-4 15 -9z m-1352 -32 c2 -16 0 -32 -5 -37 -5 -5 -7 6 -5 25 3 27 0 35 -15 40
-16 4 -15 5 2 3 14 -2 21 -11 23 -31z m1278 4 c0 -28 -13 -25 -18 4 -3 15 -1
23 6 20 7 -3 12 -13 12 -24z m-1361 -52 c-14 -11 -45 -10 -45 1 0 6 5 13 12
17 7 4 8 3 4 -4 -4 -7 -1 -12 8 -12 12 0 16 11 17 38 l2 37 6 -35 c4 -20 2
-38 -4 -42z m791 47 c1 -14 -2 -22 -7 -19 -11 6 -12 44 -1 44 4 0 8 -11 8 -25z
m86 -14 c8 12 9 12 6 0 -9 -31 -28 -23 -27 11 2 32 2 32 6 4 4 -23 7 -26 15
-15z m112 23 c3 -8 2 -12 -4 -9 -6 3 -10 10 -10 16 0 14 7 11 14 -7z m-870
-33 c1 -16 -2 -27 -6 -24 -5 2 -8 18 -8 35 0 39 13 29 14 -11z m509 32 c-7 -2
-19 -2 -25 0 -7 3 -2 5 12 5 14 0 19 -2 13 -5z m202 -40 c-18 -17 -18 -17 -6
0 11 14 11 20 0 35 -12 16 -12 16 6 0 19 -18 19 -18 0 -35z m-678 15 c-3 -8
-6 -5 -6 6 -1 11 2 17 5 13 3 -3 4 -12 1 -19z m543 12 c-13 -9 -13 -11 0 -20
19 -12 36 -7 32 10 -3 11 0 11 12 0 9 -7 16 -18 16 -26 0 -22 -20 -27 -40 -9
-10 9 -24 14 -29 10 -6 -3 -11 2 -11 13 0 21 8 32 24 32 6 0 4 -5 -4 -10z
m-833 -31 c1 -19 1 -20 -4 -4 -3 11 -10 24 -17 28 -7 6 -6 7 4 4 8 -2 16 -14
17 -28z m798 21 c3 -6 -1 -7 -9 -4 -10 4 -16 1 -16 -7 0 -7 -3 -10 -6 -6 -7 7
4 27 16 27 5 0 12 -4 15 -10z m909 -5 c3 -9 0 -15 -9 -15 -9 0 -12 6 -9 15 4
8 7 15 9 15 2 0 5 -7 9 -15z m-1794 -5 c0 -5 -2 -10 -4 -10 -3 0 -8 5 -11 10
-3 6 -1 10 4 10 6 0 11 -4 11 -10z m414 -10 c-22 -9 -29 -6 -20 9 4 6 14 7 23
4 15 -6 14 -7 -3 -13z m287 7 c9 -7 19 -31 22 -55 5 -35 4 -42 -11 -44 -9 0
-22 -2 -29 -2 -6 -1 -15 -5 -19 -9 -12 -12 -35 -8 -33 6 3 26 -3 62 -8 47 -3
-8 -12 -23 -21 -32 -10 -12 -11 -18 -4 -18 7 0 12 -4 12 -10 0 -5 -9 -10 -20
-10 -24 0 -25 13 -4 46 9 13 14 27 10 31 -3 3 -6 1 -6 -6 0 -7 -5 -9 -10 -6
-6 4 -8 16 -4 27 4 14 2 18 -5 14 -6 -4 -11 -2 -11 3 0 6 7 11 15 11 8 0 15
-4 15 -9 0 -16 39 -19 52 -4 11 14 10 15 -12 9 -20 -6 -22 -5 -8 4 11 7 25 7
42 0 25 -9 38 3 14 13 -7 3 -8 6 -3 6 6 0 17 -5 26 -12z m129 -21 c0 -29 -3
-33 -20 -29 -11 3 -17 9 -14 14 3 5 10 7 16 3 5 -3 9 2 8 12 -3 24 -1 34 5 34
3 0 5 -15 5 -34z m-915 13 c11 -17 -1 -21 -15 -4 -8 9 -8 15 -2 15 6 0 14 -5
17 -11z m51 -19 c-1 -16 -5 -32 -8 -35 -4 -5 -4 52 1 63 5 11 9 -3 7 -28z m71
8 c-3 -8 -6 -5 -6 6 -1 11 2 17 5 13 3 -3 4 -12 1 -19z m978 2 c-3 -5 -12 -10
-18 -10 -7 0 -6 4 3 10 19 12 23 12 15 0z m-728 -16 c-3 -3 -12 -4 -19 -1 -8
3 -5 6 6 6 11 1 17 -2 13 -5z m637 -6 c-3 -4 -9 -8 -15 -8 -5 0 -9 4 -9 8 0 5
7 9 15 9 8 0 12 -4 9 -9z m-852 -30 c-8 -8 -9 -4 -5 13 4 13 8 18 11 10 2 -7
-1 -18 -6 -23z m486 -6 c5 -52 -35 -98 -52 -59 -3 8 -8 7 -16 -5 -6 -10 -17
-18 -24 -18 -8 0 -17 8 -21 18 -6 14 -9 13 -21 -11 -19 -36 -38 -30 -42 14 -5
63 37 89 58 35 9 -20 9 -20 9 0 1 23 19 44 38 44 17 0 17 -18 0 -22 -9 -2 -8
-8 5 -20 17 -17 18 -17 18 10 0 56 43 68 48 14z m-641 6 c-3 -8 -6 -5 -6 6 -1
11 2 17 5 13 3 -3 4 -12 1 -19z m220 0 c-3 -8 -6 -5 -6 6 -1 11 2 17 5 13 3
-3 4 -12 1 -19z m-92 2 c3 -5 1 -10 -4 -10 -6 0 -11 5 -11 10 0 6 2 10 4 10 3
0 8 -4 11 -10z m1445 0 c0 -5 -2 -10 -4 -10 -3 0 -8 5 -11 10 -3 6 -1 10 4 10
6 0 11 -4 11 -10z m-1499 -23 c-10 -9 -11 -8 -5 6 3 10 9 15 12 12 3 -3 0 -11
-7 -18z m779 19 c0 -3 -4 -8 -10 -11 -5 -3 -10 -1 -10 4 0 6 5 11 10 11 6 0
10 -2 10 -4z m-805 -16 c3 -5 1 -10 -4 -10 -6 0 -11 5 -11 10 0 6 2 10 4 10 3
0 8 -4 11 -10z m390 -68 c-4 -21 -10 -31 -12 -24 -3 6 -11 12 -20 12 -8 0 -13
6 -10 13 2 6 11 11 21 9 9 -2 16 4 16 13 0 9 -5 13 -11 9 -7 -4 -6 3 2 17 12
21 14 22 17 6 2 -11 1 -35 -3 -55z m612 36 c-3 -8 -6 -5 -6 6 -1 11 2 17 5 13
3 -3 4 -12 1 -19z m43 7 c0 -2 -6 -5 -13 -8 -8 -3 -14 1 -14 8 0 7 6 11 14 8
7 -3 13 -6 13 -8z m-193 -37 c-3 -8 -6 -5 -6 6 -1 11 2 17 5 13 3 -3 4 -12 1
-19z m-630 -10 c-3 -8 -6 -5 -6 6 -1 11 2 17 5 13 3 -3 4 -12 1 -19z m471 -33
c-3 -3 -9 2 -12 12 -6 14 -5 15 5 6 7 -7 10 -15 7 -18z"/>
<path d="M1361 1594 c0 -11 3 -14 6 -6 3 7 2 16 -1 19 -3 4 -6 -2 -5 -13z"/>
<path d="M1328 1567 c-3 -19 -2 -25 4 -19 6 6 8 18 6 28 -3 14 -5 12 -10 -9z"/>
<path d="M1310 1473 c0 -15 18 -35 23 -27 3 5 -1 15 -9 22 -8 7 -14 9 -14 5z"/>
<path d="M1686 1553 c-6 -14 -5 -15 5 -6 7 7 10 15 7 18 -3 3 -9 -2 -12 -12z"/>
<path d="M1703 1459 c9 -6 14 -16 11 -22 -5 -8 -2 -7 7 1 12 11 12 14 -1 22
-8 5 -19 10 -25 10 -5 -1 -2 -5 8 -11z"/>
<path d="M755 1660 c-3 -5 -1 -10 4 -10 6 0 11 5 11 10 0 6 -2 10 -4 10 -3 0
-8 -4 -11 -10z"/>
<path d="M836 1683 c-9 -10 -7 -73 3 -73 18 0 29 64 12 74 -4 3 -11 3 -15 -1z"/>
<path d="M980 1656 c0 -9 5 -16 10 -16 6 0 10 4 10 9 0 6 -4 13 -10 16 -5 3
-10 -1 -10 -9z"/>
<path d="M1188 1634 c-5 -4 -8 -23 -8 -43 0 -25 3 -32 11 -24 6 6 9 25 7 43
-2 17 -6 28 -10 24z"/>
<path d="M390 1525 c-10 -26 -5 -71 10 -80 15 -10 31 24 28 61 -4 45 -24 56
-38 19z"/>
<path d="M890 1430 c0 -11 7 -20 15 -20 17 0 18 2 9 24 -9 23 -24 20 -24 -4z"/>
<path d="M1400 1430 c0 -5 5 -10 10 -10 6 0 10 5 10 10 0 6 -4 10 -10 10 -5 0
-10 -4 -10 -10z"/>
<path d="M1396 1391 c-4 -7 -5 -15 -2 -18 9 -9 19 4 14 18 -4 11 -6 11 -12 0z"/>
<path d="M1507 1423 c-11 -10 -8 -63 3 -63 6 0 10 16 10 35 0 36 -2 40 -13 28z"/>
<path d="M1600 1364 c0 -8 5 -12 10 -9 6 4 8 11 5 16 -9 14 -15 11 -15 -7z"/>
<path d="M1865 1380 c-3 -5 -1 -10 4 -10 6 0 11 5 11 10 0 6 -2 10 -4 10 -3 0
-8 -4 -11 -10z"/>
<path d="M1860 1345 c0 -8 2 -15 4 -15 2 0 6 7 10 15 3 8 1 15 -4 15 -6 0 -10
-7 -10 -15z"/>
<path d="M284 1346 c-8 -22 3 -49 19 -43 6 2 12 14 12 27 0 27 -22 39 -31 16z"/>
<path d="M476 1341 c-10 -15 -10 -76 -1 -91 11 -19 35 16 35 51 0 29 -24 57
-34 40z"/>
<path d="M890 1320 c-1 -3 -4 -15 -5 -28 -1 -15 1 -20 7 -14 6 6 8 18 5 28 -3
11 -6 17 -7 14z"/>
<path d="M1020 1270 c0 -5 5 -10 10 -10 6 0 10 5 10 10 0 6 -4 10 -10 10 -5 0
-10 -4 -10 -10z"/>
<path d="M880 1249 c0 -5 5 -7 10 -4 6 3 10 8 10 11 0 2 -4 4 -10 4 -5 0 -10
-5 -10 -11z"/>
<path d="M1711 1273 c-1 -6 -4 -20 -7 -30 -5 -17 -5 -17 6 0 6 10 9 23 6 30
-3 9 -5 9 -5 0z"/>
<path d="M1650 1220 c0 -5 5 -10 11 -10 5 0 7 5 4 10 -3 6 -8 10 -11 10 -2 0
-4 -4 -4 -10z"/>
<path d="M1673 1149 c-1 -12 -1 -20 0 -18 2 2 9 12 16 22 11 14 11 17 -1 17
-7 0 -14 -10 -15 -21z"/>
<path d="M1136 1124 c-9 -24 -7 -64 3 -64 19 0 29 64 12 74 -5 3 -12 -1 -15
-10z"/>
<path d="M1558 1113 c7 -3 16 -2 19 1 4 3 -2 6 -13 5 -11 0 -14 -3 -6 -6z"/>
<path d="M1640 1111 c0 -5 -3 -18 -7 -28 -6 -17 -6 -17 10 -1 19 18 22 38 7
38 -5 0 -10 -4 -10 -9z"/>
<path d="M1683 1105 c-7 -8 -9 -16 -4 -19 5 -3 12 1 15 10 8 22 4 25 -11 9z"/>
<path d="M1750 1095 c0 -14 2 -25 4 -25 2 0 6 11 8 25 3 14 1 25 -3 25 -5 0
-9 -11 -9 -25z"/>
<path d="M1448 1103 c7 -3 16 -2 19 1 4 3 -2 6 -13 5 -11 0 -14 -3 -6 -6z"/>
<path d="M1596 1099 c2 -4 -2 -10 -8 -12 -8 -4 -7 -6 3 -6 9 -1 19 5 22 12 3
8 -1 14 -9 14 -7 0 -11 -4 -8 -8z"/>
<path d="M1415 1080 c3 -5 8 -10 11 -10 2 0 4 5 4 10 0 6 -5 10 -11 10 -5 0
-7 -4 -4 -10z"/>
<path d="M1580 1062 c0 -6 6 -13 13 -15 6 -3 2 -6 -10 -6 -12 -1 -24 5 -26 12
-3 7 -6 5 -6 -5 -1 -13 7 -18 29 -18 33 0 38 11 15 30 -9 8 -15 8 -15 2z"/>
<path d="M1270 1051 c0 -5 5 -13 10 -16 6 -3 10 -2 10 4 0 5 -4 13 -10 16 -5
3 -10 2 -10 -4z"/>
<path d="M1712 1044 c-7 -8 -17 -12 -23 -9 -5 4 -9 1 -9 -6 0 -7 -7 -4 -15 7
-9 12 -14 14 -15 6 0 -7 7 -20 15 -28 8 -9 15 -11 15 -5 0 6 9 11 19 11 10 0
22 7 25 16 9 22 4 25 -12 8z"/>
<path d="M1607 1019 c-9 -5 -22 -7 -29 -3 -7 4 -8 3 -4 -4 9 -16 65 -10 59 6
-3 6 -6 12 -7 12 0 0 -9 -5 -19 -11z"/>
<path d="M1410 1005 c-7 -8 -9 -15 -6 -15 4 0 14 7 22 15 9 8 11 15 6 15 -5 0
-15 -7 -22 -15z"/>
<path d="M1534 996 c-7 -28 3 -66 17 -66 5 0 9 5 9 10 0 6 -5 10 -11 10 -8 0
-10 12 -6 35 7 40 0 47 -9 11z"/>
<path d="M1198 993 c7 -3 16 -2 19 1 4 3 -2 6 -13 5 -11 0 -14 -3 -6 -6z"/>
<path d="M1230 985 c-6 -8 -10 -20 -7 -27 4 -8 6 -7 6 4 1 9 9 22 19 27 9 6
12 11 6 11 -6 0 -17 -7 -24 -15z"/>
<path d="M1321 993 c-1 -17 16 -25 25 -12 4 7 3 9 -4 5 -5 -3 -13 0 -15 6 -4
9 -6 10 -6 1z"/>
<path d="M1380 991 c0 -10 19 -25 25 -20 1 2 -3 10 -11 17 -8 7 -14 8 -14 3z"/>
<path d="M1432 965 c0 -16 2 -22 5 -12 2 9 2 23 0 30 -3 6 -5 -1 -5 -18z"/>
<path d="M1685 980 c-3 -5 -1 -10 4 -10 6 0 11 5 11 10 0 6 -2 10 -4 10 -3 0
-8 -4 -11 -10z"/>
<path d="M1634 952 c3 -5 0 -13 -6 -15 -8 -3 -6 -6 5 -6 19 -1 23 14 5 25 -6
4 -8 3 -4 -4z"/>
<path d="M1180 940 c0 -5 5 -10 10 -10 6 0 10 5 10 10 0 6 -4 10 -10 10 -5 0
-10 -4 -10 -10z"/>
<path d="M1358 928 c5 -5 16 -8 23 -6 8 3 3 7 -10 11 -17 4 -21 3 -13 -5z"/>
<path d="M1473 915 c-17 -7 -33 -11 -35 -9 -3 2 -5 -2 -6 -8 -1 -7 -5 -29 -8
-49 -3 -20 -2 -39 4 -43 6 -3 6 -22 -1 -50 -6 -25 -14 -43 -20 -39 -5 3 -6 -3
-2 -16 4 -13 1 -31 -8 -45 -13 -19 -13 -23 -2 -23 8 0 12 4 10 8 -6 9 20 19
50 19 27 0 35 16 28 53 -4 18 -1 27 8 28 8 1 20 2 28 3 17 1 28 26 11 26 -6 0
-8 -4 -5 -10 3 -5 2 -10 -3 -10 -5 0 -14 10 -21 23 l-11 22 6 -22 c3 -13 2
-23 -3 -23 -17 0 -12 51 9 87 22 39 33 87 18 78 -5 -3 -7 -13 -4 -23 5 -14 4
-14 -4 -3 -6 8 -8 20 -5 28 6 16 6 16 -34 -2z"/>
<path d="M1631 904 c0 -11 3 -14 6 -6 3 7 2 16 -1 19 -3 4 -6 -2 -5 -13z"/>
<path d="M1395 900 c-3 -5 -1 -10 4 -10 6 0 11 5 11 10 0 6 -2 10 -4 10 -3 0
-8 -4 -11 -10z"/>
<path d="M1581 886 c-1 -12 -6 -16 -16 -12 -12 4 -13 2 -3 -14 12 -19 13 -19
21 2 4 12 6 26 3 32 -2 6 -5 3 -5 -8z"/>
<path d="M1648 873 c7 -3 16 -2 19 1 4 3 -2 6 -13 5 -11 0 -14 -3 -6 -6z"/>
<path d="M1362 850 c7 -10 14 -18 15 -16 6 6 -9 36 -18 36 -5 0 -4 -9 3 -20z"/>
<path d="M1175 830 c-3 -6 1 -7 9 -4 18 7 21 14 7 14 -6 0 -13 -4 -16 -10z"/>
<path d="M1546 825 c-3 -9 -6 -22 -5 -28 0 -7 5 -1 10 12 5 13 8 26 5 28 -2 2
-6 -3 -10 -12z"/>
<path d="M1398 807 c-3 -19 -2 -25 4 -19 6 6 8 18 6 28 -3 14 -5 12 -10 -9z"/>
<path d="M1650 811 c0 -6 4 -13 10 -16 6 -3 7 1 4 9 -7 18 -14 21 -14 7z"/>
<path d="M1107 803 c-10 -10 -8 -63 2 -63 11 0 21 25 21 51 0 19 -11 25 -23
12z"/>
<path d="M1595 779 c-11 -16 -1 -19 13 -3 7 8 8 14 3 14 -5 0 -13 -5 -16 -11z"/>
<path d="M1407 763 c-4 -3 -7 -13 -7 -22 1 -13 3 -13 11 2 11 19 8 33 -4 20z"/>
<path d="M1231 753 c-1 -17 16 -25 25 -12 4 7 3 9 -4 5 -5 -3 -13 0 -15 6 -4
9 -6 10 -6 1z"/>
<path d="M1160 743 c0 -6 8 -17 18 -24 16 -13 16 -13 2 6 -8 11 -16 22 -17 24
-2 2 -3 0 -3 -6z"/>
<path d="M1365 740 c-4 -6 -11 -7 -17 -4 -7 4 -8 2 -4 -5 6 -9 12 -9 24 1 10
7 19 14 21 15 2 2 -1 3 -7 3 -6 0 -14 -5 -17 -10z"/>
<path d="M1375 720 c-3 -5 -1 -10 4 -10 6 0 11 5 11 10 0 6 -2 10 -4 10 -3 0
-8 -4 -11 -10z"/>
<path d="M1498 723 c7 -3 16 -2 19 1 4 3 -2 6 -13 5 -11 0 -14 -3 -6 -6z"/>
<path d="M1195 700 c-2 -3 7 -7 21 -8 13 -1 24 2 24 6 0 9 -40 11 -45 2z"/>
<path d="M1300 700 c-8 -5 -10 -10 -5 -10 6 0 17 5 25 10 8 5 11 10 5 10 -5 0
-17 -5 -25 -10z"/>
<path d="M1161 684 c0 -11 3 -14 6 -6 3 7 2 16 -1 19 -3 4 -6 -2 -5 -13z"/>
<path d="M1515 690 c3 -5 11 -10 16 -10 6 0 7 5 4 10 -3 6 -11 10 -16 10 -6 0
-7 -4 -4 -10z"/>
<path d="M1285 670 c-16 -7 -17 -9 -3 -9 9 -1 20 4 23 9 7 11 7 11 -20 0z"/>
<path d="M1250 645 c0 -5 5 -17 10 -25 5 -8 10 -10 10 -5 0 6 -5 17 -10 25 -5
8 -10 11 -10 5z"/>
<path d="M1501 634 c0 -11 3 -14 6 -6 3 7 2 16 -1 19 -3 4 -6 -2 -5 -13z"/>
<path d="M1408 608 c5 -5 16 -8 23 -6 8 3 3 7 -10 11 -17 4 -21 3 -13 -5z"/>
<path d="M1455 600 c3 -5 1 -10 -4 -10 -6 0 -11 -7 -11 -15 0 -12 3 -12 20 2
24 21 26 33 4 33 -8 0 -12 -4 -9 -10z"/>
<path d="M1546 585 c-3 -8 -1 -15 4 -15 6 0 10 7 10 15 0 8 -2 15 -4 15 -2 0
-6 -7 -10 -15z"/>
<path d="M1157 569 c4 -13 8 -18 11 -10 2 7 -1 18 -6 23 -8 8 -9 4 -5 -13z"/>
<path d="M1356 571 c-4 -5 3 -7 14 -4 23 6 26 13 6 13 -8 0 -17 -4 -20 -9z"/>
<path d="M1581 564 c0 -11 3 -14 6 -6 3 7 2 16 -1 19 -3 4 -6 -2 -5 -13z"/>
<path d="M1415 549 c-4 -6 -5 -12 -2 -15 2 -3 7 2 10 11 7 17 1 20 -8 4z"/>
<path d="M1181 534 c0 -11 3 -14 6 -6 3 7 2 16 -1 19 -3 4 -6 -2 -5 -13z"/>
<path d="M1525 530 c3 -5 8 -10 11 -10 2 0 4 5 4 10 0 6 -5 10 -11 10 -5 0 -7
-4 -4 -10z"/>
<path d="M1365 509 c-4 -6 -5 -12 -2 -15 2 -3 7 2 10 11 7 17 1 20 -8 4z"/>
<path d="M1086 501 c-4 -6 2 -19 14 -31 24 -24 25 -21 6 15 -8 15 -17 22 -20
16z"/>
<path d="M1150 506 c0 -2 7 -6 15 -10 8 -3 15 -1 15 4 0 6 -7 10 -15 10 -8 0
-15 -2 -15 -4z"/>
<path d="M1130 459 c0 -5 5 -7 10 -4 6 3 10 8 10 11 0 2 -4 4 -10 4 -5 0 -10
-5 -10 -11z"/>
<path d="M1075 449 c-4 -6 -5 -13 -2 -16 7 -7 27 6 27 18 0 12 -17 12 -25 -2z"/>
<path d="M1210 1240 c0 -11 5 -20 10 -20 6 0 10 9 10 20 0 11 -4 20 -10 20 -5
0 -10 -9 -10 -20z"/>
<path d="M1387 1283 c-11 -10 -8 -63 3 -63 6 0 10 16 10 35 0 36 -2 40 -13 28z"/>
<path d="M367 1138 c-5 -17 3 -48 14 -48 12 0 31 39 24 50 -9 14 -33 12 -38
-2z"/>
<path d="M464 1139 c-3 -6 -1 -16 5 -22 9 -9 14 -8 21 3 9 15 4 30 -10 30 -5
0 -12 -5 -16 -11z"/>
<path d="M461 1082 c-10 -18 -9 -23 4 -28 25 -10 37 9 21 31 -13 18 -14 18
-25 -3z"/>
<path d="M858 1111 c-5 -33 8 -65 23 -56 5 4 9 24 9 46 0 47 -25 55 -32 10z"/>
<path d="M1822 980 c0 -14 2 -19 5 -12 2 6 2 18 0 25 -3 6 -5 1 -5 -13z"/>
<path d="M922 930 c-8 -13 -8 -20 -2 -20 6 0 13 7 17 15 9 24 -1 27 -15 5z"/>
<path d="M986 939 c-3 -18 -2 -37 4 -43 13 -13 19 -5 22 33 4 44 -17 51 -26
10z"/>
<path d="M1056 935 c-3 -8 -1 -15 4 -15 6 0 10 7 10 15 0 8 -2 15 -4 15 -2 0
-6 -7 -10 -15z"/>
<path d="M776 904 c-8 -21 -1 -28 19 -20 9 3 15 11 13 18 -7 19 -25 20 -32 2z"/>
<path d="M850 790 c-1 -3 -3 -22 -4 -43 -2 -28 0 -34 6 -23 5 9 7 29 5 44 -2
15 -5 25 -7 22z"/>
<path d="M770 770 c0 -5 5 -10 10 -10 6 0 10 5 10 10 0 6 -4 10 -10 10 -5 0
-10 -4 -10 -10z"/>
<path d="M690 715 c0 -8 5 -15 10 -15 6 0 10 7 10 15 0 8 -4 15 -10 15 -5 0
-10 -7 -10 -15z"/>
<path d="M525 730 c-4 -16 -4 -34 0 -40 13 -21 23 -9 23 30 1 47 -14 53 -23
10z"/>
<path d="M446 724 c-4 -9 -4 -19 -1 -22 2 -3 7 3 11 12 4 9 4 19 1 22 -2 3 -7
-3 -11 -12z"/>
<path d="M965 631 c-6 -11 9 -23 19 -14 9 9 7 23 -3 23 -6 0 -12 -4 -16 -9z"/>
<path d="M960 581 c0 -12 5 -21 10 -21 6 0 10 6 10 14 0 8 -4 18 -10 21 -5 3
-10 -3 -10 -14z"/>
<path d="M894 576 c-8 -22 3 -33 18 -18 9 9 9 15 0 24 -9 9 -13 7 -18 -6z"/>
<path d="M426 554 c-3 -9 -6 -29 -6 -46 0 -23 4 -29 18 -26 23 4 31 88 9 88
-8 0 -18 -7 -21 -16z"/>
<path d="M1496 401 c-4 -7 -5 -15 -2 -18 9 -9 19 4 14 18 -4 11 -6 11 -12 0z"/>
<path d="M1220 346 c0 -9 5 -16 10 -16 6 0 10 4 10 9 0 6 -4 13 -10 16 -5 3
-10 -1 -10 -9z"/>
<path d="M937 313 c-4 -3 -7 -19 -7 -35 0 -40 23 -31 27 10 4 30 -5 41 -20 25z"/>
<path d="M1065 290 c-3 -5 -1 -10 4 -10 6 0 11 5 11 10 0 6 -2 10 -4 10 -3 0
-8 -4 -11 -10z"/>
<path d="M1000 280 c0 -5 5 -10 10 -10 6 0 10 5 10 10 0 6 -4 10 -10 10 -5 0
-10 -4 -10 -10z"/>
</g>
</svg>
