<?xml version="1.0" standalone="no"?>
<!DOCTYPE svg PUBLIC "-//W3C//DTD SVG 20010904//EN"
 "http://www.w3.org/TR/2001/REC-SVG-20010904/DTD/svg10.dtd">
<svg version="1.0" xmlns="http://www.w3.org/2000/svg"
 width="1080.000000pt" height="670.000000pt" viewBox="0 0 1080.000000 670.000000"
 preserveAspectRatio="xMidYMid meet">

<g transform="translate(0.000000,670.000000) scale(0.100000,-0.100000)"
fill="#000000" stroke="none">
<path d="M5985 5277 c-154 -90 -471 -273 -704 -407 -241 -139 -439 -259 -458
-279 -46 -48 -82 -126 -87 -191 l-4 -54 -154 -89 c-170 -99 -203 -125 -244
-200 -26 -47 -29 -64 -32 -163 -3 -83 0 -118 10 -138 9 -17 50 -48 105 -81
l91 -53 4 116 c4 107 6 122 35 177 17 33 49 77 71 98 l40 39 31 -17 32 -16
-28 -22 c-78 -61 -115 -140 -121 -258 -7 -138 1 -153 128 -228 l65 -39 5 112
c5 100 9 119 37 177 18 35 50 81 71 102 l40 39 32 -17 31 -16 -45 -40 c-25
-22 -57 -65 -73 -97 -25 -51 -28 -67 -28 -162 0 -82 4 -112 17 -131 16 -25
816 -499 841 -499 7 0 44 16 82 36 65 33 74 35 135 30 l65 -6 24 55 c27 63 95
145 119 145 10 0 25 -7 36 -15 17 -13 16 -15 -19 -46 -36 -32 -95 -122 -95
-146 0 -7 21 -24 48 -37 26 -13 97 -57 157 -97 61 -41 113 -75 116 -77 4 -1 9
14 13 35 12 70 53 112 176 185 63 38 120 68 126 68 7 0 43 -18 80 -41 52 -30
77 -39 99 -36 17 3 218 113 448 246 229 133 419 241 421 241 3 0 4 -21 2 -47
l-2 -48 -615 -358 c-338 -196 -615 -363 -616 -370 -2 -6 9 -25 22 -40 l25 -28
665 383 c760 438 716 404 598 473 -66 39 -66 39 -43 54 13 9 141 84 284 166
310 179 308 176 194 241 l-73 42 -3 -52 -3 -52 -672 -391 c-447 -260 -674
-387 -679 -379 -4 6 -8 52 -8 101 0 102 24 169 76 216 23 20 955 563 1357 789
59 34 77 49 77 66 0 18 -70 62 -427 270 -236 136 -690 400 -1010 586 -321 186
-588 338 -595 338 -7 -1 -139 -74 -293 -163z m1193 -477 c483 -280 886 -516
896 -523 16 -12 -46 -50 -575 -355 l-592 -342 -908 527 c-499 290 -907 529
-906 530 20 19 1186 682 1195 678 7 -2 407 -234 890 -515z m-2050 -306 l23
-16 -40 -34 c-22 -19 -53 -62 -70 -96 -29 -57 -31 -69 -31 -167 0 -83 4 -112
17 -130 l16 -24 -42 24 c-59 33 -65 47 -58 156 6 108 39 192 102 262 41 46 50
48 83 25z m257 -150 l25 -16 -43 -42 c-71 -68 -91 -123 -95 -249 -3 -89 -1
-112 14 -134 l17 -27 -44 26 c-43 25 -44 28 -52 90 -10 78 5 173 38 239 23 45
94 129 109 129 4 0 18 -7 31 -16z m1205 -702 l22 -18 -27 -14 c-40 -21 -102
-122 -115 -187 -14 -68 -8 -196 10 -218 18 -22 5 -19 -41 11 l-41 26 4 106 c3
94 7 115 34 172 32 66 94 140 118 140 8 0 24 -8 36 -18z"/>
<path d="M5717 4958 c-477 -275 -554 -323 -539 -333 12 -9 1312 -764 1688
-982 l41 -23 553 318 c303 176 552 323 553 328 1 8 -1719 1014 -1733 1014 -3
0 -256 -145 -563 -322z"/>
<path d="M3425 5254 c-60 -15 -89 -28 -116 -51 -37 -32 -119 -192 -119 -233 0
-17 -18 -65 -40 -106 -44 -84 -49 -125 -25 -195 78 -219 458 -399 664 -313 52
22 79 51 118 128 19 39 46 78 59 89 14 10 33 36 44 56 10 21 30 45 43 54 32
21 57 76 57 124 0 144 -222 355 -445 423 -69 21 -201 34 -240 24z"/>
<path d="M2810 4202 c0 -4 -17 -26 -38 -49 -22 -23 -44 -54 -51 -70 -9 -23
-25 -33 -79 -51 -151 -53 -281 -152 -324 -249 -25 -57 -36 -198 -19 -259 37
-137 202 -260 430 -322 88 -24 112 -26 296 -26 184 0 208 2 297 26 161 44 314
132 371 216 48 69 61 111 60 200 0 87 10 101 35 48 18 -35 17 -202 -1 -254
-35 -102 -127 -189 -272 -258 -114 -54 -218 -81 -372 -96 -308 -30 -627 58
-786 215 -93 92 -111 136 -112 272 0 93 3 118 22 160 l23 50 -35 -40 c-45 -51
-72 -107 -85 -174 -15 -79 -12 -238 5 -305 95 -365 816 -546 1340 -337 152 61
281 167 333 271 25 52 27 65 30 213 2 96 -1 171 -7 189 -6 17 -10 32 -9 34 2
1 80 -68 173 -153 94 -86 208 -190 254 -232 l84 -76 -746 -430 c-410 -237
-746 -432 -746 -435 0 -4 1998 -1160 2020 -1168 4 -2 217 117 473 265 256 147
461 269 457 271 -5 1 -102 -51 -216 -118 -114 -66 -209 -120 -211 -120 -1 0
-27 26 -57 57 -39 41 -53 61 -46 70 7 8 5 10 -8 7 -13 -4 -34 10 -68 47 l-49
53 34 14 c51 21 119 10 147 -23 30 -34 29 -42 -9 -65 -36 -22 -33 -26 6 -8 79
35 0 128 -98 115 -23 -3 -51 -9 -63 -13 -57 -17 -10 18 133 100 l156 88 -33
34 c-37 39 -18 44 -208 -66 -66 -39 -123 -70 -126 -70 -3 0 -19 10 -35 22 -24
17 -33 19 -43 9 -9 -9 -9 -18 4 -40 l16 -28 -47 -26 c-37 -21 -49 -24 -59 -14
-10 9 -11 8 -6 -4 5 -13 -21 -32 -119 -89 -69 -39 -128 -75 -131 -79 -2 -5 15
-19 39 -31 l43 -23 106 60 c58 34 108 58 111 55 14 -13 5 -81 -14 -103 -17
-21 -21 -22 -30 -9 -9 12 -10 11 -5 -6 4 -17 -6 -32 -51 -73 -69 -63 -60 -66
16 -7 46 36 60 43 71 33 10 -9 9 -7 -1 7 -12 16 -12 20 0 30 9 6 29 33 46 59
l31 48 34 -40 c19 -21 42 -51 53 -66 18 -26 72 -65 90 -65 5 0 -19 29 -52 64
-34 35 -62 72 -62 82 0 15 5 13 28 -9 26 -25 60 -38 48 -18 -4 5 -2 11 3 13 5
1 -3 12 -17 22 -15 11 -21 13 -14 6 6 -8 12 -21 12 -29 0 -10 -9 -6 -28 12
-33 31 -42 34 -42 10 0 -15 -3 -14 -22 5 l-23 23 43 40 42 40 29 -20 c26 -19
42 -47 55 -96 3 -11 4 -6 2 11 -2 28 0 31 16 20 10 -6 18 -22 18 -36 0 -36 25
-67 72 -91 22 -11 38 -22 36 -24 -1 -2 -109 -64 -238 -139 -209 -120 -237
-134 -255 -122 -11 7 -460 266 -997 576 -538 310 -978 567 -978 570 0 7 1446
843 1466 848 13 3 414 -354 414 -369 0 -3 -244 -147 -542 -320 -299 -172 -555
-320 -571 -329 l-27 -17 47 -25 48 -26 525 305 c289 167 535 309 548 315 20
10 27 8 52 -18 l29 -29 -538 -310 -538 -310 46 -27 c39 -22 49 -24 66 -14 11
7 249 144 528 306 l509 293 29 -30 30 -29 -508 -293 c-279 -161 -512 -296
-516 -301 -5 -4 11 -19 36 -32 l44 -25 508 293 508 294 34 -30 c41 -36 86 -39
144 -10 67 35 131 147 112 197 -5 11 -37 46 -73 79 -36 32 -120 110 -187 172
-92 84 -129 112 -149 112 -19 0 -46 19 -98 68 -39 38 -280 259 -536 492 -326
297 -467 431 -473 451 -7 27 -179 196 -232 228 -71 44 -224 -88 -225 -194 0
-24 14 -42 72 -96 69 -65 71 -67 49 -79 -39 -20 -159 -23 -241 -6 -90 19 -212
76 -298 140 -73 54 -148 151 -165 213 -6 24 -15 43 -19 43 -4 0 -8 -4 -8 -8z
m2265 -2442 c13 -14 15 -24 8 -31 -8 -8 -15 -4 -27 12 -28 41 -14 55 19 19z
m19 -162 c-40 -37 -46 -40 -60 -26 -14 14 -10 18 38 45 29 17 56 29 60 27 4
-3 -13 -23 -38 -46z m-60 -41 c8 -13 6 -21 -7 -34 -16 -16 -17 -16 -17 4 0 12
-3 29 -7 39 -8 22 16 15 31 -9z m299 -92 c21 -25 33 -45 26 -45 -14 0 -79 64
-79 79 0 21 16 11 53 -34z"/>
<path d="M4065 2534 c-165 -96 -306 -178 -313 -183 -9 -5 2 -15 35 -33 l48
-25 265 154 c146 84 289 167 319 184 l54 31 -39 24 c-22 13 -46 23 -54 23 -8
0 -150 -79 -315 -175z"/>
<path d="M5242 2329 c-33 -12 -57 -70 -46 -110 18 -61 44 -71 236 -86 94 -7
173 -11 175 -10 1 2 -3 20 -9 41 -11 36 -6 78 17 137 9 24 -150 37 -174 15
-23 -21 -85 -46 -114 -46 -25 0 -53 24 -58 51 -3 13 -9 15 -27 8z"/>
<path d="M5679 2294 c-21 -25 -24 -116 -5 -152 15 -28 22 -32 59 -33 23 0 205
-12 405 -27 199 -15 362 -26 362 -24 0 2 -5 13 -11 24 -16 29 -13 116 5 143
16 24 15 24 -27 29 -45 6 -720 56 -754 56 -11 0 -26 -7 -34 -16z"/>
<path d="M6560 2239 c-61 -24 -84 -82 -56 -137 30 -58 94 -70 145 -26 25 21
31 33 31 66 0 52 -14 77 -55 94 -19 8 -36 14 -37 13 -2 0 -14 -5 -28 -10z"/>
<path d="M4747 1933 l-408 -236 38 -23 c21 -13 45 -23 53 -23 8 0 184 98 390
217 362 210 374 218 381 252 8 36 -1 50 -31 49 -8 0 -199 -106 -423 -236z"/>
<path d="M6919 2101 c-92 -81 -262 -351 -318 -507 -19 -52 -31 -104 -31 -134
0 -59 -12 -49 235 -185 88 -48 218 -119 288 -157 125 -69 129 -71 186 -65 75
6 131 36 209 111 123 118 203 289 205 435 1 101 -24 158 -88 203 -58 41 -610
338 -629 338 -7 0 -33 -17 -57 -39z"/>
<path d="M4437 1952 l-269 -155 39 -24 c21 -12 44 -23 51 -23 9 0 496 275 539
304 1 1 -19 13 -45 28 l-47 26 -268 -156z"/>
<path d="M4898 1822 c-207 -119 -377 -220 -378 -225 0 -4 20 -17 44 -29 l44
-21 376 218 377 218 -27 28 c-15 16 -35 29 -43 29 -9 0 -186 -98 -393 -218z"/>
<path d="M5045 1440 c12 -4 27 -16 35 -25 13 -15 12 -19 -5 -32 -18 -14 -18
-15 -2 -9 10 3 21 6 23 6 2 0 4 9 4 19 0 22 -35 51 -60 50 -10 0 -8 -3 5 -9z"/>
</g>
</svg>
