<?xml version="1.0" standalone="no"?>
<!DOCTYPE svg PUBLIC "-//W3C//DTD SVG 20010904//EN"
 "http://www.w3.org/TR/2001/REC-SVG-20010904/DTD/svg10.dtd">
<svg version="1.0" xmlns="http://www.w3.org/2000/svg"
 width="1200.000000pt" height="630.000000pt" viewBox="0 0 1200.000000 630.000000"
 preserveAspectRatio="xMidYMid meet">

<g transform="translate(0.000000,630.000000) scale(0.100000,-0.100000)"
fill="#000000" stroke="none">
<path d="M400 3150 l0 -3150 5600 0 5600 0 0 3150 0 3150 -5600 0 -5600 0 0
-3150z m7240 335 l0 -1505 -1555 0 -1555 0 0 1505 0 1505 1555 0 1555 0 0
-1505z m-2859 -1762 c4 -5 5 -21 2 -36 -6 -29 -6 -29 -63 -22 -73 8 -103 -5
-98 -43 2 -22 16 -34 73 -64 90 -47 115 -76 115 -133 0 -85 -71 -132 -184
-122 -90 8 -98 13 -90 51 8 39 5 37 45 26 53 -16 104 -12 130 9 38 30 15 62
-75 105 -88 42 -112 74 -103 138 6 48 21 66 72 90 31 15 54 18 104 14 36 -3
68 -9 72 -13z m492 -10 c0 -13 -1 -27 -2 -33 0 -5 -26 -10 -56 -10 l-55 0 0
-185 0 -185 -45 0 -45 0 0 185 0 185 -60 0 -60 0 0 35 0 35 162 -2 c161 -3
162 -3 161 -25z m247 -137 l0 -165 28 -21 c21 -17 36 -21 66 -17 68 9 71 17
74 203 l3 165 42 -3 42 -3 3 -151 c3 -176 -6 -217 -56 -251 -72 -48 -191 -42
-250 12 l-37 33 -3 181 -3 181 45 0 46 0 0 -164z m686 149 c88 -26 134 -97
134 -207 0 -75 -24 -132 -69 -171 -43 -36 -89 -47 -203 -47 l-98 0 0 220 0
220 93 0 c53 0 115 -6 143 -15z m404 -205 l0 -220 -45 0 -45 0 0 220 0 220 45
0 45 0 0 -220z m490 186 c54 -35 83 -101 83 -185 0 -105 -34 -168 -108 -202
-106 -49 -225 -3 -269 103 -35 83 -12 212 47 266 61 57 176 65 247 18z m511
17 c4 -5 5 -21 2 -36 -5 -27 -6 -28 -63 -21 -67 7 -100 -6 -100 -40 0 -29 14
-41 88 -76 74 -35 102 -69 102 -125 0 -99 -111 -151 -244 -114 -36 10 -38 12
-32 42 8 39 6 38 47 27 67 -19 122 -11 139 20 17 31 0 50 -81 91 -85 42 -109
71 -109 133 0 43 39 92 83 106 35 10 156 5 168 -7z m147 -350 c-13 -3 -18 -16
-20 -41 l-1 -37 -4 35 c-3 19 -10 38 -16 42 -7 4 4 7 23 7 19 -1 27 -3 18 -6z
m44 -25 l12 -33 13 33 c18 43 23 40 22 -10 -1 -28 -3 -34 -6 -18 l-5 24 -14
-24 -14 -25 -7 25 -7 25 -7 -25 c-6 -20 -7 -17 -8 18 -1 50 6 54 21 10z"/>
<path d="M5785 4392 c-9 -9 -5 -1666 4 -1680 6 -10 366 -132 388 -132 2 0 3
330 3 733 0 647 2 735 16 755 28 40 86 23 110 -33 11 -27 14 -100 14 -344 l0
-310 55 -20 c170 -64 317 12 364 187 17 61 15 249 -4 328 -45 197 -183 305
-516 408 -81 25 -202 59 -270 76 -163 40 -157 39 -164 32z"/>
<path d="M5400 3266 c-173 -62 -340 -125 -370 -140 -79 -40 -120 -82 -120
-123 0 -69 59 -116 197 -158 140 -44 259 -58 422 -52 206 8 191 -2 191 123 l0
103 -97 -36 c-142 -51 -150 -53 -236 -53 -82 0 -117 11 -117 35 0 20 29 33
245 110 105 37 194 71 198 75 4 3 6 56 5 117 l-3 111 -315 -112z"/>
<path d="M6485 3265 c-44 -7 -117 -22 -162 -35 l-83 -22 0 -119 c0 -65 2 -119
4 -119 3 0 103 34 223 76 120 42 243 80 273 84 64 9 142 -1 165 -20 16 -13 16
-15 -3 -30 -11 -9 -164 -68 -341 -131 l-321 -114 0 -112 c0 -62 4 -113 8 -113
13 0 831 294 884 318 25 11 64 37 87 57 34 31 41 43 41 75 0 53 -34 89 -118
128 -175 81 -438 112 -657 77z"/>
<path d="M6068 1664 c-5 -4 -8 -72 -8 -151 l0 -143 38 1 c98 1 152 53 152 146
0 61 -18 103 -53 126 -28 18 -118 33 -129 21z"/>
<path d="M6943 1660 c-78 -31 -92 -205 -22 -265 56 -47 135 -25 163 45 53 132
-32 264 -141 220z"/>
</g>
</svg>
