<?xml version="1.0" standalone="no"?>
<!DOCTYPE svg PUBLIC "-//W3C//DTD SVG 20010904//EN"
 "http://www.w3.org/TR/2001/REC-SVG-20010904/DTD/svg10.dtd">
<svg version="1.0" xmlns="http://www.w3.org/2000/svg"
 width="768.000000pt" height="432.000000pt" viewBox="0 0 768.000000 432.000000"
 preserveAspectRatio="xMidYMid meet">

<g transform="translate(0.000000,432.000000) scale(0.100000,-0.100000)"
fill="#000000" stroke="none">
<path d="M0 2160 l0 -2160 3840 0 3840 0 0 2160 0 2160 -2036 0 c-1758 0
-2038 -2 -2048 -14 -6 -8 -29 -15 -51 -16 -62 -3 -68 -1 -61 15 4 12 -3 15
-34 15 -45 0 -100 -28 -100 -51 0 -20 -42 -38 -95 -41 -22 -1 -50 -6 -63 -11
-22 -10 -22 -11 15 -45 l38 -34 55 13 c30 7 75 13 100 13 46 0 74 19 65 43 -4
12 31 27 51 21 5 -1 19 4 32 11 25 14 57 8 47 -9 -11 -17 22 -22 61 -10 35 12
39 11 56 -10 15 -18 29 -23 71 -24 45 -1 52 -4 55 -23 3 -17 -6 -24 -50 -39
-29 -10 -69 -20 -88 -21 -83 -5 -154 -19 -157 -30 -3 -9 5 -9 29 -3 59 16 123
17 120 1 -2 -10 8 -12 40 -8 50 6 126 25 150 38 21 11 44 3 52 -18 9 -23 -14
-45 -40 -39 -13 4 -26 2 -29 -4 -3 -5 -25 -10 -48 -10 -23 0 -60 -5 -82 -11
-29 -8 -40 -8 -43 0 -4 11 -63 -15 -70 -30 -2 -4 -11 -5 -22 -2 -14 4 -18 1
-14 -14 5 -19 8 -19 77 -5 40 7 81 16 92 18 11 2 42 9 68 15 36 8 51 8 62 -1
8 -6 18 -9 24 -6 5 3 7 -3 4 -14 -3 -11 -1 -20 5 -20 6 0 13 -19 17 -42 4 -24
11 -46 16 -49 8 -5 24 -334 58 -1194 5 -132 6 -243 2 -247 -4 -4 -42 -17 -84
-28 -43 -11 -82 -22 -87 -25 -9 -5 -230 -67 -431 -120 -69 -18 -136 -38 -148
-44 -11 -6 -30 -16 -42 -22 -31 -15 -132 -47 -176 -54 -21 -4 -57 -14 -80 -22
-23 -9 -54 -13 -68 -11 -14 3 -30 -1 -36 -8 -6 -8 -25 -14 -42 -14 -17 0 -70
-13 -117 -29 -102 -35 -147 -48 -354 -100 -87 -22 -183 -52 -213 -67 -31 -14
-64 -23 -75 -21 -11 3 -34 0 -52 -8 -17 -7 -74 -25 -125 -40 -52 -15 -105 -34
-118 -42 -13 -9 -41 -17 -61 -19 -59 -6 -96 -16 -107 -30 -5 -7 -39 -16 -75
-19 -38 -4 -73 -14 -83 -23 -10 -9 -37 -17 -60 -17 -23 -1 -51 -6 -62 -12 -11
-5 -63 -20 -115 -33 -108 -26 -150 -39 -150 -49 0 -4 -15 -8 -32 -9 -18 -1
-70 -14 -114 -27 -45 -14 -96 -25 -112 -25 -17 0 -34 -4 -37 -10 -8 -12 -55
-13 -55 -1 0 17 28 31 96 50 38 11 101 29 139 41 39 12 79 23 90 24 11 1 36
10 54 19 18 9 49 19 70 23 48 9 75 23 43 24 -16 0 -26 7 -29 21 -5 17 -11 19
-37 13 -37 -8 -75 -34 -76 -52 0 -7 -5 -10 -10 -7 -6 4 -7 11 -4 17 5 8 -3 9
-27 3 -19 -4 -52 -11 -74 -15 -22 -4 -32 -8 -21 -9 15 -1 16 -4 6 -16 -7 -8
-22 -15 -34 -15 -11 0 -33 -6 -47 -14 -15 -7 -37 -14 -50 -14 -13 0 -46 -7
-72 -16 -54 -18 -77 -20 -77 -7 0 6 -12 9 -26 8 -35 -3 -54 25 -36 53 6 11 12
23 12 27 0 5 -5 1 -10 -7 -5 -8 -10 -10 -10 -5 0 6 -5 62 -10 125 -18 207 -61
743 -66 826 -6 80 -5 81 18 81 31 -1 98 22 98 34 0 12 -11 11 -60 -6 -68 -24
-70 -23 -70 50 0 59 11 84 23 53 3 -7 6 -3 6 9 1 15 9 24 24 28 87 20 118 24
132 19 19 -8 33 -56 17 -62 -18 -6 -14 -20 6 -25 16 -4 16 -5 0 -6 -10 0 -18
-5 -18 -11 0 -13 25 -13 73 1 28 8 42 7 53 -2 34 -28 -2 -78 -46 -64 -14 5
-20 2 -20 -10 0 -12 -8 -16 -29 -13 -16 1 -35 -2 -42 -8 -8 -6 -26 -14 -40
-18 -15 -3 -29 -12 -32 -19 -5 -15 36 -13 103 4 25 6 54 13 65 15 69 14 118
24 173 38 34 9 66 15 70 14 4 -1 18 3 32 9 37 16 250 65 283 65 26 1 28 4 25
30 -4 26 -2 29 17 24 14 -4 28 0 35 9 16 20 23 72 10 80 -6 3 -8 11 -5 16 4 5
-3 9 -14 9 -19 0 -20 -2 -9 -21 11 -17 10 -22 -6 -35 -11 -8 -33 -14 -48 -14
-16 0 -36 -4 -46 -9 -27 -15 -160 -41 -176 -35 -11 4 -14 20 -14 55 1 27 -4
55 -10 61 -9 9 -12 9 -12 0 0 -7 -9 -12 -20 -12 -11 0 -28 -4 -38 -9 -9 -6
-29 -12 -44 -15 -18 -4 -28 -13 -30 -28 -2 -18 -15 -25 -73 -40 -82 -22 -111
-20 -107 5 2 11 -4 17 -18 17 -21 0 -29 30 -7 31 6 0 2 5 -10 11 -13 6 -23 17
-23 23 0 12 70 35 107 35 30 0 43 14 36 39 -5 19 -10 21 -32 16 -43 -12 -84
-18 -118 -18 -18 0 -33 -4 -33 -9 0 -4 -13 -8 -30 -8 -20 0 -30 5 -30 15 0 16
33 37 53 34 6 -1 23 2 37 8 22 9 119 26 160 28 8 0 34 10 57 23 23 12 48 19
56 16 9 -3 36 2 61 10 26 9 64 16 85 16 22 0 44 6 51 15 7 8 25 15 40 15 16 0
56 7 90 16 34 9 71 14 81 11 28 -7 40 16 37 68 l-3 47 -70 -7 c-38 -4 -83 -13
-99 -21 -18 -9 -58 -14 -103 -13 -54 1 -79 -3 -91 -14 -23 -21 -139 -40 -162
-27 -12 7 -31 5 -57 -4 -21 -7 -62 -17 -91 -21 -44 -6 -52 -4 -52 9 0 9 6 17
13 18 22 2 32 5 48 12 10 4 23 6 30 5 8 -1 21 1 29 4 8 3 26 7 40 9 21 3 25 8
22 31 -2 16 3 36 10 45 11 14 10 15 -12 8 -14 -5 -56 -14 -95 -22 -38 -8 -90
-18 -115 -23 -35 -8 -48 -6 -59 4 -12 12 -11 16 13 25 15 5 32 10 37 10 5 0
19 9 31 19 20 19 131 39 160 28 7 -2 21 3 32 12 11 10 38 16 70 17 28 0 59 4
70 9 10 4 21 4 25 -2 4 -6 48 -1 121 13 155 31 186 31 143 -2 -10 -7 -36 -14
-58 -14 -32 0 -37 -3 -23 -11 10 -5 18 -19 18 -30 0 -19 4 -20 48 -14 55 7
127 27 174 49 18 8 49 16 68 19 19 2 98 19 175 37 77 18 147 32 155 32 8 0 38
4 65 11 60 13 51 11 103 21 51 9 84 40 76 71 -5 21 -1 22 67 29 40 3 77 10 83
15 6 5 27 11 46 14 19 3 76 13 125 22 147 27 155 28 155 17 0 -15 -18 -25 -65
-34 -22 -4 -74 -15 -115 -23 -41 -9 -94 -18 -118 -22 -56 -7 -49 -28 9 -27 51
1 245 38 304 59 22 7 58 17 80 20 51 9 54 11 48 34 -6 25 -58 31 -94 11 -23
-12 -30 -12 -43 -1 -21 18 -20 26 6 51 13 12 29 18 40 15 9 -4 27 -1 39 5 11
7 49 16 83 22 33 5 84 14 111 18 28 5 70 13 95 20 24 6 56 10 70 9 14 -1 33 2
43 6 12 5 22 2 30 -8 17 -21 91 -29 109 -11 7 8 43 17 78 20 36 4 70 10 75 14
6 5 38 14 72 20 45 9 63 17 66 31 6 23 8 23 -38 3 -58 -24 -68 -17 -69 44 -1
58 6 69 44 72 50 4 63 1 52 -13 -12 -14 -5 -57 9 -57 5 0 9 9 9 19 0 11 5 23
11 26 5 4 8 12 6 18 -2 7 3 17 12 24 13 10 9 12 -27 13 -24 0 -51 -4 -61 -9
-21 -12 -201 -42 -239 -40 -15 0 -47 -7 -72 -17 -45 -17 -60 -20 -250 -49 -58
-9 -119 -19 -137 -22 -28 -4 -33 -2 -39 21 -3 14 -9 26 -13 26 -3 0 -94 -18
-201 -39 -107 -22 -198 -37 -202 -35 -4 3 -5 11 -2 19 10 26 -24 28 -119 7
-108 -25 -203 -42 -230 -42 -14 0 -18 6 -15 27 3 23 10 28 53 39 111 26 193
43 250 50 71 9 60 7 115 21 25 7 80 19 122 28 181 36 227 48 232 61 3 7 2 28
-1 48 -5 33 -7 34 -42 29 -20 -3 -52 -10 -71 -15 -30 -10 -32 -12 -15 -18 11
-4 25 -5 31 -3 15 6 26 -39 12 -48 -6 -4 -41 -13 -77 -19 -65 -11 -103 -19
-191 -39 -53 -12 -214 -45 -320 -65 -77 -15 -110 -9 -110 19 0 27 55 43 260
76 171 27 204 34 318 66 30 8 52 16 50 18 -3 3 -121 -19 -283 -51 -142 -28
-225 -41 -229 -35 -2 3 -3 17 -2 31 2 26 11 29 145 56 13 3 21 7 19 10 -3 2
-38 0 -77 -7 -85 -13 -101 -9 -101 26 0 30 10 30 -185 0 -49 -8 -110 -17 -135
-21 -25 -3 -88 -17 -140 -30 -52 -13 -105 -24 -118 -24 -12 0 -33 -6 -45 -13
-14 -9 -41 -12 -75 -9 -44 3 -53 7 -58 27 -7 30 -57 41 -87 19 -22 -15 -22
-15 6 -8 29 7 57 -9 57 -32 0 -15 -19 -22 -85 -29 -81 -8 -168 -30 -172 -42
-2 -6 6 -15 18 -18 22 -7 22 -8 4 -21 -17 -13 -16 -14 13 -14 18 0 32 5 32 10
0 6 -5 10 -11 10 -5 0 -7 5 -3 11 4 7 21 9 41 6 22 -4 40 -1 48 7 22 22 165 6
165 -19 0 -21 -29 -45 -56 -45 -20 0 -23 -3 -15 -17 5 -10 12 -26 15 -37 4
-13 11 -16 24 -11 26 11 125 27 142 22 9 -2 21 1 27 8 6 7 34 15 63 19 54 7
80 -3 80 -32 0 -12 9 -13 53 -8 28 4 80 14 115 22 51 13 69 14 93 4 16 -7 29
-16 29 -21 0 -16 -75 -40 -150 -48 -55 -5 -70 -10 -55 -16 11 -5 24 -14 28
-22 4 -7 19 -13 32 -13 17 0 25 -6 27 -22 2 -13 11 -24 23 -27 21 -4 187 24
241 40 37 11 95 12 112 1 23 -15 2 -40 -46 -52 -26 -7 -52 -17 -57 -21 -6 -4
-47 -10 -92 -12 -45 -3 -86 -7 -90 -10 -13 -8 -120 -28 -152 -29 -26 -1 -29
-4 -21 -19 23 -42 14 -50 -54 -47 -53 3 -66 0 -69 -13 -3 -11 -20 -20 -48 -24
-24 -4 -50 -11 -59 -16 -8 -5 -58 -13 -110 -18 -116 -12 -231 -38 -246 -57
-17 -22 -122 -38 -141 -23 -12 11 -17 10 -24 -4 -12 -20 -39 -23 -39 -4 -1 8
-5 7 -13 -4 -17 -23 -117 -46 -127 -29 -4 7 -13 9 -19 6 -6 -4 -21 -4 -32 -1
-17 6 -20 13 -15 36 3 18 1 29 -5 29 -7 0 -9 12 -5 33 8 45 -4 61 -43 52 -24
-5 -31 -3 -31 8 0 16 21 27 51 27 14 0 19 7 19 25 0 14 5 25 12 25 7 0 6 6 -4
18 -17 19 -21 91 -7 108 6 8 4 14 -6 18 -21 8 -19 33 4 45 22 12 88 18 97 8 4
-4 14 2 21 13 8 12 24 20 36 19 12 -1 31 -1 41 -1 19 2 19 3 2 15 -15 11 -16
18 -8 34 10 19 8 19 -42 15 -47 -4 -54 -2 -59 17 -3 11 -11 21 -17 21 -8 0
-10 -9 -6 -25 5 -21 2 -26 -26 -34 -31 -10 -30 -10 16 -8 29 1 51 -3 53 -9 5
-15 -16 -23 -84 -31 -54 -6 -56 -5 -50 16 4 17 2 21 -11 19 -9 -2 -17 -12 -17
-23 0 -30 -32 -31 -37 -1 -6 33 2 44 35 48 15 2 33 12 41 23 12 16 10 21 -10
40 -27 25 -31 45 -9 45 8 0 12 6 9 14 -3 8 -1 23 5 33 8 15 20 19 61 18 28 -1
53 2 56 7 3 5 17 8 32 8 15 0 61 7 102 15 106 23 185 35 258 39 35 3 69 9 76
15 7 6 46 12 87 13 69 3 74 2 72 -18 -2 -19 0 -20 44 -10 35 8 41 12 22 14
-33 5 -48 20 -29 32 8 6 21 8 28 5 7 -3 20 0 30 5 9 5 38 12 64 15 26 3 55 13
64 22 8 9 43 22 77 28 57 12 46 13 -149 14 -196 1 -212 0 -210 -16 1 -14 -12
-20 -55 -29 -31 -6 -62 -15 -69 -19 -8 -5 -36 -7 -62 -6 -27 1 -95 -7 -151
-18 -56 -11 -134 -24 -173 -29 l-70 -8 4 26 c6 32 18 40 60 40 22 0 32 4 30
12 -7 21 -80 16 -86 -4 -2 -10 -11 -18 -19 -18 -10 0 -11 -4 -4 -19 9 -15 6
-22 -13 -34 -13 -9 -40 -19 -60 -23 -37 -6 -38 -6 -34 22 2 21 9 30 26 32 14
2 22 -2 22 -12 0 -8 4 -17 9 -20 4 -3 6 5 3 19 -3 17 -12 25 -31 27 -18 2 -26
9 -26 22 0 24 67 49 112 42 18 -2 35 0 38 5 4 5 -139 9 -369 9 l-376 0 0
-2160z m528 2108 c-3 -7 -18 -14 -34 -16 -28 -2 -28 -2 -10 13 24 18 49 20 44
3z m-88 -17 c0 -10 -69 -25 -77 -17 -3 2 -2 9 1 14 7 11 76 14 76 3z m90 -35
c0 -9 -17 -15 -52 -19 -29 -3 -65 -9 -80 -13 -21 -5 -28 -3 -28 9 0 10 12 15
43 15 24 1 54 6 68 11 34 14 49 13 49 -3z m3380 -16 c0 -11 -4 -20 -10 -20 -5
0 -10 2 -10 4 0 2 -3 11 -6 20 -4 11 -1 16 10 16 9 0 16 -8 16 -20z m-3375
-30 c6 -10 -10 -14 -80 -24 -22 -3 -50 -9 -62 -12 -17 -5 -23 -2 -23 10 0 11
9 16 28 17 49 1 93 7 99 13 10 9 31 7 38 -4z m240 -9 c7 -12 -12 -24 -25 -16
-11 7 -4 25 10 25 5 0 11 -4 15 -9z m-95 -21 c0 -5 -15 -10 -32 -9 -28 0 -30
2 -13 9 28 12 45 12 45 0z m-142 -22 c-3 -7 -31 -17 -64 -21 -88 -13 -97 -13
-101 -1 -2 7 21 15 64 21 97 15 105 15 101 1z m1222 -28 c0 -5 -7 -10 -15 -10
-8 0 -15 5 -15 10 0 6 7 10 15 10 8 0 15 -4 15 -10z m-1224 -28 c-3 -5 -32
-12 -64 -15 -32 -4 -67 -9 -76 -13 -14 -5 -17 -3 -15 11 3 14 15 18 55 20 28
1 59 7 70 13 20 11 41 1 30 -16z m1154 14 c0 -15 -58 -28 -66 -14 -3 4 5 12
18 17 33 14 48 13 48 -3z m-90 -16 c0 -5 -7 -10 -15 -10 -8 0 -15 5 -15 10 0
6 7 10 15 10 8 0 15 -4 15 -10z m-80 -9 c0 -11 -50 -24 -58 -16 -8 8 19 25 41
25 9 0 17 -4 17 -9z m-104 -28 c-10 -10 -19 5 -10 18 6 11 8 11 12 0 2 -7 1
-15 -2 -18z m-866 3 c0 -18 -16 -23 -104 -32 -56 -5 -68 -4 -64 7 3 9 23 15
53 17 27 2 56 7 64 12 24 14 51 12 51 -4z m810 -11 c0 -10 -10 -15 -30 -15
-29 0 -38 9 -23 23 13 13 53 7 53 -8z m-550 -79 c0 -3 -4 -8 -10 -11 -5 -3
-10 -1 -10 4 0 6 5 11 10 11 6 0 10 -2 10 -4z m-302 -18 c-5 -15 -40 -26 -86
-27 -53 -2 -33 23 24 30 27 3 53 7 57 7 5 1 7 -4 5 -10z m92 -183 c0 -9 -9
-15 -25 -15 -24 0 -32 10 -18 23 12 13 43 7 43 -8z m-77 -16 c-10 -10 -38 -18
-90 -26 -26 -4 -33 -2 -33 11 0 16 20 24 80 29 41 3 55 -2 43 -14z m15 -141
c-6 -17 -110 -40 -122 -27 -20 19 18 36 87 38 27 1 37 -3 35 -11z m72 -84 c0
-9 -10 -14 -27 -14 -25 0 -26 1 -8 20 19 21 35 18 35 -6z m700 -259 c0 -15
-26 -25 -70 -27 -14 0 -44 -7 -68 -14 -55 -18 -82 -18 -82 1 0 14 55 34 98 35
54 1 62 2 67 11 10 15 55 11 55 -6z m-849 -18 c-13 -13 -26 -3 -16 12 3 6 11
8 17 5 6 -4 6 -10 -1 -17z m188 -10 c15 -19 -5 -37 -41 -37 -34 0 -36 13 -6
34 27 19 33 20 47 3z m-79 -22 c0 -16 -33 -37 -65 -40 -11 -1 -24 -3 -29 -4
-4 0 -6 -7 -3 -15 3 -8 0 -19 -7 -26 -11 -8 -15 -3 -18 27 -7 49 4 61 55 66
23 2 48 4 55 5 6 1 12 -5 12 -13z m497 1 c-2 -6 -9 -11 -14 -11 -6 0 -15 -3
-19 -7 -4 -5 -22 -8 -39 -8 -17 0 -35 -3 -39 -7 -14 -14 -129 -43 -191 -48
-22 -2 -47 -6 -55 -9 -16 -6 -100 -25 -112 -26 -5 0 -8 9 -8 19 0 21 18 31 58
31 15 0 34 4 42 10 9 5 19 5 27 -2 8 -7 13 -7 13 0 0 11 80 33 92 26 5 -3 14
-1 21 4 11 9 26 12 111 27 16 2 31 6 33 9 11 10 84 3 80 -8z m-512 -196 c-3
-5 -10 -10 -16 -10 -5 0 -9 5 -9 10 0 6 7 10 16 10 8 0 12 -4 9 -10z m45 -80
c-20 -13 -40 -13 -40 0 0 6 12 10 28 10 21 0 24 -2 12 -10z m351 -141 c9 -17
8 -25 -4 -37 -21 -20 -47 -8 -47 21 0 42 31 52 51 16z m92 -16 c-7 -2 -19 -2
-25 0 -7 3 -2 5 12 5 14 0 19 -2 13 -5z m4254 -780 c-3 -10 -5 -2 -5 17 0 19
2 27 5 18 2 -10 2 -26 0 -35z m-10 -80 c-3 -10 -5 -2 -5 17 0 19 2 27 5 18 2
-10 2 -26 0 -35z m-10 -125 c-2 -18 -4 -4 -4 32 0 36 2 50 4 33 2 -18 2 -48 0
-65z m-10 -175 c-2 -21 -4 -4 -4 37 0 41 2 58 4 38 2 -21 2 -55 0 -75z m-12
-120 c-9 -76 -17 -61 -8 18 3 35 8 58 11 51 2 -7 1 -38 -3 -69z m-4613 41 c11
-22 10 -28 -7 -40 -24 -18 -34 -18 -42 2 -7 18 12 64 27 64 6 0 16 -12 22 -26z"/>
<path d="M1035 4310 c-3 -5 -21 -10 -40 -10 -19 0 -36 -4 -39 -9 -4 -5 17 -8
48 -6 57 3 76 10 76 26 0 12 -37 12 -45 -1z"/>
<path d="M1126 4305 c4 -8 8 -15 11 -15 2 0 11 7 19 15 14 13 13 15 -10 15
-18 0 -24 -4 -20 -15z"/>
<path d="M2050 4310 c-19 -4 -46 -13 -60 -19 -22 -10 -20 -11 20 -6 98 11 172
23 177 29 9 8 -94 5 -137 -4z"/>
<path d="M2850 4313 c-14 -3 -29 -9 -35 -15 -7 -7 -1 -8 20 -4 78 17 105 18
105 7 0 -9 22 -11 75 -9 41 2 75 6 75 10 0 4 15 9 33 11 17 2 -31 4 -108 4
-77 0 -151 -2 -165 -4z"/>
<path d="M1887 4278 c-7 -4 7 -8 31 -8 23 0 42 5 42 10 0 12 -54 10 -73 -2z"/>
<path d="M858 4273 c6 -2 18 -2 25 0 6 3 1 5 -13 5 -14 0 -19 -2 -12 -5z"/>
<path d="M2602 4269 c-30 -5 -63 -16 -75 -25 -18 -13 -18 -15 -4 -10 24 8 53
14 92 20 17 2 41 9 55 14 21 9 21 11 5 10 -11 0 -44 -4 -73 -9z"/>
<path d="M2400 4220 c-24 -8 -24 -8 5 -8 17 0 39 3 50 8 18 8 18 9 -5 8 -14 0
-36 -4 -50 -8z"/>
<path d="M1551 4201 c-10 -6 -9 -10 3 -14 8 -3 18 -2 21 3 8 13 -9 20 -24 11z"/>
<path d="M2280 4199 c-21 -4 -27 -7 -15 -9 23 -3 48 0 54 6 9 8 -5 10 -39 3z"/>
<path d="M3528 4203 c7 -3 16 -2 19 1 4 3 -2 6 -13 5 -11 0 -14 -3 -6 -6z"/>
<path d="M2198 4183 c7 -3 16 -2 19 1 4 3 -2 6 -13 5 -11 0 -14 -3 -6 -6z"/>
<path d="M1028 4113 c7 -3 16 -2 19 1 4 3 -2 6 -13 5 -11 0 -14 -3 -6 -6z"/>
<path d="M743 4092 c-17 -2 -34 -9 -37 -17 -8 -22 13 -29 33 -11 14 13 24 14
44 7 24 -9 37 -6 37 10 0 9 -38 15 -77 11z"/>
<path d="M855 4080 c4 -6 11 -8 16 -5 14 9 11 15 -7 15 -8 0 -12 -5 -9 -10z"/>
<path d="M865 4051 c-6 -5 -21 -11 -34 -13 -36 -5 -40 -29 -4 -26 16 1 34 -1
40 -5 6 -4 14 0 17 9 8 21 -7 47 -19 35z"/>
<path d="M3650 4040 c0 -5 5 -10 10 -10 6 0 10 5 10 10 0 6 -4 10 -10 10 -5 0
-10 -4 -10 -10z"/>
<path d="M1020 3941 c0 -12 29 -23 42 -15 6 4 5 10 -3 15 -18 11 -39 11 -39 0z"/>
<path d="M991 3921 c-8 -5 -9 -11 -3 -15 5 -3 12 1 16 9 6 17 6 18 -13 6z"/>
<path d="M985 3868 c-14 -17 -12 -18 20 -18 19 0 35 5 35 10 0 6 10 10 22 10
35 0 11 13 -27 15 -22 0 -40 -6 -50 -17z"/>
<path d="M1160 3879 c0 -5 5 -7 10 -4 6 3 10 8 10 11 0 2 -4 4 -10 4 -5 0 -10
-5 -10 -11z"/>
<path d="M3790 3880 c-8 -5 -28 -10 -45 -10 -40 0 -76 -10 -70 -20 11 -18
-160 -53 -185 -38 -16 10 -33 8 -232 -24 -90 -15 -127 -38 -61 -38 44 0 69
-19 59 -45 -6 -17 -10 -19 -75 -35 -43 -11 -43 -12 -23 -30 11 -10 22 -24 24
-31 3 -8 30 -5 98 11 52 13 97 27 100 31 5 7 20 11 88 25 12 2 22 9 22 15 0
14 -43 29 -55 18 -11 -11 -55 -12 -55 -1 0 22 28 45 48 39 12 -3 24 -1 27 3 3
4 28 14 57 20 45 11 53 11 64 -4 11 -16 16 -16 79 1 l67 18 18 -23 c10 -12 25
-20 34 -17 9 3 23 7 32 10 11 3 13 9 6 22 -11 19 4 63 22 63 6 0 4 6 -5 13 -9
7 -18 17 -20 24 -3 8 -9 9 -19 3z"/>
<path d="M1311 3851 c-8 -6 -9 -11 -3 -15 6 -3 14 -1 17 5 9 14 2 20 -14 10z"/>
<path d="M1215 3840 c3 -5 10 -10 16 -10 5 0 9 5 9 10 0 6 -7 10 -16 10 -8 0
-12 -4 -9 -10z"/>
<path d="M815 3830 c-4 -7 3 -8 22 -4 38 9 42 14 10 14 -14 0 -29 -5 -32 -10z"/>
<path d="M1525 3820 c3 -5 10 -10 16 -10 5 0 9 5 9 10 0 6 -7 10 -16 10 -8 0
-12 -4 -9 -10z"/>
<path d="M1063 3762 c-52 -5 -38 -20 17 -19 28 0 50 4 50 8 0 10 -30 15 -67
11z"/>
<path d="M1170 3760 c0 -5 5 -10 10 -10 6 0 10 5 10 10 0 6 -4 10 -10 10 -5 0
-10 -4 -10 -10z"/>
<path d="M1000 3730 c-13 -8 -12 -10 3 -10 9 0 17 5 17 10 0 12 -1 12 -20 0z"/>
<path d="M1175 3721 c-3 -6 -15 -11 -27 -11 -17 0 -18 -3 -9 -14 11 -13 15
-12 33 6 11 11 17 22 15 24 -3 3 -8 1 -12 -5z"/>
<path d="M835 3710 c-3 -5 1 -10 9 -10 9 0 16 5 16 10 0 6 -4 10 -9 10 -6 0
-13 -4 -16 -10z"/>
<path d="M2770 3694 c-10 -11 -10 -14 1 -14 8 0 20 4 27 9 11 7 11 9 -1 14 -9
3 -21 -1 -27 -9z"/>
<path d="M2888 3651 c-98 -21 -179 -36 -181 -35 -2 2 -70 -10 -152 -27 -83
-17 -184 -37 -225 -45 -41 -7 -96 -20 -122 -29 -50 -16 -161 -41 -243 -55 -27
-5 -104 -20 -170 -34 -66 -15 -167 -36 -225 -48 -58 -11 -109 -26 -113 -32 -4
-6 -5 -47 -2 -91 3 -44 9 -162 14 -262 5 -99 12 -186 16 -193 4 -6 14 -9 21
-6 8 3 128 31 267 61 139 31 315 71 392 90 77 19 201 48 275 65 154 35 230 52
350 81 47 12 136 33 199 47 l113 26 -4 252 c-5 234 -8 275 -26 273 -4 0 -87
-18 -184 -38z m91 -85 c14 -16 5 -267 -11 -309 -10 -26 -47 -45 -66 -33 -18
11 -19 53 -2 63 17 12 25 60 24 160 0 71 -5 81 -37 66 -12 -6 -30 -14 -39 -17
-14 -4 -18 -16 -18 -51 0 -41 2 -45 25 -45 18 0 25 -5 25 -20 0 -13 -7 -20
-18 -20 -28 0 -42 -21 -42 -63 0 -36 2 -38 28 -35 21 2 27 -1 27 -17 0 -11
-11 -25 -25 -32 -21 -11 -28 -10 -43 5 -15 16 -16 29 -8 122 4 57 5 115 2 129
-13 47 -25 1 -31 -116 -3 -76 -9 -116 -19 -125 -11 -11 -12 7 -7 113 6 106 4
128 -9 139 -13 11 -15 8 -16 -21 -2 -138 -17 -259 -31 -259 -7 0 -9 37 -5 119
4 65 8 124 9 131 4 15 -13 22 -28 12 -7 -4 -14 -58 -18 -132 -6 -98 -11 -128
-24 -137 -27 -21 -32 -15 -32 40 0 30 -3 56 -6 60 -13 13 -34 -7 -34 -33 0
-42 -11 -90 -21 -90 -5 0 -9 27 -9 61 0 38 -4 58 -10 54 -6 -4 -8 -29 -4 -63
5 -44 4 -54 -6 -46 -6 6 -14 30 -17 53 -6 47 -23 56 -23 12 0 -49 -12 -91 -26
-91 -8 0 -14 -7 -14 -15 0 -8 -15 -18 -32 -23 -48 -14 -61 7 -54 85 4 33 8 95
10 136 5 79 18 117 41 117 7 0 21 3 30 6 13 5 16 2 13 -17 -2 -16 -11 -25 -26
-27 -13 -2 -25 -9 -27 -15 -5 -14 -14 -247 -10 -247 25 0 35 17 35 61 0 27 -4
49 -10 49 -16 0 -12 26 7 41 13 11 17 11 20 2 10 -30 19 -8 21 52 4 89 13 111
52 117 21 3 34 0 39 -10 7 -13 10 -12 15 5 8 25 65 40 79 21 6 -9 7 -8 3 5 -3
9 -4 17 -3 17 1 1 20 3 42 6 22 4 48 10 57 15 9 5 30 9 47 9 25 0 31 -4 32
-22 l2 -23 4 23 c5 27 37 45 69 39 14 -2 25 1 28 9 7 18 60 18 75 0z m-739
-172 c0 -8 -13 -20 -30 -25 -28 -10 -30 -15 -30 -60 0 -45 2 -49 24 -49 14 0
28 -5 31 -11 11 -16 6 -138 -5 -159 -12 -23 -57 -37 -71 -23 -16 16 4 48 31
48 23 0 25 3 25 50 0 48 -1 50 -27 47 -22 -3 -27 1 -33 28 -8 38 3 140 17 158
15 18 68 16 68 -4z m-92 -17 c2 -11 -9 -21 -34 -32 -34 -14 -36 -17 -30 -46 3
-17 6 -38 6 -46 0 -10 6 -12 19 -8 27 8 41 -21 41 -89 0 -65 -15 -102 -44
-110 -38 -10 -48 -7 -44 17 2 16 11 23 31 25 26 3 27 6 27 58 0 52 -1 54 -24
48 -17 -4 -27 0 -35 13 -10 17 -11 17 -17 -4 -3 -13 -10 -24 -15 -24 -5 -1
-13 -3 -19 -4 -5 -1 -14 -3 -20 -4 -5 0 -10 -23 -10 -51 0 -47 2 -50 26 -50
21 0 25 -4 22 -22 -2 -17 -11 -24 -32 -26 -40 -5 -47 12 -40 94 4 45 2 79 -5
92 -7 14 -8 23 -1 27 5 3 10 18 10 33 0 15 5 43 10 63 9 30 16 38 41 41 20 3
33 0 36 -9 7 -18 -15 -43 -38 -43 -16 0 -19 -8 -19 -44 0 -52 12 -65 33 -35
14 19 15 20 19 2 3 -10 8 5 12 32 13 90 20 109 46 116 33 9 44 6 48 -14z
m-198 -47 c0 -12 -10 -21 -29 -25 -28 -6 -28 -7 -35 -97 -3 -50 -6 -109 -6
-131 0 -37 1 -39 25 -33 18 5 27 2 32 -10 7 -20 -13 -34 -49 -34 -21 0 -29 6
-34 25 -3 14 -3 33 0 42 4 10 7 60 7 113 0 121 13 168 48 172 34 5 41 1 41
-22z m-94 -16 c-3 -9 -6 -20 -6 -25 0 -5 -13 -9 -30 -9 l-29 0 0 -75 c0 -41
-3 -100 -7 -131 l-7 -56 29 4 c23 2 29 -1 29 -16 0 -27 -54 -45 -69 -24 -6 8
-17 13 -23 11 -10 -3 -13 11 -13 51 0 31 -2 56 -4 56 -23 0 -36 -18 -41 -58
-17 -129 -35 -60 -25 99 9 146 18 169 65 169 19 0 35 -4 35 -10 0 -18 18 -10
23 10 4 15 14 20 42 20 30 0 36 -3 31 -16z"/>
<path d="M2948 3438 c0 -13 -2 -36 -3 -51 -1 -15 2 -30 6 -33 5 -3 9 20 9 50
0 54 -8 79 -12 34z"/>
<path d="M2573 3443 c-15 -6 -18 -103 -4 -103 14 0 18 9 25 63 7 46 4 51 -21
40z"/>
<path d="M2474 3422 c-6 -4 -11 -28 -10 -54 1 -39 4 -48 19 -48 11 0 17 8 17
24 0 13 3 38 6 55 7 31 -6 41 -32 23z"/>
<path d="M1700 3208 c0 -35 4 -48 13 -46 18 7 20 95 1 95 -10 0 -14 -14 -14
-49z"/>
<path d="M1185 3659 c-20 -4 -23 -7 -10 -8 11 0 30 -8 42 -16 17 -12 22 -12
26 -2 7 20 -24 34 -58 26z"/>
<path d="M3330 3553 c-30 -4 -95 -21 -132 -35 -31 -11 -41 -40 -22 -65 7 -10
14 -26 14 -36 0 -11 5 -16 13 -13 6 3 20 9 30 12 9 4 17 11 17 16 0 5 -4 6
-10 3 -5 -3 -10 1 -10 9 0 9 3 16 8 17 12 1 45 8 90 17 28 6 42 6 42 -1 0 -6
6 -4 13 5 6 9 30 18 51 21 38 6 65 21 54 32 -2 3 -26 1 -51 -4 -41 -7 -47 -6
-52 10 -4 11 -12 18 -18 18 -7 -1 -23 -3 -37 -6z"/>
<path d="M3705 3543 c-11 -3 -25 -10 -32 -15 -7 -5 -17 -7 -23 -3 -19 12 -57
-4 -63 -25 -4 -17 -2 -20 16 -15 20 5 21 4 2 -4 -24 -10 -132 -31 -164 -31
-14 0 -20 -4 -15 -11 4 -8 0 -9 -15 -4 -11 3 -28 2 -37 -3 -8 -5 -35 -6 -60
-2 -39 6 -44 5 -44 -12 0 -15 3 -17 19 -8 29 15 56 13 42 -3 -8 -11 -4 -13 22
-10 44 5 107 25 103 32 -4 5 25 9 122 15 12 0 22 4 22 9 0 11 38 8 45 -4 4 -6
14 -8 23 -4 14 5 14 4 0 -12 -8 -10 -18 -26 -21 -35 -5 -15 -3 -16 35 -2 22 8
52 14 67 15 l26 1 -25 7 c-17 5 -21 9 -12 15 6 4 15 5 20 3 4 -3 7 6 7 19 0
18 -7 25 -27 30 -31 6 -36 19 -12 28 26 10 34 7 34 -11 0 -15 2 -16 10 -3 7
11 4 18 -11 25 -11 6 -16 14 -13 18 8 8 -9 8 -41 0z m-40 -33 c17 -7 17 -9 3
-9 -11 -1 -15 -6 -12 -16 8 -20 -6 -19 -22 3 -24 32 -12 41 31 22z m40 -90
c-3 -5 -14 -10 -23 -9 -14 0 -13 2 3 9 27 11 27 11 20 0z"/>
<path d="M1113 3385 c0 -11 4 -12 14 -4 7 6 13 13 13 15 0 2 -6 4 -13 4 -8 0
-14 -7 -14 -15z"/>
<path d="M1116 3345 c-3 -8 -18 -15 -33 -15 -23 -1 -25 -2 -11 -10 17 -11 68
5 68 21 0 16 -18 19 -24 4z"/>
<path d="M3435 3330 c-3 -6 1 -7 9 -4 18 7 21 14 7 14 -6 0 -13 -4 -16 -10z"/>
<path d="M3370 3320 c0 -5 5 -10 11 -10 5 0 7 5 4 10 -3 6 -8 10 -11 10 -2 0
-4 -4 -4 -10z"/>
<path d="M3262 3092 c-13 -9 -6 -42 9 -42 14 0 11 20 -3 20 -8 0 -5 7 6 15 21
16 11 21 -12 7z"/>
<path d="M3287 3057 c-3 -8 -1 -20 4 -28 8 -13 11 -8 8 19 0 4 10 10 23 14 22
6 22 6 -3 7 -15 1 -29 -5 -32 -12z"/>
<path d="M3242 3046 c4 -5 3 -15 -2 -21 -8 -9 -4 -11 15 -7 14 2 25 5 23 6 -2
1 -12 8 -23 16 -11 8 -17 10 -13 6z"/>
<path d="M3127 3033 c-13 -12 -7 -21 18 -25 29 -6 31 -2 11 18 -16 16 -20 17
-29 7z"/>
<path d="M958 3003 c7 -3 16 -2 19 1 4 3 -2 6 -13 5 -11 0 -14 -3 -6 -6z"/>
<path d="M905 2980 c4 -6 11 -8 16 -5 14 9 11 15 -7 15 -8 0 -12 -5 -9 -10z"/>
<path d="M3170 2979 c0 -5 5 -7 10 -4 6 3 10 8 10 11 0 2 -4 4 -10 4 -5 0 -10
-5 -10 -11z"/>
<path d="M882 2940 c-48 -11 -49 -18 -3 -17 25 1 41 7 41 15 0 6 -1 12 -2 11
-2 -1 -18 -5 -36 -9z"/>
<path d="M748 2903 c7 -3 16 -2 19 1 4 3 -2 6 -13 5 -11 0 -14 -3 -6 -6z"/>
<path d="M861 2890 c-9 -5 -7 -9 8 -13 12 -3 23 -2 26 3 7 11 -19 20 -34 10z"/>
<path d="M2050 2839 c-25 -5 -91 -21 -148 -35 -56 -14 -107 -22 -112 -19 -5 3
-11 2 -14 -3 -3 -5 -30 -15 -61 -22 -30 -7 -55 -17 -55 -22 0 -12 9 -10 102
13 130 33 154 35 168 9 9 -16 9 -25 -1 -36 -6 -8 -8 -14 -3 -14 5 -1 -4 -7
-21 -15 l-30 -15 40 6 c21 3 52 12 67 20 15 8 36 14 46 14 14 0 21 9 25 35 6
39 24 61 53 67 21 4 23 22 2 25 -7 0 -33 -3 -58 -8z"/>
<path d="M1380 2800 c0 -5 5 -10 11 -10 5 0 7 5 4 10 -3 6 -8 10 -11 10 -2 0
-4 -4 -4 -10z"/>
<path d="M554 2778 c-11 -17 13 -32 36 -22 19 9 19 9 -5 21 -16 7 -27 8 -31 1z"/>
<path d="M1770 2660 c0 -5 9 -10 20 -10 11 0 20 5 20 10 0 6 -9 10 -20 10 -11
0 -20 -4 -20 -10z"/>
<path d="M524 2654 c-12 -5 -6 -54 6 -54 5 0 6 10 2 22 -3 14 -1 19 6 14 8 -5
10 -2 6 8 -3 9 -7 16 -8 15 0 0 -6 -3 -12 -5z"/>
<path d="M888 2624 c-4 -3 -53 -15 -110 -25 -127 -23 -208 -46 -208 -59 0 -13
7 -13 30 0 11 6 38 12 62 14 24 3 72 12 108 20 41 10 68 12 74 6 12 -12 7 -18
-24 -24 -14 -2 -43 -11 -65 -20 l-40 -15 35 1 c19 1 40 4 45 8 6 3 35 7 65 9
30 2 56 7 58 11 2 5 9 7 17 4 7 -3 16 -1 19 5 4 6 13 8 21 4 8 -3 15 -1 15 4
0 6 14 9 30 8 17 -1 30 2 30 7 0 4 9 8 20 8 11 0 20 7 20 15 0 10 -10 14 -33
13 -19 -1 -39 2 -45 6 -7 4 -12 3 -12 -1 0 -5 -15 -16 -34 -24 -35 -16 -58 -9
-67 19 -2 7 -8 10 -11 6z m12 -38 c0 -2 -7 -6 -15 -10 -8 -3 -15 -1 -15 4 0 6
7 10 15 10 8 0 15 -2 15 -4z"/>
<path d="M1150 2540 c0 -5 5 -10 11 -10 5 0 7 5 4 10 -3 6 -8 10 -11 10 -2 0
-4 -4 -4 -10z"/>
<path d="M1718 2540 c-39 -12 -48 -19 -42 -35 5 -12 11 -11 46 1 22 7 44 12
48 9 4 -3 10 2 14 10 3 8 1 15 -3 15 -5 0 -15 2 -23 4 -7 2 -25 1 -40 -4z"/>
<path d="M518 2533 c7 -3 16 -2 19 1 4 3 -2 6 -13 5 -11 0 -14 -3 -6 -6z"/>
<path d="M630 2501 c0 -4 11 -6 25 -3 14 2 25 6 25 8 0 2 -11 4 -25 4 -14 0
-25 -4 -25 -9z"/>
<path d="M1050 2500 c-26 -17 -121 -33 -132 -22 -10 10 -27 6 -98 -18 -19 -7
-50 -15 -69 -19 -35 -6 -56 -31 -27 -31 9 0 16 5 16 11 0 6 8 8 18 5 19 -6 43
-2 212 34 118 25 130 29 130 41 0 12 -31 11 -50 -1z"/>
<path d="M574 2430 c-10 -4 -27 -6 -36 -4 -14 2 -18 -5 -18 -31 0 -28 4 -33
20 -32 18 1 24 10 21 30 -1 7 27 11 67 7 30 -2 28 6 -6 23 -16 7 -37 11 -48 7z"/>
<path d="M900 2389 c0 -5 -4 -8 -8 -5 -5 3 -26 1 -46 -5 -27 -8 -36 -15 -32
-26 3 -8 6 -16 6 -18 0 -2 20 2 44 9 25 8 47 12 49 10 2 -3 2 7 0 21 -5 25
-13 34 -13 14z"/>
<path d="M1066 2368 c4 -6 0 -15 -7 -20 -11 -8 -10 -8 4 -4 10 3 23 6 28 6 19
0 8 26 -11 27 -12 1 -18 -3 -14 -9z"/>
<path d="M586 2331 c-3 -5 0 -11 7 -13 17 -7 38 2 31 13 -7 12 -31 12 -38 0z"/>
<path d="M3199 2327 c6 -8 8 -17 4 -21 -4 -4 0 -4 10 0 14 5 15 9 6 20 -6 8
-16 14 -21 14 -7 0 -6 -5 1 -13z"/>
<path d="M3067 2284 c-40 -21 -28 -28 16 -9 20 8 39 14 41 13 2 -2 8 0 12 5
14 13 -41 6 -69 -9z"/>
<path d="M758 2273 c7 -3 16 -2 19 1 4 3 -2 6 -13 5 -11 0 -14 -3 -6 -6z"/>
<path d="M3010 2260 c0 -5 5 -10 10 -10 6 0 10 5 10 10 0 6 -4 10 -10 10 -5 0
-10 -4 -10 -10z"/>
<path d="M1240 2249 c0 -4 -14 -9 -31 -13 -25 -5 -29 -9 -24 -26 4 -12 2 -20
-5 -20 -6 0 -8 5 -4 12 5 8 2 9 -11 5 -9 -4 -24 -2 -31 4 -9 8 -29 9 -57 4
-23 -4 -65 -9 -93 -10 -65 -3 -114 -14 -114 -26 0 -5 7 -9 15 -9 27 0 16 -18
-22 -34 l-38 -17 54 6 c30 3 72 15 93 25 22 10 47 16 56 13 15 -4 15 -3 2 6
-12 9 -6 11 25 9 24 -2 39 -8 38 -14 -1 -7 10 -15 25 -19 25 -7 25 -8 7 -16
-16 -6 -14 -7 10 -5 17 1 36 6 43 10 6 4 27 8 47 10 19 2 41 8 48 14 7 7 31
15 53 20 30 7 38 13 36 28 -1 10 -3 27 -4 36 -2 15 -12 17 -60 15 -32 -1 -58
-5 -58 -8z m-280 -79 c0 -5 -9 -10 -19 -10 -11 0 -23 5 -26 10 -4 6 5 10 19
10 14 0 26 -4 26 -10z"/>
<path d="M1630 2029 c-36 -10 -96 -24 -134 -30 -52 -8 -74 -17 -87 -33 -11
-14 -39 -27 -76 -36 -32 -7 -102 -28 -156 -45 -91 -30 -96 -33 -66 -39 18 -3
37 -2 43 4 13 13 103 13 108 0 2 -7 24 -6 67 4 72 17 72 17 74 44 1 16 13 24
52 34 27 7 55 13 61 13 6 0 18 5 25 11 8 6 27 14 43 18 24 6 27 9 15 18 -11 7
-9 9 9 5 14 -3 20 -1 15 5 -4 8 7 9 35 6 22 -3 45 -1 50 4 6 6 12 6 16 -1 12
-19 28 -12 24 12 -4 29 -35 31 -118 6z"/>
<path d="M1995 1885 c-5 -2 -32 -7 -60 -10 -40 -6 -46 -9 -29 -15 19 -7 99 11
113 26 5 5 -9 4 -24 -1z"/>
<path d="M945 1835 c-22 -8 -52 -14 -67 -14 -16 -1 -28 -5 -28 -9 0 -12 -75
-33 -120 -34 -22 0 -47 -6 -57 -14 -17 -12 -16 -13 7 -13 14 0 52 7 85 15 105
27 105 27 105 13 0 -9 3 -10 8 -4 4 6 15 10 25 11 55 2 67 6 82 20 9 9 26 14
39 12 17 -3 23 -1 19 8 -2 7 4 14 14 17 10 3 -2 5 -27 5 -25 0 -63 -6 -85 -13z"/>
<path d="M1758 1813 c7 -3 16 -2 19 1 4 3 -2 6 -13 5 -11 0 -14 -3 -6 -6z"/>
<path d="M1710 1800 c-13 -8 -13 -10 2 -10 9 0 20 5 23 10 8 13 -5 13 -25 0z"/>
<path d="M1441 1746 c-10 -12 -8 -13 8 -9 12 3 21 9 21 14 0 14 -16 11 -29 -5z"/>
<path d="M1326 1711 c-14 -5 -16 -10 -8 -15 7 -4 22 0 34 8 24 17 9 21 -26 7z"/>
<path d="M650 1695 c-11 -13 -10 -14 5 -9 13 5 16 4 11 -4 -4 -7 -3 -12 2 -12
8 0 22 22 22 36 0 10 -29 2 -40 -11z"/>
<path d="M1250 1690 c-13 -9 -13 -10 0 -10 8 0 22 5 30 10 13 9 13 10 0 10 -8
0 -22 -5 -30 -10z"/>
</g>
</svg>
