<?xml version="1.0" standalone="no"?>
<!DOCTYPE svg PUBLIC "-//W3C//DTD SVG 20010904//EN"
 "http://www.w3.org/TR/2001/REC-SVG-20010904/DTD/svg10.dtd">
<svg version="1.0" xmlns="http://www.w3.org/2000/svg"
 width="1440.000000pt" height="750.000000pt" viewBox="0 0 1440.000000 750.000000"
 preserveAspectRatio="xMidYMid meet">

<g transform="translate(0.000000,750.000000) scale(0.100000,-0.100000)"
fill="#000000" stroke="none">
<path d="M0 3750 l0 -3750 2864 0 c1899 0 2867 3 2871 10 3 6 15 10 26 10 11
0 31 7 44 16 22 14 31 14 87 1 174 -41 179 -41 188 -26 7 11 12 11 22 1 12
-12 238 -19 238 -7 0 3 -6 14 -12 25 -11 17 -10 22 2 30 19 12 27 5 35 -30 9
-39 45 -43 45 -5 0 32 30 48 65 35 22 -9 26 -15 21 -35 l-6 -25 797 1 c652 1
787 4 738 13 -33 7 -96 24 -140 38 -44 14 -105 31 -135 37 -30 6 -91 18 -135
26 -44 9 -91 18 -105 21 -14 3 -29 9 -34 15 -6 5 -20 9 -32 9 -12 0 -66 12
-120 26 -201 52 -380 91 -519 114 -27 5 -88 20 -135 33 -106 31 -194 56 -240
67 -72 17 -156 41 -175 49 -11 5 -47 14 -80 21 -108 21 -239 63 -219 70 18 7
18 7 -1 18 -11 5 -34 8 -50 6 l-30 -5 25 15 c19 12 21 15 8 16 -17 0 -26 20
-10 20 10 0 -3 111 -18 154 -16 47 -13 217 5 230 11 9 15 51 19 211 3 110 8
207 11 217 4 9 17 19 31 22 25 7 33 31 12 39 -7 2 -10 8 -5 12 4 5 13 0 20 -9
13 -18 15 -18 47 -1 30 15 32 18 15 27 -10 6 -31 11 -47 12 -26 1 -33 8 -49
51 -17 43 -18 61 -10 128 7 64 14 82 36 105 35 35 45 62 45 122 0 27 5 72 12
101 12 50 11 52 -16 75 -15 13 -37 24 -48 24 -12 0 -47 7 -79 16 -45 13 -67
14 -105 6 -27 -6 -53 -7 -59 -2 -5 5 -39 18 -74 31 -36 12 -81 31 -100 42 -43
25 -139 114 -152 142 -5 11 -13 27 -18 35 -13 21 -36 78 -50 122 -9 27 -11
131 -6 395 4 197 7 383 6 413 -6 721 -6 1476 0 1548 6 58 16 107 29 131 24 48
91 106 139 122 20 7 53 31 74 55 21 24 62 54 92 69 30 14 59 34 65 45 6 11 10
105 10 230 0 299 21 465 80 640 74 221 201 387 398 523 57 40 139 97 182 127
226 160 271 186 380 223 246 84 525 73 817 -32 145 -52 215 -88 338 -172 106
-72 144 -106 265 -235 126 -134 206 -241 272 -364 82 -153 126 -244 141 -295
9 -27 25 -75 36 -105 51 -141 81 -432 81 -807 0 -144 3 -268 6 -277 3 -9 36
-25 73 -36 175 -53 299 -183 331 -349 6 -35 10 -467 10 -1216 0 -968 -2 -1170
-14 -1208 -8 -26 -12 -47 -10 -47 6 0 -29 -42 -66 -79 -19 -19 -53 -42 -75
-52 -23 -10 -56 -36 -73 -58 -19 -24 -55 -51 -87 -67 -30 -14 -67 -40 -82 -59
-43 -50 -135 -85 -228 -85 l-75 0 0 -27 c0 -39 9 -48 55 -51 21 -1 43 -6 48
-11 11 -11 -5 -93 -19 -98 -6 -2 -24 8 -40 22 l-29 25 -3 -62 c-3 -51 0 -65
17 -81 21 -21 72 -27 104 -13 13 6 16 5 11 -8 -3 -9 -13 -16 -21 -16 -13 0
-13 -3 -3 -15 14 -16 0 -64 -27 -97 -12 -13 -12 -23 -2 -57 17 -56 5 -67 -77
-69 -37 -1 -74 -8 -82 -15 -12 -9 -16 -9 -19 1 -3 6 -11 12 -19 12 -9 0 -28
12 -43 27 -24 24 -37 28 -87 30 -32 1 -80 5 -107 8 -53 8 -86 -7 -66 -31 13
-15 102 -46 121 -42 16 4 98 -32 98 -43 0 -4 18 -5 40 -2 97 13 310 -145 310
-231 0 -12 7 -46 15 -76 8 -31 17 -124 20 -209 6 -161 11 -201 26 -201 5 0 9
-9 9 -19 0 -24 -54 -72 -126 -112 -30 -17 -54 -33 -54 -35 0 -2 121 -4 270 -4
l269 0 7 36 c4 20 10 31 13 26 4 -7 12 -8 21 -2 21 14 60 12 60 -2 0 -6 -10
-22 -22 -35 l-21 -23 29 0 c17 0 35 5 42 12 9 9 12 9 12 0 0 -9 49 -11 196
-10 178 3 198 5 208 21 9 15 7 21 -8 33 -11 8 -30 14 -42 14 -35 0 -37 15 -9
56 25 36 26 59 3 36 -16 -16 -38 -15 -38 2 0 7 8 24 18 37 11 13 22 40 25 59
5 23 20 47 47 70 41 36 56 79 31 88 -8 2 -11 0 -8 -5 4 -6 -5 -16 -18 -23 -14
-7 -25 -17 -25 -21 0 -11 -56 -40 -63 -33 -3 4 2 22 11 41 14 30 14 35 2 44
-12 8 -5 18 35 55 61 55 144 110 159 106 45 -15 76 -11 102 13 31 29 44 32 44
10 0 -15 -14 -31 -64 -73 -15 -12 -24 -27 -21 -31 8 -14 -14 -63 -25 -56 -5 3
-10 17 -10 31 0 29 -20 31 -44 5 -36 -40 1 -71 86 -72 15 0 30 -4 33 -9 8 -13
-14 -52 -24 -45 -12 7 -21 -20 -21 -66 0 -34 -5 -42 -30 -57 -17 -9 -33 -28
-36 -42 -3 -14 -9 -34 -14 -46 -5 -13 -2 -33 7 -55 8 -19 12 -46 9 -61 -5 -23
-2 -28 14 -28 15 0 20 7 20 28 0 20 3 23 9 13 5 -8 7 -20 4 -28 -4 -11 383
-13 2336 -13 l2341 0 0 3750 0 3750 -7200 0 -7200 0 0 -3750z m11056 -218 c-3
-21 -8 -53 -12 -74 -3 -21 1 -66 10 -107 18 -78 21 -216 6 -256 -11 -28 -68
-85 -85 -85 -15 0 -46 36 -73 83 -19 32 -22 54 -22 143 0 86 -3 104 -15 104
-12 0 -14 9 -9 43 7 52 23 97 35 97 5 0 20 17 33 38 30 48 74 78 89 63 13 -13
28 -15 26 -3 -3 20 3 25 12 9 6 -10 8 -35 5 -55z m-796 6 c13 -14 20 -35 20
-62 0 -23 4 -57 10 -76 12 -44 21 -232 12 -247 -4 -6 -23 -17 -42 -25 -30 -12
-42 -12 -83 0 -67 19 -72 37 -80 277 -2 44 -6 86 -11 93 -10 16 33 53 57 48 9
-2 17 0 17 5 0 5 18 9 40 9 27 0 45 -6 60 -22z m-4464 -1643 c10 -8 28 -15 40
-15 22 0 44 -18 44 -36 0 -6 -27 -28 -60 -49 -52 -33 -60 -42 -60 -69 -1 -63
-45 -91 -120 -75 -28 6 -54 8 -58 5 -22 -23 12 -117 37 -101 5 3 12 1 16 -5 3
-5 -8 -18 -24 -28 -30 -18 -33 -36 -5 -25 8 3 14 0 14 -6 0 -6 7 -8 15 -5 8 4
15 1 15 -5 0 -6 -3 -11 -7 -11 -5 0 -9 -90 -11 -200 -2 -166 0 -205 13 -230
12 -23 13 -39 7 -63 -7 -24 -6 -38 3 -50 17 -24 25 -21 25 10 0 14 3 24 6 20
4 -3 3 -45 -1 -92 -5 -63 -10 -85 -21 -85 -10 0 -14 -12 -14 -40 0 -29 -4 -40
-15 -40 -12 0 -15 16 -15 80 0 62 -3 80 -14 80 -11 0 -15 -22 -18 -92 -2 -51
-1 -97 4 -103 4 -5 8 -18 8 -28 0 -18 -5 -19 -52 -14 -29 3 -73 13 -98 22 -25
9 -63 21 -85 26 -72 18 -68 -4 -61 369 6 331 20 530 36 540 5 3 11 17 15 32 9
37 32 26 46 -23 10 -31 9 -42 -2 -55 -11 -14 -14 -79 -15 -338 0 -356 3 -416
21 -416 12 0 41 142 32 158 -7 10 11 367 23 476 6 49 15 97 20 106 6 11 6 45
1 90 -7 55 -6 79 5 105 18 45 77 85 113 78 56 -11 56 -11 53 35 -2 32 1 42 13
42 8 0 15 4 15 9 0 11 46 29 76 30 11 1 29 -6 40 -14z m-1756 -119 c0 -14 -29
-31 -38 -22 -2 3 -2 12 1 21 8 19 37 20 37 1z m6410 -46 c0 -10 -39 -34 -46
-27 -3 2 -2 12 2 21 7 17 44 23 44 6z m767 -46 c5 -15 -45 -47 -63 -40 -11 4
-10 11 8 31 22 26 48 30 55 9z m-158 -135 c16 -36 5 -84 -19 -84 -20 0 -36 81
-19 101 17 20 22 18 38 -17z m-67 -21 c-9 -9 -15 -9 -24 0 -10 10 -10 15 2 22
20 12 38 -6 22 -22z m-7302 -3 c0 -7 -54 -55 -62 -55 -17 0 -7 30 14 44 21 15
48 21 48 11z m7166 -141 c-3 -9 -6 -18 -6 -20 0 -2 -7 -4 -15 -4 -18 0 -19 12
-3 28 17 17 31 15 24 -4z m-5051 -29 c13 -13 13 -37 0 -41 -5 -2 -20 4 -32 14
-16 12 -21 23 -17 40 7 23 14 21 49 -13z m-126 -22 l-1 -48 -9 35 c-4 19 -6
41 -4 48 9 25 15 10 14 -35z m3011 37 c0 -5 -5 -10 -11 -10 -5 0 -7 5 -4 10 3
6 8 10 11 10 2 0 4 -4 4 -10z m-5220 -10 c0 -5 -9 -14 -20 -20 -34 -18 -23
-37 25 -44 25 -4 45 -12 45 -18 0 -6 -12 -8 -32 -4 -92 19 -103 19 -135 -8
-33 -28 -48 -32 -58 -16 -3 5 5 15 19 22 38 17 32 34 -19 48 -25 7 -45 17 -45
21 0 12 3 12 67 -7 54 -16 55 -16 91 9 39 27 62 33 62 17z m7295 -20 c76 -21
90 -27 93 -42 2 -9 -6 -19 -17 -23 -12 -3 -35 -18 -52 -32 -30 -25 -30 -25
-36 -5 -3 11 -11 23 -18 26 -14 5 -78 -50 -87 -76 -6 -14 0 -16 40 -15 38 2
47 -1 50 -16 2 -11 -5 -29 -16 -40 -11 -12 -22 -34 -26 -49 -5 -23 -3 -28 18
-34 26 -6 36 -29 36 -81 0 -41 -7 -44 -58 -31 -40 10 -45 9 -97 -26 -88 -58
-103 -43 -30 32 25 25 45 50 45 55 0 18 -21 47 -35 47 -22 0 -27 18 -15 56 9
28 9 50 0 96 -13 70 -14 69 85 137 36 24 66 39 75 35 8 -4 29 -10 45 -14z
m-4895 -126 c0 -16 -7 -39 -15 -50 -14 -18 -14 -18 -16 9 -2 35 -2 79 0 120
l2 32 14 -40 c8 -22 15 -54 15 -71z m2860 91 c7 -8 21 -15 32 -15 24 0 78 -27
78 -39 0 -5 -6 -12 -12 -15 -7 -3 3 -5 22 -5 57 1 60 0 70 -26 5 -14 16 -25
25 -25 8 0 15 -4 15 -10 0 -13 -6 -13 -41 6 -17 8 -33 13 -36 10 -3 -3 -25 6
-48 19 -38 23 -96 32 -217 35 -15 0 -8 20 7 20 8 0 15 5 15 10 0 10 58 50 71
50 4 0 12 -7 19 -15z m-5960 -25 c-35 -24 -54 -31 -30 -11 14 11 30 21 35 21
6 0 3 -5 -5 -10z m1093 -82 c9 -5 17 -11 17 -13 0 -10 -86 8 -105 22 -18 13
-16 14 25 8 25 -4 53 -11 63 -17z m5137 -43 c0 -7 14 -18 30 -24 17 -5 30 -15
30 -22 0 -6 13 -39 29 -73 33 -68 45 -165 40 -321 -1 -49 -3 -110 -3 -135 -1
-39 -4 -45 -21 -42 -11 2 -21 5 -21 5 -1 1 -7 85 -14 187 -6 102 -12 195 -13
207 -1 12 -5 25 -9 29 -5 4 -8 15 -8 24 0 10 -13 47 -30 83 -30 66 -39 114
-20 102 6 -3 10 -12 10 -20z m-6491 -72 c-35 -26 -66 -50 -69 -54 -3 -3 -12
-8 -20 -12 -8 -4 -26 -14 -40 -24 -47 -32 -10 0 77 68 49 37 94 68 102 68 8 1
-14 -20 -50 -46z m6231 3 c-11 -12 -43 21 -35 35 5 7 13 4 25 -8 10 -10 14
-22 10 -27z m-85 24 c3 -5 1 -10 -4 -10 -6 0 -11 5 -11 10 0 6 2 10 4 10 3 0
8 -4 11 -10z m-4304 -34 l34 -15 -50 5 c-27 4 -57 13 -65 21 -13 14 -12 15 16
10 18 -3 47 -13 65 -21z m5959 -25 c0 -11 -48 -51 -61 -51 -17 0 -9 22 14 41
24 20 47 25 47 10z m100 -61 c0 -55 -1 -59 -34 -78 -19 -11 -37 -18 -40 -15
-3 4 -6 26 -6 51 0 37 5 50 33 77 17 18 35 30 40 28 4 -2 7 -30 7 -63z m-1469
-63 c10 -50 14 -143 13 -299 0 -188 2 -228 14 -233 10 -4 4 -15 -24 -40 -22
-19 -42 -35 -47 -35 -4 0 -23 -18 -43 -39 -63 -71 -166 -105 -145 -49 4 13 6
32 3 43 -2 11 -11 119 -18 240 -8 121 -17 248 -20 283 -3 34 -4 62 -1 62 21 0
93 -51 99 -71 4 -13 11 -84 16 -158 7 -107 13 -136 26 -143 12 -7 16 -24 16
-73 0 -36 4 -65 10 -65 5 0 7 20 3 48 -4 35 -1 58 11 80 15 30 15 34 0 64 -14
28 -15 39 -4 80 7 27 9 61 4 80 -4 18 -8 62 -9 98 -1 36 -5 95 -10 132 l-8 67
50 -1 50 0 14 -71z m1269 38 c-7 -8 -16 -15 -21 -15 -13 0 -11 24 3 38 18 18
35 -3 18 -23z m-1653 -21 c-3 -3 -12 -4 -19 -1 -8 3 -5 6 6 6 11 1 17 -2 13
-5z m1568 -45 c-8 -25 11 -25 49 0 29 19 46 19 46 1 0 -15 -61 -80 -74 -80 -7
0 -25 -13 -41 -30 -16 -16 -39 -30 -51 -30 -13 0 -24 -8 -27 -20 -5 -21 -37
-29 -37 -9 0 19 20 49 33 49 7 0 18 14 24 30 15 40 0 38 -26 -3 -12 -19 -29
-33 -42 -34 -12 -1 -30 -11 -41 -22 -24 -27 -38 -27 -38 -1 0 13 10 24 25 30
14 5 25 14 25 18 0 5 19 22 43 38 23 15 47 33 52 39 25 26 68 54 77 49 5 -3 6
-14 3 -25z m-7017 -58 c5 -14 -73 -14 -99 -1 -18 10 -26 50 -12 63 7 8 106
-47 111 -62z m102 59 c0 -5 -2 -10 -4 -10 -3 0 -8 5 -11 10 -3 6 -1 10 4 10 6
0 11 -4 11 -10z m5435 1 c10 -17 -9 -20 -30 -5 -18 14 -18 14 2 14 12 0 24 -4
28 -9z m-5375 -21 c0 -13 -11 -13 -30 0 -12 8 -11 10 8 10 12 0 22 -4 22 -10z
m7027 -12 c-3 -8 -6 -5 -6 6 -1 11 2 17 5 13 3 -3 4 -12 1 -19z m103 -58 c0
-46 -3 -60 -15 -60 -12 0 -13 10 -9 48 11 92 24 99 24 12z m-1630 46 c0 -3 -4
-8 -10 -11 -5 -3 -10 -1 -10 4 0 6 5 11 10 11 6 0 10 -2 10 -4z m1500 -5 c0
-12 -20 -25 -27 -18 -7 7 6 27 18 27 5 0 9 -4 9 -9z m-7007 -28 c21 -6 18 -40
-4 -35 -8 2 -30 6 -49 9 -35 6 -53 20 -44 35 5 8 53 3 97 -9z m7043 -24 c6
-11 -42 -69 -58 -69 -13 0 -9 34 8 58 16 24 39 29 50 11z m-6942 -15 c8 -20 8
-78 0 -98 -5 -13 -9 -14 -20 -5 -19 16 -19 119 0 119 8 0 17 -7 20 -16z m78
-81 c-2 -24 -8 -40 -13 -37 -11 6 -12 87 -2 98 12 12 20 -18 15 -61z m343 57
c-3 -5 -10 -10 -16 -10 -5 0 -9 5 -9 10 0 6 7 10 16 10 8 0 12 -4 9 -10z
m6105 -30 c0 -5 -5 -10 -11 -10 -5 0 -7 5 -4 10 3 6 8 10 11 10 2 0 4 -4 4
-10z m88 -12 c-2 -15 -9 -22 -21 -21 -10 0 -23 -9 -29 -22 -6 -12 -21 -28 -35
-34 -31 -14 -33 -14 -33 3 0 23 56 77 74 70 10 -4 18 0 22 10 9 24 26 19 22
-6z m-6368 2 c0 -5 -4 -10 -10 -10 -5 0 -10 5 -10 10 0 6 5 10 10 10 6 0 10
-4 10 -10z m6606 -27 c-3 -21 -6 -48 -6 -60 0 -13 -4 -23 -10 -23 -11 0 -14
103 -3 113 17 17 25 4 19 -30z m-6476 8 c21 -4 35 -12 35 -21 0 -19 -83 -15
-104 5 -17 17 -4 39 18 29 9 -4 32 -10 51 -13z m300 -1 c0 -5 -7 -10 -15 -10
-8 0 -15 5 -15 10 0 6 7 10 15 10 8 0 15 -4 15 -10z m5792 -5 c0 -5 -5 -11
-11 -13 -6 -2 -11 4 -11 13 0 9 5 15 11 13 6 -2 11 -8 11 -13z m-6712 -35 c0
-5 -4 -10 -10 -10 -5 0 -10 5 -10 10 0 6 5 10 10 10 6 0 10 -4 10 -10z m88
-28 c2 -14 -2 -22 -12 -22 -19 0 -29 17 -22 36 8 22 30 12 34 -14z m879 13
c123 -28 198 -48 211 -58 21 -17 13 -52 -18 -75 -34 -26 -60 -28 -60 -6 0 20
-57 43 -145 59 -38 7 -78 16 -87 20 -26 10 -55 -2 -40 -17 18 -18 14 -38 -7
-38 -17 0 -19 7 -18 55 2 51 4 55 23 51 11 -3 29 1 40 9 24 18 19 18 101 0z
m6031 -47 c-2 -38 -8 -63 -15 -66 -10 -3 -13 13 -13 56 0 32 3 62 7 65 17 18
24 2 21 -55z m-372 14 c-18 -18 -31 -10 -23 12 4 10 13 13 22 9 15 -5 15 -7 1
-21z m-6469 -14 c-3 -7 -5 -2 -5 12 0 14 2 19 5 13 2 -7 2 -19 0 -25z m312
-39 c29 -10 44 -39 20 -39 -29 0 -89 25 -89 37 0 16 26 17 69 2z m450 -32 c10
-29 18 -35 57 -44 40 -9 48 -8 64 9 20 22 37 17 49 -14 4 -12 26 -28 52 -37
35 -13 45 -22 47 -43 4 -36 -25 -51 -84 -42 -24 3 -47 10 -50 15 -3 5 -23 9
-44 9 -21 0 -42 5 -45 10 -3 6 -18 10 -32 10 -15 0 -46 10 -71 21 l-43 21 33
28 c30 26 32 30 20 51 -12 18 -12 23 0 30 24 16 36 9 47 -24z m321 8 c0 -8 -4
-15 -9 -15 -5 0 -14 7 -21 15 -10 13 -9 15 9 15 12 0 21 -6 21 -15z m5470 -25
c0 -11 -4 -20 -10 -20 -5 0 -10 9 -10 20 0 11 5 20 10 20 6 0 10 -9 10 -20z
m90 -10 c0 -10 -10 -28 -22 -39 -35 -34 -52 -6 -22 37 19 27 44 29 44 2z
m-5296 -60 c8 -53 24 -51 28 3 2 35 7 43 26 45 25 4 24 8 26 -82 2 -77 -11
-92 -47 -58 -17 16 -26 18 -41 10 -38 -21 -55 52 -30 131 8 24 31 -6 38 -49z
m186 56 c0 -3 -4 -8 -10 -11 -5 -3 -10 -1 -10 4 0 6 5 11 10 11 6 0 10 -2 10
-4z m54 -2 c13 -5 14 -9 5 -20 -13 -16 -29 -9 -29 12 0 16 2 16 24 8z m-996
-22 c2 -7 -5 -12 -17 -12 -14 0 -19 5 -14 15 6 17 25 15 31 -3z m5920 1 c-5
-25 -28 -28 -28 -4 0 12 6 21 16 21 9 0 14 -7 12 -17z m236 2 c-4 -8 -10 -15
-15 -15 -5 0 -9 7 -9 15 0 8 7 15 15 15 9 0 12 -6 9 -15z m-5664 -31 c0 -9 -5
-14 -12 -12 -18 6 -21 28 -4 28 9 0 16 -7 16 -16z m452 -57 c3 -38 1 -61 -8
-68 -18 -14 -26 3 -26 56 0 52 11 90 22 79 4 -5 10 -35 12 -67z m5168 59 c0
-16 -18 -31 -27 -22 -8 8 5 36 17 36 5 0 10 -6 10 -14z m-154 -43 c-11 -11
-19 6 -11 24 8 17 8 17 12 0 3 -10 2 -21 -1 -24z m-816 7 c0 -5 -5 -10 -11
-10 -5 0 -7 5 -4 10 3 6 8 10 11 10 2 0 4 -4 4 -10z m-4066 -70 c-2 -65 -24
-64 -24 0 0 37 4 50 13 47 7 -2 12 -21 11 -47z m96 25 c0 -8 -7 -15 -15 -15
-8 0 -15 7 -15 15 0 8 7 15 15 15 8 0 15 -7 15 -15z m-574 -26 c8 -14 -14 -29
-33 -22 -7 3 -13 11 -13 19 0 17 36 19 46 3z m414 -15 c0 -9 -5 -14 -12 -12
-18 6 -21 28 -4 28 9 0 16 -7 16 -16z m-282 -10 c12 -8 22 -22 22 -31 0 -12
-7 -14 -36 -8 -48 8 -82 25 -88 41 -8 20 73 18 102 -2z m682 -14 c0 -5 -2 -10
-4 -10 -3 0 -8 5 -11 10 -3 6 -1 10 4 10 6 0 11 -4 11 -10z m80 -16 c0 -8 -4
-12 -10 -9 -5 3 -10 10 -10 16 0 5 5 9 10 9 6 0 10 -7 10 -16z m-320 -9 c0 -8
-4 -15 -9 -15 -13 0 -22 16 -14 24 11 11 23 6 23 -9z m-338 -10 c0 -5 -5 -11
-11 -13 -6 -2 -11 4 -11 13 0 9 5 15 11 13 6 -2 11 -8 11 -13z m106 -17 c-6
-18 -28 -21 -28 -4 0 9 7 16 16 16 9 0 14 -5 12 -12z m721 -2 c8 -10 8 -16 -2
-25 -16 -13 -27 -5 -27 21 0 21 13 23 29 4z m79 -19 c3 -14 -1 -18 -20 -15
-12 2 -24 11 -26 21 -3 14 1 18 20 15 12 -2 24 -11 26 -21z m-725 -2 c4 -8 2
-17 -4 -21 -12 -7 -41 15 -33 27 8 14 31 11 37 -6z m557 -27 c0 -21 -3 -29
-10 -22 -5 5 -7 19 -4 32 9 31 14 27 14 -10z m-80 -4 c0 -8 -4 -12 -10 -9 -5
3 -10 10 -10 16 0 5 5 9 10 9 6 0 10 -7 10 -16z m411 6 c13 -8 25 -7 39 0 22
12 59 5 212 -37 100 -27 116 -40 95 -78 -32 -58 -71 -72 -87 -31 -9 25 -58 46
-107 46 -12 0 -32 4 -45 9 -13 4 -40 11 -61 15 -36 7 -37 6 -32 -17 8 -32 -13
-40 -54 -19 l-32 15 31 14 c29 11 31 15 19 31 -7 9 -20 23 -28 30 -14 11 -14
14 -1 22 19 12 27 12 51 0z m-723 -17 c-5 -25 -28 -28 -28 -4 0 12 6 21 16 21
9 0 14 -7 12 -17z m3647 -3 c-3 -5 -11 -10 -16 -10 -6 0 -7 5 -4 10 3 6 11 10
16 10 6 0 7 -4 4 -10z m-3558 -16 c8 -21 -13 -42 -28 -27 -13 13 -5 43 11 43
6 0 13 -7 17 -16z m4253 -4 c0 -13 -7 -20 -20 -20 -18 0 -19 3 -10 20 6 11 15
20 20 20 6 0 10 -9 10 -20z m-4146 -19 c13 -14 14 -20 4 -23 -16 -7 -58 8 -58
20 0 27 31 29 54 3z m4013 -28 c-3 -10 -5 -2 -5 17 0 19 2 27 5 18 2 -10 2
-26 0 -35z m-4737 22 c0 -8 -4 -15 -10 -15 -5 0 -10 7 -10 15 0 8 5 15 10 15
6 0 10 -7 10 -15z m904 -31 c9 -3 16 -15 16 -26 0 -15 -4 -18 -17 -13 -10 4
-28 10 -40 12 -23 5 -29 14 -16 26 8 9 36 9 57 1z m3921 -33 c3 -5 -6 -22 -19
-38 -20 -22 -27 -25 -37 -16 -10 10 -8 18 11 38 25 27 35 30 45 16z m-3745
-21 c14 -27 0 -31 -50 -16 -59 17 -61 33 -5 34 34 0 48 -4 55 -18z"/>
<path d="M6970 7053 c-67 -10 -171 -38 -219 -59 -77 -35 -57 -47 54 -33 52 7
143 9 215 5 112 -5 176 -16 395 -66 29 -7 59 -22 72 -36 24 -26 43 -30 60 -13
12 12 61 0 117 -28 25 -13 27 -17 13 -25 -20 -11 -22 -48 -4 -67 10 -12 8 -13
-8 -6 -11 4 -31 10 -45 13 -14 2 -36 15 -50 28 -37 34 -142 74 -196 74 -35 0
-50 5 -64 22 -14 18 -28 23 -67 22 -26 0 -58 -4 -70 -8 -18 -7 -23 -5 -23 8 0
9 -8 16 -20 16 -13 0 -20 -7 -20 -19 0 -13 -11 -21 -40 -29 -51 -13 -60 0 -20
29 17 13 29 28 27 34 -7 20 -254 20 -343 0 -98 -22 -200 -73 -182 -90 2 -2 21
0 43 5 68 14 166 18 195 7 22 -8 33 -7 51 5 13 8 37 23 53 33 l29 19 -5 -32
c-5 -35 6 -40 97 -42 74 -1 146 -23 164 -50 l16 -23 -60 8 c-33 5 -81 8 -107
8 -27 0 -48 4 -48 8 0 5 -16 9 -35 9 -21 0 -38 6 -41 14 -3 9 -28 17 -62 21
-46 5 -69 2 -114 -15 -46 -17 -60 -19 -76 -9 -15 10 -36 7 -108 -11 -125 -33
-147 -44 -188 -93 -20 -24 -36 -47 -36 -50 0 -15 -88 -107 -102 -107 -12 0
-10 7 13 51 11 22 19 45 17 51 -6 17 -83 -84 -143 -187 -31 -55 -61 -105 -66
-111 -5 -6 -23 -36 -40 -65 l-30 -54 6 40 c4 22 25 81 47 132 22 51 38 98 36
105 -10 29 -154 -198 -191 -301 -66 -181 -86 -319 -89 -622 -1 -176 0 -194 16
-197 9 -2 23 2 31 8 8 6 19 9 25 5 20 -13 9 -35 -31 -60 -32 -21 -38 -29 -29
-40 6 -8 24 -15 38 -17 21 -2 27 -8 27 -28 0 -23 -3 -25 -37 -22 l-38 4 -1
-44 c-1 -24 -4 -56 -8 -73 -6 -29 -7 -30 -61 -27 -30 2 -59 8 -65 13 -5 5 -26
9 -47 9 -40 0 -58 -19 -58 -62 0 -24 -16 -48 -32 -48 -4 0 -8 20 -8 45 0 37
-3 45 -19 45 -23 0 -64 -38 -84 -76 -38 -75 -40 -116 -35 -773 3 -350 2 -701
-3 -779 -5 -91 -4 -180 2 -240 6 -54 12 -205 14 -337 3 -132 7 -266 10 -298
10 -115 93 -237 200 -294 23 -12 85 -33 139 -47 54 -15 128 -40 164 -57 65
-32 107 -39 121 -23 16 17 20 72 7 83 -7 6 -104 33 -217 61 -241 60 -277 78
-313 153 l-26 53 0 1155 c0 763 4 1167 10 1191 12 43 64 88 101 88 13 0 80
-14 149 -30 144 -34 166 -36 174 -14 3 9 6 186 6 395 0 407 8 517 46 668 61
241 186 414 398 547 44 29 103 66 129 83 90 59 235 75 362 40 44 -12 98 -26
120 -32 22 -5 63 -19 91 -31 46 -19 49 -22 30 -31 -14 -7 -22 -22 -24 -43 -5
-45 -27 -35 -27 11 -1 24 -8 45 -22 58 -18 19 -33 21 -146 22 -105 2 -128 -1
-144 -15 -13 -12 -23 -14 -33 -7 -19 12 -108 1 -137 -17 -12 -8 -33 -14 -46
-14 -12 0 -54 -16 -92 -36 -192 -100 -317 -244 -398 -459 -56 -148 -66 -260
-69 -742 -1 -240 -3 -447 -6 -459 -2 -12 -11 -24 -21 -27 -9 -2 -68 9 -131 24
-126 31 -161 35 -158 17 2 -6 -5 -14 -14 -16 -13 -2 -18 3 -18 17 0 26 -11 26
-41 2 l-24 -19 -1 -1104 c0 -606 2 -1136 6 -1176 5 -54 12 -76 26 -87 26 -19
31 -19 37 7 5 18 8 19 22 8 10 -9 14 -22 11 -36 -5 -20 -1 -24 31 -33 60 -17
93 -14 93 8 0 25 19 31 66 21 39 -9 79 -44 68 -61 -3 -5 0 -9 5 -9 6 0 14 0
19 0 4 0 8 5 8 10 1 6 2 14 3 18 0 4 15 13 31 19 17 6 30 19 30 28 0 9 -5 13
-11 10 -17 -11 -57 4 -64 25 -7 21 11 100 23 100 16 0 32 -25 32 -48 0 -42 17
-62 49 -56 23 5 30 2 35 -14 4 -10 4 -26 1 -35 -7 -16 -4 -18 85 -37 30 -7 61
-17 68 -23 7 -5 37 -10 68 -11 l56 -1 4 60 c6 69 17 87 40 63 10 -10 16 -38
18 -82 2 -37 7 -71 12 -76 5 -5 31 -12 57 -15 47 -7 49 -7 45 15 -5 33 29 51
48 26 8 -11 11 -28 8 -38 -4 -14 3 -22 31 -34 63 -26 76 -18 81 50 4 65 14 82
38 73 13 -5 16 -22 16 -81 0 -82 -1 -80 73 -91 42 -6 45 -5 41 12 -3 11 2 25
10 33 14 11 20 10 36 -5 15 -14 17 -22 9 -37 -15 -27 -3 -36 57 -43 l51 -7 7
71 c5 48 11 71 20 71 25 0 36 -28 37 -94 1 -74 4 -77 82 -91 35 -7 36 -6 34
21 -1 20 3 29 16 32 24 5 45 -24 39 -54 -3 -16 0 -24 10 -24 10 0 14 17 16 67
3 115 50 105 56 -12 4 -91 26 -101 26 -13 0 75 11 98 37 82 14 -9 19 -27 21
-86 l3 -76 44 -11 c67 -17 76 -15 69 14 -4 18 -1 27 10 31 26 10 48 -15 41
-46 -6 -25 -3 -28 27 -33 42 -6 184 -41 268 -67 36 -11 87 -23 113 -26 l47 -7
0 65 c0 79 18 105 46 64 12 -20 15 -41 12 -87 -3 -38 0 -62 6 -65 6 -2 50 -12
98 -22 l87 -19 3 26 c4 37 45 42 54 7 3 -14 4 -33 0 -41 -3 -10 1 -15 13 -15
36 0 151 -42 151 -56 0 -7 -10 -22 -22 -34 -16 -15 -18 -20 -6 -20 28 0 46 34
51 99 6 78 2 90 -25 83 -27 -7 -53 25 -37 45 7 7 21 10 35 7 19 -5 24 -2 24
14 0 15 -8 22 -27 24 -18 2 -29 10 -31 22 -6 27 14 42 33 26 11 -9 19 -10 27
-2 16 16 2 42 -22 42 -24 0 -38 26 -22 42 8 8 15 8 26 -1 8 -7 17 -8 20 -3 3
5 5 74 5 155 l0 147 -27 12 c-34 17 -36 43 -2 43 l25 0 5 275 c3 151 1 283 -3
293 -4 9 -17 17 -28 17 -14 0 -19 5 -17 18 2 11 11 16 26 14 34 -5 31 45 -3
58 -32 12 -32 30 -1 30 32 0 33 7 32 175 l-1 139 -25 6 c-30 7 -33 33 -5 39
11 2 23 8 27 15 12 17 9 265 -2 287 -6 10 -17 19 -25 19 -24 0 -17 28 8 32 18
2 23 10 25 47 5 64 -4 90 -33 97 -32 8 -32 28 -1 42 18 8 23 16 19 32 -9 32
-53 62 -84 56 -18 -3 -32 0 -40 10 -9 11 -22 14 -44 10 -22 -5 -36 -2 -45 9
-15 18 -41 20 -57 4 -8 -8 -15 -5 -24 9 -8 10 -38 31 -67 45 l-53 27 -11 -26
c-21 -45 -43 -26 -43 36 0 48 2 55 20 55 40 1 43 10 44 163 1 122 -1 151 -14
162 -8 7 -22 9 -31 6 -37 -14 -119 26 -97 48 11 11 58 6 87 -9 41 -21 58 -13
54 27 -3 30 -6 33 -32 30 -36 -4 -46 10 -46 66 l0 44 38 -4 c35 -3 37 -1 37
26 0 25 -5 31 -31 38 -27 7 -32 14 -36 42 -6 49 5 70 37 76 33 6 49 44 41 100
-5 31 -4 33 7 15 9 -14 13 -135 17 -429 l5 -409 25 -18 c14 -11 79 -31 145
-45 122 -27 157 -44 232 -112 l32 -29 1 -1177 c0 -822 -3 -1189 -10 -1218 -18
-66 -48 -88 -120 -88 -33 0 -89 8 -123 19 -34 10 -91 26 -127 34 -81 19 -212
52 -310 77 -41 11 -127 32 -190 46 -63 15 -164 39 -225 55 -133 35 -164 37
-118 9 28 -17 32 -23 27 -50 -6 -27 -3 -31 29 -45 64 -27 82 -20 78 27 -3 29
30 38 69 19 30 -14 35 -21 32 -47 -4 -38 11 -51 67 -60 l44 -7 -5 31 c-3 21 0
33 10 37 24 9 52 5 77 -11 19 -12 23 -21 18 -48 -5 -32 -3 -33 42 -49 61 -19
77 -14 73 27 -3 30 -2 31 36 29 50 -3 61 -15 61 -60 0 -35 2 -38 45 -50 58
-17 74 -11 67 26 -7 36 8 44 56 30 35 -9 71 -39 48 -39 -6 0 -11 -11 -11 -25
0 -27 24 -42 88 -52 33 -6 34 -5 30 28 -3 32 -1 34 29 37 18 2 41 -2 53 -8 17
-9 20 -17 14 -45 -6 -31 -3 -36 22 -46 48 -18 128 -6 168 25 20 15 36 31 36
36 0 4 -18 11 -40 15 -22 4 -40 10 -40 15 0 15 48 39 86 42 37 3 40 5 55 53
16 49 25 207 13 226 -4 6 -11 5 -20 -2 -11 -9 -18 -9 -26 -1 -14 14 15 62 37
62 12 0 15 20 15 110 0 103 -1 110 -20 110 -28 0 -25 19 5 30 19 7 25 17 25
40 0 31 -9 37 -27 19 -8 -8 -13 -7 -18 2 -5 7 1 18 14 28 20 16 21 25 25 244
3 205 1 227 -13 225 -46 -7 -54 36 -13 68 l27 22 -24 23 -24 22 22 18 c27 22
28 49 1 49 -25 0 -26 14 -1 37 25 24 38 125 18 142 -12 9 -16 8 -21 -5 -5 -13
-10 -14 -18 -6 -15 15 -2 45 17 38 21 -8 37 36 33 93 -3 41 -5 46 -28 46 -32
0 -36 24 -9 53 20 22 20 24 4 36 -16 11 -16 17 -4 49 10 27 10 39 1 50 -10 11
-8 20 8 40 28 35 28 112 0 127 -25 13 -25 32 -1 54 34 31 45 144 28 276 -8 67
-11 119 -6 125 16 16 30 -10 34 -64 3 -32 13 -64 26 -83 18 -24 20 -34 10 -54
-6 -13 -16 -24 -23 -24 -7 0 -2 -7 10 -16 29 -20 28 -42 -3 -54 -32 -12 -32
-30 0 -30 32 0 43 -25 21 -49 -17 -19 -21 -41 -7 -41 17 0 21 -33 7 -55 -12
-18 -13 -25 -3 -33 20 -17 12 -117 -12 -156 -19 -30 -21 -49 -21 -199 0 -161
1 -166 23 -182 l22 -15 -22 -40 c-30 -51 -31 -116 -3 -125 25 -8 25 -15 -1
-59 -23 -39 -24 -123 -1 -118 23 4 25 -28 3 -52 -26 -28 -26 -32 -1 -39 11 -3
20 -12 20 -20 0 -7 -9 -22 -20 -32 -24 -21 -26 -45 -5 -45 8 0 15 -7 15 -15 0
-9 -7 -18 -15 -21 -19 -8 -19 -43 0 -50 20 -8 19 -24 -2 -39 -19 -14 -19 -19
-15 -404 2 -148 4 -172 17 -168 24 10 26 -9 5 -36 -11 -14 -20 -30 -20 -35 0
-24 96 -25 111 -1 4 8 6 24 3 35 -3 12 -1 25 5 28 16 10 13 36 -4 36 -18 0
-19 14 -4 42 13 23 4 37 -13 20 -19 -19 -28 -14 -28 13 0 16 11 32 30 47 17
12 30 28 30 35 0 15 -16 17 -25 3 -8 -14 -35 -13 -35 1 0 6 16 29 35 50 30 34
35 46 35 89 0 53 -5 58 -36 35 -10 -8 -25 -15 -31 -15 -24 0 -13 23 27 60 l40
37 0 141 c0 117 -3 142 -14 142 -8 0 -18 -5 -21 -10 -3 -6 -13 -10 -21 -10
-25 0 -15 28 21 57 l35 28 0 130 c0 148 -5 165 -42 141 -50 -33 -44 11 8 61
34 32 34 33 34 119 0 68 -4 92 -17 106 -14 16 -15 21 -3 44 11 20 12 29 1 45
-10 17 -9 25 3 44 17 26 12 55 -9 55 -7 0 -15 -7 -19 -15 -12 -33 -26 -12 -26
40 0 48 7 62 25 53 8 -5 43 67 45 93 6 66 3 72 -35 65 -28 -6 -35 -4 -35 8 0
9 16 30 35 47 31 29 35 38 35 82 l0 50 -30 -6 c-43 -9 -45 7 -6 48 31 33 34
39 23 62 -8 19 -8 29 2 45 9 15 9 23 1 33 -8 9 -9 29 -5 56 7 40 7 41 -21 37
-28 -3 -29 -2 -25 37 3 43 7 50 24 50 6 0 15 14 20 32 8 25 6 37 -7 55 -9 13
-30 41 -46 63 -16 22 -29 47 -30 57 0 29 -58 68 -101 68 -33 0 -40 4 -45 25
-3 14 -7 25 -8 26 -19 8 -100 8 -116 -1 -29 -16 -34 -8 -40 63 -5 60 -6 62
-32 62 -35 -1 -36 18 -3 47 28 24 31 40 11 57 -18 15 -26 71 -14 96 6 11 19
29 29 41 16 17 18 28 11 60 -7 32 -13 40 -37 44 -40 7 -40 21 0 60 28 27 35
42 35 71 0 39 -20 65 -45 56 -30 -12 -25 15 9 53 20 22 36 45 36 50 0 18 18
11 25 -10 3 -11 6 -84 5 -162 0 -79 -1 -170 -1 -203 0 -33 1 -120 3 -192 2
-112 5 -133 18 -133 9 0 21 5 28 12 8 8 15 8 24 1 7 -6 27 -15 43 -21 29 -10
29 -10 5 -11 l-25 -1 25 -20 c31 -24 56 -25 68 -4 13 23 32 8 32 -25 0 -22 11
-37 47 -65 50 -39 62 -43 81 -24 18 18 34 -9 28 -47 -7 -50 4 -86 31 -96 20
-7 22 -12 14 -28 -7 -13 -7 -29 0 -49 6 -18 7 -37 2 -46 -5 -9 -6 -42 -3 -73
4 -45 4 -275 -1 -463 0 -8 0 -114 -1 -235 0 -121 0 -245 -1 -275 0 -30 0 -107
0 -170 1 -63 0 -182 0 -265 -1 -82 -1 -181 0 -220 2 -38 2 -117 1 -175 0 -58
0 -187 2 -288 2 -161 4 -183 18 -180 29 6 80 85 91 140 6 32 12 417 15 953 4
495 9 959 12 1030 3 72 1 199 -5 283 -10 142 -14 159 -44 220 -54 112 -146
184 -267 212 -30 7 -65 19 -77 26 l-23 14 0 363 c0 390 -7 482 -54 672 -34
135 -77 250 -140 370 -51 98 -156 266 -183 293 -7 8 -25 30 -40 50 -39 53
-216 232 -229 232 -7 0 -14 4 -16 9 -3 8 -55 47 -128 95 -19 12 -87 50 -150
83 -246 129 -410 174 -622 172 -67 -1 -134 -3 -148 -6z m840 -301 c47 -26 80
-51 80 -61 0 -3 -15 -6 -32 -6 -27 0 -34 -4 -36 -22 -4 -28 -11 -28 -51 -5
-38 21 -39 32 -6 32 44 0 43 29 -1 67 -42 36 -26 34 46 -5z m-905 -12 c3 -6
-1 -13 -10 -16 -19 -8 -30 0 -20 15 8 14 22 14 30 1z m406 -22 c5 -8 4 -14 -4
-16 -13 -3 -87 25 -87 33 0 10 84 -5 91 -17z m184 -66 c1 -29 82 -99 162 -139
67 -34 153 -92 153 -104 0 -22 46 -49 82 -49 21 0 49 -7 62 -15 22 -15 26 -14
55 11 22 18 30 32 26 43 -19 46 -2 101 31 101 8 0 14 5 14 10 0 14 54 -14 85
-45 27 -28 33 -72 11 -81 -17 -7 -36 -52 -33 -79 2 -18 -4 -20 -53 -20 -81 0
-90 -9 -94 -88 -3 -60 -1 -67 16 -67 10 0 18 -6 18 -14 0 -8 7 -16 15 -20 8
-3 15 -12 15 -21 0 -15 32 -32 74 -41 28 -5 36 -23 29 -70 -5 -36 -1 -47 25
-81 40 -51 72 -147 101 -300 5 -28 15 -61 21 -72 10 -21 15 -47 41 -233 7 -49
16 -88 21 -88 13 0 9 -30 -7 -46 -16 -17 -10 -44 11 -44 19 0 18 -19 -3 -42
-14 -16 -15 -23 -5 -39 10 -15 9 -26 -2 -54 -11 -26 -12 -35 -3 -35 7 0 19 -4
26 -9 12 -8 11 -13 -10 -29 l-24 -20 23 -24 c27 -29 27 -36 2 -68 -27 -34 -27
-96 0 -110 11 -6 20 -15 20 -19 0 -13 -52 -91 -61 -91 -15 0 -28 26 -19 40 5
7 4 24 -1 38 -7 18 -6 29 6 42 12 14 13 25 4 66 -6 27 -12 90 -14 139 -2 50
-7 124 -10 165 -4 41 -2 85 2 98 9 24 -8 152 -26 202 -17 47 -33 147 -27 167
8 25 -15 82 -43 107 -14 13 -21 31 -21 56 0 21 -7 51 -15 66 -8 16 -15 39 -15
51 0 12 -4 25 -10 28 -5 3 -10 20 -10 36 0 17 -13 49 -28 72 -15 23 -34 55
-42 70 -7 15 -28 37 -46 48 -25 15 -35 30 -41 62 l-9 42 -54 5 c-30 3 -61 9
-68 14 -24 15 -31 49 -15 74 13 21 12 26 -7 57 -21 34 -35 41 -90 47 -20 2
-26 10 -31 41 -6 36 -15 47 -66 83 -20 14 -25 14 -55 0 -30 -16 -34 -15 -58 2
-14 10 -44 29 -67 42 -24 13 -43 27 -43 32 0 5 -11 13 -25 18 -22 8 -24 15
-22 52 3 40 5 43 36 44 17 1 35 5 39 8 15 15 47 1 47 -22z m504 -37 c52 -42
64 -65 32 -65 -10 0 -30 -9 -44 -20 -22 -18 -29 -19 -47 -8 -25 16 -25 25 0
33 11 3 23 18 26 32 6 21 1 31 -25 52 -18 15 -29 30 -25 33 3 4 12 2 19 -5 8
-7 36 -30 64 -52z m-314 35 c3 -5 -1 -10 -9 -10 -8 0 -18 5 -21 10 -3 6 1 10
9 10 8 0 18 -4 21 -10z m181 -134 c10 -8 15 -18 11 -22 -4 -4 -17 2 -29 14
-25 25 -13 30 18 8z m-1315 -62 c7 -55 -2 -74 -26 -54 -15 13 -22 90 -8 104
15 15 28 -3 34 -50z m337 -46 c7 -7 12 -36 12 -65 0 -47 2 -53 21 -53 33 0
219 -59 270 -86 60 -31 71 -30 89 9 18 38 50 46 86 22 36 -23 29 -56 -13 -67
-18 -5 -33 -12 -33 -16 0 -13 64 -69 87 -76 15 -5 24 -2 31 10 6 10 16 15 26
11 22 -9 20 -27 -3 -27 -11 0 -23 -5 -27 -12 -4 -7 -3 -8 4 -4 7 4 12 1 12 -8
0 -8 21 -37 48 -65 93 -98 122 -133 128 -157 3 -13 10 -24 14 -24 5 0 21 -25
36 -55 16 -30 41 -69 56 -85 16 -18 25 -37 21 -46 -3 -8 1 -32 10 -52 8 -20
25 -86 37 -147 22 -103 23 -141 27 -566 4 -328 2 -463 -6 -478 -8 -13 -21 -21
-39 -21 -16 0 -32 -8 -40 -20 -14 -24 -40 -16 -44 13 -2 16 -15 25 -48 34 -41
12 -47 11 -73 -7 -21 -16 -35 -19 -65 -14 -51 9 -72 22 -72 43 0 27 -27 34
-33 9 -8 -27 -40 -19 -47 12 -6 28 -49 46 -180 75 -125 28 -128 28 -127 13 3
-22 -18 -21 -21 2 -2 12 -13 22 -30 26 -15 3 -38 10 -52 14 -24 9 -140 37
-420 101 -69 16 -136 31 -150 35 -20 4 -23 3 -12 -7 6 -7 12 -19 12 -27 0 -22
-24 -8 -30 18 -5 19 -18 28 -67 42 -48 14 -62 23 -67 42 -5 19 -14 25 -55 30
-53 7 -82 29 -63 48 8 8 23 8 56 -1 25 -6 47 -11 50 -11 3 0 6 51 6 114 0 106
-1 114 -21 119 -18 5 -20 12 -17 59 2 44 6 53 21 50 16 -3 17 13 17 206 0 115
3 230 6 256 l7 46 -46 0 c-25 0 -58 5 -72 12 -25 11 -34 41 -16 53 12 7 112
-30 121 -45 4 -6 14 27 24 72 33 154 88 257 192 363 25 25 120 89 157 106 28
13 34 24 17 34 -5 3 -10 15 -10 26 0 29 34 20 38 -10 3 -20 7 -22 35 -17 18 4
59 11 92 15 83 12 95 18 95 51 0 38 11 90 19 90 4 0 12 -5 19 -12z m-518 -54
c0 -16 -16 -19 -25 -4 -8 13 4 32 16 25 5 -4 9 -13 9 -21z m850 -9 c25 -25 -1
-40 -52 -29 -35 7 -44 14 -46 33 -4 23 -2 24 40 17 23 -4 50 -13 58 -21z
m-766 -16 c-10 -16 -24 -9 -24 12 0 18 2 19 15 9 8 -7 12 -16 9 -21z m933 -21
c20 -16 16 -27 -12 -38 -36 -14 -84 14 -85 49 0 10 10 12 42 7 23 -4 48 -12
55 -18z m123 12 c0 -5 -4 -10 -10 -10 -5 0 -10 5 -10 10 0 6 5 10 10 10 6 0
10 -4 10 -10z m-1142 -54 c3 -12 -1 -17 -10 -14 -7 3 -15 13 -16 22 -3 12 1
17 10 14 7 -3 15 -13 16 -22z m1885 -16 c14 -16 31 -43 38 -60 8 -16 17 -30
21 -30 5 0 8 -13 8 -30 0 -42 -24 -39 -54 9 -13 21 -41 48 -60 59 -43 26 -51
68 -13 75 12 2 25 5 29 6 3 0 17 -12 31 -29z m-1797 9 c10 -17 -13 -36 -27
-22 -12 12 -4 33 11 33 5 0 12 -5 16 -11z m-240 -42 c3 -13 4 -41 2 -63 -2
-31 -7 -39 -23 -39 -17 0 -20 8 -23 49 -2 27 -1 55 2 62 9 22 35 16 42 -9z
m129 -11 c41 -18 47 -46 10 -46 -31 0 -95 26 -95 38 0 26 34 29 85 8z m1320 3
c11 -17 -1 -21 -15 -4 -8 9 -8 15 -2 15 6 0 14 -5 17 -11z m66 -55 c12 -14 11
-16 -5 -13 -11 2 -21 10 -24 17 -5 17 13 15 29 -4z m96 -101 c40 -43 73 -81
73 -86 0 -4 15 -29 33 -55 33 -46 84 -148 112 -221 13 -34 31 -112 40 -176 2
-16 7 -46 10 -65 l6 -35 -17 33 c-9 17 -24 32 -34 32 -9 0 -20 3 -24 7 -4 4
-16 8 -28 8 -32 0 -46 30 -25 52 15 18 15 21 1 42 -15 21 -15 25 5 52 27 36
26 51 -4 98 -26 42 -33 46 -107 56 -75 10 -91 49 -23 57 48 5 45 42 -11 132
-26 42 -53 76 -60 76 -8 0 -14 -4 -14 -8 0 -13 -47 -32 -80 -32 -31 0 -64 25
-54 42 4 6 25 8 50 5 42 -4 63 10 48 34 -7 12 4 29 19 29 6 0 44 -35 84 -77z
m-1627 2 c9 -11 10 -19 2 -27 -14 -14 -32 -1 -32 23 0 23 13 25 30 4z m98 -21
c26 -18 20 -34 -13 -34 -23 0 -40 24 -29 41 7 13 16 11 42 -7z m2110 -49 c17
-36 15 -49 -8 -70 -23 -21 -21 -23 -43 34 -13 35 -14 47 -4 53 23 15 44 8 55
-17z m-2205 -41 c-3 -8 -9 -14 -13 -14 -14 0 -22 20 -16 37 5 12 9 13 21 3 7
-6 11 -18 8 -26z m-157 -53 c-9 -14 -33 -14 -41 -1 -4 6 -1 18 6 26 11 13 14
13 27 0 8 -8 11 -19 8 -25z m124 3 c28 -11 40 -22 40 -36 0 -18 -4 -20 -47
-13 -53 7 -85 29 -76 51 7 18 33 18 83 -2z m2272 -74 l-22 -21 0 25 c0 26 19
39 34 25 6 -6 1 -17 -12 -29z m-2398 3 c4 -9 2 -21 -3 -26 -15 -15 -46 -3 -49
21 -3 18 1 22 21 22 14 0 28 -7 31 -17z m-7 -89 c9 -23 -13 -40 -32 -24 -8 7
-15 19 -15 26 0 19 39 18 47 -2z m1767 -73 c8 -12 -21 -34 -34 -26 -8 5 -8 11
1 21 13 16 25 18 33 5z m688 -35 c-2 -23 3 -42 12 -52 10 -9 13 -25 10 -42 -4
-19 0 -33 10 -41 20 -17 20 -30 0 -56 -12 -17 -16 -18 -24 -5 -7 11 -19 89
-24 152 -1 3 -4 10 -8 14 -5 4 -8 22 -8 40 0 25 4 32 18 29 13 -2 16 -10 14
-39z m-2454 11 c3 -14 -1 -18 -20 -15 -12 2 -24 11 -26 21 -3 14 1 18 20 15
12 -2 24 -11 26 -21z m92 -113 c0 -27 -21 -32 -40 -9 -10 12 -10 18 0 29 16
21 40 9 40 -20z m-2 -87 c2 -18 -1 -27 -11 -27 -21 0 -40 27 -33 46 10 25 41
12 44 -19z m-88 -57 c14 -26 2 -120 -15 -120 -22 0 -37 28 -39 72 -3 64 30 93
54 48z m155 -48 c0 -18 -20 -15 -23 4 -3 10 1 15 10 12 7 -3 13 -10 13 -16z
m1695 -57 c0 -8 -4 -15 -9 -15 -5 0 -11 7 -15 15 -3 9 0 15 9 15 8 0 15 -7 15
-15z m90 -21 c0 -8 -4 -12 -10 -9 -5 3 -10 10 -10 16 0 5 5 9 10 9 6 0 10 -7
10 -16z m-1785 -4 c11 -17 -5 -32 -21 -19 -8 6 -14 15 -14 20 0 12 27 11 35
-1z m-176 -31 c53 -18 32 -59 -23 -45 -24 6 -40 31 -30 47 7 12 14 11 53 -2z
m1961 -49 c0 -5 -4 -10 -10 -10 -5 0 -10 5 -10 10 0 6 5 10 10 10 6 0 10 -4
10 -10z m-79 -73 c-1 -12 -15 -9 -19 4 -3 6 1 10 8 8 6 -3 11 -8 11 -12z
m-1867 -67 c18 -18 -1 -37 -33 -32 -25 3 -31 9 -31 29 0 22 3 24 28 18 15 -3
31 -10 36 -15z m-289 -25 c32 -9 71 -13 87 -10 21 5 28 3 28 -9 0 -8 -4 -17
-9 -20 -11 -7 -201 37 -201 47 0 11 30 9 95 -8z m372 -1 c9 -23 -11 -38 -26
-20 -13 16 -7 36 10 36 5 0 12 -7 16 -16z m1793 1 c0 -8 -7 -15 -15 -15 -8 0
-15 7 -15 15 0 8 7 15 15 15 8 0 15 -7 15 -15z m-2276 -31 c30 -12 5 -24 -50
-24 -50 0 -64 7 -47 23 8 9 76 9 97 1z m484 -68 c3 -13 -1 -17 -14 -14 -11 2
-20 11 -22 22 -3 13 1 17 14 14 11 -2 20 -11 22 -22z m-243 4 c3 -5 -1 -10 -9
-10 -9 0 -16 5 -16 10 0 6 4 10 9 10 6 0 13 -4 16 -10z m160 -54 c28 -20 13
-48 -22 -40 -16 4 -34 12 -42 19 -31 30 26 49 64 21z m-160 -76 c0 -22 -29
-18 -33 3 -3 14 1 18 15 15 10 -2 18 -10 18 -18z m-265 -5 c10 -12 10 -19 2
-27 -16 -16 -42 -2 -42 22 0 24 22 26 40 5z m2296 -26 c10 -17 -13 -36 -27
-22 -12 12 -4 33 11 33 5 0 12 -5 16 -11z m-2088 -14 c40 -12 52 -20 52 -35 0
-23 -17 -25 -71 -10 -40 11 -64 33 -54 50 8 13 12 13 73 -5z m354 5 c39 -11
54 -32 34 -49 -8 -7 -24 -7 -52 1 -47 14 -64 26 -64 44 0 17 31 18 82 4z
m-558 -57 c9 -24 -9 -39 -29 -23 -8 7 -15 19 -15 26 0 20 37 17 44 -3z m426
-69 c0 -57 -15 -78 -37 -49 -16 23 -17 97 -1 113 21 21 38 -7 38 -64z m78 28
c4 -23 -4 -27 -27 -13 -17 11 -7 45 12 39 6 -3 13 -14 15 -26z m1788 17 c3 -6
2 -15 -2 -19 -12 -12 -38 5 -30 19 9 14 23 14 32 0z m-1443 -14 c8 -18 -11
-31 -25 -17 -11 11 -3 32 12 32 4 0 10 -7 13 -15z m-253 -71 c0 -88 -41 -85
-44 3 -2 56 10 79 30 62 9 -7 14 -32 14 -65z m335 48 c0 -18 -20 -15 -23 4 -3
10 1 15 10 12 7 -3 13 -10 13 -16z m-257 -26 c3 -13 -1 -17 -14 -14 -11 2 -20
11 -22 22 -3 13 1 17 14 14 11 -2 20 -11 22 -22z m-668 -1 c16 -20 1 -38 -23
-29 -17 6 -22 25 -10 37 10 11 19 8 33 -8z m1098 -16 c-2 -6 -8 -10 -13 -10
-5 0 -11 4 -13 10 -2 6 4 11 13 11 9 0 15 -5 13 -11z m-600 -27 c4 -23 -4 -27
-27 -13 -17 11 -7 45 12 39 6 -3 13 -14 15 -26z m2738 8 c52 -26 78 -54 70
-76 -6 -15 -8 -15 -19 -2 -16 20 -103 78 -116 78 -6 0 -11 5 -11 10 0 16 30
12 76 -10z m-3000 -12 c24 -11 32 -32 15 -43 -14 -8 -98 15 -112 31 -28 34 31
42 97 12z m687 -2 c7 -16 -1 -26 -20 -26 -7 0 -13 9 -13 20 0 23 25 27 33 6z
m-255 -34 c2 -14 -2 -22 -11 -22 -17 0 -30 27 -21 41 9 16 29 4 32 -19z m340
5 c2 -10 -3 -17 -12 -17 -18 0 -29 16 -21 31 9 14 29 6 33 -14z m342 -3 c0
-16 -16 -19 -25 -4 -8 13 4 32 16 25 5 -4 9 -13 9 -21z m1092 11 c0 -5 -5 -11
-11 -13 -6 -2 -11 4 -11 13 0 9 5 15 11 13 6 -2 11 -8 11 -13z m-2104 -23 c4
-23 -4 -27 -27 -13 -17 11 -7 45 12 39 6 -3 13 -14 15 -26z m-338 3 c10 -12
10 -19 2 -27 -15 -15 -48 14 -38 31 10 15 21 14 36 -4z m2780 -17 c27 -2 36
-8 38 -25 3 -21 -1 -23 -40 -23 -32 0 -51 6 -67 22 -23 20 -23 22 -6 34 11 9
23 10 29 5 6 -5 27 -11 46 -13z m-1260 -13 c0 -8 -4 -15 -10 -15 -5 0 -10 7
-10 15 0 8 5 15 10 15 6 0 10 -7 10 -15z m-600 -26 c0 -24 -23 -21 -28 4 -2
10 3 17 12 17 10 0 16 -9 16 -21z m-325 -8 c0 -23 -23 -24 -35 -1 -10 19 -9
21 12 18 13 -2 23 -9 23 -17z m749 3 c8 -22 8 -24 -8 -24 -18 0 -29 16 -21 30
9 15 22 12 29 -6z m-337 -9 c3 -9 3 -19 -1 -22 -7 -7 -36 16 -36 28 0 15 30
10 37 -6z m1441 -3 c2 -7 -3 -12 -12 -12 -9 0 -16 7 -16 16 0 17 22 14 28 -4z
m-2110 -21 c3 -19 0 -22 -13 -17 -9 3 -19 6 -21 6 -2 0 -4 9 -4 21 0 29 34 21
38 -10z m340 5 c3 -13 -1 -17 -14 -14 -11 2 -20 11 -22 22 -3 13 1 17 14 14
11 -2 20 -11 22 -22z m762 -47 c0 -42 14 -57 35 -39 8 6 29 11 47 9 71 -5 97
1 103 20 8 26 43 37 60 20 17 -19 29 -135 15 -144 -17 -11 -57 3 -79 26 -13
14 -26 19 -40 14 -28 -9 -27 -23 3 -31 31 -7 46 -43 46 -110 0 -62 -14 -75
-58 -54 -15 8 -31 12 -36 11 -5 -1 -21 1 -36 4 -22 5 -29 13 -34 40 -6 29 -10
33 -34 30 -21 -2 -26 -8 -25 -23 2 -18 -5 -22 -44 -28 -68 -10 -109 -57 -59
-70 44 -11 81 -1 84 24 6 38 52 20 52 -20 0 -10 8 -21 18 -24 9 -3 30 -12 45
-20 41 -20 57 -18 57 9 0 28 17 47 36 40 10 -3 14 -23 14 -60 0 -46 -3 -56
-19 -60 -17 -4 -13 -11 29 -55 104 -106 159 -277 131 -405 -15 -68 -60 -140
-107 -171 l-34 -22 -1 -88 c-1 -48 -1 -139 -1 -202 1 -146 -18 -234 -57 -269
-15 -14 -26 -32 -24 -38 3 -9 -4 -11 -24 -8 -93 14 -143 15 -143 1 0 -7 -7
-19 -16 -26 -12 -11 -18 -10 -31 3 -15 15 -15 18 0 35 16 18 16 20 -2 36 -10
9 -32 21 -47 25 -22 5 -30 15 -34 37 -14 73 -45 151 -65 160 -16 7 -21 20 -23
71 -2 52 0 63 18 76 17 12 18 16 6 26 -9 8 -13 33 -13 77 0 54 3 66 19 75 30
16 20 92 -19 150 -97 140 -118 201 -110 316 9 118 18 155 41 175 19 15 19 17
3 18 -9 0 -23 11 -29 25 -9 21 -9 29 4 41 13 14 14 20 2 43 -14 28 -13 98 1
121 12 19 35 -16 35 -52 0 -15 4 -28 8 -28 14 0 32 23 32 42 0 13 8 18 31 18
19 0 52 15 90 40 50 34 59 45 59 70 0 32 9 36 42 19 31 -17 52 8 38 45 -24 63
-2 150 27 109 7 -9 13 -34 13 -54z m-1442 38 c3 -14 -1 -18 -20 -15 -12 2 -24
11 -26 21 -3 14 1 18 20 15 12 -2 24 -11 26 -21z m2915 10 c18 -8 39 -22 47
-32 14 -17 13 -17 -10 -10 -32 10 -100 44 -100 50 0 9 31 5 63 -8z m-2833 -16
c16 -31 12 -107 -6 -122 -14 -11 -18 -10 -30 6 -14 19 -19 90 -8 119 8 22 31
20 44 -3z m1440 -9 c0 -26 -11 -34 -27 -21 -20 17 -16 39 7 39 13 0 20 -7 20
-18z m765 -7 c0 -28 -29 -25 -33 3 -3 19 0 23 15 20 10 -2 18 -12 18 -23z
m-1440 -5 c0 -22 -29 -18 -33 3 -3 14 1 18 15 15 10 -2 18 -10 18 -18z m1862
4 c-3 -3 -12 -4 -19 -1 -8 3 -5 6 6 6 11 1 17 -2 13 -5z m-2117 -19 c9 -11 10
-19 2 -27 -14 -14 -32 -1 -32 23 0 23 13 25 30 4z m-342 -19 c3 -13 -1 -17
-14 -14 -11 2 -20 11 -22 22 -3 13 1 17 14 14 11 -2 20 -11 22 -22z m1095 9
c8 -18 -11 -31 -25 -17 -11 11 -3 32 12 32 4 0 10 -7 13 -15z m1873 -32 c-4
-4 -14 1 -22 11 -22 31 -17 43 8 19 12 -13 18 -26 14 -30z m-3226 12 c13 -16
6 -35 -15 -35 -18 0 -28 17 -21 35 7 19 20 19 36 0z m411 -6 c26 -14 24 -39
-3 -39 -32 0 -96 19 -103 30 -19 31 54 37 106 9z m277 -3 c3 -13 -1 -17 -14
-14 -11 2 -20 11 -22 22 -3 13 1 17 14 14 11 -2 20 -11 22 -22z m1214 9 c14
-4 34 -15 44 -26 14 -15 14 -21 4 -34 -7 -8 -20 -15 -29 -15 -11 -1 -8 -7 12
-21 30 -23 36 -56 11 -66 -13 -5 -12 -10 10 -30 14 -13 26 -30 26 -38 0 -38
-119 -20 -147 22 -12 18 -12 23 1 36 13 13 14 17 1 27 -24 20 -28 50 -10 70
11 12 13 20 6 25 -15 9 -14 52 2 58 6 3 19 4 27 2 8 -2 27 -7 42 -10z m1258
-5 c0 -11 -7 -20 -15 -20 -8 0 -15 9 -15 20 0 11 7 20 15 20 8 0 15 -9 15 -20z
m-2055 0 c10 -16 12 -111 3 -116 -20 -12 -38 20 -38 66 0 25 3 50 7 53 9 10
21 9 28 -3z m1955 -7 c65 -7 70 -11 70 -58 0 -36 -3 -45 -18 -45 -17 0 -63 45
-83 81 -11 21 -12 49 -1 34 4 -5 18 -11 32 -12z m-145 -7 c19 -8 35 -19 35
-25 0 -5 -18 -2 -40 7 -22 9 -40 20 -40 25 0 10 6 9 45 -7z m-2063 -38 c-16
-16 -37 4 -28 28 6 16 8 16 23 1 13 -13 15 -19 5 -29z m401 23 c15 -6 27 -18
27 -27 0 -14 -7 -15 -41 -10 -53 8 -79 23 -79 43 0 12 7 14 33 10 17 -3 44
-10 60 -16z m-659 -27 c3 -9 6 -38 6 -65 0 -37 -4 -49 -15 -49 -9 0 -19 10
-24 22 -7 20 -8 34 -3 91 2 21 28 23 36 1z m-336 -18 c3 -13 -1 -17 -14 -14
-11 2 -20 11 -22 22 -3 13 1 17 14 14 11 -2 20 -11 22 -22z m1861 10 c7 -8 11
-37 9 -68 -3 -45 -6 -53 -24 -56 -19 -3 -22 3 -26 55 -7 72 12 104 41 69z
m-1724 -20 c40 -17 47 -46 12 -46 -34 0 -90 18 -98 32 -19 30 28 38 86 14z
m-380 -16 c0 -22 -39 -19 -43 3 -3 15 1 18 20 15 12 -2 23 -10 23 -18z m743 8
c18 -18 15 -28 -8 -28 -13 0 -20 7 -20 20 0 23 10 26 28 8z m150 -29 c13 -5
22 -17 22 -30 0 -17 -4 -20 -22 -15 -13 4 -35 9 -50 12 -32 7 -53 28 -43 44 7
11 46 6 93 -11z m1382 0 c0 -25 -33 -22 -38 4 -2 12 3 17 17 17 15 0 21 -6 21
-21z m-2106 -14 c3 -9 -1 -18 -10 -22 -19 -7 -39 11 -30 26 10 16 33 13 40 -4z
m2265 -9 c20 -21 7 -46 -21 -39 -69 15 -88 25 -88 45 0 19 4 20 47 14 26 -3
54 -13 62 -20z m-2184 -61 c0 -47 -3 -60 -15 -60 -11 0 -16 15 -18 63 -3 57
-1 63 15 60 15 -3 18 -13 18 -63z m1524 56 c20 -13 6 -61 -18 -61 -22 0 -34
25 -26 51 7 21 22 24 44 10z m-1779 -26 c13 -16 6 -35 -15 -35 -15 0 -28 27
-19 41 8 13 20 11 34 -6z m2603 -7 c9 -5 17 -16 17 -25 0 -13 -8 -15 -46 -10
-48 5 -81 27 -69 46 7 12 66 6 98 -11z m-1850 -2 c7 -16 -1 -26 -20 -26 -7 0
-13 9 -13 20 0 23 25 27 33 6z m-327 -7 c3 -6 1 -16 -4 -21 -13 -13 -45 8 -36
23 7 12 31 11 40 -2z m1854 -9 c9 -16 8 -22 -5 -26 -21 -8 -39 10 -32 30 9 22
24 20 37 -4z m-1383 -11 c52 -19 30 -46 -30 -35 -43 8 -72 29 -63 45 8 12 45
8 93 -10z m1530 -14 c35 -23 29 -45 -12 -45 -63 0 -106 36 -78 64 11 10 62 -1
90 -19z m325 10 c31 -8 45 -33 23 -41 -42 -17 -127 26 -94 47 8 4 21 7 29 4 8
-2 27 -7 42 -10z m-2578 -10 c7 -20 -23 -32 -35 -14 -13 21 -11 29 10 29 10 0
22 -7 25 -15z m1864 3 c7 -7 12 -21 12 -31 0 -17 2 -17 19 4 16 20 23 22 38
13 26 -16 32 -131 7 -141 -11 -4 -23 1 -35 15 -15 19 -21 21 -43 11 -38 -18
-56 2 -56 61 0 27 3 55 6 64 7 19 35 21 52 4z m-1444 -14 c13 -33 6 -104 -10
-111 -21 -8 -34 14 -34 59 0 45 8 68 25 68 7 0 16 -7 19 -16z m1194 -33 c2
-22 -1 -31 -12 -31 -31 0 -60 53 -40 73 15 15 49 -12 52 -42z m-1710 -9 c27
-36 0 -51 -61 -32 -47 13 -80 38 -71 52 10 15 117 -1 132 -20z m2128 -11 c-9
-14 -33 -14 -41 -1 -4 6 -1 18 6 26 11 13 14 13 27 0 8 -8 11 -19 8 -25z
m-1446 14 c10 -12 9 -16 -5 -21 -17 -7 -38 13 -29 28 8 12 20 10 34 -7z m-337
-10 c4 -8 2 -17 -4 -21 -12 -7 -41 15 -33 27 8 14 31 11 37 -6z m-262 -21 c10
-13 10 -17 -2 -24 -17 -11 -45 13 -35 29 10 15 21 14 37 -5z m730 6 c26 -14
51 -67 44 -91 -15 -45 -76 -44 -109 3 -42 59 3 120 65 88z m803 -12 c13 -19
14 -25 3 -36 -17 -16 -44 -6 -52 19 -13 41 24 54 49 17z m1049 11 c26 -7 37
-15 37 -29 0 -24 -26 -26 -75 -6 -34 15 -42 26 -28 39 9 9 22 9 66 -4z m-2493
-86 c0 -46 -3 -54 -17 -51 -14 2 -19 15 -21 52 -4 63 3 83 23 66 10 -8 15 -31
15 -67z m2208 43 c3 -13 -1 -17 -14 -14 -11 2 -20 11 -22 22 -3 13 1 17 14 14
11 -2 20 -11 22 -22z m-2060 -12 c46 -30 21 -49 -43 -33 -43 11 -73 38 -57 53
10 10 73 -3 100 -20z m1802 1 c13 -16 6 -35 -15 -35 -18 0 -28 17 -21 35 7 19
20 19 36 0z m340 -5 c0 -11 -7 -20 -15 -20 -8 0 -15 9 -15 20 0 11 7 20 15 20
8 0 15 -9 15 -20z m-1777 -4 c7 -16 -1 -26 -20 -26 -7 0 -13 9 -13 20 0 23 25
27 33 6z m1181 -18 c16 -26 -16 -57 -38 -38 -17 13 -21 42 -9 54 11 11 35 3
47 -16z m-1444 -13 c0 -8 -4 -16 -9 -19 -12 -8 -34 21 -27 33 9 14 36 2 36
-14z m-340 11 c0 -2 3 -11 6 -20 4 -11 0 -16 -14 -16 -23 0 -36 15 -27 30 6
10 35 14 35 6z m2550 -22 c0 -16 -16 -19 -25 -4 -8 13 4 32 16 25 5 -4 9 -13
9 -21z m-1036 10 c22 -8 20 -41 -3 -53 -13 -7 -24 -6 -37 4 -19 13 -19 14 1
34 24 24 20 22 39 15z m445 -21 c6 -12 22 -18 43 -18 27 0 34 -4 36 -22 3 -17
-2 -23 -17 -23 -11 0 -23 5 -26 10 -12 20 -26 9 -23 -17 2 -21 8 -27 21 -25
23 4 47 -15 47 -38 0 -24 -25 -33 -40 -14 -17 19 -40 18 -40 -3 0 -31 16 -46
39 -38 12 3 45 -1 75 -9 52 -15 73 -36 60 -58 -10 -15 -113 -2 -133 16 -26 24
-31 20 -30 -26 0 -24 -3 -63 -8 -88 -8 -42 -10 -45 -47 -51 -22 -4 -47 -16
-57 -28 -9 -11 -22 -21 -28 -21 -22 0 -10 -29 17 -42 31 -15 42 -55 17 -64 -9
-4 -24 1 -33 9 -11 10 -22 13 -31 7 -8 -4 -28 -6 -45 -3 -24 4 -43 -3 -81 -29
-45 -30 -50 -37 -47 -65 3 -28 0 -33 -24 -39 -16 -4 -34 -2 -43 5 -9 6 -26 15
-38 21 -13 5 -23 18 -23 29 0 16 8 20 37 23 35 3 38 6 44 38 3 19 11 45 18 58
13 24 31 21 31 -4 0 -22 24 -11 29 12 5 30 30 52 52 47 12 -4 29 3 43 16 15
15 26 19 31 12 3 -6 13 -11 21 -11 11 0 14 14 14 60 l0 60 38 0 c36 0 38 2 51
45 11 36 11 48 1 60 -10 12 -9 20 3 39 14 21 14 26 2 36 -15 13 -22 130 -8
143 12 13 42 7 52 -10z m341 -19 c0 -8 -9 -14 -20 -14 -19 0 -28 28 -13 43 9
9 33 -12 33 -29z m-1792 -2 c2 -12 -1 -22 -6 -22 -15 0 -34 28 -27 40 10 17
30 6 33 -18z m1875 -7 c4 -8 2 -17 -4 -21 -12 -7 -41 15 -33 27 8 14 31 11 37
-6z m-2459 -10 c17 -17 11 -45 -9 -45 -7 0 -18 7 -25 15 -10 12 -10 18 0 30
15 18 15 18 34 0z m1858 -9 c11 -26 5 -56 -11 -56 -17 0 -42 46 -35 64 9 24
33 20 46 -8z m-1444 -24 c2 -12 -1 -22 -6 -22 -15 0 -34 28 -27 40 10 17 30 6
33 -18z m385 17 c26 -7 37 -15 37 -29 0 -23 -10 -24 -65 -9 -40 11 -58 26 -49
41 7 11 31 10 77 -3z m-647 -24 c32 -21 30 -35 -5 -35 -55 0 -108 30 -94 53 8
13 70 1 99 -18z m2195 4 c11 -5 19 -19 19 -29 0 -23 -24 -26 -82 -10 -42 12
-53 24 -44 47 5 12 15 14 47 9 23 -4 50 -11 60 -17z m277 -3 c3 -12 -1 -17
-10 -14 -7 3 -15 13 -16 22 -3 12 1 17 10 14 7 -3 15 -13 16 -22z m-2038 -29
c0 -19 -10 -27 -26 -20 -21 8 -17 33 6 33 11 0 20 -6 20 -13z m1260 -26 c36
-26 47 -73 26 -106 -34 -52 -85 -45 -116 15 -49 96 5 151 90 91z m665 3 c63
-68 -1 -152 -69 -91 -36 32 -43 70 -17 96 28 28 57 26 86 -5z m-2506 -2 c11
-20 -3 -42 -25 -42 -15 0 -28 35 -19 50 10 16 33 12 44 -8z m341 -53 c0 -49
-13 -70 -33 -50 -12 12 -12 94 -1 112 13 22 34 -15 34 -62z m2268 24 c-4 -22
-22 -20 -26 1 -2 10 3 16 13 16 10 0 15 -7 13 -17z m-2108 -8 c9 -11 10 -19 2
-27 -14 -14 -32 -1 -32 23 0 23 13 25 30 4z m133 -26 c26 -7 37 -16 37 -29 0
-16 -5 -18 -37 -13 -41 6 -83 28 -83 43 0 13 35 13 83 -1z m-639 -25 c8 -21
-11 -45 -30 -37 -22 8 -18 53 5 53 10 0 22 -7 25 -16z m139 -31 c39 -20 29
-39 -19 -35 -53 5 -89 28 -74 48 13 15 46 11 93 -13z m622 7 c0 -22 -29 -18
-33 3 -3 14 1 18 15 15 10 -2 18 -10 18 -18z m1593 -16 c34 -22 22 -40 -24
-36 -46 4 -84 26 -84 49 0 13 7 14 43 9 23 -4 52 -14 65 -22z m262 6 c0 -13
-5 -18 -15 -14 -8 4 -15 12 -15 20 0 8 7 14 15 14 8 0 15 -9 15 -20z m-2113
-1 c6 -6 9 -17 6 -25 -7 -18 -33 -5 -33 17 0 21 11 24 27 8z m171 -59 c3 -17
0 -21 -11 -17 -9 3 -31 9 -51 12 -19 4 -41 14 -48 22 -19 24 8 32 61 19 36
-10 47 -17 49 -36z m265 35 c4 -8 2 -17 -4 -21 -15 -9 -39 3 -39 21 0 19 36
20 43 0z m-693 -15 c0 -23 -25 -27 -33 -6 -7 16 1 26 20 26 7 0 13 -9 13 -20z
m-250 -11 c15 -27 -5 -56 -26 -38 -22 18 -16 59 7 59 5 0 13 -9 19 -21z m1774
15 c9 -3 16 -15 16 -26 0 -29 -44 -20 -48 10 -3 23 4 27 32 16z m756 -12 c33
-27 18 -46 -29 -37 -43 8 -84 32 -76 45 11 17 81 11 105 -8z m-1764 -41 c-10
-16 -23 -14 -30 5 -9 25 4 38 21 21 9 -8 12 -20 9 -26z m-627 6 c39 -19 34
-43 -8 -39 -55 6 -81 19 -81 43 0 19 4 21 31 15 17 -3 43 -12 58 -19z m281 3
c0 -22 -7 -25 -29 -11 -16 10 -6 31 15 31 8 0 14 -9 14 -20z m85 -64 c0 -39
-4 -61 -13 -64 -17 -5 -28 30 -24 83 3 36 8 45 21 43 13 -3 16 -15 16 -62z
m2205 39 c0 -8 -7 -15 -15 -15 -16 0 -20 12 -8 23 11 12 23 8 23 -8z m-2058
-11 c16 -5 33 -33 24 -42 -10 -9 -96 10 -111 24 -32 32 10 41 87 18z m286 -1
c-2 -10 -10 -18 -18 -18 -8 0 -16 8 -18 18 -2 12 3 17 18 17 15 0 20 -5 18
-17z m-685 -7 c7 -16 -1 -26 -20 -26 -7 0 -13 9 -13 20 0 23 25 27 33 6z
m1863 3 c10 -17 5 -122 -6 -133 -6 -6 -15 -4 -25 4 -11 9 -15 31 -15 76 0 57
2 64 19 64 11 0 23 -5 27 -11z m-2196 -19 c0 -11 -4 -20 -9 -20 -13 0 -32 26
-24 33 13 14 33 6 33 -13z m1868 -4 c2 -10 -1 -23 -8 -30 -9 -8 -16 -5 -31 13
-10 12 -16 27 -13 33 10 16 49 4 52 -16z m411 -4 c7 -13 7 -22 -1 -30 -14 -14
-38 -4 -38 17 0 34 24 41 39 13z m-2051 -28 c60 -24 35 -51 -30 -33 -53 15
-62 23 -54 44 6 17 19 16 84 -11z m269 11 c3 -9 3 -19 -1 -22 -7 -7 -36 16
-36 28 0 15 30 10 37 -6z m1905 0 c14 -4 34 -15 43 -24 13 -15 13 -20 2 -29
-18 -15 -115 12 -124 35 -7 17 15 35 37 28 8 -2 27 -7 42 -10z m-1483 -9 c10
-12 11 -82 2 -113 -1 -2 -7 -3 -15 -3 -14 0 -28 60 -21 95 2 11 4 23 4 28 1
12 18 8 30 -7z m115 -18 c54 -15 69 -27 56 -43 -22 -26 -133 16 -116 44 9 14
10 14 60 -1z m1761 3 c7 -12 -12 -24 -25 -16 -11 7 -4 25 10 25 5 0 11 -4 15
-9z m-2795 -37 c0 -8 -7 -14 -15 -14 -15 0 -21 21 -9 33 10 9 24 -2 24 -19z
m2538 9 c5 -17 -26 -29 -40 -15 -6 6 -7 15 -3 22 9 14 37 9 43 -7z m-2115 -18
c7 -16 -8 -29 -23 -20 -15 9 -12 35 4 35 8 0 16 -7 19 -15z m1857 -1 c11 -12
11 -18 -2 -30 -14 -14 -17 -14 -31 1 -18 17 -13 45 8 45 7 0 18 -7 25 -16z
m338 -52 c3 -57 1 -63 -15 -60 -15 3 -19 15 -21 66 -3 57 -1 63 15 60 15 -3
19 -15 21 -66z m-2058 35 c19 -7 35 -19 35 -27 0 -21 -66 -18 -100 4 -48 32
-5 47 65 23z m508 -38 c26 -10 30 -39 5 -39 -28 0 -92 20 -98 30 -18 30 26 34
93 9z m1052 2 c14 -27 13 -106 -3 -119 -8 -7 -17 -7 -30 2 -12 10 -17 27 -17
68 0 30 3 58 7 61 12 13 32 7 43 -12z m665 -42 c0 -41 -4 -54 -15 -54 -16 0
-27 73 -16 102 13 33 31 5 31 -48z m-2043 30 c10 -5 18 -17 18 -25 0 -13 -8
-14 -42 -9 -66 11 -91 29 -71 49 9 8 69 -1 95 -15z m1463 -10 c4 -12 2 -26 -4
-32 -15 -15 -46 16 -38 37 9 23 34 20 42 -5z m329 6 c7 -20 -23 -33 -34 -14
-5 7 -6 17 -4 21 9 13 32 9 38 -7z m336 0 c0 -8 -7 -15 -15 -15 -8 0 -15 7
-15 15 0 8 7 15 15 15 8 0 15 -7 15 -15z m-2792 -7 c18 -18 15 -113 -4 -129
-23 -19 -44 13 -44 67 0 69 18 92 48 62z m342 -13 c0 -8 -7 -15 -15 -15 -8 0
-15 7 -15 15 0 8 7 15 15 15 8 0 15 -7 15 -15z m424 -11 c4 -9 4 -19 2 -22
-10 -9 -36 8 -36 23 0 20 26 19 34 -1z m2406 -33 c0 -28 -4 -52 -9 -55 -13 -9
-17 8 -13 59 5 61 22 57 22 -4z m-1215 19 c17 -19 17 -22 3 -36 -22 -22 -58
-2 -58 31 0 31 29 34 55 5z m425 -36 c0 -8 -9 -14 -20 -14 -19 0 -28 28 -13
43 9 9 33 -12 33 -29z m-2219 13 c-1 -12 -15 -9 -19 4 -3 6 1 10 8 8 6 -3 11
-8 11 -12z m763 7 c9 -3 16 -13 16 -21 0 -20 -34 -12 -38 10 -4 19 -1 20 22
11z m-611 -23 c37 -14 36 -41 -2 -41 -48 0 -91 20 -91 42 0 18 5 20 33 15 17
-3 44 -10 60 -16z m707 -42 c7 -58 1 -81 -19 -77 -12 2 -17 17 -19 52 -2 27
-1 55 2 63 11 28 31 6 36 -38z m1108 27 c2 -10 -1 -23 -7 -29 -15 -15 -46 16
-37 38 8 21 40 15 44 -9z m374 14 c38 -11 57 -37 34 -46 -18 -7 -99 15 -108
29 -17 27 13 34 74 17z m288 -6 c0 -17 -22 -14 -28 4 -2 7 3 12 12 12 9 0 16
-7 16 -16z m-925 -10 c10 -10 24 -14 40 -10 19 5 28 1 41 -19 21 -32 3 -59
-33 -50 -13 3 -23 1 -23 -5 0 -5 9 -10 20 -10 11 0 27 -11 36 -25 14 -21 14
-28 3 -41 -11 -14 -10 -18 6 -30 10 -8 26 -14 35 -14 8 0 26 -7 38 -16 18 -12
20 -19 12 -35 -10 -17 -18 -19 -76 -13 -56 6 -64 5 -58 -9 5 -14 -60 -99 -94
-120 -7 -4 -19 -24 -27 -43 -11 -26 -20 -34 -40 -34 -20 0 -29 -8 -41 -36 -11
-27 -19 -34 -34 -29 -12 4 -34 -6 -65 -30 -51 -38 -88 -44 -117 -18 -24 21
-23 24 11 63 20 24 34 32 49 28 13 -4 26 1 35 11 25 28 50 143 56 251 6 102 7
105 30 108 38 6 51 -22 51 -110 0 -71 2 -78 20 -78 11 0 20 5 20 10 0 6 11 15
25 20 21 8 25 16 25 50 0 23 5 51 11 62 8 14 8 23 0 31 -12 12 -15 114 -5 141
8 20 28 20 49 0z m-1377 -31 c18 -11 21 -17 12 -28 -22 -26 -132 18 -114 47 7
11 73 0 102 -19z m277 7 c0 -22 -29 -18 -33 3 -3 14 1 18 15 15 10 -2 18 -10
18 -18z m1924 -13 c36 -18 25 -32 -21 -30 -44 2 -75 23 -63 43 8 12 43 7 84
-13z m-2521 -19 c-5 -15 -23 -11 -26 6 -2 11 2 14 13 10 9 -4 14 -11 13 -16z
m2204 -20 c-16 -16 -37 4 -28 28 6 16 8 16 23 1 13 -13 15 -19 5 -29z m-1434
8 c3 -13 -1 -17 -14 -14 -11 2 -20 11 -22 22 -3 13 1 17 14 14 11 -2 20 -11
22 -22z m-649 4 c50 -14 70 -50 29 -50 -49 0 -98 20 -98 40 0 23 18 25 69 10z
m-371 -17 c-4 -22 -22 -20 -26 1 -2 10 3 16 13 16 10 0 15 -7 13 -17z m92 -12
c16 -30 12 -97 -6 -116 -15 -14 -19 -15 -31 -2 -16 15 -22 105 -9 125 11 18
34 14 46 -7z m664 3 c3 -9 6 -36 6 -60 0 -37 -3 -44 -20 -44 -18 0 -20 7 -20
60 0 45 4 60 14 60 8 0 17 -7 20 -16z m1529 -17 c3 -12 4 -33 2 -47 -1 -14 -3
-33 -4 -42 0 -10 -9 -18 -20 -18 -19 0 -31 34 -31 89 0 50 43 64 53 18z m977
19 c0 -2 -7 -9 -15 -16 -12 -10 -15 -10 -15 4 0 9 7 16 15 16 8 0 15 -2 15 -4z
m-2422 -23 c-4 -22 -22 -20 -26 1 -2 10 3 16 13 16 10 0 15 -7 13 -17z m1520
-5 c19 -19 16 -107 -4 -115 -22 -8 -34 14 -34 68 0 58 12 73 38 47z m-1432
-22 c10 -39 1 -91 -17 -94 -13 -2 -17 9 -22 49 -4 29 -4 56 -1 60 10 17 34 9
40 -15z m-666 -56 c0 -52 -7 -65 -27 -49 -13 12 -19 100 -6 112 15 16 33 -18
33 -63z m2190 -2 c0 -51 -2 -59 -17 -56 -14 2 -19 15 -21 52 -4 59 2 78 23 70
11 -5 15 -21 15 -66z m-1445 42 c0 -22 -29 -18 -33 3 -3 14 1 18 15 15 10 -2
18 -10 18 -18z m-667 -13 c2 -10 -3 -17 -12 -17 -18 0 -29 16 -21 31 9 14 29
6 33 -14z m-340 -4 c-4 -22 -22 -20 -26 1 -2 10 3 16 13 16 10 0 15 -7 13 -17z
m3255 -18 c-3 -8 -9 -15 -14 -15 -10 0 -12 24 -3 33 11 11 24 -3 17 -18z
m-638 5 c11 -17 -5 -32 -21 -19 -8 6 -14 15 -14 20 0 12 27 11 35 -1z m-1775
-15 c0 -8 -6 -15 -14 -15 -17 0 -28 14 -19 24 12 12 33 6 33 -9z m-250 -39
c-13 -13 -35 7 -25 24 5 8 11 8 21 -1 10 -8 12 -15 4 -23z m2195 -41 c0 -47
-3 -60 -15 -60 -11 0 -16 15 -18 63 -3 57 -1 63 15 60 15 -3 18 -13 18 -63z
m-1780 45 c11 -17 -5 -32 -21 -19 -8 6 -14 15 -14 20 0 12 27 11 35 -1z m-670
-10 c11 -17 -5 -32 -21 -19 -7 6 -11 15 -8 20 7 12 21 11 29 -1z m-345 -16 c0
-9 -7 -14 -17 -12 -25 5 -28 28 -4 28 12 0 21 -6 21 -16z m770 -9 c0 -8 -7
-15 -15 -15 -8 0 -15 7 -15 15 0 8 7 15 15 15 8 0 15 -7 15 -15z m1860 -16 c0
-12 -27 -11 -35 1 -11 17 5 32 21 19 8 -6 14 -15 14 -20z m-330 -10 c0 -12
-27 -11 -35 1 -11 17 5 32 21 19 8 -6 14 -15 14 -20z m-2122 -7 c3 -9 -2 -13
-14 -10 -9 1 -19 9 -22 16 -3 9 2 13 14 10 9 -1 19 -9 22 -16z m2201 -4 c15
-41 12 -98 -5 -105 -9 -3 -20 0 -25 8 -10 16 -12 103 -2 112 12 13 23 7 32
-15z m-1776 -3 c7 -16 -8 -29 -23 -20 -15 9 -12 35 4 35 8 0 16 -7 19 -15z
m341 -1 c3 -9 6 -36 6 -60 0 -37 -3 -44 -19 -44 -10 0 -22 7 -25 16 -8 21 -8
89 1 97 11 12 31 7 37 -9z m-694 -9 c0 -8 -4 -15 -10 -15 -5 0 -10 7 -10 15 0
8 5 15 10 15 6 0 10 -7 10 -15z m2220 -61 c0 -47 -2 -54 -20 -54 -18 0 -20 7
-20 58 0 64 6 78 27 61 8 -7 13 -32 13 -65z m-1445 46 c0 -22 -29 -18 -33 3
-3 14 1 18 15 15 10 -2 18 -10 18 -18z m-1024 -23 c-7 -7 -15 -6 -26 3 -12 10
-13 15 -3 21 17 11 42 -11 29 -24z m343 17 c9 -24 7 -77 -4 -94 -19 -30 -35
13 -32 83 2 29 26 37 36 11z m2248 -1 c34 -7 55 -30 41 -44 -13 -13 -98 8
-115 28 -9 12 -9 16 3 24 8 5 21 6 29 3 8 -3 27 -8 42 -11z m-1824 -16 c2 -10
-3 -17 -12 -17 -10 0 -16 9 -16 21 0 24 23 21 28 -4z m346 6 c7 -27 5 -88 -4
-103 -7 -11 -11 -11 -24 -1 -11 9 -16 30 -16 67 0 47 3 54 19 54 11 0 22 -8
25 -17z m-686 -56 c3 -52 1 -58 -15 -55 -14 3 -19 15 -21 61 -3 52 -1 58 15
55 14 -3 19 -15 21 -61z m1870 29 c3 -13 -1 -17 -14 -14 -11 2 -20 11 -22 22
-3 13 1 17 14 14 11 -2 20 -11 22 -22z m-268 -11 c10 -12 10 -19 2 -27 -15
-15 -48 14 -38 31 10 15 21 14 36 -4z m-1440 -10 c0 -8 -7 -15 -15 -15 -16 0
-20 12 -8 23 11 12 23 8 23 -8z m440 -26 c0 -21 -8 -23 -29 -10 -18 12 -6 42
14 35 8 -3 15 -15 15 -25z m1088 -48 c-2 -42 -7 -56 -18 -56 -11 0 -16 14 -18
54 -4 69 2 88 24 71 11 -10 14 -28 12 -69z m687 59 c0 -22 -29 -18 -33 3 -3
14 1 18 15 15 10 -2 18 -10 18 -18z m-2785 -71 c0 -42 -3 -49 -20 -49 -37 0
-55 74 -24 105 25 25 44 1 44 -56z m75 27 c0 -36 -20 -45 -35 -16 -15 27 -5
53 17 48 12 -2 18 -13 18 -32z m669 18 c12 -32 6 -94 -9 -101 -9 -3 -18 -3
-21 0 -5 5 -8 65 -5 100 1 21 27 23 35 1z m1496 3 c14 -7 26 -21 28 -31 4 -17
-1 -18 -38 -12 -53 8 -80 22 -80 41 0 19 55 20 90 2z m-1412 -30 c2 -10 -3
-17 -12 -17 -18 0 -29 16 -21 31 9 14 29 6 33 -14z m2412 -26 c0 -28 -4 -53
-10 -56 -6 -4 -10 15 -10 49 0 31 5 56 10 56 6 0 10 -22 10 -49z m-1230 14
c10 -12 10 -19 2 -27 -15 -15 -48 14 -38 31 10 15 21 14 36 -4z m-1435 -6 c10
-15 -1 -23 -20 -15 -9 3 -13 10 -10 16 8 13 22 13 30 -1z m422 -33 c-8 -20
-37 -10 -37 13 0 10 3 21 7 25 11 11 36 -21 30 -38z m1785 2 c-16 -16 -37 4
-28 28 6 16 8 16 23 1 13 -13 15 -19 5 -29z m-2537 7 c3 -14 7 -36 10 -49 5
-26 -17 -52 -35 -41 -5 3 -10 31 -10 61 0 41 4 54 15 54 8 0 17 -11 20 -25z
m2193 1 c3 -13 -1 -17 -14 -14 -11 2 -20 11 -22 22 -3 13 1 17 14 14 11 -2 20
-11 22 -22z m-2114 -17 c-3 -5 -10 -7 -15 -3 -5 3 -7 10 -3 15 3 5 10 7 15 3
5 -3 7 -10 3 -15z m-239 -10 c4 -12 2 -26 -4 -32 -15 -15 -46 16 -38 37 9 23
34 20 42 -5z m1083 -17 c3 -19 -1 -23 -15 -20 -10 2 -19 14 -21 26 -3 19 1 23
15 20 10 -2 19 -14 21 -26z m1440 -40 c3 -57 1 -63 -15 -60 -15 3 -19 15 -21
66 -3 57 -1 63 15 60 15 -3 19 -15 21 -66z m-1782 47 c3 -6 1 -16 -5 -22 -9
-9 -14 -8 -21 3 -9 15 -4 30 10 30 5 0 12 -5 16 -11z m1109 -58 c0 -41 -4 -66
-12 -68 -19 -7 -30 29 -25 85 3 43 7 52 21 50 13 -3 16 -16 16 -67z m-1437 41
c2 -7 -3 -12 -12 -12 -9 0 -16 7 -16 16 0 17 22 14 28 -4z m2192 -2 c0 -11 -7
-20 -15 -20 -8 0 -15 9 -15 20 0 11 7 20 15 20 8 0 15 -9 15 -20z m-672 -18
c2 -12 -1 -22 -6 -22 -15 0 -34 28 -27 40 10 17 30 6 33 -18z m422 -18 c0 -16
-26 -19 -35 -4 -4 6 -4 18 -1 27 5 12 9 13 21 3 8 -7 15 -19 15 -26z m-1442 2
c3 -13 -1 -17 -14 -14 -11 2 -20 11 -22 22 -3 13 1 17 14 14 11 -2 20 -11 22
-22z m1096 18 c22 -9 23 -134 1 -134 -21 0 -33 29 -30 70 2 19 3 43 4 53 1 19
3 20 25 11z m-1427 -19 c3 -9 3 -19 -1 -22 -8 -9 -37 18 -30 28 8 14 24 11 31
-6z m1101 -14 c3 -19 0 -22 -13 -17 -9 3 -19 6 -21 6 -2 0 -4 9 -4 21 0 29 34
21 38 -10z m-1788 3 c0 -9 -7 -14 -17 -12 -25 5 -28 28 -4 28 12 0 21 -6 21
-16z m348 5 c-2 -6 -8 -10 -13 -10 -5 0 -11 4 -13 10 -2 6 4 11 13 11 9 0 15
-5 13 -11z m1186 -4 c7 -20 -3 -45 -18 -45 -18 0 -36 21 -36 42 0 23 45 25 54
3z m674 -13 c2 -14 -2 -22 -11 -22 -17 0 -30 27 -21 41 9 16 29 4 32 -19z
m-1020 -16 c3 -13 -1 -17 -14 -14 -11 2 -20 11 -22 22 -3 13 1 17 14 14 11 -2
20 -11 22 -22z m-972 -2 c42 -20 49 -31 34 -49 -24 -29 -120 6 -120 45 0 25
38 27 86 4z m302 -6 c-6 -18 -28 -21 -28 -4 0 9 7 16 16 16 9 0 14 -5 12 -12z
m1911 -8 c26 -6 50 -35 39 -45 -9 -10 -95 5 -114 20 -11 7 -15 19 -11 29 7 17
10 17 86 -4z m281 0 c0 -11 -7 -20 -15 -20 -8 0 -15 9 -15 20 0 11 7 20 15 20
8 0 15 -9 15 -20z m-1766 -5 c7 -20 -23 -33 -34 -14 -5 7 -6 17 -4 21 9 13 32
9 38 -7z m750 -1 c10 -26 7 -112 -4 -119 -22 -14 -40 17 -40 70 0 28 3 55 7
58 11 12 31 7 37 -9z m350 -1 c4 -9 2 -21 -4 -27 -13 -13 -46 17 -36 33 11 16
33 13 40 -6z m-1349 -13 c33 -36 -4 -69 -39 -34 -19 19 -20 26 -4 42 16 16 22
15 43 -8z m663 -3 c2 -12 -3 -17 -17 -17 -15 0 -21 6 -21 21 0 25 33 22 38 -4z
m422 -2 c10 -12 10 -19 2 -27 -16 -16 -42 -2 -42 22 0 24 22 26 40 5z m-1782
-18 c2 -10 -3 -17 -12 -17 -18 0 -29 16 -21 31 9 14 29 6 33 -14z m1117 -9 c3
-13 7 -43 8 -68 2 -39 -1 -45 -20 -48 -31 -5 -45 28 -37 88 5 40 10 50 25 50
11 0 21 -9 24 -22z m743 10 c18 -18 14 -38 -7 -38 -21 0 -31 17 -23 38 5 15
15 15 30 0z m350 -16 c2 -14 -2 -22 -11 -22 -17 0 -30 27 -21 41 9 16 29 4 32
-19z m345 13 c4 -8 2 -17 -4 -21 -15 -9 -39 3 -39 21 0 19 36 20 43 0z m-2128
-4 c7 -12 -12 -24 -25 -16 -11 7 -4 25 10 25 5 0 11 -4 15 -9z m1102 -7 c9
-25 -12 -38 -31 -19 -9 9 -14 21 -11 26 10 14 35 10 42 -7z m-255 -21 c29 -26
11 -44 -36 -37 -56 9 -76 21 -76 45 0 20 4 21 48 14 26 -4 55 -14 64 -22z
m-706 2 c48 -20 39 -41 -15 -38 -45 2 -71 16 -71 39 0 18 41 18 86 -1z m379
-1 c22 -23 15 -49 -14 -49 -32 0 -49 28 -32 49 17 20 26 20 46 0z m1143 -16
c21 -6 32 -16 32 -28 0 -28 -15 -32 -62 -19 -52 15 -73 32 -65 53 7 17 23 16
95 -6z m330 7 c41 -13 52 -20 52 -37 0 -19 -4 -20 -47 -13 -56 8 -83 21 -83
39 0 29 10 31 78 11z m-1053 -30 c0 -28 -29 -25 -33 3 -3 19 0 23 15 20 10 -2
18 -12 18 -23z m1443 -43 c3 -56 1 -62 -16 -62 -24 0 -32 18 -32 74 0 47 6 58
30 54 11 -2 16 -19 18 -66z m-1030 30 c3 -19 -1 -23 -15 -20 -10 2 -19 14 -21
26 -3 19 1 23 15 20 10 -2 19 -14 21 -26z m470 -2 c31 -8 42 -16 42 -30 0 -10
-4 -21 -9 -25 -14 -8 -98 15 -112 31 -16 19 -3 47 18 40 10 -3 37 -10 61 -16z
m300 -8 c2 -14 -2 -22 -12 -22 -19 0 -29 17 -22 36 8 22 30 12 34 -14z m-688
3 c13 -16 6 -35 -15 -35 -15 0 -28 27 -19 41 8 13 20 11 34 -6z m-323 -11 c3
-8 1 -20 -6 -27 -14 -14 -47 15 -37 32 10 16 36 13 43 -5z m1725 -4 c6 -20 -4
-100 -13 -100 -5 0 -9 25 -9 55 0 48 12 74 22 45z m-2327 -21 c4 -12 2 -26 -4
-32 -15 -15 -46 16 -38 37 9 23 34 20 42 -5z m686 -6 c5 -15 9 -45 7 -67 -2
-34 -7 -42 -25 -44 -32 -5 -44 31 -31 91 11 53 33 62 49 20z m753 1 c9 -24 7
-97 -3 -113 -8 -12 -12 -12 -25 -2 -11 10 -16 31 -16 72 0 51 3 59 19 59 10 0
22 -7 25 -16z m-1004 -9 c16 -19 6 -45 -18 -45 -25 0 -46 25 -38 45 7 19 40
19 56 0z m396 -5 c32 -13 33 -50 2 -50 -65 0 -119 33 -102 62 6 10 57 4 100
-12z m689 -15 c0 -28 -29 -25 -33 3 -3 19 0 23 15 20 10 -2 18 -12 18 -23z
m755 15 c0 -5 -7 -10 -15 -10 -8 0 -15 5 -15 10 0 6 7 10 15 10 8 0 15 -4 15
-10z m-1675 -34 c23 -16 14 -46 -15 -46 -23 0 -35 22 -26 45 7 19 17 19 41 1z
m373 -1 c38 -12 52 -21 52 -34 0 -27 -7 -29 -58 -19 -54 11 -77 29 -69 52 8
20 11 20 75 1z m717 -7 c20 -64 3 -149 -25 -121 -14 13 -25 95 -17 118 8 18
36 20 42 3z m-1355 -23 c13 -16 6 -35 -15 -35 -18 0 -28 17 -21 35 7 19 20 19
36 0z m1475 4 c29 -7 47 -18 51 -31 8 -27 2 -30 -50 -23 -55 9 -82 26 -73 49
8 19 14 20 72 5z m-706 -18 c14 -26 -10 -48 -29 -26 -13 16 -7 45 9 45 6 0 15
-9 20 -19z m1167 -18 c-10 -10 -19 5 -10 18 6 11 8 11 12 0 2 -7 1 -15 -2 -18z
m-751 7 c4 -6 4 -18 1 -27 -5 -12 -9 -13 -21 -3 -8 7 -15 19 -15 26 0 16 26
19 35 4z m-324 -30 c21 -75 1 -131 -36 -100 -16 13 -22 110 -8 124 14 13 37 1
44 -24z m749 15 c13 -16 6 -35 -15 -35 -18 0 -28 17 -21 35 7 19 20 19 36 0z
m-1270 -40 c10 -12 10 -18 0 -29 -16 -21 -40 -9 -40 20 0 27 21 32 40 9z m687
-1 c3 -8 1 -20 -6 -27 -14 -14 -47 15 -37 32 10 16 36 13 43 -5z m-252 -14
c18 -19 18 -22 2 -38 -13 -13 -21 -14 -35 -6 -22 14 -28 44 -10 55 19 12 23
11 43 -11z m717 3 c32 -6 47 -28 31 -44 -13 -13 -91 4 -111 24 -20 21 -5 40
25 32 14 -3 39 -9 55 -12z m-289 -71 c10 -63 5 -82 -23 -82 -25 0 -39 33 -33
80 7 53 11 62 30 58 13 -2 20 -18 26 -56z m407 28 c9 -16 8 -22 -5 -26 -21 -8
-39 10 -32 30 9 22 24 20 37 -4z m-930 -30 c12 -23 6 -40 -16 -40 -17 0 -28
24 -20 45 8 21 23 19 36 -5z m354 -2 c8 -13 7 -21 -2 -30 -17 -17 -46 1 -50
31 -3 18 1 22 19 19 12 -2 27 -11 33 -20z m331 -3 c0 -11 -7 -21 -16 -23 -18
-3 -33 23 -23 39 10 17 39 5 39 -16z m-563 -11 c33 -8 63 -38 53 -54 -5 -8
-23 -10 -54 -5 -58 9 -81 21 -81 44 0 25 11 33 35 26 11 -3 32 -8 47 -11z
m735 -35 c22 -43 14 -119 -12 -119 -25 0 -39 31 -36 83 1 28 5 55 7 59 9 14
28 3 41 -23z m-564 -6 c29 -6 60 -40 50 -56 -6 -10 -88 0 -115 14 -18 10 -24
40 -11 53 4 4 17 4 28 1 11 -4 32 -9 48 -12z m395 -24 c10 -16 10 -24 2 -35
-17 -20 -50 0 -50 31 0 31 30 34 48 4z m-20 -71 c14 -12 16 -44 2 -53 -12 -8
-91 14 -109 31 -7 7 -11 20 -7 29 5 13 14 15 53 9 27 -3 54 -11 61 -16z m96
-40 c13 -22 -3 -41 -27 -32 -23 8 -23 57 -1 52 9 -2 22 -11 28 -20z m548 -130
c-7 -7 -12 -8 -12 -2 0 14 12 26 19 19 2 -3 -1 -11 -7 -17z m-152 -34 c0 -16
-23 -44 -35 -44 -18 0 -20 21 -3 38 12 12 38 17 38 6z"/>
<path d="M8086 6455 c-8 -8 -19 -15 -25 -15 -22 0 -10 -30 18 -44 26 -14 30
-14 35 0 9 24 7 74 -3 74 -5 0 -16 -7 -25 -15z"/>
<path d="M6732 6240 c-83 -13 -214 -81 -283 -147 -98 -93 -154 -201 -185 -353
-15 -75 -24 -528 -16 -828 l3 -123 27 -10 c50 -19 912 -231 1032 -254 42 -8
311 -71 361 -85 48 -13 106 -13 115 1 3 6 8 168 11 361 6 454 -8 608 -69 773
-18 48 -75 164 -88 180 -7 8 -20 30 -30 47 -34 64 -136 175 -222 242 -92 72
-104 80 -203 128 -120 60 -318 90 -453 68z m221 -57 c4 -3 -2 -17 -14 -29 -33
-36 -19 -48 70 -62 227 -36 425 -193 565 -447 72 -132 97 -272 88 -495 -5
-124 5 -158 47 -166 53 -11 47 -47 -9 -48 -18 -1 -26 -7 -28 -25 -6 -43 6 -71
32 -71 24 0 36 -17 36 -50 0 -14 -9 -20 -32 -22 -41 -4 -47 -39 -9 -48 33 -8
39 -30 8 -30 -56 0 -56 -65 0 -72 26 -3 28 -7 31 -52 l3 -49 -36 6 c-22 4 -46
17 -59 32 -24 28 -56 33 -56 9 0 -20 -11 -18 -190 26 -116 29 -197 48 -309 71
-47 10 -58 15 -48 25 6 6 155 -25 223 -46 41 -13 78 -13 109 2 47 21 37 27
-100 55 -44 8 -107 18 -140 20 -63 5 -121 -10 -110 -27 3 -5 1 -10 -5 -10 -17
0 -198 40 -250 55 -25 7 -72 18 -105 25 -33 6 -78 17 -100 25 -22 7 -67 18
-100 25 -82 16 -111 28 -98 41 7 7 23 5 49 -7 22 -9 50 -18 64 -20 14 -2 63
-13 110 -24 162 -40 252 -53 272 -41 29 18 51 14 45 -9 -7 -28 9 -34 38 -13
29 22 32 43 5 43 -10 0 -34 6 -52 14 -18 8 -80 24 -138 36 -58 12 -141 32
-184 46 -44 13 -87 24 -96 24 -9 0 -25 7 -36 15 -10 8 -27 15 -36 15 -24 0
-23 9 7 36 28 26 24 58 -6 49 -25 -8 -24 6 1 36 20 22 21 32 16 203 -4 149 -8
181 -20 188 -20 11 -21 42 -1 58 18 15 20 41 3 38 -21 -5 -21 33 0 48 16 11
22 30 27 91 4 43 14 93 21 112 14 33 14 33 -11 27 -30 -8 -33 4 -4 22 13 9 19
21 17 37 -2 14 6 33 21 49 32 34 39 33 33 -4 -2 -16 -1 -30 3 -30 13 0 46 44
65 88 19 42 34 52 43 30 5 -13 45 23 75 68 11 16 12 16 8 2 -8 -27 10 -22 47
13 41 40 106 85 132 92 31 7 61 8 68 0z m-400 -1440 c-7 -2 -19 -2 -25 0 -7 3
-2 5 12 5 14 0 19 -2 13 -5z m197 -43 c24 -8 24 -8 -7 -9 -17 -1 -35 4 -38 9
-7 11 9 11 45 0z"/>
<path d="M6887 6047 c-10 -6 -25 -37 -34 -67 -14 -45 -17 -118 -20 -412 l-4
-357 30 -15 c16 -9 37 -16 45 -16 19 0 247 -54 341 -80 166 -47 358 -91 372
-86 13 5 15 31 10 179 -4 152 -8 184 -34 277 -17 58 -44 133 -61 168 -58 118
-205 280 -299 329 -26 14 -58 32 -71 40 -32 20 -167 53 -217 53 -23 0 -49 -6
-58 -13z"/>
<path d="M6771 6027 c-15 -7 -40 -43 -65 -92 -37 -74 -41 -88 -48 -195 -9
-137 -9 -119 -4 -205 2 -38 0 -77 -4 -86 -5 -9 -4 -88 2 -178 7 -97 7 -166 2
-169 -13 -10 -14 -42 -1 -42 6 0 18 7 27 15 14 13 37 9 200 -30 102 -25 199
-49 215 -54 17 -6 122 -33 235 -61 113 -28 223 -55 244 -61 26 -7 41 -7 45 0
7 10 6 79 -1 86 -6 6 -144 41 -318 80 -91 20 -244 56 -340 79 l-175 43 -3 334
c-2 262 1 355 13 432 21 133 22 128 -24 104z"/>
<path d="M6601 5926 c-26 -26 -31 -38 -26 -59 6 -23 2 -29 -24 -44 -46 -26
-76 -130 -49 -172 9 -15 7 -24 -10 -46 -23 -28 -21 -45 4 -45 21 0 17 -28 -6
-40 -12 -6 -20 -21 -20 -35 0 -25 14 -33 25 -15 10 16 25 2 18 -16 -3 -9 -13
-14 -24 -11 -17 5 -19 -2 -19 -69 0 -58 3 -74 14 -74 26 0 28 -19 7 -54 -28
-45 -29 -116 -1 -123 11 -3 20 -13 20 -22 0 -9 -9 -24 -20 -34 -15 -12 -20
-29 -20 -65 0 -71 20 -86 116 -87 51 0 78 -5 83 -14 6 -9 18 -11 39 -6 24 5
33 2 41 -13 13 -24 106 -47 186 -46 40 0 63 -5 70 -14 15 -19 82 -6 96 19 5
11 16 19 24 19 8 0 15 9 15 20 0 25 -18 25 -50 0 -25 -19 -70 -27 -70 -12 0 4
9 13 20 20 37 23 24 40 -36 48 -48 6 -60 4 -84 -15 -29 -21 -70 -28 -70 -12 0
5 11 16 25 25 14 9 25 20 25 25 0 15 -112 30 -134 19 -16 -9 -23 -7 -34 11 -8
11 -21 21 -28 21 -7 0 -32 7 -54 16 -39 16 -40 17 -40 65 0 50 -7 57 -40 39
-34 -18 -35 11 -2 41 32 29 40 53 22 64 -16 10 -12 109 5 131 8 11 14 41 15
73 0 56 -1 57 -52 36 -33 -13 -20 31 17 60 34 25 36 30 33 78 -3 54 -9 59 -50
42 -34 -14 -21 32 15 54 36 22 58 72 62 141 1 19 8 48 14 63 23 58 2 64 -48
13z m-31 -160 c0 -16 -18 -31 -27 -22 -8 8 5 36 17 36 5 0 10 -6 10 -14z m-54
-405 c-8 -13 -36 -15 -36 -3 0 4 5 13 12 20 14 14 34 0 24 -17z m39 -40 c3 -5
1 -12 -5 -16 -5 -3 -10 1 -10 9 0 18 6 21 15 7z m5 -90 c0 -12 -20 -25 -27
-18 -7 7 6 27 18 27 5 0 9 -4 9 -9z m147 -287 c-3 -3 -12 -4 -19 -1 -8 3 -5 6
6 6 11 1 17 -2 13 -5z"/>
<path d="M7200 4865 c-14 -6 -41 -20 -60 -33 -35 -22 -35 -22 -8 -22 16 0 33
-9 41 -21 18 -25 79 -41 125 -33 26 5 38 1 58 -17 20 -19 36 -23 84 -24 33 0
65 -6 72 -13 7 -7 29 -12 49 -12 21 0 39 -6 42 -12 4 -10 7 -10 18 0 11 10 11
14 1 21 -9 5 -11 17 -6 34 5 23 3 27 -16 27 -13 0 -24 8 -27 20 -6 22 -10 23
-110 44 -57 12 -78 12 -103 3 -25 -10 -33 -9 -40 3 -5 8 -7 18 -4 22 5 7 -12
13 -66 21 -14 2 -37 -2 -50 -8z m125 -55 c7 -11 -39 -25 -54 -15 -6 3 -11 10
-11 16 0 12 57 12 65 -1z m240 -59 c8 -14 -10 -22 -30 -15 -13 5 -14 8 -3 15
17 11 26 11 33 0z"/>
<path d="M7430 4635 c0 -9 6 -12 15 -9 8 4 15 10 15 15 0 5 -7 9 -15 9 -8 0
-15 -7 -15 -15z"/>
<path d="M7520 4605 c0 -8 5 -15 10 -15 6 0 10 7 10 15 0 8 -4 15 -10 15 -5 0
-10 -7 -10 -15z"/>
<path d="M7674 4579 c-11 -19 13 -34 31 -19 13 11 13 15 3 21 -18 12 -26 11
-34 -2z"/>
<path d="M6203 5105 c0 -27 2 -38 4 -22 2 15 2 37 0 50 -2 12 -4 0 -4 -28z"/>
<path d="M6812 4019 c-7 -10 -23 -19 -37 -19 -14 0 -28 -7 -32 -15 -9 -24 4
-29 29 -12 51 35 70 54 61 60 -5 3 -14 -3 -21 -14z"/>
<path d="M7070 4002 c0 -5 17 -17 38 -27 54 -28 55 -29 48 -17 -8 14 -86 53
-86 44z"/>
<path d="M6868 3955 c-99 -36 -158 -125 -158 -237 0 -65 12 -122 31 -148 8
-11 12 -12 16 -2 2 6 9 12 14 12 6 0 5 -9 -1 -21 -16 -28 0 -69 50 -129 l40
-48 0 -227 0 -228 29 -61 c36 -76 74 -114 95 -97 11 9 19 9 34 0 14 -9 24 -9
38 -1 18 10 17 11 -11 22 -50 19 -85 60 -52 60 27 0 72 -30 92 -60 24 -36 39
-38 61 -5 22 34 32 109 13 103 -8 -3 -13 -12 -11 -22 2 -11 -4 -16 -24 -16
-24 0 -57 27 -101 83 -14 18 -18 67 -5 67 18 0 31 -25 25 -51 -6 -34 9 -38 45
-13 28 19 28 41 1 62 -23 20 -17 52 10 52 10 0 29 13 44 28 25 26 27 34 28
121 1 91 1 93 32 119 84 72 111 118 121 203 9 68 -14 175 -49 234 -47 80 -177
195 -220 195 -17 0 -36 -69 -25 -91 15 -27 12 -69 -4 -69 -14 0 -26 29 -26 67
0 18 -5 22 -22 20 -17 -1 -24 4 -26 22 -2 13 1 28 7 34 36 36 -19 49 -91 22z
m26 -47 c-3 -13 -14 -31 -24 -40 -10 -9 -20 -22 -22 -29 -3 -8 -11 -10 -24 -5
-18 7 -18 9 7 29 15 12 32 32 38 45 6 12 16 22 22 22 6 0 8 -9 3 -22z m206
-74 c30 -69 36 -97 19 -92 -17 5 -68 109 -62 126 9 23 24 12 43 -34z m-220
-19 c0 -16 -6 -25 -15 -25 -15 0 -21 31 -8 43 13 14 23 6 23 -18z m110 -30 c0
-9 9 -34 20 -56 12 -22 18 -44 14 -50 -11 -18 -33 11 -49 64 -18 61 -18 57 0
57 8 0 15 -7 15 -15z m90 -58 c8 -14 11 -29 6 -34 -9 -10 -46 33 -46 54 0 22
23 10 40 -20z m-192 -11 c2 -11 -4 -19 -16 -23 -12 -3 -23 -11 -26 -19 -6 -17
-32 -18 -42 -2 -8 12 24 40 37 33 4 -3 11 4 14 15 8 24 28 22 33 -4z m317 -16
c-3 -5 -1 -19 5 -30 16 -31 3 -43 -25 -23 -29 21 -31 38 -7 52 22 13 35 14 27
1z m-70 -79 c0 -48 -8 -57 -40 -43 l-27 12 7 -37 6 -38 -46 -14 c-33 -10 -45
-18 -45 -32 0 -28 -26 -23 -48 9 -24 32 -16 49 35 76 18 9 37 25 43 36 6 10
16 17 23 14 7 -2 26 9 42 26 35 37 50 34 50 -9z m-204 -3 c8 -15 8 -23 -1 -32
-8 -8 -16 -5 -30 14 -11 14 -20 30 -20 37 0 18 39 3 51 -19z m-145 -95 c-10
-10 -19 5 -10 18 6 11 8 11 12 0 2 -7 1 -15 -2 -18z m364 -23 c0 -12 -28 -25
-36 -17 -9 9 6 27 22 27 8 0 14 -5 14 -10z m-250 -20 c0 -5 -4 -10 -10 -10 -5
0 -10 5 -10 10 0 6 5 10 10 10 6 0 10 -4 10 -10z m321 -13 c-13 -13 -26 -3
-16 12 3 6 11 8 17 5 6 -4 6 -10 -1 -17z m-41 -16 c0 -11 -4 -31 -9 -44 -8
-20 -15 -24 -45 -22 -29 3 -35 0 -38 -17 -2 -12 -12 -26 -23 -32 -11 -6 -36
-23 -56 -38 -20 -16 -42 -28 -48 -28 -21 0 -11 28 17 49 26 20 26 22 9 35 -20
16 -20 57 1 64 7 2 12 -6 12 -22 0 -36 26 -44 54 -17 12 11 28 21 34 21 7 0
12 5 12 10 0 6 6 10 13 10 8 0 20 11 27 25 16 30 40 33 40 6z m-36 -229 c-1
-7 -2 -30 -2 -52 -2 -33 -6 -40 -22 -40 -17 0 -19 5 -14 25 4 15 2 25 -5 25
-6 0 -11 -4 -11 -9 0 -5 -17 -18 -37 -28 -37 -20 -55 -43 -32 -43 7 0 23 10
36 22 28 26 46 14 41 -28 -2 -22 -9 -30 -28 -32 -14 -2 -35 -13 -46 -24 -12
-11 -24 -16 -27 -11 -7 13 -2 171 6 179 4 4 7 2 7 -4 0 -19 32 -14 57 10 16
15 23 17 23 8 0 -11 4 -10 17 3 19 18 39 18 37 -1z"/>
<path d="M7138 3036 c-24 -18 -23 -30 6 -61 l24 -25 4 37 c8 61 -2 74 -34 49z"/>
<path d="M5635 5200 c-12 -4 -26 -15 -33 -23 -11 -13 -10 -17 8 -27 12 -6 31
-10 43 -8 17 2 22 10 22 32 0 32 -10 39 -40 26z"/>
<path d="M6065 2320 c3 -5 8 -10 11 -10 2 0 4 5 4 10 0 6 -5 10 -11 10 -5 0
-7 -4 -4 -10z"/>
<path d="M6115 2310 l-30 -6 34 -7 c19 -4 39 -3 44 2 12 12 -13 18 -48 11z"/>
<path d="M6348 2303 c-16 -2 -28 -8 -28 -13 0 -5 -9 -12 -21 -15 -12 -4 -17
-11 -13 -15 5 -5 117 -35 249 -68 132 -33 312 -78 400 -101 88 -22 345 -85
570 -141 226 -55 435 -107 465 -115 30 -8 123 -30 205 -50 83 -20 171 -41 198
-47 36 -9 50 -9 59 0 9 9 7 12 -9 12 -22 0 -117 39 -95 40 21 0 13 14 -15 28
-38 17 -53 15 -53 -8 0 -24 -20 -26 -61 -5 -16 9 -34 13 -39 10 -4 -3 -19 -1
-32 4 -13 5 -40 13 -61 16 -21 3 -47 15 -58 26 -15 15 -33 20 -77 20 -76 0
-91 5 -85 29 4 15 -2 20 -32 26 -23 4 -45 2 -60 -6 -29 -16 -50 -9 -50 16 0
25 -35 41 -120 54 -39 5 -99 19 -135 30 -36 10 -90 23 -120 29 -98 17 -139 28
-152 38 -15 12 -113 12 -124 0 -12 -11 -24 -8 -19 6 8 21 -43 48 -103 54 -31
4 -67 12 -78 20 -14 9 -32 11 -48 7 -19 -4 -33 -1 -46 11 -10 9 -23 14 -29 11
-14 -9 -112 19 -152 43 -20 13 -51 21 -77 21 -23 0 -60 9 -82 20 -22 11 -41
19 -42 19 -2 -1 -15 -4 -30 -6z m891 -249 c2 -2 -7 -4 -22 -4 -14 0 -29 5 -32
10 -6 10 42 4 54 -6z m86 -21 c18 -14 18 -15 2 -9 -10 3 -30 6 -43 6 -13 0
-24 5 -24 10 0 16 43 11 65 -7z m230 -58 c33 -13 35 -15 10 -11 -16 3 -46 9
-65 14 -29 8 -31 10 -10 11 14 0 43 -6 65 -14z"/>
<path d="M6215 2280 c3 -5 16 -10 28 -10 18 0 19 2 7 10 -20 13 -43 13 -35 0z"/>
<path d="M6124 2212 c-5 -4 -10 -25 -10 -47 1 -32 6 -42 26 -52 14 -7 39 -12
55 -11 24 2 31 8 33 28 2 14 8 30 13 37 12 14 4 19 -58 38 -26 8 -48 15 -48
15 0 0 -5 -4 -11 -8z"/>
<path d="M6326 2128 c8 -51 18 -64 59 -72 39 -8 51 1 59 46 6 34 5 37 -26 46
-18 6 -48 14 -66 17 l-33 7 7 -44z"/>
<path d="M6528 2099 c6 -7 12 -28 12 -46 0 -29 4 -33 39 -44 48 -14 71 -7 71
22 0 12 8 28 18 35 16 11 14 14 -13 25 -16 6 -55 14 -85 16 -45 4 -53 3 -42
-8z"/>
<path d="M6110 2060 c-8 -14 -7 -29 5 -56 9 -22 15 -67 15 -113 0 -85 8 -101
52 -101 32 0 35 8 42 110 3 36 6 81 8 99 3 30 -2 38 -31 58 -42 28 -77 30 -91
3z"/>
<path d="M6736 2061 c-4 -5 -2 -12 4 -16 5 -3 10 -22 10 -41 0 -39 11 -46 68
-48 31 -1 37 2 37 20 1 12 6 29 13 37 16 18 -1 30 -58 42 -19 3 -42 9 -52 11
-9 3 -19 0 -22 -5z"/>
<path d="M6327 2013 c-12 -11 -8 -43 9 -68 12 -18 25 -25 49 -25 39 0 59 21
51 54 -8 32 -88 61 -109 39z"/>
<path d="M6948 1998 c14 -16 18 -28 12 -38 -13 -23 3 -41 45 -56 48 -16 65 -9
65 27 0 27 3 29 37 29 47 0 77 -25 62 -52 -14 -26 3 -45 52 -58 48 -13 59 -7
59 31 0 22 5 29 20 29 11 0 20 4 20 10 0 11 -47 25 -145 45 -38 8 -106 23
-150 34 -100 26 -103 26 -77 -1z"/>
<path d="M6530 1944 c0 -19 19 -56 33 -66 16 -10 69 -1 78 14 24 37 -7 68 -67
68 -33 0 -44 -4 -44 -16z"/>
<path d="M6744 1896 c-10 -25 21 -62 58 -70 27 -5 36 -3 51 15 17 22 17 23 0
40 -10 10 -37 21 -60 25 -34 5 -44 3 -49 -10z"/>
<path d="M6345 1823 c-4 -24 -1 -42 10 -59 16 -25 35 -32 35 -13 0 6 7 17 15
26 17 16 17 45 0 43 -5 -1 -12 6 -15 16 -12 32 -38 25 -45 -13z"/>
<path d="M6954 1846 c-7 -17 26 -74 40 -68 3 1 21 2 40 2 73 0 45 67 -32 77
-33 4 -43 2 -48 -11z"/>
<path d="M6557 1768 c-2 -29 -3 -56 0 -60 9 -15 54 -8 60 10 4 9 9 19 13 22 3
3 -11 22 -31 43 l-36 38 -6 -53z"/>
<path d="M7165 1799 c-4 -5 -4 -21 -1 -33 4 -18 17 -26 50 -35 57 -14 53 -14
66 8 15 29 2 49 -38 61 -47 13 -69 13 -77 -1z"/>
<path d="M7376 1744 c-16 -42 73 -94 110 -63 32 27 1 62 -67 74 -29 5 -38 3
-43 -11z"/>
<path d="M8790 1730 c0 -22 20 -26 38 -8 19 19 14 28 -13 28 -18 0 -25 -5 -25
-20z"/>
<path d="M6770 1710 c-17 -32 -11 -46 25 -63 38 -18 52 -9 46 28 -7 43 -54 67
-71 35z"/>
<path d="M7584 1697 c-10 -27 15 -56 58 -67 33 -10 43 -9 56 3 29 30 3 55 -76
72 -24 5 -33 3 -38 -8z"/>
<path d="M6980 1640 c0 -25 4 -30 25 -30 31 0 35 34 6 50 -28 15 -31 13 -31
-20z"/>
<path d="M7190 1651 c0 -10 19 -25 25 -20 1 2 -3 10 -11 17 -8 7 -14 8 -14 3z"/>
<path d="M7800 1645 c-7 -8 -7 -21 -1 -37 8 -21 18 -26 58 -31 57 -6 63 -3 63
28 0 18 -8 26 -32 33 -61 19 -77 20 -88 7z"/>
<path d="M7185 1600 c-9 -29 7 -44 41 -36 l27 7 -24 16 c-13 9 -27 21 -30 26
-4 5 -10 0 -14 -13z"/>
<path d="M8010 1595 c-7 -9 -7 -20 1 -38 9 -19 21 -26 56 -31 52 -7 63 -2 63
24 0 23 -6 27 -64 44 -37 11 -47 11 -56 1z"/>
<path d="M7400 1545 c-12 -14 -11 -18 1 -26 20 -12 34 -6 34 16 0 24 -19 30
-35 10z"/>
<path d="M8220 1528 c0 -34 11 -44 50 -51 19 -3 42 -7 50 -9 10 -2 16 6 18 27
3 27 -1 31 -37 43 -61 18 -81 16 -81 -10z"/>
<path d="M7600 1501 c0 -22 6 -30 23 -35 12 -3 33 -15 46 -27 l24 -23 -7 30
c-7 28 -58 84 -77 84 -5 0 -9 -13 -9 -29z"/>
<path d="M6190 1473 c0 -4 10 -17 21 -29 18 -20 24 -21 35 -9 19 19 18 22 -17
34 -38 13 -39 13 -39 4z"/>
<path d="M7818 1473 c-11 -21 -6 -62 9 -74 9 -8 18 -13 20 -11 1 1 4 2 6 1 41
-12 48 -8 45 23 -2 18 -6 31 -10 28 -4 -3 -14 4 -22 15 -9 11 -16 16 -16 11 0
-5 -6 -3 -14 3 -8 7 -16 8 -18 4z"/>
<path d="M8026 1399 c-8 -48 -1 -63 27 -55 11 3 28 1 37 -4 15 -8 19 -4 23 18
6 32 6 33 -21 35 -11 0 -18 5 -16 9 6 9 -20 38 -34 38 -5 0 -12 -18 -16 -41z"/>
<path d="M6526 1389 c-9 -28 -2 -49 15 -49 9 0 19 5 21 11 4 12 46 -6 60 -25
8 -12 38 11 38 29 0 8 -19 18 -42 23 -24 6 -53 14 -65 17 -15 5 -24 3 -27 -6z"/>
<path d="M8230 1350 l0 -48 42 -10 c50 -13 58 -6 58 53 l0 40 -20 -25 c-15
-19 -20 -21 -20 -8 0 9 -13 23 -30 32 l-30 14 0 -48z"/>
<path d="M6710 1336 c0 -14 35 -36 56 -36 14 0 32 -7 41 -16 21 -21 38 -3 29
30 -6 24 -10 26 -66 26 -33 0 -60 -2 -60 -4z"/>
<path d="M7026 1261 c-8 -13 20 -45 33 -37 8 5 8 13 1 27 -11 20 -25 25 -34
10z"/>
<path d="M5969 1173 c-2 -88 3 -158 12 -176 6 -10 13 -49 16 -87 3 -40 12 -75
19 -81 8 -6 14 -20 14 -30 0 -11 7 -19 15 -19 8 0 15 -7 15 -15 0 -8 5 -15 11
-15 12 0 10 10 -15 75 -8 22 -15 57 -16 77 0 20 -4 39 -9 43 -15 9 -41 66 -35
76 7 12 7 145 -1 170 -10 32 -25 21 -26 -18z"/>
<path d="M7628 1106 c-13 -10 -15 -15 -6 -24 16 -16 53 -15 67 1 8 11 5 16
-15 25 -30 14 -25 14 -46 -2z"/>
<path d="M6403 1074 c-10 -27 7 -124 25 -145 18 -19 19 -19 30 3 17 37 23 93
12 122 -5 15 -14 25 -19 21 -5 -3 -12 -1 -16 5 -9 15 -25 12 -32 -6z"/>
<path d="M7800 1050 c0 -5 5 -10 10 -10 6 0 10 5 10 10 0 6 -4 10 -10 10 -5 0
-10 -4 -10 -10z"/>
<path d="M9672 318 c-11 -13 -24 -36 -28 -52 -6 -25 -5 -28 10 -23 10 4 26 7
37 7 16 0 19 7 19 45 0 51 -7 55 -38 23z"/>
<path d="M9600 230 c0 -5 7 -10 15 -10 8 0 15 5 15 10 0 6 -7 10 -15 10 -8 0
-15 -4 -15 -10z"/>
<path d="M9547 203 c-12 -11 -7 -33 7 -33 12 0 26 20 26 36 0 7 -26 5 -33 -3z"/>
</g>
</svg>
