<?xml version="1.0" standalone="no"?>
<!DOCTYPE svg PUBLIC "-//W3C//DTD SVG 20010904//EN"
 "http://www.w3.org/TR/2001/REC-SVG-20010904/DTD/svg10.dtd">
<svg version="1.0" xmlns="http://www.w3.org/2000/svg"
 width="900.000000pt" height="900.000000pt" viewBox="0 0 900.000000 900.000000"
 preserveAspectRatio="xMidYMid meet">

<g transform="translate(0.000000,900.000000) scale(0.100000,-0.100000)"
fill="#000000" stroke="none">
<path d="M1977 8850 c-314 -38 -594 -249 -719 -542 -62 -147 -84 -355 -54
-510 l13 -67 -41 -6 c-286 -46 -501 -199 -617 -440 -60 -124 -74 -189 -74
-345 0 -154 14 -219 71 -340 78 -165 220 -304 391 -382 119 -54 165 -60 475
-67 l287 -6 -89 -133 c-660 -989 -818 -2214 -430 -3335 178 -514 441 -945 832
-1364 517 -554 1212 -944 1958 -1098 318 -65 368 -70 775 -70 407 0 454 4 775
70 715 148 1376 506 1886 1021 629 636 992 1393 1096 2289 20 168 16 646 -6
825 -29 238 -91 524 -151 700 -23 66 -25 85 -20 160 8 101 -10 201 -51 284
-31 64 -113 159 -172 200 -28 19 -59 58 -98 124 -74 125 -159 253 -248 371
-39 52 -66 96 -61 98 6 2 47 24 92 49 271 153 457 402 520 694 28 133 24 345
-10 474 -107 404 -436 700 -850 766 -116 19 -309 8 -426 -25 -284 -78 -535
-287 -660 -550 -38 -80 -79 -204 -87 -265 -4 -28 -11 -50 -17 -50 -5 0 -60 20
-121 44 -61 24 -141 53 -177 65 -64 22 -67 25 -128 111 -78 111 -230 258 -342
333 -149 99 -344 178 -509 208 -123 22 -384 17 -508 -9 -173 -38 -383 -130
-502 -222 -59 -45 -57 -46 -75 36 -9 41 -37 117 -63 167 -37 74 -62 108 -126
172 -95 93 -163 136 -283 177 -164 57 -354 48 -512 -23 -35 -16 -65 -28 -66
-27 -31 52 -108 148 -157 194 -192 184 -462 275 -721 244z m348 -125 c44 -15
98 -36 120 -47 119 -60 255 -188 322 -303 22 -38 47 -68 59 -71 13 -3 47 8 90
29 193 98 382 100 569 8 187 -92 326 -288 342 -483 l6 -67 -67 -73 c-156 -169
-264 -380 -319 -623 -18 -80 -21 -134 -24 -473 l-5 -383 -1136 4 c-1273 3
-1167 -3 -1332 78 -161 80 -300 250 -356 434 -28 92 -25 298 5 385 44 125 91
200 181 290 141 141 286 201 485 201 271 0 508 -146 626 -387 36 -73 48 -82
85 -66 34 16 31 41 -16 131 -74 142 -200 266 -342 335 -73 36 -208 76 -257 76
-14 0 -31 4 -37 8 -41 25 -54 310 -20 432 62 227 215 414 421 516 141 70 213
85 380 80 121 -3 151 -7 220 -31z m5204 -565 c326 -80 595 -346 687 -680 26
-94 26 -367 0 -465 -24 -91 -94 -241 -150 -319 -48 -67 -159 -176 -227 -223
-277 -191 -648 -218 -948 -71 -103 51 -176 105 -264 194 -357 366 -353 946 8
1310 148 150 322 238 540 275 79 13 261 2 354 -21z m-2543 -116 c156 -27 343
-106 483 -204 258 -183 437 -458 507 -780 14 -62 17 -164 21 -602 l5 -528
-186 0 -185 0 -3 513 c-4 487 -5 516 -26 590 -74 267 -258 483 -500 587 -122
52 -209 70 -347 70 -251 0 -459 -90 -631 -273 -113 -121 -181 -245 -215 -397
-17 -77 -19 -132 -19 -587 l0 -503 -190 0 -190 0 0 454 c0 250 5 499 10 555
31 296 153 555 360 761 217 218 469 333 795 364 62 6 221 -4 311 -20z m-90
-455 c137 -25 285 -101 392 -202 99 -94 166 -201 213 -342 23 -69 23 -76 27
-592 l3 -523 -775 0 -776 0 0 114 0 114 53 12 c73 17 207 81 282 135 202 144
319 378 318 635 -1 190 -56 346 -173 494 -33 42 -60 78 -60 80 0 9 137 57 200
71 80 17 216 19 296 4z m-516 -201 c62 -76 124 -199 144 -288 9 -36 16 -108
16 -160 0 -52 -7 -124 -16 -160 -34 -145 -135 -301 -254 -393 -63 -48 -196
-112 -252 -123 l-38 -6 0 313 c0 173 5 343 11 379 14 91 50 189 100 273 49 84
186 227 217 227 14 0 39 -22 72 -62z m1714 -42 c187 -73 172 -58 179 -178 16
-283 174 -573 407 -750 90 -69 247 -144 365 -175 87 -23 120 -26 255 -27 115
0 173 4 224 17 56 14 71 15 84 5 37 -31 244 -323 316 -446 6 -10 -7 -12 -66
-7 -238 21 -464 -126 -545 -356 -21 -61 -26 -91 -26 -169 1 -56 7 -114 16
-142 l15 -48 -32 -19 c-48 -29 -576 -291 -587 -291 -5 0 -9 192 -9 493 l0 494
-31 61 c-27 55 -36 64 -91 91 l-61 31 -209 0 -208 0 0 496 c0 566 -6 636 -69
819 -21 61 -41 118 -46 128 -4 9 -5 17 -2 17 4 0 58 -20 121 -44z m-2674
-1305 l0 -110 -218 -3 -219 -3 -49 -30 c-30 -19 -60 -49 -79 -79 l-30 -49 0
-1332 0 -1332 30 -49 c19 -30 49 -60 79 -79 l49 -30 779 -3 778 -2 0 -253 0
-252 -78 -40 c-104 -53 -207 -156 -258 -260 l-37 -75 -717 0 -717 0 -42 -23
c-24 -12 -57 -41 -74 -65 -42 -58 -50 -157 -18 -219 27 -53 82 -98 137 -112
29 -7 270 -11 736 -11 l694 0 26 -52 c39 -81 113 -172 177 -221 l59 -44 -1132
-7 -1131 -7 -96 100 c-176 183 -368 439 -503 675 -528 915 -637 2012 -300
3015 116 344 308 713 522 1004 l43 57 794 0 795 0 0 -109z m4510 -363 c161
-48 286 -189 311 -351 37 -236 -127 -459 -364 -497 -259 -41 -497 164 -497
430 0 287 280 499 550 418z m410 -918 c38 -161 65 -321 82 -480 16 -159 16
-590 -1 -740 -90 -821 -428 -1558 -990 -2157 l-81 -86 -607 6 c-335 4 -846 7
-1137 7 l-528 0 60 45 c72 52 133 126 175 213 l31 62 701 0 c458 0 713 4 738
11 48 13 102 61 129 113 46 90 14 211 -71 271 l-43 30 -728 3 -729 2 -6 23
c-4 12 -27 54 -52 94 -55 90 -156 182 -245 226 l-67 32 -1 253 0 252 769 0
768 0 62 32 c54 28 65 38 91 91 l30 60 0 394 c0 216 2 393 5 393 3 0 144 -70
314 -155 l309 -154 -15 -48 c-21 -69 -21 -214 1 -288 73 -246 292 -401 539
-382 449 34 656 558 351 887 -29 30 -78 70 -109 89 -70 42 -199 81 -270 81
-68 0 -194 -33 -258 -67 -50 -28 -150 -117 -179 -161 l-16 -23 -336 168 -336
168 2 310 3 310 334 168 333 168 16 -23 c38 -58 132 -137 203 -171 147 -73
307 -73 457 -2 77 36 175 121 214 184 l22 35 18 -59 c10 -32 32 -115 48 -185z
m-2222 -23 c239 -96 343 -364 231 -594 -103 -214 -363 -303 -574 -199 -91 45
-166 119 -207 205 -28 57 -33 80 -36 163 -6 146 33 244 137 341 121 113 296
146 449 84z m1885 -940 c273 -135 328 -491 108 -701 -278 -264 -731 -69 -731
315 0 161 95 316 236 385 77 38 106 43 215 41 89 -2 102 -6 172 -40z m-3123
-1094 l0 -238 -120 0 -119 0 -3 233 c-2 129 -1 236 1 238 2 2 58 4 123 4 l118
0 0 -237z m44 -354 c121 -45 204 -109 270 -207 64 -97 88 -176 88 -292 0 -160
-56 -288 -173 -395 -238 -216 -616 -168 -795 102 -104 157 -113 375 -22 546
64 119 205 226 344 262 81 20 211 13 288 -16z m-788 -499 l0 -120 -689 0
c-765 0 -729 -3 -762 66 -20 43 -19 73 5 112 39 63 17 61 765 62 l681 0 0
-120z m2629 106 c38 -16 75 -68 75 -104 0 -40 -28 -90 -59 -106 -26 -14 -113
-16 -718 -16 l-688 0 0 120 0 120 678 0 c567 0 683 -2 712 -14z m439 -794
c-136 -128 -367 -297 -560 -412 -449 -267 -903 -423 -1449 -497 -186 -25 -696
-24 -880 1 -650 89 -1197 302 -1704 665 -120 86 -341 269 -341 283 0 4 1122 8
2493 8 l2492 -1 -51 -47z"/>
<path d="M3678 1029 c-11 -6 -18 -22 -18 -40 0 -22 6 -32 26 -39 36 -14 1049
-13 1075 0 12 7 19 21 19 40 0 19 -7 33 -19 40 -27 14 -1059 13 -1083 -1z"/>
<path d="M4867 1022 c-48 -53 -4 -82 123 -82 102 0 140 13 140 50 0 37 -37 50
-146 50 -85 0 -103 -3 -117 -18z"/>
<path d="M4592 798 c-18 -18 -14 -56 7 -68 11 -5 76 -10 144 -10 111 0 126 2
142 20 15 17 16 24 7 45 -12 25 -12 25 -150 25 -94 0 -142 -4 -150 -12z"/>
<path d="M5047 803 c-11 -11 -8 -58 5 -71 17 -17 1139 -17 1156 0 17 17 15 65
-4 72 -21 8 -1149 8 -1157 -1z"/>
</g>
</svg>
