<svg width="455" height="503" viewBox="0 0 455 503" fill="none" xmlns="http://www.w3.org/2000/svg">
<path d="M268.662 452.949L268.004 218.679L254.676 217.171L238.055 220.187L239.725 448.058L254.194 450.993L268.662 452.949Z" fill="#2F2325"/>
<path d="M33.6294 314.623V332.351H151.176V314.623H33.6294Z" fill="#2F2325" stroke="#2F2325" stroke-width="1.79925" stroke-linecap="round" stroke-linejoin="round"/>
<path d="M45.7123 253.43H27.6847V324.36H45.7123V253.43Z" fill="#2F2325" stroke="#2F2325" stroke-width="1.79925" stroke-linecap="round" stroke-linejoin="round"/>
<path d="M53.2205 324.664C53.2205 326.797 52.793 328.908 51.9624 330.879C51.1319 332.849 49.9146 334.639 48.3801 336.146C46.8456 337.653 45.0241 338.848 43.0196 339.662C41.0152 340.477 38.8672 340.895 36.6984 340.892C36.1579 340.892 35.6175 340.892 35.0963 340.892C32.0901 340.6 29.2228 339.503 26.8064 337.72C24.39 335.937 22.5169 333.537 21.3907 330.78C20.2646 328.024 19.9285 325.016 20.4191 322.085C20.9097 319.154 22.2081 316.411 24.1732 314.155C26.1383 311.899 28.6949 310.215 31.5649 309.288C34.4349 308.361 37.5084 308.225 40.4514 308.896C43.3943 309.566 46.094 311.017 48.2568 313.091C50.4197 315.165 51.9629 317.783 52.7186 320.659C53.0482 321.969 53.2167 323.314 53.2205 324.664Z" fill="#AFB9BB" stroke="#2F2325" stroke-width="0.8" stroke-linecap="round" stroke-linejoin="round"/>
<path d="M54.4363 264.363C54.4261 268.667 52.6815 272.792 49.5846 275.834C46.4878 278.875 42.2912 280.586 37.9142 280.591C37.3737 280.591 36.8333 280.591 36.2929 280.591C33.2851 280.308 30.414 279.219 27.9919 277.442C25.5698 275.666 23.6894 273.271 22.5552 270.517C21.4211 267.763 21.0767 264.755 21.5594 261.822C22.0422 258.889 23.3336 256.142 25.2933 253.881C27.2529 251.619 29.8057 249.929 32.674 248.995C35.5422 248.061 38.6161 247.918 41.5612 248.582C44.5064 249.246 47.2099 250.691 49.3779 252.761C51.5459 254.83 53.0952 257.445 53.8573 260.32C54.228 261.637 54.4227 262.996 54.4363 264.363Z" fill="#AFB9BB" stroke="#2F2325" stroke-width="0.8" stroke-linecap="round" stroke-linejoin="round"/>
<path d="M66.8861 239.537C66.8861 247.088 63.8357 254.329 58.4061 259.668C52.9765 265.008 45.6124 268.007 37.9337 268.007C36.9687 268.007 36.0036 268.007 35.0964 267.893C29.8298 267.38 24.807 265.457 20.574 262.333C16.341 259.209 13.0598 255.004 11.0869 250.175C9.11405 245.345 8.52507 240.077 9.38398 234.941C10.2429 229.806 12.5168 225 15.9586 221.046C19.4004 217.093 23.8784 214.143 28.9059 212.516C33.9333 210.89 39.3179 210.65 44.4743 211.823C49.6308 212.995 54.3618 215.535 58.1531 219.166C61.9445 222.797 64.6511 227.381 65.9789 232.419C66.5775 234.746 66.8822 237.136 66.8861 239.537V239.537Z" fill="#AFB9BB" stroke="#2F2325" stroke-width="0.8" stroke-linecap="round" stroke-linejoin="round"/>
<path d="M80.339 189.352L64.503 216.292L63.648 207.61L52.5563 219.364L71.055 184.512L80.339 189.352Z" fill="#2F2325" stroke="#2F2325" stroke-width="0.8" stroke-linecap="round" stroke-linejoin="round"/>
<path d="M84.1997 188.042L77.8881 199.715L63.8173 192.37L70.1096 180.678C71.1051 178.848 72.7964 177.48 74.8143 176.871C76.8321 176.263 79.0126 176.465 80.8799 177.432V177.432C82.7492 178.408 84.1487 180.073 84.771 182.062C85.3934 184.051 85.188 186.202 84.1997 188.042V188.042Z" fill="#AFB9BB" stroke="#2F2325" stroke-width="0.8" stroke-linecap="round" stroke-linejoin="round"/>
<path d="M68.8546 217.102C69.1637 215.127 68.8701 213.107 68.0112 211.297C67.1523 209.486 65.7667 207.967 64.0295 206.931C62.2924 205.896 60.2818 205.39 58.2523 205.478C56.2228 205.566 54.2655 206.244 52.628 207.427C50.9906 208.609 49.7466 210.243 49.0534 212.121C48.3603 213.998 48.2492 216.036 48.7341 217.976C49.2191 219.916 50.2783 221.671 51.7778 223.019C53.2773 224.367 55.1496 225.247 57.1579 225.548C58.4901 225.75 59.8498 225.692 61.1591 225.377C62.4684 225.062 63.7016 224.496 64.7881 223.711C65.8746 222.926 66.7931 221.939 67.4909 220.805C68.1887 219.671 68.6521 218.412 68.8546 217.102V217.102Z" fill="#AFB9BB" stroke="#2F2325" stroke-width="0.8" stroke-linecap="round" stroke-linejoin="round"/>
<path d="M18.8185 180.865L34.3658 226.427L24.4498 229.826L8.88447 184.27L18.8185 180.865Z" fill="#2F2325" stroke="#2F2325" stroke-width="0.8" stroke-linecap="round" stroke-linejoin="round"/>
<path d="M20.5014 177.17L24.8136 189.739L9.68908 194.796L5.37686 182.227C5.04381 181.253 4.90915 180.221 4.9806 179.191C5.05204 178.161 5.32818 177.153 5.79323 176.225C6.25829 175.296 6.90314 174.465 7.69098 173.779C8.47881 173.092 9.39421 172.565 10.3849 172.226V172.226C11.3846 171.88 12.442 171.735 13.4951 171.797C14.5482 171.859 15.5759 172.128 16.518 172.589C17.4601 173.049 18.2976 173.692 18.9816 174.478C19.6656 175.265 20.1823 176.18 20.5014 177.17V177.17Z" fill="#AFB9BB" stroke="#2F2325" stroke-width="0.8" stroke-linecap="round" stroke-linejoin="round"/>
<path d="M30.1944 229.367C35.5285 227.441 38.3174 221.627 36.4236 216.382C34.5298 211.137 28.6704 208.446 23.3363 210.371C18.0022 212.297 15.2134 218.111 17.1072 223.356C19.001 228.601 24.8603 231.292 30.1944 229.367Z" fill="#AFB9BB" stroke="#2F2325" stroke-width="0.8" stroke-linecap="round" stroke-linejoin="round"/>
<path d="M66.8863 239.536C66.8863 247.087 63.836 254.329 58.4063 259.668C52.9767 265.008 45.6126 268.007 37.934 268.007C36.9689 268.007 36.0038 268.007 35.0966 267.893C33.9874 263.681 33.8749 259.274 34.7677 255.012C35.6605 250.75 37.5348 246.746 40.2467 243.308C42.9587 239.869 46.436 237.088 50.4116 235.177C54.3873 233.267 58.7554 232.277 63.1804 232.286C64.1262 232.286 65.1106 232.286 66.0177 232.419C66.6033 234.747 66.895 237.138 66.8863 239.536V239.536Z" fill="#AFB9BB" stroke="#2F2325" stroke-width="0.8" stroke-linecap="round" stroke-linejoin="round"/>
<path d="M212.672 325.177C217.588 304.518 204.542 283.852 183.534 279.018C162.526 274.184 141.51 287.013 136.594 307.671C131.678 328.33 144.724 348.996 165.732 353.83C186.74 358.664 207.756 345.836 212.672 325.177Z" fill="#AFB9BB"/>
<path d="M386.913 439.513L401.361 450.115L444.498 393.267L430.05 382.665L386.913 439.513Z" fill="#2F2325" stroke="#2F2325" stroke-width="1.79925" stroke-linecap="round" stroke-linejoin="round"/>
<path d="M433.795 397.57L444.576 383.362L350.367 314.233L339.586 328.441L433.795 397.57Z" fill="#2F2325" stroke="#2F2325" stroke-width="1.79925" stroke-linecap="round" stroke-linejoin="round"/>
<path d="M424.196 377.999C425.496 376.286 427.126 374.841 428.994 373.748C430.861 372.655 432.93 371.934 435.081 371.627C437.232 371.321 439.423 371.434 441.53 371.961C443.637 372.487 445.617 373.417 447.358 374.696L448.612 375.702C450.845 377.705 452.476 380.271 453.329 383.121C454.181 385.971 454.223 388.997 453.449 391.869C452.675 394.741 451.115 397.349 448.938 399.41C446.762 401.471 444.052 402.905 441.105 403.557C438.157 404.209 435.084 404.054 432.22 403.109C429.355 402.163 426.81 400.463 424.859 398.194C422.909 395.925 421.629 393.173 421.158 390.238C420.687 387.303 421.044 384.298 422.189 381.548C422.707 380.289 423.381 379.097 424.196 377.999Z" fill="#AFB9BB" stroke="#2F2325" stroke-width="0.8" stroke-linecap="round" stroke-linejoin="round"/>
<path d="M386.5 423.419C388.947 419.845 392.738 417.374 397.038 416.548C401.338 415.722 405.796 416.61 409.43 419.015C409.874 419.3 410.299 419.623 410.724 419.945C413.054 421.837 414.812 424.321 415.807 427.126C416.802 429.932 416.995 432.952 416.366 435.858C415.737 438.765 414.31 441.446 412.239 443.61C410.168 445.774 407.534 447.338 404.622 448.132C401.711 448.926 398.633 448.92 395.725 448.114C392.816 447.308 390.188 445.733 388.127 443.561C386.065 441.388 384.649 438.702 384.032 435.793C383.415 432.884 383.621 429.865 384.628 427.063C385.096 425.777 385.724 424.552 386.5 423.419V423.419Z" fill="#AFB9BB" stroke="#2F2325" stroke-width="0.8" stroke-linecap="round" stroke-linejoin="round"/>
<path d="M336.887 443.753L364.049 446.376L365.075 436.101L337.914 433.477L336.887 443.753Z" fill="#2F2325" stroke="#2F2325" stroke-width="1.79925" stroke-linecap="round" stroke-linejoin="round"/>
<path d="M335.235 430.537L348.63 431.827L347.067 447.429L333.672 446.139C331.568 445.937 329.632 444.922 328.289 443.317C326.946 441.711 326.306 439.647 326.511 437.578V437.578C326.721 435.508 327.757 433.604 329.392 432.284C331.028 430.964 333.129 430.335 335.235 430.537V430.537Z" fill="#AFB9BB" stroke="#2F2325" stroke-width="0.8" stroke-linecap="round" stroke-linejoin="round"/>
<path d="M362.064 437.18C364.185 434.071 366.91 431.404 370.08 429.332C373.251 427.26 376.807 425.823 380.543 425.103C384.279 424.384 388.123 424.397 391.854 425.14C395.586 425.883 399.132 427.343 402.289 429.436C403.08 429.967 403.833 430.518 404.566 431.106C408.647 434.422 411.725 438.775 413.465 443.691C415.206 448.608 415.543 453.899 414.439 458.991C413.335 464.082 410.832 468.778 407.203 472.568C403.575 476.359 398.959 479.098 393.857 480.489C388.756 481.879 383.364 481.868 378.269 480.456C373.174 479.044 368.57 476.285 364.958 472.479C361.345 468.674 358.863 463.967 357.782 458.871C356.7 453.775 357.059 448.485 358.821 443.576C359.621 441.317 360.71 439.167 362.064 437.18Z" fill="#AFB9BB" stroke="#2F2325" stroke-width="0.8" stroke-linecap="round" stroke-linejoin="round"/>
<path d="M330.873 466.751L366.774 440.349L372.545 447.923L336.644 474.305L330.873 466.751Z" fill="#2F2325" stroke="#2F2325" stroke-width="1.79925" stroke-linecap="round" stroke-linejoin="round"/>
<path d="M327.148 466.353L337.011 459.007L345.774 470.395L335.911 477.665C334.362 478.805 332.416 479.293 330.502 479.022C328.587 478.752 326.86 477.745 325.7 476.222V476.222C324.588 474.715 324.117 472.842 324.388 470.999C324.658 469.156 325.648 467.489 327.148 466.353V466.353Z" fill="#AFB9BB" stroke="#2F2325" stroke-width="0.8" stroke-linecap="round" stroke-linejoin="round"/>
<path d="M377.235 448.492C377.691 446.543 377.548 444.504 376.825 442.635C376.101 440.766 374.829 439.15 373.17 437.992C371.511 436.835 369.54 436.188 367.507 436.134C365.473 436.08 363.469 436.62 361.749 437.688C360.029 438.755 358.67 440.301 357.844 442.129C357.018 443.957 356.763 445.985 357.111 447.956C357.459 449.926 358.395 451.751 359.799 453.198C361.203 454.645 363.013 455.65 364.998 456.084C367.644 456.663 370.415 456.19 372.707 454.768C375 453.346 376.627 451.09 377.235 448.492Z" fill="#AFB9BB" stroke="#2F2325" stroke-width="0.8" stroke-linecap="round" stroke-linejoin="round"/>
<path d="M396.267 493.286L401.594 457.071L409.488 458.172L404.18 494.387L396.267 493.286Z" fill="#2F2325" stroke="#2F2325" stroke-width="1.79925" stroke-linecap="round" stroke-linejoin="round"/>
<path d="M393.854 495.203L395.302 485.238L407.288 486.927L405.84 496.873C405.729 497.649 405.463 498.395 405.059 499.069C404.654 499.743 404.118 500.333 403.482 500.803C402.846 501.274 402.121 501.617 401.35 501.812C400.579 502.007 399.776 502.051 398.988 501.941V501.941C397.399 501.715 395.967 500.879 395.004 499.616C394.041 498.353 393.628 496.766 393.854 495.203V495.203Z" fill="#AFB9BB" stroke="#2F2325" stroke-width="0.8" stroke-linecap="round" stroke-linejoin="round"/>
<path d="M412.576 455.799C411.668 454.407 410.36 453.311 408.818 452.649C407.276 451.987 405.569 451.789 403.913 452.081C402.256 452.373 400.725 453.14 399.513 454.287C398.3 455.434 397.46 456.908 397.099 458.524C396.738 460.14 396.872 461.825 397.484 463.366C398.097 464.907 399.16 466.236 400.539 467.183C401.918 468.13 403.552 468.654 405.235 468.689C406.917 468.724 408.571 468.267 409.99 467.378C411.893 466.178 413.234 464.285 413.719 462.115C414.204 459.944 413.793 457.673 412.576 455.799V455.799Z" fill="#AFB9BB" stroke="#2F2325" stroke-width="0.8" stroke-linecap="round" stroke-linejoin="round"/>
<path d="M360.732 488.465L384.666 451.187L392.792 456.198L368.878 493.495L360.732 488.465Z" fill="#2F2325" stroke="#2F2325" stroke-width="1.79925" stroke-linecap="round" stroke-linejoin="round"/>
<path d="M357.123 489.376L363.666 479.127L376.039 486.719L369.476 496.987C368.443 498.594 366.806 499.733 364.922 500.156C363.038 500.579 361.06 500.252 359.42 499.246V499.246C357.788 498.234 356.63 496.627 356.199 494.777C355.769 492.928 356.101 490.985 357.123 489.376V489.376Z" fill="#AFB9BB" stroke="#2F2325" stroke-width="0.8" stroke-linecap="round" stroke-linejoin="round"/>
<path d="M397.424 455.097C397.138 453.121 396.261 451.272 394.905 449.787C393.549 448.301 391.775 447.244 389.808 446.751C387.84 446.259 385.768 446.352 383.855 447.018C381.941 447.685 380.272 448.896 379.059 450.497C377.846 452.098 377.144 454.017 377.042 456.011C376.939 458.005 377.442 459.984 378.485 461.697C379.528 463.41 381.065 464.779 382.901 465.632C384.737 466.484 386.789 466.781 388.797 466.486C391.474 466.096 393.886 464.679 395.503 462.544C397.12 460.41 397.811 457.732 397.424 455.097V455.097Z" fill="#AFB9BB" stroke="#2F2325" stroke-width="0.8" stroke-linecap="round" stroke-linejoin="round"/>
<path d="M181.891 333.603C191.543 329.645 196.104 318.742 192.078 309.251C188.053 299.76 176.965 295.275 167.314 299.233C157.662 303.192 153.101 314.095 157.127 323.586C161.152 333.077 172.24 337.562 181.891 333.603Z" fill="#2F2325" stroke="#2F2325" stroke-width="1.79925" stroke-linecap="round" stroke-linejoin="round"/>
<path d="M353.086 349.394C371.228 337.91 376.468 314.138 364.789 296.298C353.111 278.457 328.937 273.305 310.795 284.789C292.653 296.273 287.413 320.045 299.091 337.885C310.77 355.725 334.944 360.878 353.086 349.394Z" fill="#AFB9BB"/>
<path d="M349.167 324.868C353.527 315.521 349.355 304.468 339.85 300.181C330.345 295.893 319.105 299.995 314.745 309.342C310.385 318.689 314.557 329.742 324.062 334.029C333.567 338.317 344.807 334.215 349.167 324.868Z" fill="#2F2325" stroke="#2F2325" stroke-width="1.79925" stroke-linecap="round" stroke-linejoin="round"/>
<path d="M342.545 240.294C356.021 223.68 364.454 203.663 366.875 182.545C369.297 161.427 365.607 140.065 356.231 120.918C346.855 101.77 332.174 85.6136 313.875 74.3065C295.576 62.9994 274.404 57.0009 252.793 57.0009C231.181 57.0009 210.009 62.9994 191.71 74.3065C173.412 85.6136 158.73 101.77 149.354 120.918C139.978 140.065 136.289 161.427 138.71 182.545C141.131 203.663 149.564 223.68 163.04 240.294H342.545Z" fill="#AFB9BB"/>
<path d="M323.05 127.284H179.717C170.997 127.284 163.928 134.235 163.928 142.81V192.767C163.928 201.342 170.997 208.293 179.717 208.293H323.05C331.77 208.293 338.839 201.342 338.839 192.767V142.81C338.839 134.235 331.77 127.284 323.05 127.284Z" fill="#0B525B" stroke="#054850" stroke-width="1.79925" stroke-linecap="round" stroke-linejoin="round"/>
<path d="M182.844 164.505C184.739 159.286 188.194 154.751 192.755 151.496C197.317 148.241 202.772 146.417 208.406 146.263C214.039 146.109 219.589 147.633 224.327 150.634C229.065 153.635 232.771 157.974 234.958 163.081" stroke="#2F2325" stroke-width="8.99623" stroke-linecap="round" stroke-linejoin="round"/>
<path d="M269.295 164.505C271.191 159.286 274.646 154.751 279.207 151.496C283.768 148.241 289.223 146.417 294.857 146.263C300.491 146.109 306.04 147.633 310.778 150.634C315.517 153.635 319.222 157.974 321.409 163.081" stroke="#2F2325" stroke-width="8.99623" stroke-linecap="round" stroke-linejoin="round"/>
<path d="M401.285 169.745C398.101 169.745 395.048 168.501 392.796 166.287C390.545 164.073 389.28 161.07 389.28 157.939V131.082C389.277 129.53 389.586 127.993 390.188 126.558C390.79 125.124 391.674 123.82 392.789 122.722C393.904 121.623 395.229 120.752 396.687 120.158C398.144 119.563 399.707 119.257 401.285 119.257C402.864 119.255 404.427 119.558 405.886 120.15C407.344 120.742 408.67 121.612 409.787 122.708C410.904 123.805 411.79 125.107 412.395 126.541C412.999 127.974 413.31 129.511 413.31 131.063V157.92C413.313 159.474 413.004 161.013 412.4 162.448C411.797 163.884 410.911 165.189 409.794 166.287C408.677 167.386 407.35 168.257 405.89 168.85C404.43 169.443 402.865 169.748 401.285 169.745Z" fill="#2F2325" fill-opacity="0.68" stroke="#2F2325" stroke-width="1.79925" stroke-linecap="round" stroke-linejoin="round"/>
<path d="M100.915 169.745C99.3365 169.748 97.7732 169.444 96.3144 168.852C94.8556 168.26 93.5298 167.391 92.413 166.294C91.2961 165.197 90.4101 163.895 89.8055 162.462C89.201 161.028 88.8898 159.491 88.8898 157.939V131.082C88.8873 129.528 89.1966 127.99 89.8 126.554C90.4034 125.118 91.289 123.813 92.4061 122.715C93.5233 121.616 94.8499 120.746 96.31 120.152C97.77 119.559 99.3348 119.255 100.915 119.257V119.257C102.491 119.257 104.052 119.562 105.509 120.156C106.966 120.749 108.289 121.619 109.404 122.715C110.519 123.811 111.403 125.113 112.006 126.545C112.61 127.977 112.92 129.513 112.92 131.063V157.92C112.923 159.472 112.614 161.01 112.012 162.444C111.41 163.879 110.526 165.182 109.411 166.281C108.296 167.379 106.971 168.25 105.513 168.845C104.056 169.439 102.493 169.745 100.915 169.745V169.745Z" fill="#2F2325" fill-opacity="0.68" stroke="#2F2325" stroke-width="1.79925" stroke-linecap="round" stroke-linejoin="round"/>
<path d="M139.402 48.5549C128.782 63.9848 123.121 82.1956 123.15 100.827V120.339" stroke="#2F2325" stroke-opacity="0.68" stroke-width="25.1894" stroke-linecap="round" stroke-linejoin="round"/>
<path d="M367.315 48.6308C358.624 35.8985 346.881 25.4655 333.12 18.2526C319.359 11.0397 304.004 7.26866 288.41 7.27236H218.249C202.677 7.2617 187.341 11.0161 173.591 18.2051C159.842 25.3941 148.101 35.797 139.402 48.4979" stroke="#2F2325" stroke-opacity="0.68" stroke-width="12.5947" stroke-linecap="round" stroke-linejoin="round"/>
<path d="M383.489 120.339V100.827C383.519 82.2304 377.885 64.0509 367.314 48.6308" stroke="#2F2325" stroke-opacity="0.68" stroke-width="25.1894" stroke-linecap="round" stroke-linejoin="round"/>
<path d="M132.724 99.3276H116.626C107.309 99.3276 99.7565 106.755 99.7565 115.917V170.751C99.7565 179.913 107.309 187.34 116.626 187.34H132.724C142.04 187.34 149.593 179.913 149.593 170.751V115.917C149.593 106.755 142.04 99.3276 132.724 99.3276Z" fill="#0F90A0" stroke="#2F2325" stroke-width="1.79925" stroke-linecap="round" stroke-linejoin="round"/>
<path d="M127.223 99.3276H122.146V187.34H127.223V99.3276Z" fill="#E68E7B" stroke="#2F2325" stroke-width="1.79925" stroke-linecap="round" stroke-linejoin="round"/>
<path d="M386.964 99.3276H370.866C361.549 99.3276 353.996 106.755 353.996 115.917V170.751C353.996 179.913 361.549 187.34 370.866 187.34H386.964C396.28 187.34 403.833 179.913 403.833 170.751V115.917C403.833 106.755 396.28 99.3276 386.964 99.3276Z" fill="#0F90A0" stroke="#2F2325" stroke-width="1.79925" stroke-linecap="round" stroke-linejoin="round"/>
<path d="M381.462 99.3276H376.386V187.34H381.462V99.3276Z" fill="#4D194D" stroke="#2F2325" stroke-width="1.79925" stroke-linecap="round" stroke-linejoin="round"/>
<path d="M129.076 101H124V189.012H129.076V101Z" fill="#4D194D" stroke="#2F2325" stroke-width="1.79925" stroke-linecap="round" stroke-linejoin="round"/>
<path d="M253.237 111.284C262.029 111.286 270.682 109.123 278.407 104.992C286.131 100.861 292.68 94.8933 297.457 87.6341L308.343 71.0642C291.092 61.6962 271.68 56.8538 251.975 57.0034C232.269 57.153 212.935 62.2895 195.834 71.9183L212.221 91.9237C217.151 97.961 223.394 102.834 230.493 106.185C237.591 109.535 245.363 111.278 253.237 111.284Z" fill="#0B525B"/>
<path d="M329.87 267.76C305.299 262.313 252.104 260.358 252.104 260.358C239.287 260.757 203.618 262.256 179.047 267.779C174.396 268.819 170.348 271.619 167.783 275.574C165.217 279.529 164.341 284.319 165.343 288.905L188.1 393.601C189.218 398.677 192.067 403.226 196.174 406.491C200.281 409.757 205.401 411.544 210.683 411.556H298.408C303.69 411.544 308.809 409.757 312.917 406.491C317.024 403.226 319.873 398.677 320.991 393.601L343.728 288.905C344.727 284.295 343.83 279.484 341.233 275.522C338.636 271.56 334.551 268.77 329.87 267.76Z" fill="#AFB9BB"/>
<path d="M318.675 265.748C292.019 261.838 252.162 260.358 252.162 260.358C232.646 260.908 213.175 262.492 193.832 265.103L219.619 411.556H289.703L318.675 265.748Z" fill="#0B525B"/>
<path d="M275.169 292.188H232.474C223.754 292.188 216.685 299.14 216.685 307.714V328.213C216.685 336.788 223.754 343.739 232.474 343.739H275.169C283.889 343.739 290.958 336.788 290.958 328.213V307.714C290.958 299.14 283.889 292.188 275.169 292.188Z" fill="#75A3AC"/>
<path d="M241.352 313.427H229.328V325.252H241.352V313.427Z" fill="#0B525B" stroke="#2F2325" stroke-width="0.8" stroke-linecap="round" stroke-linejoin="round"/>
<path d="M259.824 313.427H247.799V325.252H259.824V313.427Z" fill="#0B525B" stroke="#2F2325" stroke-width="0.8" stroke-linecap="round" stroke-linejoin="round"/>
<path d="M278.315 313.427H266.29V325.252H278.315V313.427Z" fill="#0B525B" stroke="#2F2325" stroke-width="0.8" stroke-linecap="round" stroke-linejoin="round"/>
</svg>
